<svg width="63" height="56" viewBox="0 0 63 56" fill="none" xmlns="http://www.w3.org/2000/svg">
<path d="M0 53.6675V10.1732C0.519442 8.74558 1.55016 8.20817 3.04152 8.27841C4.54757 8.35029 6.06016 8.29638 7.57112 8.29311C7.7851 8.29311 7.99745 8.27025 8.25554 8.25391C8.25554 7.95989 8.25554 7.73937 8.25554 7.51722C8.25554 5.88538 8.24247 4.25192 8.26044 2.62008C8.27514 1.20387 9.14251 0.192753 10.4493 0.0343067C10.7106 0.00163733 10.9785 0.0147051 11.2448 0.0147051C27.4063 0.0130716 43.5662 0.0228724 59.7277 3.86304e-06C61.2191 -0.0016296 62.2465 0.514546 62.7251 1.96506V45.4594C62.1779 46.8985 61.1227 47.4473 59.6101 47.3526C58.4716 47.2807 57.3249 47.3379 56.1814 47.3379C55.6359 47.3379 55.0887 47.3379 54.4696 47.3379C54.4696 47.6303 54.4696 47.8491 54.4696 48.068C54.4696 49.6819 54.4777 51.2941 54.4663 52.9064C54.4549 54.6182 53.4601 55.6065 51.7629 55.6163C51.6404 55.6163 51.5179 55.6163 51.3954 55.6163C35.2861 55.6163 19.1769 55.6065 3.06928 55.6326C1.55506 55.6342 0.508008 55.1279 0 53.6659L0 53.6675ZM10.2957 11.5698C10.2957 11.8198 10.2957 12.0387 10.2957 12.2575C10.2957 22.9567 10.2957 33.6559 10.2957 44.3568C10.2957 45.2928 10.3235 45.3222 11.2562 45.3222C27.4275 45.3222 43.5972 45.3222 59.7685 45.3222C60.6424 45.3222 60.6751 45.2911 60.6751 44.4336C60.6751 33.6935 60.6751 22.9535 60.6751 12.2118C60.6751 11.9978 60.6506 11.7838 60.6392 11.5698H10.2957ZM2.05 19.8515V20.5948C2.05 31.2711 2.05 41.9474 2.05 52.6238C2.05 53.2477 2.37016 53.5603 3.01048 53.5614C14.9103 53.5614 26.8101 53.5614 38.7099 53.5614C43.0173 53.5614 47.3232 53.5614 51.6306 53.5614C52.3787 53.5614 52.4261 53.5124 52.4277 52.7561C52.431 51.5522 52.4277 50.3467 52.4277 49.1428C52.4277 48.5597 52.4277 47.9766 52.4277 47.3379H51.5587C39.5152 47.3379 27.4733 47.3379 15.4297 47.3379C13.8992 47.3379 12.3686 47.3313 10.8364 47.3411C10.152 47.346 9.54761 47.1615 9.04287 46.6926C8.41072 46.1062 8.25064 45.3532 8.25064 44.5234C8.25717 36.5619 8.25391 28.6004 8.25391 20.6405C8.25391 20.384 8.25391 20.1292 8.25391 19.8532H2.05V19.8515ZM10.2974 9.47084H60.6751C60.6751 9.21439 60.6751 8.99387 60.6751 8.77335C60.6751 6.87526 60.6751 4.97718 60.6751 3.07909C60.6751 2.40828 60.337 2.07287 59.6607 2.07287C43.558 2.07287 27.4569 2.07287 11.3542 2.07287C11.1909 2.07287 11.0275 2.07941 10.8642 2.07287C10.4852 2.05817 10.2941 2.22805 10.2941 2.61518C10.2957 4.87917 10.2941 7.14315 10.2941 9.47248L10.2974 9.47084ZM8.22124 17.7444V10.3447C8.01052 10.3317 7.83247 10.3121 7.65442 10.3121C6.04546 10.3104 4.43486 10.3284 2.8259 10.3006C2.24438 10.2908 2.03367 10.4934 2.0402 11.0798C2.0647 13.1576 2.04837 15.2353 2.05163 17.3148C2.05163 17.4503 2.07124 17.5859 2.08267 17.7427H8.22124V17.7444Z" fill="#020202"/>
<path d="M29.5249 22.238C29.5249 22.8261 29.5674 23.339 29.5037 23.8372C29.4775 24.0348 29.2505 24.2733 29.0528 24.3746C26.9473 25.4511 24.8287 26.5014 22.7134 27.5615C22.5337 27.6513 22.3605 27.7494 22.1171 27.88C24.3174 28.981 26.4295 30.0852 28.5873 31.0931C29.3256 31.4377 29.6817 31.8347 29.5331 32.6481C29.4874 32.8964 29.5266 33.161 29.5266 33.522C28.2443 32.8621 27.0551 32.2496 25.866 31.6354C23.9809 30.6635 22.1073 29.6703 20.2076 28.7327C19.7013 28.4828 19.8711 28.1054 19.8483 27.751C19.8287 27.4341 19.8025 27.1548 20.206 26.9522C23.2132 25.4478 26.2041 23.9091 29.2015 22.3801C29.2717 22.3442 29.3469 22.3164 29.5266 22.238H29.5249Z" fill="#020202"/>
<path d="M41.3006 33.4894C41.3006 32.8833 41.2614 32.3541 41.3218 31.8379C41.343 31.6631 41.5913 31.4655 41.7824 31.3691C43.8929 30.3041 46.0115 29.2554 48.1268 28.2018C48.3228 28.1038 48.514 28.0009 48.7868 27.8604C47.8622 27.4014 47.0063 26.9767 46.152 26.552C44.7113 25.8349 43.2787 25.0999 41.8233 24.4105C41.41 24.2145 41.2418 23.9809 41.2891 23.5285C41.33 23.1332 41.2973 22.7297 41.2973 22.238C41.5668 22.3605 41.7481 22.4341 41.9229 22.5239C44.7733 23.976 47.6188 25.4396 50.479 26.8722C50.8956 27.0813 51.0279 27.3296 50.9952 27.7706C50.9642 28.1937 51.0164 28.553 50.5019 28.8095C47.6058 30.26 44.7341 31.7611 41.8527 33.2427C41.6975 33.3227 41.5325 33.3864 41.3006 33.491V33.4894Z" fill="#020202"/>
<path d="M31.6876 34.146C31.815 33.7866 31.9016 33.522 32.0012 33.2623C33.6984 28.8307 35.4087 24.4024 37.083 19.961C37.2692 19.466 37.5126 19.2994 38.0075 19.3501C38.3701 19.3876 38.7393 19.3566 39.2032 19.3566C39.1166 19.5902 39.0513 19.7682 38.9827 19.9446C37.2381 24.4677 35.4854 28.9875 33.7572 33.5171C33.5808 33.981 33.3685 34.226 32.8425 34.1542C32.5027 34.1084 32.1515 34.146 31.6909 34.146H31.6876Z" fill="#020202"/>
<path d="M17.0272 6.60899C16.4376 6.60899 15.8479 6.62369 15.2582 6.60572C14.5803 6.58612 14.1229 6.15488 14.1246 5.575C14.1278 4.99349 14.5852 4.56552 15.2664 4.55735C16.4457 4.54265 17.6251 4.54265 18.8061 4.55735C19.4807 4.56552 19.9446 5.00656 19.9414 5.58317C19.9381 6.15978 19.4758 6.58448 18.7963 6.60409C18.2066 6.62042 17.6169 6.60735 17.0272 6.60735V6.60899Z" fill="#020202"/>
<path d="M25.6601 4.55414C26.2498 4.55414 26.8395 4.54108 27.4291 4.55741C28.1136 4.57538 28.553 4.99518 28.5481 5.58813C28.5432 6.17944 28.1021 6.59598 27.4128 6.60414C26.2334 6.62048 25.0541 6.62211 23.8747 6.60414C23.1805 6.59271 22.7591 6.17781 22.764 5.57179C22.7689 4.96741 23.1936 4.57374 23.8927 4.55741C24.4824 4.54271 25.072 4.55414 25.6617 4.55414H25.6601Z" fill="#020202"/>
</svg>
