<svg width="279" height="211" viewBox="0 0 279 211" fill="none" xmlns="http://www.w3.org/2000/svg">
<path d="M145.613 0.0321045H0.649734V119.078H145.613V0.0321045Z" fill="#37474F"/>
<path d="M146.078 119.603H0L0.557373 0H145.521L146.078 119.603Z" fill="#263238"/>
<path d="M145.613 0.0321045H0.649734V10.5138H145.613V0.0321045Z" fill="#89DDA1"/>
<path d="M10.4043 5.32605C10.4043 6.78141 9.21213 7.97357 7.75677 7.97357C6.30141 7.97357 5.10924 6.78141 5.10924 5.32605C5.10924 3.87069 6.30141 2.67853 7.75677 2.67853C9.21213 2.67853 10.4043 3.87069 10.4043 5.32605Z" fill="#A6A6A6"/>
<path d="M21.1802 5.32605C21.1802 6.78141 19.988 7.97357 18.5326 7.97357C17.0773 7.97357 15.8851 6.78141 15.8851 5.32605C15.8851 3.87069 17.0773 2.67853 18.5326 2.67853C19.988 2.67853 21.1802 3.87069 21.1802 5.32605Z" fill="#EBEBEB"/>
<path d="M31.956 5.32605C31.956 6.78141 30.7639 7.97357 29.3085 7.97357C27.8531 7.97357 26.661 6.78141 26.661 5.32605C26.661 3.87069 27.8531 2.67853 29.3085 2.67853C30.7639 2.67853 31.956 3.87069 31.956 5.32605Z" fill="white"/>
<path d="M17.4179 31.3522H11.8132V33.3959H17.4179V31.3522Z" fill="#EBEBEB"/>
<path d="M85.8199 31.3522H21.5053V33.3959H85.8199V31.3522Z" fill="#EBEBEB"/>
<path d="M99.909 31.3522H89.257V33.3959H99.909V31.3522Z" fill="white"/>
<path d="M124.263 58.7563H113.611V60.8H124.263V58.7563Z" fill="#EBEBEB"/>
<path d="M120.625 31.3522H102.216V33.3959H120.625V31.3522Z" fill="#A6A6A6"/>
<path d="M23.0226 36.833H17.4179V38.8767H23.0226V36.833Z" fill="#EBEBEB"/>
<path d="M69.1761 36.833H26.9706V38.8767H69.1761V36.833Z" fill="#A6A6A6"/>
<path d="M111.072 58.7563H86.3618V60.8H111.072V58.7563Z" fill="#A6A6A6"/>
<path d="M61.8219 53.2755H21.5053V55.3192H61.8219V53.2755Z" fill="#A6A6A6"/>
<path d="M55.2573 42.3139H26.9706V44.3576H55.2573V42.3139Z" fill="white"/>
<path d="M107.17 47.7947H96.379V49.8384H107.17V47.7947Z" fill="#A6A6A6"/>
<path d="M103.547 42.3139H58.3848V44.3576H103.547V42.3139Z" fill="#A6A6A6"/>
<path d="M75.4156 58.7563H21.5053V60.8H75.4156V58.7563Z" fill="white"/>
<path d="M130.239 36.833H101.024V38.8767H130.239V36.833Z" fill="white"/>
<path d="M98.7169 36.833H71.8236V38.8767H98.7169V36.833Z" fill="#EBEBEB"/>
<path d="M123.814 42.3139H105.669V44.3576H123.814V42.3139Z" fill="#EBEBEB"/>
<path d="M23.0226 42.3139H17.4179V44.3576H23.0226V42.3139Z" fill="#EBEBEB"/>
<path d="M17.4179 47.7947H11.8132V49.8384H17.4179V47.7947Z" fill="#A6A6A6"/>
<path d="M54.638 47.7947H21.5053V49.8384H54.638V47.7947Z" fill="#EBEBEB"/>
<path d="M60.1033 64.2372H26.9706V66.2809H60.1033V64.2372Z" fill="#EBEBEB"/>
<path d="M113.936 69.718H88.7461V71.7617H113.936V69.718Z" fill="#A6A6A6"/>
<path d="M96.0074 64.2372H62.7818V66.2809H96.0074V64.2372Z" fill="white"/>
<path d="M85.8508 69.718H56.9294V71.7617H85.8508V69.718Z" fill="white"/>
<path d="M54.638 71.7772L39.0625 71.7617V69.718L54.638 69.7335V71.7772Z" fill="#EBEBEB"/>
<path d="M36.5699 69.718H26.9706V71.7617H36.5699V69.718Z" fill="#A6A6A6"/>
<path d="M99.8935 53.2755H64.0823V55.3192H99.8935V53.2755Z" fill="#EBEBEB"/>
<path d="M125.006 53.2755H102.216V55.3192H125.006V53.2755Z" fill="white"/>
<path d="M93.7625 47.7947H57.9977V49.8384H93.7625V47.7947Z" fill="white"/>
<path d="M17.4179 53.2755H11.8132V55.3192H17.4179V53.2755Z" fill="#EBEBEB"/>
<path d="M17.4179 58.7563H11.8132V60.8H17.4179V58.7563Z" fill="#EBEBEB"/>
<path d="M23.0226 64.2372H17.4179V66.2809H23.0226V64.2372Z" fill="#A6A6A6"/>
<path d="M23.0226 69.718H17.4179V71.7617H23.0226V69.718Z" fill="#EBEBEB"/>
<path d="M17.4179 74.3008H11.8132V76.3445H17.4179V74.3008Z" fill="#EBEBEB"/>
<path d="M60.7381 74.3008H21.5053V76.3445H60.7381V74.3008Z" fill="#EBEBEB"/>
<path d="M23.0226 79.7817H17.4179V81.8254H23.0226V79.7817Z" fill="#EBEBEB"/>
<path d="M69.1761 79.7817H26.9706V81.8254H69.1761V79.7817Z" fill="#A6A6A6"/>
<path d="M61.8219 96.2242H21.5053V98.2679H61.8219V96.2242Z" fill="#A6A6A6"/>
<path d="M55.2573 85.2625H26.9706V87.3062H55.2573V85.2625Z" fill="white"/>
<path d="M103.547 85.2625H58.3848V87.3062H103.547V85.2625Z" fill="#A6A6A6"/>
<path d="M75.4156 101.705H21.5053V103.749H75.4156V101.705Z" fill="white"/>
<path d="M130.239 79.7817H101.024V81.8254H130.239V79.7817Z" fill="white"/>
<path d="M98.7169 79.7817H71.8236V81.8254H98.7169V79.7817Z" fill="#EBEBEB"/>
<path d="M123.814 85.2625H105.669V87.3062H123.814V85.2625Z" fill="#EBEBEB"/>
<path d="M23.0226 85.2625H17.4179V87.3062H23.0226V85.2625Z" fill="#EBEBEB"/>
<path d="M17.4179 90.7433H11.8132V92.787H17.4179V90.7433Z" fill="#A6A6A6"/>
<path d="M54.638 90.7433H21.5053V92.787H54.638V90.7433Z" fill="#EBEBEB"/>
<path d="M99.8935 96.2242H64.0823V98.2679H99.8935V96.2242Z" fill="#EBEBEB"/>
<path d="M93.7625 90.7433H57.9977V92.787H93.7625V90.7433Z" fill="white"/>
<path d="M17.4179 96.2242H11.8132V98.2679H17.4179V96.2242Z" fill="#EBEBEB"/>
<path d="M15.2658 25.9642C15.4516 26.1345 15.4671 26.4287 15.2968 26.6145C15.2968 26.6145 15.2813 26.63 15.2658 26.6455C15.1729 26.7384 15.0491 26.7848 14.9252 26.7848C14.7858 26.7848 14.662 26.7384 14.5691 26.6455L12.417 24.4624V24.3695V24.2921L14.5691 22.0936C14.7704 21.9078 15.0645 21.9078 15.2658 22.0936C15.4516 22.2794 15.4671 22.5736 15.2813 22.7748C15.2813 22.7748 15.2813 22.7748 15.2658 22.7903L13.4389 24.6327L15.2658 25.9642Z" fill="white"/>
<path d="M17.2321 26.1965L19.121 21.722C19.1984 21.5053 19.4461 21.3969 19.6629 21.4898C19.6629 21.4898 19.6629 21.4898 19.6784 21.4898C19.8951 21.5827 19.988 21.8304 19.8951 22.0472L18.0062 26.4752C17.9288 26.63 17.7895 26.7229 17.6192 26.7229C17.5727 26.7229 17.5108 26.7229 17.4643 26.7229C17.2631 26.6455 17.1547 26.4132 17.2321 26.212V26.1965Z" fill="white"/>
<path d="M23.6109 24.4005L21.4588 26.5835C21.3659 26.6764 21.2421 26.7229 21.1027 26.7229C20.9789 26.7229 20.855 26.6764 20.7621 26.5835C20.5763 26.4132 20.5608 26.1191 20.7312 25.9333C20.7312 25.9333 20.7466 25.9178 20.7621 25.9023L22.5736 24.1218L20.7467 22.2794C20.5609 22.0936 20.5454 21.7994 20.7312 21.5982C20.7312 21.5982 20.7312 21.5982 20.7467 21.5827C20.9479 21.3969 21.2421 21.3969 21.4434 21.5827L23.5954 23.7812V23.8586V24.0754V24.1528V24.4005H23.6109Z" fill="white"/>
<path d="M278.33 91.0065H102.402V210.052H278.33V91.0065Z" fill="#37474F"/>
<path d="M278.888 210.609H101.86L102.402 91.0065H278.33L278.888 210.609Z" fill="#37474F"/>
<path d="M278.33 91.0065H102.402V101.488H278.33V91.0065Z" fill="#89DDA1"/>
<path d="M112.249 96.3326C112.249 97.7879 111.056 98.9801 109.601 98.9801C108.146 98.9801 106.954 97.7879 106.954 96.3326C106.954 94.8772 108.146 93.685 109.601 93.685C111.056 93.685 112.249 94.8772 112.249 96.3326Z" fill="#A6A6A6"/>
<path d="M120.377 98.9645C121.831 98.9645 123.009 97.7861 123.009 96.3325C123.009 94.8789 121.831 93.7005 120.377 93.7005C118.923 93.7005 117.745 94.8789 117.745 96.3325C117.745 97.7861 118.923 98.9645 120.377 98.9645Z" fill="#EBEBEB"/>
<path d="M133.8 96.3326C133.8 97.7879 132.608 98.9801 131.153 98.9801C129.698 98.9801 128.505 97.7879 128.505 96.3326C128.505 94.8772 129.698 93.685 131.153 93.685C132.608 93.685 133.785 94.8462 133.8 96.3016C133.8 96.3016 133.8 96.3171 133.8 96.3326Z" fill="white"/>
<path d="M119.262 122.359H113.658V124.402H119.262V122.359Z" fill="#EBEBEB"/>
<path d="M156.699 122.359H123.35V124.402H156.699V122.359Z" fill="#EBEBEB"/>
<path d="M252.335 122.359H238.555V124.402H252.335V122.359Z" fill="white"/>
<path d="M170.788 122.359H160.136V124.402H170.788V122.359Z" fill="white"/>
<path d="M235.861 122.359H194.74V124.402H235.861V122.359Z" fill="#EBEBEB"/>
<path d="M247.984 149.763H215.455V151.807H247.984V149.763Z" fill="#EBEBEB"/>
<path d="M191.504 122.359H173.095V124.402H191.504V122.359Z" fill="#A6A6A6"/>
<path d="M124.867 127.84H119.262V129.883H124.867V127.84Z" fill="#EBEBEB"/>
<path d="M171.02 127.84H128.815V129.883H171.02V127.84Z" fill="#A6A6A6"/>
<path d="M212.932 149.763H188.222V151.807H212.932V149.763Z" fill="#A6A6A6"/>
<path d="M163.666 144.282H123.35V146.326H163.666V144.282Z" fill="#A6A6A6"/>
<path d="M157.102 133.32H128.815V135.364H157.102V133.32Z" fill="white"/>
<path d="M256.469 133.32H228.182V135.364H256.469V133.32Z" fill="white"/>
<path d="M209.015 138.801H198.223V140.845H209.015V138.801Z" fill="#A6A6A6"/>
<path d="M205.392 133.32H160.229V135.364H205.392V133.32Z" fill="#A6A6A6"/>
<path d="M177.26 149.763H123.35V151.807H177.26V149.763Z" fill="white"/>
<path d="M215.378 127.84H186.162V129.883H215.378V127.84Z" fill="white"/>
<path d="M183.84 127.84H173.668V129.883H183.84V127.84Z" fill="#EBEBEB"/>
<path d="M261.206 127.84H218.707V129.883H261.206V127.84Z" fill="#EBEBEB"/>
<path d="M225.658 133.32H207.513V135.364H225.658V133.32Z" fill="#EBEBEB"/>
<path d="M124.867 133.32H119.262V135.364H124.867V133.32Z" fill="#EBEBEB"/>
<path d="M119.262 138.801H113.658V140.845H119.262V138.801Z" fill="#A6A6A6"/>
<path d="M156.482 138.801H123.35V140.845H156.482V138.801Z" fill="#EBEBEB"/>
<path d="M244.129 138.801H210.996V140.845H244.129V138.801Z" fill="#EBEBEB"/>
<path d="M161.948 155.244H128.815V157.287H161.948V155.244Z" fill="#EBEBEB"/>
<path d="M200.809 160.725H175.619V162.768H200.809V160.725Z" fill="white"/>
<path d="M197.852 155.244H164.626V157.287H197.852V155.244Z" fill="white"/>
<path d="M171.547 160.725H142.625V162.768H171.547V160.725Z" fill="#EBEBEB"/>
<path d="M138.414 160.725H128.815V162.768H138.414V160.725Z" fill="#A6A6A6"/>
<path d="M226.851 160.725H203.395V162.768H226.851V160.725Z" fill="#A6A6A6"/>
<path d="M201.753 144.282H165.942V146.326H201.753V144.282Z" fill="#EBEBEB"/>
<path d="M226.851 144.282H204.06V146.326H226.851V144.282Z" fill="white"/>
<path d="M195.607 138.801H159.842V140.845H195.607V138.801Z" fill="white"/>
<path d="M119.262 144.282H113.658V146.326H119.262V144.282Z" fill="#EBEBEB"/>
<path d="M119.262 149.763H113.658V151.807H119.262V149.763Z" fill="#EBEBEB"/>
<path d="M124.867 155.244H119.262V157.287H124.867V155.244Z" fill="#A6A6A6"/>
<path d="M234.437 155.244H200.592V157.287H234.437V155.244Z" fill="#A6A6A6"/>
<path d="M124.867 160.725H119.262V162.768H124.867V160.725Z" fill="#EBEBEB"/>
<path d="M119.262 165.307H113.658V167.351H119.262V165.307Z" fill="#EBEBEB"/>
<path d="M187.664 165.307H123.35V167.351H187.664V165.307Z" fill="#EBEBEB"/>
<path d="M124.867 170.788H119.262V172.832H124.867V170.788Z" fill="#EBEBEB"/>
<path d="M171.02 170.788H128.815V172.832H171.02V170.788Z" fill="#A6A6A6"/>
<path d="M163.666 187.231H123.35V189.274H163.666V187.231Z" fill="#A6A6A6"/>
<path d="M157.102 176.269H128.815V178.313H157.102V176.269Z" fill="white"/>
<path d="M205.392 176.269H160.229V178.313H205.392V176.269Z" fill="#A6A6A6"/>
<path d="M177.26 192.711H123.35V194.755H177.26V192.711Z" fill="white"/>
<path d="M232.084 170.788H202.868V172.832H232.084V170.788Z" fill="white"/>
<path d="M200.561 170.788H173.668V172.832H200.561V170.788Z" fill="#EBEBEB"/>
<path d="M225.658 176.269H207.513V178.313H225.658V176.269Z" fill="#EBEBEB"/>
<path d="M124.867 176.269H119.262V178.313H124.867V176.269Z" fill="#EBEBEB"/>
<path d="M119.262 181.75H113.658V183.794H119.262V181.75Z" fill="#A6A6A6"/>
<path d="M219.853 181.75H198.007V183.794H219.853V181.75Z" fill="#A6A6A6"/>
<path d="M156.482 181.75H123.35V183.794H156.482V181.75Z" fill="#EBEBEB"/>
<path d="M241.745 181.75H223.305V183.794H241.745V181.75Z" fill="#EBEBEB"/>
<path d="M201.753 187.231H165.942V189.274H201.753V187.231Z" fill="#EBEBEB"/>
<path d="M195.607 181.75H159.842V183.794H195.607V181.75Z" fill="white"/>
<path d="M119.262 187.231H113.658V189.274H119.262V187.231Z" fill="#EBEBEB"/>
<path d="M117.11 116.955C117.296 117.141 117.311 117.451 117.11 117.637C116.924 117.822 116.615 117.838 116.414 117.637L114.246 115.438L116.414 113.24C116.599 113.054 116.909 113.054 117.095 113.24C117.28 113.425 117.296 113.719 117.11 113.921C117.11 113.921 117.11 113.921 117.095 113.936L115.268 115.779L117.095 116.94L117.11 116.955Z" fill="white"/>
<path d="M119.077 117.203L120.965 112.713C121.058 112.496 121.306 112.403 121.523 112.496C121.724 112.589 121.832 112.822 121.739 113.038L119.851 117.544C119.789 117.699 119.634 117.791 119.464 117.791C119.417 117.791 119.355 117.791 119.309 117.791C119.092 117.729 118.968 117.497 119.046 117.296C119.046 117.265 119.061 117.234 119.077 117.203Z" fill="white"/>
<path d="M125.455 115.392L123.21 117.652C123.117 117.745 122.993 117.791 122.854 117.791C122.575 117.791 122.374 117.544 122.374 117.28C122.374 117.157 122.421 117.048 122.514 116.955L124.34 115.128L122.514 113.286C122.328 113.1 122.312 112.806 122.498 112.605C122.498 112.605 122.498 112.605 122.514 112.589C122.715 112.403 123.009 112.403 123.21 112.589L125.362 114.788V114.881L125.455 115.392Z" fill="white"/>
<path d="M84.1632 184.568H49.9003V129.883H51.4486V183.019H84.1632V184.568Z" fill="#263238"/>
<path d="M82.8008 188.423L90.8208 183.794L82.8008 179.164V188.423Z" fill="#263238"/>
</svg>
