<svg width="192" height="220" viewBox="0 0 192 220" fill="none" xmlns="http://www.w3.org/2000/svg">
<path d="M0.740723 150.949L118.31 151.017L118.378 0.096085L31.0944 0.050293L0.809393 28.7787L0.740723 150.949Z" fill="#EBEBEB"/>
<path d="M31.0943 0.050293L0.809326 28.7787L31.0714 28.8015L31.0943 0.050293Z" fill="#DBDBDB"/>
<path d="M106.91 25.3908H41.5327V29.2594H106.91V25.3908Z" fill="#DBDBDB"/>
<path d="M106.91 35.1653H41.5327V39.0339H106.91V35.1653Z" fill="#DBDBDB"/>
<path d="M106.91 44.9627H41.5327V48.8312H106.91V44.9627Z" fill="#DBDBDB"/>
<path d="M106.887 54.7372H11.1104V58.6058H106.887V54.7372Z" fill="#DBDBDB"/>
<path d="M106.887 64.5116H11.1104V68.3802H106.887V64.5116Z" fill="#DBDBDB"/>
<path d="M106.887 74.2862H11.1104V78.1548H106.887V74.2862Z" fill="#DBDBDB"/>
<path d="M106.864 84.0836H11.0874V87.9522H106.864V84.0836Z" fill="#DBDBDB"/>
<path d="M106.864 93.8581H11.0874V97.7267H106.864V93.8581Z" fill="#DBDBDB"/>
<path d="M106.864 103.633H11.0874V107.501H106.864V103.633Z" fill="#DBDBDB"/>
<path d="M106.864 113.43H11.0874V117.299H106.864V113.43Z" fill="#DBDBDB"/>
<path d="M106.864 123.204H11.0874V127.073H106.864V123.204Z" fill="#DBDBDB"/>
<path d="M106.841 132.979H11.0645V136.848H106.841V132.979Z" fill="#DBDBDB"/>
<path d="M37.4351 185.4L155.004 185.468L155.095 34.5472L67.7887 34.5014L37.5038 63.2298L37.4351 185.4Z" fill="#DBDBDB"/>
<path d="M67.7888 34.5014L37.5039 63.2298L67.7888 63.2527V34.5014Z" fill="#C7C7C7"/>
<path d="M143.604 59.8419H78.2271V63.7105H143.604V59.8419Z" fill="#C7C7C7"/>
<path d="M143.604 69.6163H78.2271V73.4849H143.604V69.6163Z" fill="#C7C7C7"/>
<path d="M143.604 79.4138H78.2271V83.2824H143.604V79.4138Z" fill="#C7C7C7"/>
<path d="M143.581 89.1654H47.8049V93.034H143.581V89.1654Z" fill="#C7C7C7"/>
<path d="M143.581 98.9628H47.8049V102.831H143.581V98.9628Z" fill="#C7C7C7"/>
<path d="M143.581 108.737H47.8049V112.606H143.581V108.737Z" fill="#C7C7C7"/>
<path d="M143.581 118.512H47.8049V122.38H143.581V118.512Z" fill="#C7C7C7"/>
<path d="M143.581 128.309H47.8049V132.178H143.581V128.309Z" fill="#C7C7C7"/>
<path d="M143.558 138.084H47.782V141.952H143.558V138.084Z" fill="#C7C7C7"/>
<path d="M143.558 147.858H47.782V151.727H143.558V147.858Z" fill="#C7C7C7"/>
<path d="M143.558 157.656H47.782V161.524H143.558V157.656Z" fill="#C7C7C7"/>
<path d="M143.558 167.43H47.782V171.299H143.558V167.43Z" fill="#C7C7C7"/>
<path d="M74.1523 219.851L191.721 219.897L191.79 68.9983L104.506 68.9525L74.221 97.6809L74.1523 219.851Z" fill="#C7C7C7"/>
<path d="M104.506 68.9525L74.2212 97.6809L104.483 97.7038L104.506 68.9525Z" fill="#A6A6A6"/>
<path d="M180.321 94.293H114.944V98.1616H180.321V94.293Z" fill="#A6A6A6"/>
<path d="M180.321 104.068H114.944V107.936H180.321V104.068Z" fill="#A6A6A6"/>
<path d="M180.298 113.842H114.921V117.711H180.298V113.842Z" fill="#A6A6A6"/>
<path d="M180.298 123.617H84.522V127.485H180.298V123.617Z" fill="#A6A6A6"/>
<path d="M180.298 133.414H84.522V137.283H180.298V133.414Z" fill="#A6A6A6"/>
<path d="M180.298 143.188H84.522V147.057H180.298V143.188Z" fill="#A6A6A6"/>
<path d="M180.276 152.963H84.4993V156.832H180.276V152.963Z" fill="#A6A6A6"/>
<path d="M180.276 162.76H84.4993V166.629H180.276V162.76Z" fill="#A6A6A6"/>
<path d="M180.276 172.535H84.4993V176.403H180.276V172.535Z" fill="#A6A6A6"/>
<path d="M180.276 182.309H84.4993V186.178H180.276V182.309Z" fill="#A6A6A6"/>
<path d="M180.253 192.084H84.4763V195.952H180.253V192.084Z" fill="#A6A6A6"/>
<path d="M180.253 201.881H84.4763V205.75H180.253V201.881Z" fill="#A6A6A6"/>
</svg>
