<svg width="387" height="230" viewBox="0 0 387 230" fill="none" xmlns="http://www.w3.org/2000/svg">
<path d="M0 217.342L48.31 217.131L96.62 217.051L193.24 216.91L289.86 217.051L338.17 217.131L386.48 217.342L338.17 217.563L289.86 217.642L193.24 217.783L96.62 217.642L48.31 217.563L0 217.342Z" fill="#263238"/>
<path d="M94.0551 108.761C101.812 142.51 117.853 182.967 124.702 189.534C133.366 197.836 190.684 213.067 193.54 213.376C200.591 214.09 214.808 163.135 207.263 162.034C195.805 160.377 154.061 158.111 151.567 155.547C149.073 152.982 131.356 130.647 113.252 105.553C100.754 88.2157 89.2338 87.8191 94.0551 108.761Z" fill="#AD6359"/>
<path d="M187.863 210.626C188.701 211.049 200.679 217.078 208.083 219.22C213.609 220.824 229.633 225.011 232.004 219.096C233.626 215.077 224.486 211.507 218.087 208.837C214.711 207.426 210.551 203.901 211.547 201.733C213.31 197.942 221.974 201.733 227.686 205.064C238.73 211.481 253.44 223.036 260.183 217.404C262.73 215.289 259.769 211.428 255.441 207.647C262.492 212.054 269.967 215.668 272.884 213.429C274.568 212.151 274.647 210.397 273.713 208.405C275.881 209.11 277.794 208.969 279.133 207.523C281.416 205.126 280.306 201.6 277.802 197.978C278.675 197.89 279.451 197.378 279.883 196.62C284.721 189.243 260.492 168.063 252.127 166.08C227.492 160.218 201.525 161.311 201.525 161.311C191.847 169.076 187.837 210.608 187.863 210.626Z" fill="#AD6359"/>
<path d="M224.089 187.947C229.96 188.864 235.556 191.014 240.528 194.267C246.777 198.392 250.919 203.222 256.155 208.079C256.208 208.14 256.19 208.237 256.129 208.29C256.084 208.325 256.014 208.334 255.961 208.299C253.467 205.99 243.119 197.299 240.448 195.325C235.618 191.693 230.021 189.199 224.089 188.044C224.01 188.044 224.028 187.93 224.089 187.947Z" fill="#263238"/>
<path d="M228.681 177.485C235.16 179.248 241.797 181.01 247.808 184.113C254.383 187.462 259.531 192.927 264.555 198.215C267.596 201.371 270.566 204.606 273.466 207.911C273.58 208.052 273.395 208.272 273.272 208.131C268.133 202.702 262.845 197.413 257.407 192.266C252.374 187.489 246.442 183.752 239.955 181.266C236.253 179.847 232.445 178.728 228.637 177.599C228.585 177.582 228.611 177.467 228.681 177.485Z" fill="#263238"/>
<path d="M235.601 168.345C241.894 169.64 247.385 170.742 252.955 174.109C260.333 178.578 267.455 186.096 269.949 188.767C272.708 191.711 275.37 194.743 277.979 197.819C278.084 197.942 277.873 198.136 277.758 198.013C271.782 191.27 265.366 184.915 258.57 179.001C255.371 176.136 251.748 173.783 247.835 172.02C243.868 170.46 239.77 169.244 235.592 168.389C235.592 168.389 235.548 168.336 235.601 168.345Z" fill="#263238"/>
<path d="M197.559 159.284L179.931 215.13C179.931 215.13 132.203 201.503 123.521 192.098C114.839 182.694 98.7002 134.128 93.967 110.586C89.2338 87.0434 101.133 87.6692 112.071 102.468C123.009 117.267 150.245 153.281 151.735 154.066C153.224 154.85 197.559 159.284 197.559 159.284Z" fill="#92E3A9"/>
<path opacity="0.1" d="M197.559 159.284L179.931 215.13C179.931 215.13 132.203 201.503 123.521 192.098C114.839 182.694 98.7002 134.128 93.967 110.586C89.2338 87.0434 101.133 87.6692 112.071 102.468C123.009 117.267 150.245 153.281 151.735 154.066C153.224 154.85 197.559 159.284 197.559 159.284Z" fill="black"/>
<path d="M175.347 190.318C177.489 183.734 179.675 177.168 181.561 170.504C182.637 166.723 183.73 162.933 184.77 159.143C184.814 158.993 184.576 158.914 184.523 159.055C182.117 165.577 179.719 172.126 177.613 178.754C175.506 185.382 173.364 191.975 171.355 198.559C170.218 202.332 169.186 206.122 168.279 209.956C168.279 210.026 168.384 210.071 168.411 210C171.037 203.557 173.197 196.946 175.347 190.318Z" fill="#263238"/>
<path d="M155.86 207.453L153.744 206.712C149.769 205.293 145.715 203.768 141.898 202.208C141.404 202.014 140.92 201.812 140.444 201.609C139.677 201.292 138.91 200.965 138.17 200.639L137.059 200.154L136.662 199.978L135.517 199.449C134.001 198.753 132.564 198.057 131.224 197.352L130.343 196.858C128.245 195.783 126.271 194.487 124.455 192.989C124.287 192.839 124.12 192.689 123.97 192.539C123.82 192.389 123.662 192.239 123.529 192.098C114.803 182.694 98.709 134.128 93.9758 110.586L93.8172 109.775V109.599C93.4999 107.836 93.2178 105.597 92.9886 103.2C92.3276 91.4856 97.8716 89.573 104.72 94.7204C121.793 131.361 147.944 191.904 155.86 207.453Z" fill="#263238"/>
<path d="M131.101 216.831L27.0946 217.377C27.1827 215.138 41.9904 149.65 53.766 125.481C68.8645 94.4912 76.6826 91.988 81.2924 90.3309C87.2419 88.1979 97.8364 89.2556 100.348 90.4455C103.204 91.7764 112.283 107.624 115.535 119.25C122.04 142.634 132.564 215.403 131.101 216.831Z" fill="#EBEBEB"/>
<path d="M75.9599 92.7815C75.9599 92.7815 89.181 141.744 89.842 144.996C90.838 149.72 97.431 217.131 97.431 217.131L24.9351 217.377C24.9351 217.377 40.7564 154.974 52.532 127.65C65.3829 97.6821 75.9599 92.7815 75.9599 92.7815Z" fill="#92E3A9"/>
<g opacity="0.1">
<path d="M75.9599 92.7815C75.9599 92.7815 89.181 141.744 89.842 144.996C90.838 149.72 97.431 217.131 97.431 217.131L24.9351 217.377C24.9351 217.377 40.7564 154.974 52.532 127.65C65.3829 97.6821 75.9599 92.7815 75.9599 92.7815Z" fill="black"/>
</g>
<path d="M101.3 91.2039C101.688 92.764 113.878 132.542 114.724 142.458C115.667 153.458 124.005 217.377 124.005 217.377H134.582C134.582 217.377 119.272 125.544 115.068 115.839C106.465 96.034 101.3 91.2039 101.3 91.2039Z" fill="#92E3A9"/>
<path opacity="0.1" d="M101.3 91.2039C101.688 92.764 113.878 132.542 114.724 142.458C115.667 153.458 124.005 217.377 124.005 217.377H134.582C134.582 217.377 119.272 125.544 115.068 115.839C106.465 96.034 101.3 91.2039 101.3 91.2039Z" fill="black"/>
<path d="M62.2716 104.231C44.8549 122.89 2.51207 193.685 15.9447 206.598C29.3774 219.51 103.953 202.129 124.896 192.143C131.127 189.181 107.453 150.329 100.128 149.421C94.0287 148.672 62.8621 162.924 61.9543 161.135C60.9406 159.107 65.8942 144.15 73.4126 117.064C82.0416 85.8448 69.9751 95.981 62.2716 104.231Z" fill="#AD6359"/>
<path d="M131.083 136.887C146.226 134.772 150.474 136.561 162.276 127.994C170.041 122.37 176.969 124.918 172.536 133.846C165.291 148.46 146.323 155.282 139.042 155.758L131.083 136.887Z" fill="#AD6359"/>
<path d="M90.8557 151.448C90.8557 151.448 107.876 141.999 123.794 138.156C134.794 135.512 159.385 132.383 182.919 156.666C188.498 162.422 192.367 174.585 179.843 168.495C170.94 164.167 166.622 158.737 160.972 157.16C160.972 157.16 164.057 173.21 158.072 178.578C152.845 183.267 147.283 187.577 141.44 191.482C140.479 190.574 139.58 189.613 138.743 188.591C138.743 188.591 132.678 193.077 121.273 191.984L90.8557 151.448Z" fill="#AD6359"/>
<path d="M134.706 137.345C139.994 140.087 151.021 146.089 158.354 154.145C166.507 163.1 179.79 182.526 173.118 188.52C168.235 192.883 162.541 185.876 162.541 185.876C162.541 185.876 166.339 195.069 161.06 198.039C156.256 200.754 152.149 195.095 152.149 195.095C152.149 195.095 153.497 201.062 148.359 202.781C142.189 204.844 140.373 191.993 132.308 188.679C130.466 187.885 134.706 137.345 134.706 137.345Z" fill="#AD6359"/>
<path d="M147.469 161.144C151.99 164.537 160.293 174.876 162.585 185.585C162.638 185.832 162.488 185.999 162.391 185.788C158.407 177.027 153.374 168.777 147.407 161.223C147.336 161.144 147.407 161.144 147.469 161.144Z" fill="#263238"/>
<path d="M138.672 169.631C142.277 172.963 150.36 183.998 152.307 194.937C152.352 195.184 152.184 195.342 152.105 195.122C148.579 186.167 144.04 177.635 138.593 169.702C138.54 169.649 138.593 169.587 138.672 169.631Z" fill="#263238"/>
<path d="M160.972 157.054C165.908 158.508 169.116 160.932 173.311 163.823C175.356 165.286 177.472 166.626 179.666 167.851C181.676 168.935 184.646 170.575 186.779 168.873C187.978 167.93 187.96 166.229 187.661 164.845C187.061 162.845 186.145 160.95 184.946 159.231C184.946 159.16 185.008 159.081 185.061 159.143C186.215 160.703 187.211 162.386 188.022 164.149C188.56 165.357 188.71 166.705 188.472 168.001C187.74 170.716 184.532 171.077 182.302 170.328C180.953 169.834 179.649 169.2 178.424 168.45C177.225 167.763 176.061 167.022 174.898 166.247C172.553 164.66 170.306 162.942 167.979 161.329C165.722 159.813 163.36 158.438 160.928 157.221C160.884 157.204 160.866 157.151 160.884 157.107C160.901 157.071 160.936 157.054 160.972 157.054Z" fill="#263238"/>
<path d="M171.311 174.417C170.033 171.606 163.114 159.883 160.875 157.168C160.857 157.133 160.866 157.089 160.901 157.071C160.928 157.054 160.954 157.054 160.972 157.071C164.823 160.72 171.002 170.407 172.43 173.51C173.858 176.612 175.497 180.499 175.497 183.91C175.497 189.066 172.077 190.08 170.817 190.3C169.31 190.574 167.75 190.318 166.41 189.578C164.841 188.617 163.484 187.348 162.426 185.841C162.373 185.77 162.47 185.673 162.532 185.744C164.295 187.78 167.291 189.78 170.085 189.41C171.337 189.296 172.492 188.67 173.276 187.691C174.043 186.449 174.334 184.977 174.105 183.54C173.69 180.367 172.747 177.282 171.311 174.417Z" fill="#263238"/>
<path d="M90.8557 151.448L114.724 201.688C114.724 201.688 21.3654 222.648 13.3093 206.395C5.25326 190.142 41.5144 126.539 57.8469 108.012C76.7884 86.5412 79.2034 93.848 75.0344 112.878C70.6273 132.797 62.2275 161.602 62.2275 161.602L90.8557 151.448Z" fill="#92E3A9"/>
<path opacity="0.1" d="M90.8557 151.448L114.724 201.688C114.724 201.688 21.3654 222.648 13.3093 206.395C5.25326 190.142 41.5144 126.539 57.8469 108.012C76.7884 86.5412 79.2034 93.848 75.0344 112.878C70.6273 132.797 62.2275 161.602 62.2275 161.602L90.8557 151.448Z" fill="black"/>
<path d="M33.855 174.973C42.4663 168.988 51.9238 164.334 61.9102 161.143C64.7395 160.262 67.5953 159.425 70.451 158.605C70.5392 158.605 70.5744 158.72 70.451 158.746C65.4711 160.359 60.5881 162.263 55.8285 164.44C51.0777 166.555 46.371 168.759 41.7259 171.042C39.0817 172.337 36.508 173.756 33.9167 175.14C33.8638 175.131 33.8197 175.07 33.8373 175.017C33.8373 174.999 33.8462 174.99 33.855 174.973Z" fill="#263238"/>
<path d="M90.6089 151.316C90.1417 151.439 64.6073 159.874 63.77 160.262C63.8757 159.874 68.4591 146.301 69.1466 144.309C69.2083 144.115 69.27 143.912 69.3405 143.718C69.7988 142.837 70.2748 141.955 70.7067 141.074C71.2531 139.919 71.7996 138.747 72.3373 137.548M72.2844 137.548L70.5216 140.959C70.2483 141.479 69.9927 142.017 69.7371 142.555C70.1866 141.153 70.6185 139.743 71.0504 138.324C71.7379 136.076 72.3549 133.802 72.9631 131.528C72.9631 131.449 72.8749 131.431 72.8485 131.528C71.4911 135.486 70.0103 139.399 68.6442 143.357C67.278 147.314 62.0248 161.866 62.0688 161.866C62.1129 161.866 90.1858 151.942 90.7323 151.721C90.8468 151.686 90.9085 151.571 90.8733 151.457C90.838 151.342 90.7234 151.281 90.6089 151.316L72.2844 137.548Z" fill="#263238"/>
<path d="M92.3276 184.06C89.6834 178.463 87.1185 172.831 84.2892 167.314C82.6762 164.185 81.0808 161.047 79.4414 157.935C79.3797 157.821 79.1682 157.935 79.2211 158.032C81.6361 163.761 84.0688 169.491 86.7483 175.123C89.4278 180.755 92.0367 186.317 94.7603 191.87C96.3116 195.025 97.9598 198.128 99.705 201.186C99.705 201.248 99.846 201.186 99.8196 201.186C97.5984 195.351 94.9806 189.719 92.3276 184.06Z" fill="#263238"/>
<path d="M115.932 202.464C114.997 200.913 113.816 198.691 112.82 197.175C112.556 196.779 112.247 196.858 112.459 197.272C113.173 198.683 113.763 200.26 114.46 201.679C113.155 201.944 111.816 202.173 110.529 202.446C109.013 202.764 107.505 203.09 105.989 203.398C103.019 203.989 100.04 204.57 97.0696 205.161C91.0407 206.28 84.9855 207.268 78.9126 208.123C66.7403 209.903 54.4799 211.058 42.1931 211.569C38.7556 211.692 35.3093 211.754 31.8718 211.71C28.4784 211.71 25.0938 211.551 21.718 211.216C21.621 211.216 21.6034 211.366 21.718 211.384C24.6178 212.001 27.5705 212.38 30.532 212.53C33.6434 212.679 36.7636 212.75 39.8838 212.715C46.0536 212.644 52.2852 212.239 58.4639 211.675C70.7155 210.546 82.9318 208.889 95.0423 206.748C98.4358 206.157 101.829 205.522 105.205 204.835C106.915 204.491 108.616 204.147 110.317 203.768C112.018 203.389 116.09 202.728 115.932 202.464Z" fill="#263238"/>
<path d="M101.318 109.475C95.1481 111.177 84.1041 102.054 79.5913 94.4915C79.2828 93.9714 79.8909 88.3657 80.3052 81.5171C80.5432 77.3657 80.7018 72.703 80.5432 68.4899C80.5432 67.6085 107.364 73.9723 107.364 73.9723C107.364 73.9723 105.073 82.945 105.39 90.3312C105.417 90.9218 105.505 91.5123 105.637 92.094C105.663 92.191 105.681 92.2791 105.69 92.3761C106.351 95.6461 107.285 107.827 101.318 109.475Z" fill="#AD6359"/>
<path d="M82.1826 68.5957C83.681 75.7175 88.7755 92.8609 102.966 92.6582C103.874 92.6493 104.782 92.57 105.681 92.4114C105.69 92.3144 105.69 92.2174 105.681 92.1205C105.549 91.5388 105.461 90.9482 105.425 90.3577C105.117 82.9627 107.4 73.9811 107.4 73.9811C107.4 73.9811 87.9911 69.3978 82.1826 68.5957Z" fill="#263238"/>
<path d="M110.564 55.7711C110.264 62.2759 114.654 67.7583 120.365 68.0227C126.077 68.2871 130.942 63.2102 131.233 56.7054C131.524 50.2006 127.134 44.7183 121.432 44.4626C115.729 44.207 110.855 49.2663 110.564 55.7711Z" fill="#455A64"/>
<path d="M130.189 57.0729C130.516 49.8369 125.633 43.7381 119.282 43.4508C112.931 43.1635 107.518 48.7965 107.19 56.0326C106.863 63.2686 111.746 69.3674 118.097 69.6547C124.448 69.942 129.862 64.3089 130.189 57.0729Z" fill="#C7C7C7"/>
<path d="M84.0424 34.7407C79.4238 43.449 79.1329 71.1341 84.5624 78.3792C92.4334 88.868 107.902 92.7198 117.439 82.6981C126.72 72.9498 126.456 36.8649 120.154 30.0164C110.89 19.9066 90.8645 21.8809 84.0424 34.7407Z" fill="#AD6359"/>
<path d="M107.065 56.1412C107.065 56.0707 106.915 56.2382 106.924 56.3175C107.021 58.1773 106.827 60.3279 105.161 60.9801C105.108 60.9801 105.117 61.0947 105.161 61.0859C107.223 60.751 107.453 57.8952 107.065 56.1412Z" fill="#263238"/>
<path d="M105.355 54.2376C102.349 54.0789 102.252 60.0989 105.029 60.24C107.805 60.381 107.876 54.3698 105.355 54.2376Z" fill="#263238"/>
<path d="M117.501 56.3705C117.501 56.3 117.642 56.4674 117.642 56.538C117.554 58.4065 117.765 60.5572 119.404 61.2006C119.457 61.2006 119.404 61.3152 119.404 61.3064C117.368 60.9803 117.113 58.1245 117.501 56.3705Z" fill="#263238"/>
<path d="M119.202 54.493C122.199 54.3079 122.34 60.3279 119.554 60.4953C116.769 60.6628 116.681 54.5987 119.202 54.493Z" fill="#263238"/>
<path d="M102.658 49.4249C103.539 49.3809 104.271 49.1958 105.108 49.0724C105.989 49.0547 106.844 48.7462 107.532 48.191C107.911 47.7502 107.946 47.1156 107.62 46.6397C106.836 45.8111 105.663 45.4762 104.562 45.7583C103.416 45.8464 102.34 46.3664 101.556 47.2126C101.08 47.7943 101.168 48.6493 101.75 49.1252C102.005 49.328 102.323 49.4426 102.658 49.4249Z" fill="#263238"/>
<path d="M122.031 50.0859C121.229 49.9096 120.436 49.6893 119.651 49.4249C118.787 49.3191 117.977 48.9313 117.351 48.3231C117.025 47.8471 117.069 47.2037 117.448 46.7718C118.329 46.0403 119.528 45.8287 120.603 46.2342C121.731 46.4721 122.727 47.1156 123.406 48.0499C123.794 48.6933 123.582 49.5306 122.939 49.9096C122.666 50.0683 122.348 50.13 122.031 50.0859Z" fill="#263238"/>
<path d="M103.663 73.4256C104.103 73.8663 104.544 74.4745 105.214 74.545C105.91 74.545 106.589 74.3864 107.223 74.1043C107.259 74.1043 107.303 74.1219 107.303 74.1572C107.303 74.1748 107.303 74.1836 107.303 74.2013C106.756 74.9417 105.84 75.3207 104.923 75.1796C104.147 74.9593 103.574 74.307 103.477 73.505C103.451 73.3992 103.592 73.3551 103.663 73.4256Z" fill="#263238"/>
<path d="M105.716 67.8728C106.651 69.38 108.167 70.4289 109.903 70.7638C110.652 70.9225 111.419 70.9754 112.186 70.9137C112.336 70.9137 112.477 70.896 112.626 70.8696L113.032 70.8079C113.235 70.7726 113.393 70.6052 113.42 70.4024C113.42 70.3407 113.42 70.2702 113.42 70.2085V70.0411C113.481 68.6044 113.42 66.4185 113.42 66.4185C113.94 66.6917 116.602 67.9433 116.566 67.1941C116.302 60.9714 116.002 54.0611 114.425 47.9353C114.407 47.8384 114.31 47.7767 114.213 47.8031C114.151 47.8208 114.098 47.8736 114.081 47.9353C114.081 53.9201 115.174 59.8608 115.288 65.872C114.345 65.4137 113.34 65.0964 112.309 64.9113C112.106 64.973 112.582 69.1332 112.503 69.7766C112.503 69.8031 112.503 69.8207 112.503 69.8472C110.079 70.1116 108.272 69.3536 105.963 67.6965C105.751 67.5996 105.602 67.7142 105.716 67.8728Z" fill="#263238"/>
<path d="M111.348 70.1644C110.546 71.1781 109.497 71.9713 108.299 72.4561C107.638 72.7029 106.915 72.7382 106.236 72.5531C104.755 72.13 104.738 70.7902 105.029 69.6003C105.187 68.9834 105.425 68.3928 105.725 67.8375C107.303 69.1949 109.277 70.0058 111.348 70.1644Z" fill="#263238"/>
<path d="M108.299 72.4561C107.638 72.7029 106.915 72.7382 106.236 72.5531C104.755 72.13 104.738 70.7902 105.029 69.6003C106.624 69.7943 108.184 70.9048 108.299 72.4561Z" fill="#FF98B9"/>
<path opacity="0.2" d="M80.5784 54.2904C82.3941 53.9995 86.7483 47.8561 88.5904 45.4146C90.4326 42.9731 91.4991 29.8842 91.6666 26.905C88.4318 28.7295 85.7876 31.4443 84.0336 34.7143C81.9711 38.6278 80.7812 46.3225 80.5784 54.2904Z" fill="#263238"/>
<path d="M114.187 37.7463C112.001 40.1437 108.722 41.2455 105.531 40.6461C102.27 40.0468 99.5551 37.7992 98.3564 34.7143C98.3564 34.6173 98.1801 34.6702 98.2154 34.7583C99.185 38.1253 101.944 40.6814 105.381 41.3953C108.792 41.9066 112.212 40.5668 114.363 37.8697C114.38 37.808 114.345 37.7463 114.283 37.7287C114.248 37.7287 114.213 37.7287 114.187 37.7463Z" fill="#263238"/>
<path d="M105.231 14.2832C99.7931 14.2303 94.7162 17.0773 92.6097 20.7087C91.4374 22.78 91.0055 25.1862 91.3757 27.5308C91.3757 27.6277 91.5784 27.6101 91.5696 27.5308C91.4726 23.3176 93.6938 19.3866 97.3428 17.28C101.327 14.8385 106.219 14.4066 110.564 16.1165C112.653 16.8922 114.398 18.3817 115.482 20.3297C115.588 20.5324 115.993 20.4178 115.914 20.2151C114.539 16.76 110.141 14.3273 105.231 14.2832Z" fill="#263238"/>
<path d="M136.389 27.0548C135.587 24.3489 133.851 22.0131 131.489 20.453C128.219 18.2848 124.437 18.4699 120.7 18.7343C120.656 18.7343 120.621 18.7695 120.621 18.8136C120.621 18.8577 120.656 18.8929 120.7 18.8929C123.891 18.6814 127.143 18.6461 130.017 20.2415C132.405 21.5372 134.274 23.6173 135.305 26.1381C137.323 31.4795 135.111 37.4907 130.105 40.2407C127.249 41.7126 123.917 41.9506 120.885 40.8841C120.762 40.84 120.674 41.0075 120.788 41.0604C126.817 43.4402 133.63 40.4786 136.001 34.4498C136.927 32.0964 137.068 29.4963 136.407 27.0548H136.389Z" fill="#263238"/>
<path d="M82.0768 40.0733C82.0768 40.0733 77.2643 30.175 81.7771 24.7103C84.3332 21.6166 92.4245 22.3217 92.4245 22.3217C92.4245 22.3217 95.201 17.7648 101.97 16.4691C108.739 15.1735 116.725 19.413 116.725 19.413C116.725 19.413 123.3 15.9667 129.206 19.6334C137.447 24.7456 135.931 37.5172 127.311 41.3249C121.264 43.9691 113.384 38.4515 113.384 38.4515C112.6 38.5308 104.473 43.026 98.7266 35.7191C98.7266 35.7191 93.685 39.8793 89.4101 36.6798C87.9205 39.2359 84.9943 40.5933 82.0768 40.0733Z" fill="#263238"/>
<path d="M85.5407 57.6396C85.5407 57.6396 80.9662 47.9441 76.6561 49.3896C72.3461 50.8351 74.7347 64.2502 79.0536 66.771C81.2395 68.2518 84.2098 67.6788 85.6906 65.5018C85.7258 65.4489 85.7611 65.396 85.7963 65.3343L85.5407 57.6396Z" fill="#AD6359"/>
<path d="M77.4318 53.2063C77.3613 53.2063 77.326 53.2944 77.4318 53.3297C80.4462 55.1983 81.6361 58.5036 82.2884 61.8265C81.5392 60.4603 80.3316 59.5789 78.5336 60.4427C78.4807 60.4779 78.4719 60.5396 78.5071 60.5925C78.5247 60.6189 78.56 60.6366 78.5864 60.6366C79.8204 60.4691 81.0279 61.0949 81.6009 62.1967C82.0592 63.1045 82.4206 64.0564 82.6762 65.0348C82.7819 65.3521 83.3284 65.2816 83.2755 64.929C83.2755 64.9026 83.2755 64.8762 83.2755 64.8497C84.0159 60.7335 81.8036 54.3962 77.4318 53.2063Z" fill="#263238"/>
<path d="M95.5095 77.1628L86.8276 73.4168L79.8468 64.7261L81.1866 63.642L87.9029 72.0065L96.197 75.5851L95.5095 77.1628Z" fill="#C7C7C7"/>
<path d="M94.584 75.779C95.4654 73.2494 102.517 74.1837 101.239 78.009C99.9606 81.8343 93.729 78.291 94.584 75.779Z" fill="#37474F"/>
<path d="M76.5239 49.1254C76.5239 49.1254 75.5808 34.9082 79.7411 27.0901C84.3773 18.3554 103.592 10.0437 116.76 19.4307C116.76 19.4307 95.3685 15.6054 85.3997 27.7159C81.2042 32.8105 81.31 49.522 81.31 49.522L76.5239 49.1254Z" fill="#C7C7C7"/>
<path d="M78.4636 69.5494C84.8207 69.4861 89.9158 63.5632 89.8437 56.3201C89.7717 49.0771 84.5598 43.2567 78.2026 43.3199C71.8455 43.3832 66.7504 49.3061 66.8225 56.5492C66.8945 63.7922 72.1065 69.6126 78.4636 69.5494Z" fill="#C7C7C7"/>
<path d="M86.4839 55.9385C86.5456 62.4521 81.9711 67.7758 76.2595 67.8287C70.548 67.8816 65.8589 62.6548 65.7972 56.1412C65.7355 49.6276 70.31 44.3039 76.0216 44.251C81.7331 44.1981 86.4222 49.4249 86.4839 55.9385Z" fill="#455A64"/>
<path d="M105.584 91.9353L99.37 107.624L79.8204 87.8984L74.338 94.2798C74.338 94.2798 93.5087 125.667 93.6233 124.248L100.013 110.718L109.374 120.07L108.493 96.501L105.584 91.9353Z" fill="#EBEBEB"/>
<path d="M109.603 108.391C109.33 104.504 109.171 100.582 108.722 96.7126C108.722 96.5804 108.493 96.5187 108.457 96.7126C107.699 100.476 108.819 115.328 108.819 118.898H108.775C108.387 118.492 100.102 110.674 100.022 110.797C98.6385 112.948 93.9406 122.793 93.6233 123.692C90.5912 118.704 77.7579 99.0571 74.1441 94.3416C74.1089 94.2799 74.0296 94.2534 73.9679 94.2975C73.9062 94.3328 73.8797 94.4121 73.915 94.4738C76.5592 99.7623 93.2178 125.684 93.447 125.614C95.9237 120.969 98.1537 116.192 100.137 111.318C101.538 113.019 109.894 121.85 109.921 121.269C110.044 116.976 109.938 112.675 109.603 108.391Z" fill="#263238"/>
<path d="M207.29 218.435H201.243V222.384H207.29V218.435Z" fill="#455A64"/>
<path d="M215.125 218.171H209.079V222.119H215.125V218.171Z" fill="#455A64"/>
<path d="M222.97 217.906H216.923V221.855H222.97V217.906Z" fill="#455A64"/>
<path d="M230.814 217.651H224.768V221.599H230.814V217.651Z" fill="#455A64"/>
<path d="M238.659 217.386H232.613V221.335H238.659V217.386Z" fill="#455A64"/>
<path d="M246.504 217.131H240.457V221.079H246.504V217.131Z" fill="#455A64"/>
<path d="M254.348 216.866H248.302V220.815H254.348V216.866Z" fill="#455A64"/>
<path d="M262.193 216.602H256.146V220.551H262.193V216.602Z" fill="#455A64"/>
<path d="M270.028 216.346H263.982V220.295H270.028V216.346Z" fill="#455A64"/>
<path d="M271.518 224.649H199.754V219.846L271.518 217.845V224.649Z" fill="#37474F"/>
<path d="M341.555 205.708H223.093L241.929 117.514H360.39L341.555 205.708Z" fill="#455A64"/>
<path d="M345.935 205.708H227.474L246.31 117.514H364.771L345.935 205.708Z" fill="#37474F"/>
<path d="M303.625 161.452C306.839 158.482 307.388 153.848 304.851 151.103C302.314 148.357 297.651 148.539 294.437 151.509C291.223 154.479 290.674 159.112 293.212 161.858C295.749 164.604 300.411 164.422 303.625 161.452Z" fill="#263238"/>
<path d="M312.433 228.739H254.172V224.208L312.433 222.331V228.739Z" fill="#455A64"/>
<path d="M328.272 228.73H296.991L278.146 179.31H309.427L328.272 228.73Z" fill="#455A64"/>
<path d="M333.419 228.73H302.138L283.302 179.31H314.584L333.419 228.73Z" fill="#263238"/>
<path d="M197.541 229.937H137.473C132.352 229.937 139.765 215.341 158.477 209.744C177.19 204.147 203.447 224.464 197.541 229.937Z" fill="#37474F"/>
<path d="M173.972 229.937C174.016 228.272 174.299 226.623 174.792 225.037C175.277 223.433 175.956 221.899 176.811 220.462C177.674 219.017 178.75 217.712 180.001 216.593C181.244 215.465 182.672 214.575 184.223 213.949C183.58 214.478 182.848 214.83 182.258 215.421L181.376 216.205L180.495 217.087C179.384 218.25 178.406 219.537 177.586 220.921C176.758 222.304 176.044 223.759 175.453 225.266C174.854 226.791 174.36 228.351 173.972 229.937Z" fill="#263238"/>
<path d="M181.085 216.047C184.655 217.228 188.031 218.92 191.107 221.079C192.658 222.155 194.069 223.433 195.294 224.87C195.893 225.61 196.413 226.403 196.836 227.258C197.259 228.104 197.497 229.039 197.541 229.982C197.33 229.083 196.968 228.228 196.457 227.461C195.981 226.685 195.417 225.971 194.782 225.319C193.496 224.015 192.094 222.833 190.596 221.793C189.106 220.718 187.528 219.757 185.951 218.805C185.157 218.329 184.347 217.871 183.536 217.43C182.725 216.99 181.905 216.496 181.085 216.047Z" fill="#263238"/>
<path d="M201.843 29.7166C200.3 44.3745 187.167 54.9954 172.509 53.453C166.815 52.8536 161.465 50.4385 157.252 46.5604L143.881 48.5523L150.562 37.0147C148.896 32.9514 148.262 28.5355 148.729 24.1638C150.166 9.49712 163.219 -1.23843 177.886 0.198263C192.552 1.63496 203.288 14.6886 201.851 29.3553C201.843 29.4787 201.825 29.5932 201.816 29.7166H201.843Z" fill="white"/>
<path d="M201.843 29.7167C201.331 34.6349 199.463 39.3152 196.457 43.2463C195.708 44.2246 194.906 45.1501 194.042 46.0315C193.152 46.8777 192.209 47.6709 191.222 48.4113C189.256 49.9097 187.088 51.1172 184.787 51.9987C182.487 52.8977 180.063 53.4794 177.604 53.7086C176.37 53.8232 175.127 53.8496 173.893 53.7791C172.65 53.7527 171.416 53.6204 170.2 53.4001C165.273 52.4922 160.698 50.2358 156.979 46.8777L157.296 46.9746L143.96 49.0283L143 49.2046L143.484 48.3232L150.13 36.7503V37.2086C144.472 23.441 151.038 7.69025 164.806 2.03161C178.573 -3.62704 194.324 2.93946 199.983 16.7071C201.675 20.8232 202.327 25.292 201.869 29.7255H201.843V29.7167ZM201.843 29.7167C203.359 15.191 192.808 2.19026 178.282 0.674238C176.053 0.445072 173.805 0.497956 171.584 0.832891C167.626 1.42344 163.854 2.91302 160.557 5.18705C157.296 7.47871 154.573 10.4491 152.572 13.8954C150.597 17.3593 149.434 21.2199 149.17 25.195C148.923 29.179 149.575 33.163 151.065 36.8649L151.162 37.1029L151.029 37.3144L144.313 48.8344L143.837 48.1293L157.199 46.2607H157.384L157.516 46.3841C161.086 49.7246 165.511 51.9987 170.297 52.9682C171.496 53.2062 172.703 53.356 173.92 53.4089C175.136 53.4882 176.352 53.4882 177.569 53.4089C180.01 53.2238 182.407 52.695 184.699 51.84C187 51.0115 189.168 49.8392 191.133 48.3761C192.121 47.6445 193.055 46.86 193.954 46.0227C194.818 45.1501 195.629 44.2334 196.378 43.2639C199.419 39.3416 201.314 34.6525 201.843 29.7167Z" fill="#263238"/>
<path d="M190.181 27.7511C190.181 29.5404 188.745 30.9859 186.956 30.9947C185.166 30.9947 183.721 29.558 183.712 27.7687C183.712 25.9795 185.149 24.534 186.938 24.5251C188.718 24.5251 190.164 25.9618 190.173 27.7423C190.173 27.7423 190.173 27.7423 190.173 27.7511H190.181Z" fill="#263238"/>
<path d="M178.6 27.7511C178.6 29.5404 177.163 30.9859 175.374 30.9947C173.585 30.9947 172.139 29.558 172.13 27.7687C172.13 25.9795 173.567 24.534 175.356 24.5251C175.356 24.5251 175.365 24.5251 175.374 24.5251C177.154 24.5251 178.6 25.9707 178.6 27.7511Z" fill="#263238"/>
<path d="M167.027 27.7511C167.027 29.5404 165.59 30.9859 163.801 30.9947C162.012 30.9947 160.566 29.558 160.558 27.7687C160.558 25.9795 161.994 24.534 163.783 24.5251C165.564 24.5251 167.009 25.9707 167.018 27.7511H167.027Z" fill="#263238"/>
</svg>
