<svg width="452" height="420" viewBox="0 0 452 420" fill="none" xmlns="http://www.w3.org/2000/svg">
<g clip-path="url(#clip0_35_2488)">
<path d="M66.4752 226.495L17.289 237.021C13.8488 237.757 11.6569 241.143 12.3931 244.583L22.9198 293.769C23.656 297.21 27.0417 299.401 30.4818 298.665L79.668 288.139C83.1082 287.402 85.3001 284.017 84.5639 280.577L74.0372 231.39C73.301 227.95 69.9153 225.758 66.4752 226.495Z" fill="#EBEBEB"/>
<path d="M70.79 268.52C70.74 268.04 70.62 267.58 70.41 267.15L70.24 266.72C69.13 264.76 67.46 263.19 65.44 262.2C63.62 261.22 61.69 260.47 59.68 259.98L59.43 259.92C59.27 259.88 59.1 259.95 59.02 260.09L55.11 266.78L40.76 257.58L44.67 250.35C44.71 250.26 44.71 250.15 44.67 250.06C44.64 249.96 44.57 249.88 44.47 249.84L41.18 248.26C40.64 248.01 40.3 247.85 40.08 247.78C39.98 247.71 39.87 247.66 39.76 247.61L39.57 247.51C39.33 247.38 39.08 247.28 38.83 247.19C37.58 246.73 36.24 246.53 34.91 246.59C32.77 246.69 30.72 247.47 29.05 248.82C26.78 250.62 25.48 253.37 25.53 256.27C25.61 258 26.37 259.64 27.65 260.81C28.29 261.39 28.99 261.9 29.74 262.34L51.57 276.34C51.84 276.5 52.11 276.68 52.38 276.85C53.02 277.28 53.69 277.68 54.38 278.04C55.41 278.57 56.51 278.96 57.65 279.19C58.43 279.35 59.22 279.43 60.02 279.43C61.61 279.43 63.18 279.08 64.63 278.43C66.84 277.45 68.64 275.74 69.74 273.59C70.02 273.07 70.25 272.53 70.42 271.96L70.51 271.67C70.69 271.21 70.79 270.72 70.82 270.22L70.88 269.28L70.79 268.52ZM43.44 250.52L39.34 257.75C39.24 257.92 39.29 258.14 39.45 258.25L55.25 268.61C55.33 268.67 55.44 268.69 55.54 268.66C55.64 268.64 55.73 268.58 55.78 268.49L59.85 261.6C61.55 262.07 63.19 262.74 64.73 263.6C66.46 264.46 67.9 265.79 68.89 267.45C68.94 267.59 68.99 267.73 69.05 267.87C69.2 268.16 69.28 268.48 69.31 268.81L69.42 269.46L69.35 270.26C69.33 270.63 69.25 270.99 69.12 271.34L69.02 271.65C68.88 272.13 68.68 272.59 68.44 273.03C67.48 274.86 65.93 276.31 64.05 277.15C62.13 277.98 60.01 278.2 57.96 277.78C56.96 277.58 55.99 277.24 55.08 276.78C54.45 276.46 53.82 276.05 53.21 275.66L52.39 275.14L30.51 261.25C29.83 260.85 29.19 260.4 28.6 259.88C27.56 258.95 26.93 257.65 26.85 256.26C26.81 253.75 27.91 251.36 29.85 249.76C31.32 248.55 33.12 247.82 35.02 247.67H35.69C37 247.65 38.3 247.91 39.51 248.42L39.84 248.55C40.04 248.68 40.36 248.85 40.84 249.11L43.44 250.52Z" fill="white"/>
<path d="M50.17 252.68C51.65 252.57 53.12 252.33 54.56 251.98C55.4 256.2 55.71 256.65 56.02 256.65H56.14C56.49 256.58 56.77 256.52 55.87 251.73C60.75 250.67 60.71 250.39 60.65 250.04C60.63 249.93 60.56 249.84 60.47 249.78C60.19 249.59 58.55 249.78 55.61 250.42C55.05 247.57 54.61 246.02 54.34 245.83C54.16 245.71 53.91 245.76 53.78 245.93C53.59 246.21 53.78 247.82 54.31 250.69C49.82 251.69 49.64 251.99 49.57 252.11C49.52 252.22 49.52 252.33 49.57 252.44C49.6 252.56 49.64 252.68 50.17 252.68Z" fill="white"/>
<path d="M439.08 17.22H329.87V197.99H439.08V17.22Z" fill="#E0E0E0"/>
<path d="M435.45 17.22H326.24V197.99H435.45V17.22Z" fill="#EBEBEB"/>
<path d="M430.8 20.8899H330.89V194.33H430.8V20.8899Z" fill="#FAFAFA"/>
<path d="M411.34 43.4299H349.91V171.79H411.34V43.4299Z" fill="#EBEBEB"/>
<path d="M349.91 126.37C349.77 114.37 360.55 102.67 372.42 100.99C378.09 100.2 384.1 101.32 389.42 99.15C398.87 95.28 401.87 82.73 411.37 79.01L411.81 171.79H349.91V126.37Z" fill="#E0E0E0"/>
<path d="M298.67 16.8799H214.67V104.45H298.67V16.8799Z" fill="#E0E0E0"/>
<path d="M292.98 16.8799H208.98V104.45H292.98V16.8799Z" fill="#FAFAFA"/>
<path d="M293.01 104.47H208.95V16.8501H293.01V104.47ZM209.01 104.47H292.96V16.9101H209.01V104.47Z" fill="#E0E0E0"/>
<path d="M281.69 28.6499H220.27V92.6699H281.69V28.6499Z" fill="#FAFAFA"/>
<path d="M220.27 93.1499C219.84 93.7999 219.33 94.3899 218.76 94.9099C217.76 95.9099 216.4 97.3499 214.85 98.9099C213.3 100.47 211.85 101.79 210.85 102.75C210.32 103.31 209.72 103.8 209.08 104.23C209.51 103.58 210.01 102.99 210.58 102.47C211.58 101.47 212.95 100.03 214.5 98.4699C216.05 96.9099 217.5 95.5799 218.5 94.6199C219.03 94.0599 219.62 93.5699 220.27 93.1499Z" fill="#E0E0E0"/>
<path d="M281.69 92.9399C282.33 93.3799 282.93 93.8899 283.45 94.4599C284.45 95.4599 285.89 96.8199 287.45 98.3599C289.01 99.8999 290.33 101.36 291.29 102.36C291.85 102.9 292.34 103.49 292.77 104.14C292.13 103.7 291.54 103.2 291.01 102.63C290.01 101.63 288.58 100.27 287.01 98.7199C285.44 97.1699 284.12 95.7199 283.16 94.7199C282.6 94.1899 282.11 93.5899 281.69 92.9399Z" fill="#E0E0E0"/>
<path d="M281.51 28.82C281.95 28.18 282.46 27.59 283.03 27.06C284.03 26.06 285.39 24.62 286.93 23.06C288.47 21.5 289.93 20.18 290.93 19.22C291.47 18.66 292.06 18.17 292.71 17.74C292.28 18.38 291.77 18.97 291.2 19.5C290.2 20.5 288.84 21.94 287.29 23.5C285.74 25.06 284.29 26.39 283.29 27.35C282.76 27.91 282.16 28.4 281.51 28.82Z" fill="#E0E0E0"/>
<path d="M220.1 28.98C219.46 28.54 218.87 28.03 218.34 27.46C217.34 26.46 215.91 25.1 214.34 23.56C212.77 22.02 211.47 20.56 210.5 19.56C209.94 19.03 209.44 18.43 209.03 17.78C209.67 18.21 210.26 18.72 210.78 19.29C211.78 20.29 213.22 21.65 214.78 23.2C216.34 24.75 217.66 26.2 218.62 27.2C219.19 27.73 219.68 28.33 220.1 28.98Z" fill="#E0E0E0"/>
<path d="M281.51 92.67V88.01C281.51 85.01 281.51 80.57 281.45 75.01C281.45 63.79 281.38 47.82 281.33 28.69L281.56 28.93H220.32L220.59 28.66V92.66L220.35 92.43L264.7 92.55L277.16 92.61H281.51C281.42 92.62 281.33 92.62 281.24 92.61H277.16L264.76 92.67L220.26 92.79H220.03V28.28H281.79V28.52C281.74 47.71 281.7 63.74 281.67 74.99C281.67 80.57 281.62 84.99 281.61 87.99V92.27C281.6 92.41 281.56 92.54 281.51 92.67Z" fill="#E0E0E0"/>
<path d="M261.22 50.4199H240.73V70.9099H261.22V50.4199Z" fill="#EBEBEB"/>
<path d="M437.2 385.6L433.96 418.89H416.77L413.39 385.6H437.2Z" fill="#E0E0E0"/>
<path d="M439.77 383.16H411.35V385.6H439.77V383.16Z" fill="#EBEBEB"/>
<path d="M434.36 378.97L437.2 383.71H414.6L415.69 378.97H434.36Z" fill="#EBEBEB"/>
<path d="M436.11 396.81L434.95 408.69H415.73L414.52 396.81H436.11Z" fill="#F5F5F5"/>
<path d="M422.85 406.09C422.86 405.05 423.17 404.03 423.74 403.15C424.22 402.41 424.8 401.77 425.27 401.15C425.71 400.59 426.05 399.96 426.27 399.28C426.35 399.01 426.4 398.73 426.42 398.45L426.55 398.52C427.23 398.99 427.68 399.71 427.81 400.52C427.94 401.31 427.91 402.12 427.7 402.89C427.53 403.83 427.09 404.7 426.45 405.41C425.66 406.19 424.54 406.53 423.45 406.34C423.24 406.28 423.04 406.2 422.85 406.09Z" fill="#FAFAFA"/>
<path d="M421.39 403.48C421.43 402.41 421.64 401.36 422 400.36C422.38 399.34 423.23 398.56 424.28 398.26C424.82 398.11 425.4 398.13 425.93 398.33C425.89 398.62 425.83 398.9 425.73 399.17C425.49 399.81 425.15 400.4 424.73 400.93C424.26 401.55 423.67 402.19 423.17 402.93C422.68 403.66 422.38 404.5 422.29 405.38C422.29 405.56 422.29 405.73 422.29 405.91C422.02 405.75 421.79 405.52 421.63 405.25C421.39 404.69 421.3 404.08 421.39 403.48Z" fill="#FAFAFA"/>
<path d="M282.24 367.58C297.76 352.05 297.68 328.36 293.3 307.83C292.57 304.41 292.3 300.71 290.13 297.97C287.96 295.23 283.75 293.86 280.92 295.86C278.58 297.52 277.99 300.7 277 303.41C275.67 307.04 273.35 310.21 270.29 312.57C268.29 314.1 265.71 315.28 263.29 314.48C260.02 313.36 258.94 309.32 258.35 305.89C257.25 299.49 256.15 293.09 255.06 286.7C254.47 283.26 253.85 279.76 252.21 276.7C250.57 273.64 247.67 271.03 244.21 270.7C240.75 270.37 237.09 272.96 237 276.44C237.12 277.88 237.34 279.32 237.66 280.73C237.82 282.17 237.44 283.86 236.16 284.5C234.88 285.14 233.32 284.42 232.11 283.6C227.96 280.77 224.76 276.73 221.73 272.7C218.7 268.67 215.73 264.51 211.82 261.31C207.91 258.11 202.97 255.9 198.01 256.5C193.05 257.1 188.36 261.06 188.01 266.1C187.66 271.14 191.32 275.56 195.09 278.92C200.67 283.92 206.95 288.08 213.73 291.27C215.01 291.72 216.12 292.55 216.9 293.66C218.06 295.82 216.29 298.47 214.17 299.66C211.77 300.96 208.95 301.19 206.33 301.98C203.71 302.77 201.03 304.47 200.47 307.17C199.69 310.93 203.27 314.08 206.58 315.97C213.22 319.76 220.46 322.38 227.98 323.72C230.67 324.19 233.46 324.53 235.81 325.94C238.16 327.35 239.94 330.21 239.14 332.84C238.34 335.47 235.33 336.84 232.6 336.79C229.87 336.74 227.25 335.79 224.6 335.26C219.6 334.32 213.55 335.73 211.25 340.34C209.75 343.34 210.25 347.13 211.81 350.14C213.51 353.08 215.79 355.64 218.51 357.68C227.57 365.32 238.51 370.42 250.19 372.45C261.79 374.3 272.1 373.52 282.25 367.61" fill="#F5F5F5"/>
<path d="M274.61 355.58C269.17 344.94 263.13 334.63 256.51 324.68L251.36 316.83C249.66 314.25 247.97 311.7 246.17 309.3C242.71 304.71 238.99 300.32 235.04 296.15C231.29 292.15 227.59 288.45 224.11 285.04C220.63 281.63 217.29 278.52 214.11 275.81C209.18 271.52 203.92 267.62 198.37 264.15C196.37 262.92 194.86 262.02 193.79 261.43L192.58 260.75C192.45 260.67 192.31 260.6 192.16 260.55C192.28 260.65 192.41 260.74 192.55 260.81L193.73 261.54C194.73 262.17 196.3 263.11 198.24 264.36C203.73 267.9 208.95 271.84 213.85 276.15C216.97 278.87 220.26 282 223.74 285.41C227.22 288.82 230.89 292.53 234.61 296.55C238.54 300.72 242.23 305.11 245.68 309.69C247.47 312.08 249.14 314.61 250.84 317.19L255.99 325.05C262.59 334.97 268.63 345.26 274.08 355.86" fill="#E0E0E0"/>
<path d="M246 309.31C246.07 308.81 246.1 308.3 246.07 307.79C246.07 306.79 246.07 305.39 245.99 303.64C245.87 300.14 245.53 295.31 245.14 289.99C244.75 284.67 244.48 279.85 244.41 276.36V272.22C244.44 271.71 244.41 271.2 244.33 270.7C244.22 271.2 244.16 271.7 244.16 272.21C244.08 273.21 244.03 274.61 244.01 276.36C244.01 279.86 244.16 284.71 244.55 290.03C244.94 295.35 245.31 300.03 245.55 303.66C245.66 305.3 245.75 306.66 245.83 307.79C245.83 308.3 245.88 308.81 246 309.31Z" fill="#E0E0E0"/>
<path d="M200.45 308.92C201.05 308.95 201.66 308.92 202.25 308.82C203.4 308.72 205.06 308.56 207.12 308.44C211.23 308.16 216.93 307.96 223.22 308.03C229.51 308.1 235.22 308.41 239.33 308.75C241.39 308.91 243.05 309.08 244.2 309.19C244.8 309.28 245.4 309.32 246 309.31C245.42 309.13 244.83 309.01 244.23 308.94C243.09 308.75 241.43 308.51 239.37 308.3C235.26 307.84 229.54 307.45 223.23 307.38C217.84 307.31 212.45 307.51 207.08 307.98C205.02 308.17 203.36 308.39 202.21 308.57C201.61 308.63 201.02 308.75 200.45 308.92Z" fill="#E0E0E0"/>
<path d="M273.92 354.87C274.01 354.68 274.09 354.48 274.13 354.28C274.25 353.81 274.41 353.28 274.6 352.55C275 351.05 275.52 348.86 276.13 346.14C277.36 340.71 278.82 333.14 280.32 324.81C281.82 316.48 283.2 308.89 284.32 303.45C284.86 300.8 285.32 298.62 285.65 297C285.79 296.3 285.91 295.72 286.01 295.24C286.06 295.04 286.09 294.83 286.09 294.62C285.99 294.8 285.92 295 285.88 295.21L285.41 296.94C285.01 298.44 284.48 300.63 283.87 303.35C282.65 308.78 281.19 316.35 279.69 324.69C278.19 333.03 276.8 340.6 275.69 346.04C275.14 348.69 274.69 350.87 274.36 352.49C274.21 353.19 274.1 353.77 274 354.25C273.95 354.45 273.92 354.66 273.92 354.87Z" fill="#E0E0E0"/>
<path d="M211.99 346.43C212.19 346.5 212.4 346.54 212.61 346.56L214.41 346.83L221.05 347.74C226.65 348.52 234.37 349.68 242.91 350.97C251.45 352.26 259.19 353.35 264.81 353.97C267.62 354.3 269.89 354.54 271.47 354.68L273.28 354.82C273.49 354.85 273.71 354.85 273.92 354.82C273.72 354.75 273.51 354.7 273.3 354.68L271.49 354.42L264.86 353.5C259.26 352.73 251.53 351.57 243 350.28C234.47 348.99 226.72 347.9 221.1 347.28C218.29 346.95 216.02 346.7 214.44 346.57L212.62 346.42C212.41 346.39 212.2 346.39 211.99 346.43Z" fill="#E0E0E0"/>
<path d="M22.8959 0.0440126L22.7283 73.9138L93.5881 74.0746L93.7557 0.204789L22.8959 0.0440126Z" fill="#E0E0E0"/>
<path d="M18.095 0.0239854L17.9274 73.8938L88.7873 74.0546L88.9549 0.184762L18.095 0.0239854Z" fill="#455A64"/>
<path d="M88.81 74.07L17.91 73.91L18.08 0L88.98 0.16L88.81 74.07Z" fill="#F5F5F5"/>
<path d="M27.6025 9.9755L27.48 63.9854L79.2898 64.1029L79.4124 10.093L27.6025 9.9755Z" fill="white"/>
<path d="M27.51 64.3401C27.14 64.8801 26.71 65.3801 26.23 65.8201C25.4 66.6901 24.23 67.8201 22.92 69.1501C21.61 70.4801 20.42 71.5801 19.53 72.3901C19.09 72.8701 18.58 73.2801 18.03 73.6301C18.39 73.0901 18.81 72.6001 19.28 72.1501C20.11 71.2801 21.28 70.1501 22.59 68.8201C23.9 67.4901 25.1 66.3901 25.98 65.5801C26.44 65.1101 26.95 64.6901 27.51 64.3401Z" fill="#E0E0E0"/>
<path d="M79.29 64.3301C79.83 64.7001 80.33 65.1301 80.77 65.6101C81.64 66.4401 82.77 67.6101 84.1 68.9101C85.43 70.2101 86.52 71.4201 87.33 72.3001C87.8 72.7501 88.22 73.2601 88.58 73.8001C88.03 73.4401 87.54 73.0201 87.1 72.5301C86.23 71.7001 85.1 70.5301 83.76 69.2201C82.42 67.9101 81.33 66.7001 80.52 65.8201C80.05 65.3701 79.64 64.8701 79.29 64.3301Z" fill="#E0E0E0"/>
<path d="M79.27 10.24C79.62 9.69995 80.04 9.19995 80.51 8.74995C81.34 7.87995 82.51 6.69995 83.81 5.41995C85.11 4.13995 86.32 2.99995 87.2 2.18995C87.65 1.71995 88.15 1.29995 88.7 0.949951C88.36 1.48995 87.96 1.97995 87.51 2.41995C86.68 3.29995 85.51 4.47995 84.2 5.75995C82.89 7.03995 81.69 8.18995 80.8 8.99995C80.34 9.46995 79.83 9.88995 79.27 10.24Z" fill="#E0E0E0"/>
<path d="M27.51 10.25C26.97 9.88003 26.47 9.45003 26.03 8.97003C25.15 8.14003 24.03 6.97003 22.69 5.67003C21.35 4.37003 20.22 3.15003 19.41 2.28003C18.94 1.83003 18.52 1.33003 18.17 0.780029C18.71 1.14003 19.21 1.57003 19.65 2.05003C20.52 2.88003 21.65 4.05003 22.98 5.36003C24.31 6.67003 25.41 7.87003 26.22 8.76003C26.71 9.20003 27.14 9.70003 27.51 10.25Z" fill="#E0E0E0"/>
<path d="M79.15 64.15C79.15 64.06 79.15 63.98 79.15 63.89V10.15L79.35 10.35L27.61 10.2L27.84 9.97997C27.78 29.8 27.73 48.34 27.68 63.98L27.49 63.78L64.9 63.97L75.41 64.05H78.19L75.51 64.15H27.31V63.95C27.31 48.31 27.37 29.77 27.4 9.94997V9.71997H27.64L79.3 9.85997H79.5V10.06C79.42 26.25 79.35 39.77 79.31 49.26C79.31 53.97 79.25 57.67 79.23 60.26V63.87C79.23 64.05 79.15 64.15 79.15 64.15Z" fill="#E0E0E0"/>
<path d="M43.86 51.6499C39.95 47.4499 39.75 41.0099 43.38 36.5699C44.83 34.9299 46.74 33.7199 48.08 31.9899C50.98 28.2299 50.95 22.2999 54.98 19.7799C57.91 17.9499 62.12 19.0099 64.26 21.7299C66.31 24.6099 66.65 28.3699 65.16 31.5799C64.16 33.9199 62.34 35.9099 61.61 38.3499C60.88 40.7899 61.27 43.5999 60.51 46.1499C59.51 49.1499 56.37 51.0599 53.41 52.1499C50.29 53.1799 46.89 53.0199 43.88 51.6999" fill="#F5F5F5"/>
<path d="M58.51 26.8101C58.38 27.3001 58.21 27.7701 58 28.2301C57.66 29.1401 57.11 30.4401 56.39 32.0201C54.5 36.1501 52.35 40.1601 49.96 44.0201C47.56 47.8501 44.91 51.5201 42.04 55.0201C40.93 56.3701 40.04 57.4301 39.35 58.1501C39.02 58.5301 38.67 58.9001 38.29 59.2301C38.56 58.8001 38.87 58.4001 39.21 58.0301C39.83 57.2801 40.71 56.1801 41.78 54.8201C44.55 51.2701 47.13 47.5801 49.51 43.7601C51.89 39.9201 54.07 35.9501 56.04 31.8801C56.79 30.3201 57.39 29.0501 57.79 28.1601C57.99 27.6901 58.23 27.2401 58.51 26.8101Z" fill="#E0E0E0"/>
<path d="M47.75 36.1499C47.96 37.0499 48.1 37.9599 48.16 38.8799C48.36 40.5899 48.61 42.9599 48.86 45.6499L48.51 45.4599L49.63 44.8099C52.22 43.2999 54.63 41.9599 56.3 41.0099C57.21 40.4599 58.15 39.9799 59.13 39.5599C58.3 40.2099 57.43 40.7899 56.51 41.2999C54.84 42.2999 52.51 43.7099 49.91 45.2099L48.79 45.8599L48.48 46.0399V45.6799C48.24 42.9999 48.05 40.6099 47.93 38.8999C47.8 37.9899 47.74 37.0699 47.75 36.1499Z" fill="#E0E0E0"/>
<path d="M61.37 32.15C60.83 32.55 60.24 32.88 59.62 33.15C58.51 33.7 56.98 34.42 55.26 35.15L54.73 35.39L54.45 35.52V35.22C54.19 33.49 53.97 31.95 53.84 30.84C53.73 30.24 53.69 29.64 53.72 29.03C53.94 29.6 54.08 30.19 54.15 30.79C54.37 31.89 54.64 33.42 54.91 35.15L54.51 35.02L55.04 34.78C56.75 34 58.31 33.32 59.45 32.85C60.06 32.55 60.71 32.31 61.37 32.15Z" fill="#E0E0E0"/>
<path d="M451.02 418.89C451.02 419.04 350.02 419.15 225.52 419.15C101.02 419.15 0 419.04 0 418.89C0 418.74 101 418.63 225.52 418.63C350.04 418.63 451.02 418.75 451.02 418.89Z" fill="#263238"/>
<path d="M122.64 330.4C127.35 327.97 132.89 327.65 138.12 328.52C140.93 328.98 143.86 329.82 145.77 331.93C147.68 334.04 148.05 337.76 145.85 339.57C144.43 340.52 142.73 340.96 141.03 340.8C136.93 340.8 132.39 340.03 129.12 342.49C127.26 343.9 126.01 346.23 123.78 346.92C121.49 347.45 119.12 346.4 117.98 344.34C116.91 342.29 116.68 339.91 117.32 337.69C117.86 334.56 119.83 331.87 122.64 330.4Z" fill="#70B884"/>
<path d="M111.84 309.57C114.72 313.68 120.32 312.32 122.92 309.81C125.52 307.3 126.61 303.66 127.61 300.19C129.89 292.26 132.19 283.94 130.5 275.87C130.09 273.42 129.01 271.13 127.39 269.25C125.71 267.37 123.17 266.53 120.7 267.03C117.88 267.77 116.12 270.54 114.85 273.17C111.12 280.93 109.16 289.43 109.13 298.05C109.13 302.05 109.58 306.26 111.84 309.57Z" fill="#70B884"/>
<path d="M103.94 315.47C107.06 311.76 107.66 306.35 106.26 301.7C104.86 297.05 101.73 293.09 98.11 289.86C93.85 286.07 88.89 283.14 83.51 281.24C81.42 280.4 79.18 280.03 76.93 280.15C74.65 280.28 72.59 281.53 71.41 283.48C69.88 286.42 71.35 289.97 72.94 292.87C75.75 297.99 78.96 302.88 82.54 307.49C85.42 311.19 88.71 314.85 93.09 316.49C97.47 318.13 102.03 317.97 104.35 314.93" fill="#70B884"/>
<path d="M111.65 371.62C111.8 371.01 111.89 370.38 111.91 369.75C112.04 368.39 112.21 366.68 112.41 364.65C112.65 362.13 113.01 359.63 113.51 357.15C114.18 354.14 115.09 351.19 116.23 348.32C117.35 345.45 118.87 342.76 120.74 340.32C122.26 338.33 124.21 336.71 126.44 335.58C127.95 334.83 129.58 334.32 131.25 334.08C131.88 334.06 132.5 333.97 133.11 333.81C132.48 333.75 131.84 333.75 131.21 333.81C129.48 333.95 127.79 334.39 126.21 335.12C123.87 336.23 121.81 337.86 120.21 339.9C118.26 342.37 116.68 345.12 115.54 348.05C114.38 350.97 113.47 353.98 112.84 357.05C112.35 359.55 112.02 362.08 111.84 364.62C111.68 366.79 111.62 368.54 111.59 369.76C111.54 370.38 111.56 371 111.65 371.62Z" fill="#263238"/>
<path d="M112 367.7C112.03 367.41 112.03 367.12 112 366.83V364.35C112 362.2 112 359.08 112.12 355.24C112.31 347.54 112.97 339.24 114.25 327.59C115.46 316.59 117.09 303.84 118.8 295.54C119.17 293.65 119.54 291.95 119.89 290.46C120.24 288.97 120.51 287.68 120.78 286.64C121.05 285.6 121.21 284.86 121.36 284.23C121.44 283.95 121.49 283.67 121.51 283.38C121.38 283.64 121.28 283.91 121.21 284.19C121.02 284.81 120.78 285.6 120.49 286.57C120.2 287.54 119.84 288.87 119.49 290.36C119.14 291.85 118.69 293.54 118.29 295.42C116.17 305.24 114.57 315.16 113.51 325.15C112.23 336.84 111.65 347.49 111.6 355.21C111.6 359.06 111.6 362.21 111.73 364.34C111.8 365.34 111.85 366.16 111.89 366.82C111.89 367.12 111.93 367.41 112 367.7Z" fill="#263238"/>
<path d="M112.05 347.15C112.13 346.29 112.13 345.42 112.05 344.56C111.91 342.21 111.64 339.88 111.26 337.56C110.69 334.11 109.93 330.69 108.98 327.33C107.87 323.19 106.43 319.15 104.7 315.23C101.73 308 97.48 301.38 92.14 295.67C91.2 294.69 90.2 293.77 89.14 292.92C88.68 292.54 88.28 292.16 87.87 291.86L86.73 291.07C86.04 290.54 85.31 290.07 84.55 289.67C84.42 289.84 87.64 291.73 91.7 296.05C96.86 301.8 101 308.39 103.94 315.53C105.64 319.43 107.08 323.44 108.24 327.53C109.22 330.86 110.03 334.24 110.67 337.66C111.21 340.58 111.52 342.96 111.67 344.61C111.73 345.46 111.86 346.31 112.05 347.15Z" fill="#263238"/>
<path d="M92.2 383.39L94.26 411.59H130.48L132.54 383.39H92.2Z" fill="#263238"/>
<path d="M136.87 372.28H88.7V383.39H136.87V372.28Z" fill="#263238"/>
<path d="M88.7 410.51V413.59H90.96H136.07V410.51H88.7Z" fill="#455A64"/>
<path d="M93.18 419.02L90.96 413.59H134.34L131.76 419.02H93.18Z" fill="#455A64"/>
<path d="M131.87 392.61C131.82 392.7 131.77 392.79 131.7 392.87L131.16 393.58L129.05 396.29L128.95 396.41L128.86 396.28C127.54 394.45 125.77 391.99 123.68 389.11H123.98C122.43 391.29 120.72 393.73 118.87 396.34L118.71 396.56L118.53 396.35L112.51 389.15H112.86L112.53 389.57L107.11 396.36L106.93 396.58L106.77 396.35L101.63 389.15H101.93L95.64 396.31L95.52 396.44L95.44 396.3L93.44 392.99C93.23 392.63 93.07 392.34 92.93 392.11C92.86 392.01 92.81 391.9 92.78 391.79C92.86 391.88 92.93 391.97 92.99 392.07L93.55 392.92L95.62 396.17H95.42L101.61 388.92L101.77 388.74L101.91 388.93L107.06 396.13H106.71L112.11 389.33L112.45 388.91L112.62 388.7L112.8 388.91L118.8 396.12H118.46L123.62 388.93L123.77 388.72L123.92 388.93L128.99 396.18H128.81L131 393.55L131.59 392.87C131.79 392.68 131.86 392.6 131.87 392.61Z" fill="#E0E0E0"/>
<path d="M133.05 383.21C133.05 383.33 123.97 383.43 112.77 383.43C101.57 383.43 92.5 383.33 92.5 383.21C92.5 383.09 101.57 382.98 112.77 382.98C123.97 382.98 133.05 383.08 133.05 383.21Z" fill="#455A64"/>
<path d="M134.88 413.9C134.88 414.02 125.01 414.12 112.88 414.12C100.75 414.12 90.88 414.02 90.88 413.9C90.88 413.78 100.74 413.67 112.88 413.67C125.02 413.67 134.88 413.77 134.88 413.9Z" fill="#263238"/>
<path d="M402.2 199.04C401.41 195.65 405.41 183.93 402.83 183.67C399.54 183.34 398.98 196.67 398.83 197.85C398.68 199.03 396.99 198.85 397.15 197.85C397.39 196.31 399.58 181.24 396.26 181.21C394.42 181.21 394.34 184.54 394.34 184.54C394.34 184.54 393.1 199.39 391.53 199.32C389.96 199.25 391.08 190.8 391.24 187.66C391.4 184.52 389.89 182.91 388.77 184.21C387.14 186.12 387.15 193.78 386.94 196.79C386.73 199.8 385.94 208.47 382.82 204.14C379.7 199.81 375.72 197.61 374.25 197.76C372.78 197.91 372.51 200.03 373.93 200.86C375.39 201.91 376.7 203.16 377.82 204.57C378.71 205.71 379.46 206.95 380.07 208.26C380.9 209.91 381.45 211.68 381.7 213.51C382.14 216.43 383.8 219.03 386.28 220.64L386.1 244.43L385.39 256.15L403.92 262.58L401.48 220.58C402.39 212.51 405.95 202.31 407.24 197.58C409.31 190.03 408.34 189.71 407.42 189.67C405.38 189.6 402.96 202.35 402.2 199.04Z" fill="#A36957"/>
<path d="M399.82 209.27C399.06 209.35 398.3 209.47 397.55 209.65C395.75 210.18 394.17 211.26 393.02 212.74C392.67 213.2 392.37 213.69 392.12 214.21L392 214.45L391.82 214.27C390.8 213.23 389.61 212.36 388.31 211.7C387.31 211.21 386.7 211.02 386.71 210.96C387.3 211.04 387.88 211.21 388.41 211.48C389.78 212.08 391.03 212.93 392.09 213.99L391.79 214.05C392.04 213.51 392.36 212.99 392.72 212.51C393.38 211.66 394.18 210.93 395.1 210.37C395.84 209.91 396.64 209.57 397.49 209.37C398.05 209.24 398.62 209.17 399.2 209.17C399.41 209.17 399.62 209.21 399.82 209.27Z" fill="#7C3B29"/>
<path d="M398.91 220.42C396.33 221.29 393.54 221.38 390.91 220.68C390.91 220.56 392.72 220.84 394.91 220.77C397.1 220.7 398.88 220.31 398.91 220.42Z" fill="#7C3B29"/>
<path d="M286.92 158.35C287.46 152.08 292.13 146.96 298.32 145.84C299.92 145.76 301.5 145.46 303.02 144.96C304.16 144.31 305.24 143.59 306.27 142.78C310 140.55 314.77 141.19 317.77 144.33C320.43 147.27 321.11 142.87 327.09 145.87C332.09 148.36 329.85 152.47 329.85 152.47C334.93 152.03 339.6 155.25 341.01 160.15C341.8 163.15 341.44 166.95 344.01 168.78C345.24 169.67 346.87 169.78 348.14 170.66C350.48 172.22 350.8 175.52 350.49 178.32C350.18 181.12 349.54 184.1 350.75 186.64C352.75 190.81 358.96 192.07 360.04 196.56C360.55 198.68 359.83 201.31 361.44 202.79C362.15 203.31 362.94 203.7 363.78 203.94C368.76 205.96 371.16 211.64 369.14 216.63C368.38 218.49 367.07 220.08 365.38 221.16C364.55 221.69 363.55 222.16 363.28 223.16C363.01 224.16 363.75 225.25 364.28 226.16C366.91 230.61 365.44 236.35 360.99 238.98C358.2 240.63 354.75 240.72 351.87 239.21C350.24 242.64 347.34 245.3 343.78 246.64C342.17 247.3 340.4 247.47 338.69 247.14C337.35 246.76 336.11 246.11 335.03 245.23C329.76 241.23 322.32 235.14 321.39 228.61" fill="#263238"/>
<path d="M286.8 168.53L286.57 163.85L314.51 157.63C323.16 156.44 332.8 164.84 333.62 173.52C334.53 183.17 335.26 194.99 334.34 202.24C332.48 216.82 321.42 219.01 321.42 219.01L321.81 233.41L289.74 234.81L286.8 168.53Z" fill="#A36957"/>
<path d="M328.37 184.07C328.41 185.08 327.64 185.94 326.63 186C325.65 186.12 324.76 185.42 324.64 184.44C324.64 184.42 324.64 184.4 324.64 184.38C324.61 183.37 325.37 182.52 326.38 182.45C327.36 182.33 328.25 183.01 328.37 183.99C328.37 184.02 328.37 184.04 328.37 184.07Z" fill="#263238"/>
<path d="M330.76 179.78C330.53 180.03 329.09 179.03 327.09 179.1C325.09 179.17 323.65 180.21 323.43 179.98C323.21 179.75 323.54 179.43 324.16 178.98C325.01 178.35 326.03 178 327.09 177.98C328.13 177.94 329.15 178.24 330.01 178.82C330.64 179.24 330.87 179.67 330.76 179.78Z" fill="#263238"/>
<path d="M309.68 185C309.72 186.01 308.96 186.87 307.95 186.94C306.97 187.06 306.08 186.38 305.96 185.4C305.96 185.37 305.96 185.35 305.96 185.32C305.92 184.31 306.68 183.45 307.69 183.38C308.67 183.26 309.56 183.96 309.68 184.94C309.68 184.96 309.68 184.98 309.68 185Z" fill="#263238"/>
<path d="M311.09 180.77C310.87 181.02 309.42 180.02 307.42 180.08C305.42 180.14 303.98 181.2 303.76 180.96C303.54 180.72 303.87 180.41 304.5 179.96C305.35 179.34 306.37 178.99 307.42 178.96C308.46 178.93 309.49 179.22 310.35 179.81C310.98 180.22 311.2 180.65 311.09 180.77Z" fill="#263238"/>
<path d="M318.81 195.39C319.86 195.02 320.94 194.79 322.05 194.7C322.56 194.63 323.05 194.51 323.11 194.16C323.14 193.63 323 193.11 322.73 192.66C322.21 191.44 321.66 190.16 321.09 188.81C318.82 183.34 317.16 178.81 317.38 178.74C317.6 178.67 319.62 183.01 321.9 188.49C322.44 189.84 322.97 191.13 323.46 192.36C323.81 192.97 323.92 193.68 323.79 194.36C323.65 194.73 323.35 195.02 322.97 195.13C322.69 195.22 322.4 195.27 322.11 195.28C321.02 195.45 319.91 195.49 318.81 195.39Z" fill="#263238"/>
<path d="M321.43 219.05C314.44 219.38 307.49 217.79 301.34 214.45C301.34 214.45 306.56 224.45 321.53 222.66L321.43 219.05Z" fill="#7C3B29"/>
<path d="M318.12 200.24C317.32 199.29 316.07 198.82 314.84 199C313.95 199.11 313.15 199.57 312.61 200.29C312.08 200.99 312.04 201.94 312.52 202.68C313.2 203.39 314.25 203.62 315.17 203.26C316.1 202.9 316.96 202.35 317.68 201.66C317.9 201.49 318.09 201.28 318.23 201.05C318.38 200.82 318.38 200.53 318.23 200.3" fill="#7C3B29"/>
<path d="M312.97 196.95C313.29 196.95 313.36 199.1 315.27 200.58C317.18 202.06 319.48 201.76 319.51 202.06C319.51 202.2 319.01 202.5 318.03 202.56C316.76 202.61 315.52 202.22 314.51 201.45C313.54 200.71 312.89 199.61 312.71 198.4C312.59 197.49 312.82 196.95 312.97 196.95Z" fill="#263238"/>
<path d="M311.36 172.9C311.18 173.46 309.18 173.26 306.84 173.62C304.5 173.98 302.62 174.67 302.29 174.19C302.14 173.96 302.46 173.44 303.21 172.89C305.24 171.51 307.79 171.14 310.12 171.89C310.99 172.23 311.44 172.64 311.36 172.9Z" fill="#263238"/>
<path d="M329.84 174.01C329.5 174.48 328.11 174.01 326.45 174.08C324.79 174.15 323.4 174.48 323.06 174.01C322.91 173.79 323.12 173.32 323.72 172.87C325.37 171.76 327.53 171.76 329.18 172.87C329.78 173.32 329.99 173.78 329.84 174.01Z" fill="#263238"/>
<path d="M336.09 155.73C334.09 160.96 329.45 168.87 323.94 169.81C318.32 170.69 312.65 168.61 308.94 164.3C308.3 168.47 303.82 170.88 299.7 171.77C296.79 172.51 293.74 172.45 290.86 171.6C287.96 170.7 285.73 168.35 284.97 165.41C284.38 162.49 288.21 155.05 291.12 154.41" fill="#263238"/>
<path d="M296.26 232.89C296.24 237.71 293.19 242 288.64 243.61C289.12 248.06 285.91 252.05 281.46 252.53C278 252.9 274.69 251.03 273.23 247.87C272.91 246.92 272.46 246.03 271.87 245.22C270.33 243.53 267.59 244.08 265.37 243.53C261.37 242.53 259.32 237.87 259.47 233.74C259.55 232.93 259.53 232.11 259.41 231.31C259.05 229.68 257.67 228.52 256.62 227.23C252.28 221.93 253.34 213.7 257.33 208.13C258.66 206.28 260.33 204.31 260.07 202.05C259.76 200.81 259.25 199.63 258.57 198.55C256.83 194.68 257.62 190.13 260.57 187.08C261.52 186.53 261.94 185.39 261.57 184.36C260.61 178.09 264.66 172.14 270.85 170.73C271.22 170.69 271.57 170.58 271.9 170.41C272.8 169.86 272.74 168.58 272.78 167.53C272.91 164.75 274.67 159.46 276.64 157.53C282.12 152.13 288.07 155.78 290.23 157.53C290.23 157.53 295.65 177.06 295.14 180.81C294.63 184.56 292.58 193.95 293.95 198.05C295.32 202.15 297.7 210.59 296.28 214.47C294.86 218.35 296.26 232.89 296.26 232.89Z" fill="#263238"/>
<path d="M331.43 395.55C331.43 395.55 373.77 407.27 375.43 407.87C377.98 408.76 377.55 418.11 373.58 417.96C371.71 417.89 341.06 419.1 337.19 418.86C333.32 418.62 321.64 414.02 321.64 414.02L331.43 395.55Z" fill="#70B884"/>
<path d="M349.07 411.7C349.28 411.7 349.57 409.49 350.94 407.16C352.31 404.83 354.06 403.43 353.94 403.26C353.82 403.09 351.76 404.26 350.33 406.81C348.9 409.36 348.89 411.72 349.07 411.7Z" fill="#263238"/>
<path d="M344.65 409.7C344.86 409.7 345.29 407.7 346.42 405.53C347.55 403.36 348.88 401.77 348.72 401.62C348.56 401.47 346.95 402.87 345.79 405.21C344.63 407.55 344.51 409.69 344.65 409.7Z" fill="#263238"/>
<path d="M340.51 408.59C340.73 408.59 340.56 406.47 341.51 404.12C342.46 401.77 343.97 400.32 343.82 400.12C343.67 399.92 341.82 401.27 340.82 403.82C339.82 406.37 340.34 408.65 340.51 408.59Z" fill="#263238"/>
<path d="M341.27 403.15C341.64 402.14 341.79 401.07 341.72 400C341.72 398.84 341.57 397.68 341.29 396.55C341.13 395.87 340.92 395.2 340.66 394.55C340.53 394.16 340.29 393.82 339.98 393.55C339.54 393.21 338.93 393.24 338.53 393.62C338.2 393.94 338 394.36 337.96 394.82C337.92 395.19 337.9 395.57 337.91 395.94C337.91 396.64 338.01 397.33 338.17 398.01C338.45 399.14 338.89 400.23 339.47 401.25C339.94 402.21 340.59 403.07 341.38 403.79C341.47 403.73 340.76 402.74 339.92 401.01C339.42 400.01 339.05 398.96 338.81 397.87C338.67 397.23 338.6 396.58 338.6 395.93C338.6 395.28 338.6 394.47 338.99 394.16C339.13 394 339.38 393.98 339.55 394.11C339.77 394.31 339.93 394.57 340.02 394.85C340.27 395.46 340.48 396.08 340.66 396.72C340.95 397.8 341.14 398.9 341.22 400.02C341.34 401.91 341.15 403.15 341.27 403.15Z" fill="#263238"/>
<path d="M341.21 402.69C340.35 402.33 339.41 402.18 338.48 402.25C337.47 402.25 336.46 402.37 335.48 402.62C334.88 402.75 334.29 402.97 333.75 403.26C333.02 403.6 332.61 404.39 332.75 405.19C332.95 405.94 333.53 406.52 334.28 406.71C334.9 406.87 335.56 406.87 336.18 406.71C337.18 406.46 338.12 406 338.93 405.36C339.71 404.85 340.39 404.19 340.93 403.42C340.15 403.88 339.39 404.39 338.68 404.95C337.89 405.49 337.01 405.87 336.08 406.07C335.56 406.2 335.03 406.2 334.51 406.07C334.02 405.93 333.65 405.56 333.51 405.07C333.43 404.58 333.69 404.1 334.14 403.89C334.63 403.63 335.14 403.42 335.68 403.29C336.61 403.03 337.57 402.86 338.53 402.79C340.16 402.64 341.19 402.81 341.21 402.69Z" fill="#263238"/>
<path d="M355.58 412.15C355.78 412.15 355.58 410.31 356.41 408.33C357.24 406.35 358.62 405.18 358.48 405.01C358.34 404.84 356.64 405.85 355.75 408.06C354.86 410.27 355.4 412.23 355.58 412.15Z" fill="#263238"/>
<path d="M326.03 414.15C326.55 414.47 327.1 414.73 327.67 414.92C329.2 415.51 330.78 416 332.38 416.38C337.68 417.53 343.09 418.03 348.51 417.88C354.85 417.81 360.57 417.52 364.72 417.35L369.62 417.09C370.22 417.09 370.83 417.02 371.42 416.9C370.82 416.81 370.21 416.78 369.61 416.81H364.7L348.51 417.15C343.14 417.28 337.78 416.84 332.51 415.83C328.44 415.02 326.08 413.98 326.03 414.15Z" fill="#263238"/>
<path d="M324.78 415.08C324.84 415.17 326 414.5 327.95 413.64C330.44 412.46 333.21 412 335.95 412.31C339.14 412.8 341.41 414.94 342.88 416.43C343.63 417.32 344.45 418.15 345.32 418.92C344.76 417.89 344.06 416.94 343.25 416.09C342.42 415.11 341.47 414.23 340.44 413.46C339.15 412.5 337.65 411.87 336.06 411.61C333.19 411.26 330.28 411.81 327.73 413.19C326.65 413.66 325.66 414.3 324.78 415.08Z" fill="#263238"/>
<g opacity="0.3">
<path d="M331.43 395.55C331.43 395.55 373.77 407.27 375.43 407.87C377.98 408.76 377.55 418.11 373.58 417.96C371.71 417.89 341.06 419.1 337.19 418.86C333.32 418.62 321.64 414.02 321.64 414.02L331.43 395.55Z" fill="black"/>
</g>
<path d="M284.39 346.92L275.25 365.7C275.25 365.7 226.38 350.84 214.07 351.52C201.76 352.2 191.67 357.15 189.27 367.15C186.87 377.15 186.55 390.95 200.92 400.53C215.29 410.11 286.68 415.4 286.68 415.4H314.93L361.11 354.51L353.67 348.51L284.39 346.92Z" fill="#263238"/>
<path d="M299.76 388.15C299.45 388.19 299.14 388.19 298.83 388.15C298.23 388.15 297.33 388.15 296.18 387.94C292.93 387.56 289.73 386.89 286.6 385.94C281.97 384.53 277.45 382.77 273.1 380.65C268.16 378.32 262.89 375.45 257.35 372.48C252.16 369.64 246.82 367.09 241.35 364.83C236.9 362.99 232.28 361.61 227.55 360.7C224.36 360.09 221.12 359.81 217.88 359.86C216.73 359.86 215.88 359.95 215.23 359.96C214.92 359.99 214.61 359.99 214.3 359.96C214.6 359.89 214.91 359.84 215.22 359.83C215.83 359.78 216.71 359.62 217.87 359.61C221.14 359.47 224.41 359.69 227.63 360.26C232.4 361.1 237.07 362.44 241.56 364.26C247.03 366.5 252.38 369.05 257.56 371.9C263.1 374.9 268.35 377.75 273.26 380.1C277.58 382.23 282.06 384.02 286.65 385.48C289.75 386.46 292.92 387.17 296.13 387.63C297.27 387.83 298.13 387.87 298.76 387.96C299.1 388 299.43 388.06 299.76 388.15Z" fill="#455A64"/>
<path d="M333.15 410.42C342.23 406.85 392.15 390.97 409.82 370.55C414.03 365.99 415.83 359.7 414.65 353.6C412.19 339.98 399.65 330.9 386.65 336.04C384.8 336.78 380.56 338.43 378.78 339.38C373.94 341.98 295.41 391.79 295.41 391.79C295.41 391.79 309.09 418.47 308.75 419.49L333.15 410.42Z" fill="#263238"/>
<path d="M357.74 351.21C357.68 351.28 357.61 351.33 357.53 351.38L356.87 351.83L354.31 353.5L344.82 359.5L313.42 379.24L296.36 389.87L296.47 389.52C300.11 398.26 303.2 405.72 305.47 411.04C306.53 413.65 307.38 415.73 307.98 417.22C308.25 417.9 308.46 418.45 308.63 418.87C308.71 419.06 308.78 419.25 308.82 419.45C308.71 419.28 308.62 419.1 308.54 418.91C308.36 418.5 308.12 417.96 307.81 417.29L305.15 411.18C302.89 405.87 299.72 398.45 296 389.74L295.91 389.52L296.11 389.39L313.11 378.72L344.59 359.15L354.18 353.28L356.8 351.7L357.49 351.31C357.65 351.24 357.73 351.2 357.74 351.21Z" fill="#455A64"/>
<path d="M288.77 374.76C287.96 374.59 287.17 374.3 286.45 373.89C284.65 373.03 282.93 372 281.32 370.82C279.71 369.63 278.21 368.29 276.84 366.82C276.23 366.25 275.72 365.59 275.31 364.87C275.45 364.74 277.95 367.57 281.68 370.28C285.41 372.99 288.85 374.59 288.77 374.76Z" fill="#455A64"/>
<path d="M315.95 352.63C316.08 353.66 316.12 354.71 316.07 355.75C316.07 357.68 316.18 360.33 316.44 363.25C316.7 366.17 317.11 368.8 317.44 370.7C317.68 371.72 317.82 372.76 317.88 373.8C317.48 372.84 317.18 371.83 317.01 370.8C315.91 365.88 315.45 360.84 315.65 355.8C315.63 354.74 315.73 353.67 315.95 352.63Z" fill="#455A64"/>
<path d="M321.79 351.98C321.79 351.98 322.03 351.92 322.41 352.06C322.94 352.28 323.39 352.66 323.7 353.15C324.19 353.89 324.33 354.82 324.08 355.67C323.68 356.75 322.66 357.46 321.51 357.45C320.38 357.56 319.3 356.93 318.84 355.89C318.54 355.04 318.67 354.11 319.18 353.37C319.51 352.89 319.99 352.53 320.55 352.37C320.75 352.3 320.97 352.3 321.17 352.37C320.5 352.58 319.93 353.03 319.55 353.62C319.17 354.25 319.1 355.01 319.36 355.7C319.76 356.49 320.6 356.95 321.48 356.86C322.36 356.85 323.15 356.31 323.48 355.5C323.71 354.8 323.63 354.04 323.27 353.4C322.92 352.8 322.41 352.3 321.79 351.98Z" fill="#455A64"/>
<path d="M297.64 350C297.84 350.28 297.99 350.6 298.07 350.93C298.36 351.82 298.5 352.75 298.48 353.69C298.46 355.07 298.15 356.44 297.57 357.69C296.16 360.94 293 363.07 289.46 363.15C288.06 363.22 286.66 362.99 285.36 362.47C284.49 362.13 283.68 361.65 282.96 361.05C282.68 360.84 282.45 360.59 282.26 360.3C283.26 361.05 284.36 361.67 285.51 362.15C286.77 362.59 288.1 362.77 289.43 362.68C292.74 362.54 295.69 360.56 297.06 357.54C297.65 356.35 297.99 355.05 298.06 353.72C298.08 352.47 297.94 351.22 297.64 350Z" fill="#455A64"/>
<path d="M344.22 359.3C343.59 359.4 342.95 359.3 342.37 359.04C339.36 358 337.43 355.05 337.68 351.87C337.67 351.23 337.85 350.61 338.19 350.07C338.29 350.07 338.1 350.78 338.12 351.88C338.12 354.81 339.85 357.46 342.53 358.64C343.51 359.15 344.23 359.2 344.22 359.3Z" fill="#455A64"/>
<path d="M368.64 396.64C368.64 396.64 368.73 396.58 368.94 396.48L369.83 396.04L373.29 394.37C376.29 392.91 380.64 390.81 385.88 387.98C392.08 384.76 397.9 380.88 403.26 376.41C406.38 373.74 409.17 370.7 411.57 367.36C413.93 363.62 414.98 359.2 414.57 354.8C414.39 352.58 413.83 350.41 412.92 348.37C412.47 347.38 411.93 346.44 411.31 345.55C410.68 344.68 409.99 343.85 409.25 343.07C407.78 341.58 406.22 340.17 404.58 338.86C403.12 337.51 401.38 336.49 399.49 335.86C397.65 335.37 395.74 335.15 393.84 335.23C392.04 335.26 390.24 335.46 388.47 335.82C385.3 336.51 382.25 337.66 379.42 339.24L367.07 346.09L363.7 347.94L362.82 348.41L362.52 348.56C362.61 348.49 362.7 348.43 362.8 348.38L363.66 347.87L366.99 345.95C369.89 344.3 374.07 341.89 379.29 338.95C382.14 337.34 385.21 336.16 388.4 335.45C390.19 335.08 392 334.87 393.83 334.83C395.77 334.75 397.71 334.96 399.59 335.46C401.54 336.11 403.33 337.16 404.83 338.56C406.48 339.88 408.05 341.3 409.54 342.8C410.29 343.59 410.99 344.43 411.64 345.31C412.28 346.22 412.83 347.19 413.29 348.21C416.07 354.5 415.55 361.76 411.89 367.58C409.47 370.94 406.65 374 403.5 376.69C398.11 381.17 392.25 385.04 386.01 388.23C380.74 391.03 376.37 393.1 373.35 394.51L369.86 396.11L368.94 396.51L368.64 396.64Z" fill="#455A64"/>
<path d="M298.73 395.81C298.73 395.81 256.25 407.01 254.54 407.58C251.98 408.45 252.29 417.8 256.26 417.7C258.14 417.7 288.77 419.25 292.64 419.05C296.51 418.85 306.99 414.87 306.99 414.87L298.73 395.81Z" fill="#70B884"/>
<path d="M280.89 411.75C280.68 411.75 280.42 409.53 279.08 407.18C277.74 404.83 276 403.41 276.14 403.25C276.28 403.09 278.3 404.25 279.7 406.84C281.1 409.43 281.07 411.77 280.89 411.75Z" fill="#263238"/>
<path d="M285.33 409.8C285.12 409.8 284.72 407.8 283.62 405.6C282.52 403.4 281.21 401.81 281.36 401.67C281.51 401.53 283.12 402.94 284.26 405.29C285.4 407.64 285.51 409.79 285.33 409.8Z" fill="#263238"/>
<path d="M289.51 408.74C289.3 408.74 289.51 406.62 288.58 404.26C287.65 401.9 286.17 400.42 286.32 400.26C286.47 400.1 288.32 401.43 289.24 404C290.16 406.57 289.66 408.81 289.51 408.74Z" fill="#263238"/>
<path d="M288.8 403.27C288.44 402.26 288.3 401.18 288.39 400.11C288.41 398.95 288.57 397.79 288.86 396.66C289.03 396 289.25 395.34 289.51 394.71C289.65 394.32 289.88 393.98 290.2 393.71C290.64 393.38 291.26 393.42 291.66 393.8C291.98 394.12 292.18 394.55 292.2 395C292.24 395.37 292.26 395.75 292.25 396.12C292.23 396.82 292.13 397.51 291.96 398.19C291.66 399.32 291.21 400.4 290.62 401.41C290.14 402.37 289.48 403.22 288.68 403.94C288.59 403.87 289.31 402.89 290.17 401.17C290.68 400.18 291.07 399.13 291.32 398.04C291.46 397.41 291.54 396.76 291.55 396.11C291.55 395.46 291.55 394.64 291.18 394.33C291.04 394.16 290.79 394.14 290.62 394.27C290.41 394.48 290.25 394.73 290.15 395.01C289.89 395.61 289.67 396.24 289.49 396.87C289.18 397.95 288.98 399.05 288.89 400.17C288.74 402.05 288.92 403.25 288.8 403.27Z" fill="#263238"/>
<path d="M288.86 402.84C289.73 402.49 290.67 402.35 291.6 402.43C292.61 402.43 293.62 402.58 294.6 402.84C295.2 402.97 295.79 403.19 296.33 403.49C297.06 403.87 297.44 404.69 297.26 405.49C297.06 406.23 296.47 406.8 295.72 406.98C295.1 407.14 294.44 407.14 293.82 406.98C292.82 406.72 291.89 406.25 291.08 405.6C290.32 405.06 289.66 404.38 289.14 403.6C289.92 404.06 290.67 404.58 291.37 405.15C292.15 405.69 293.03 406.09 293.96 406.31C294.48 406.44 295.01 406.44 295.53 406.31C296.02 406.18 296.4 405.8 296.53 405.31C296.62 404.82 296.37 404.33 295.92 404.12C295.44 403.85 294.92 403.65 294.39 403.5C293.46 403.23 292.51 403.05 291.54 402.97C289.92 402.79 288.88 402.95 288.86 402.84Z" fill="#263238"/>
<path d="M274.38 412.15C274.17 412.15 274.38 410.32 273.59 408.32C272.8 406.32 271.43 405.15 271.59 404.98C271.75 404.81 273.42 405.84 274.28 408.06C275.14 410.28 274.51 412.2 274.38 412.15Z" fill="#263238"/>
<path d="M303.9 414.44C303.38 414.75 302.83 415 302.25 415.19C300.71 415.77 299.13 416.24 297.52 416.59C292.2 417.69 286.77 418.14 281.34 417.93C274.99 417.78 269.28 417.42 265.14 417.2L260.23 416.88C259.63 416.88 259.03 416.8 258.44 416.67C259.04 416.59 259.65 416.57 260.25 416.61L265.16 416.7L281.35 417.22C286.73 417.44 292.12 417.08 297.42 416.15C301.51 415.32 303.85 414.31 303.9 414.44Z" fill="#263238"/>
<path d="M305.14 415.42C305.08 415.52 303.93 414.83 301.98 413.95C299.5 412.72 296.73 412.23 293.98 412.52C290.78 412.96 288.49 415.08 286.98 416.52C286.22 417.4 285.39 418.22 284.51 418.98C285.09 417.96 285.8 417.01 286.62 416.17C287.47 415.2 288.42 414.33 289.46 413.58C290.76 412.64 292.27 412.02 293.86 411.78C296.74 411.47 299.64 412.05 302.17 413.46C303.26 413.95 304.26 414.61 305.14 415.42Z" fill="#263238"/>
<path d="M262.64 416.73C262.57 416.68 262.94 416.12 263.28 415.14C264.23 412.55 263.73 409.65 261.97 407.53C261.32 406.72 260.79 406.32 260.84 406.25C260.89 406.18 261.51 406.48 262.28 407.25C264.34 409.38 264.88 412.55 263.66 415.25C263.19 416.29 262.69 416.77 262.64 416.73Z" fill="#263238"/>
<path d="M296.77 230.82L274.93 236.94L282.03 304.89C282.03 304.89 277.95 329.15 277.95 335.52C277.82 340.22 280.3 344.61 284.39 346.92L354.17 349.02L357.73 345.94C359.57 343.79 360.41 340.96 360.06 338.15L347.06 234.47L322.77 229.2L296.77 230.82Z" fill="#70B884"/>
<path d="M282.11 304.81C282.05 304.64 282.01 304.47 281.98 304.29L281.69 302.8C281.44 301.46 281.1 299.6 280.69 297.32C279.87 292.64 278.76 286.26 277.52 279.21C276.28 272.16 275.26 265.75 274.47 261.07C274.11 258.78 273.81 256.91 273.59 255.56C273.5 254.94 273.43 254.44 273.37 254.06C273.35 253.88 273.35 253.71 273.37 253.53C273.42 253.7 273.47 253.87 273.5 254.05C273.57 254.43 273.67 254.92 273.79 255.53C274.03 256.87 274.38 258.74 274.79 261.02C275.61 265.69 276.73 272.08 277.96 279.14L281.02 297.27C281.38 299.56 281.68 301.43 281.89 302.78C281.98 303.4 282.06 303.89 282.11 304.28C282.13 304.46 282.13 304.63 282.11 304.81Z" fill="#263238"/>
<path d="M325.87 230.44C325.56 230.73 325.22 231 324.87 231.24C324.53 231.48 324.09 231.73 323.6 232.04C323.11 232.35 322.5 232.65 321.81 232.93C320.2 233.63 318.53 234.15 316.81 234.48C314.73 234.88 312.63 235.11 310.51 235.15C308.39 235.2 306.28 235.13 304.17 234.96C302.44 234.85 300.73 234.63 299.03 234.28C297.88 234.05 296.77 233.68 295.71 233.18C295.34 232.99 295.06 232.84 294.87 232.72L294.6 232.53C295 232.68 295.39 232.84 295.77 233.03C296.84 233.47 297.95 233.81 299.09 234.03C300.78 234.34 302.49 234.53 304.2 234.61C306.13 234.74 308.27 234.83 310.5 234.78C312.6 234.74 314.69 234.53 316.76 234.16C318.44 233.85 320.09 233.37 321.68 232.72C323.14 232.08 324.54 231.32 325.87 230.44Z" fill="#263238"/>
<path d="M348.43 335.23C348.28 335.29 348.12 335.32 347.96 335.33L346.59 335.53C345.99 335.61 345.26 335.71 344.41 335.78C343.56 335.85 342.58 335.97 341.51 336.02C339.36 336.18 336.79 336.24 333.94 336.2C331.09 336.16 327.94 335.95 324.69 335.57C321.44 335.19 318.33 334.57 315.55 334C312.77 333.43 310.29 332.7 308.23 332C307.23 331.7 306.23 331.36 305.47 331.08C304.71 330.8 303.97 330.55 303.47 330.32L302.18 329.81C302.02 329.76 301.88 329.69 301.74 329.6C301.9 329.63 302.06 329.67 302.21 329.73L303.52 330.18C304.09 330.38 304.78 330.62 305.6 330.87C306.42 331.12 307.33 331.44 308.37 331.73C310.42 332.35 312.9 332.99 315.68 333.6C318.46 334.21 321.53 334.73 324.79 335.12C328.05 335.51 331.16 335.7 334 335.79C336.84 335.88 339.4 335.79 341.54 335.7C342.62 335.7 343.54 335.57 344.44 335.51C345.34 335.45 346.02 335.39 346.62 335.33L348 335.21L348.43 335.23Z" fill="#263238"/>
<path d="M356.51 276.98C356.36 276.68 356.25 276.36 356.17 276.03C355.99 275.42 355.73 274.52 355.43 273.41C354.82 271.2 354.05 268.11 353.28 264.69C352.51 261.27 351.92 258.14 351.52 255.88C351.33 254.74 351.18 253.83 351.09 253.19C351.02 252.86 350.99 252.53 350.99 252.19C351.11 252.51 351.2 252.85 351.25 253.19C351.39 253.9 351.58 254.79 351.81 255.85C352.27 258.1 352.92 261.21 353.68 264.63C354.44 268.05 355.17 271.14 355.68 273.37C355.92 274.43 356.13 275.32 356.3 276.02C356.4 276.33 356.47 276.65 356.51 276.98Z" fill="#263238"/>
<g opacity="0.3">
<path d="M304.39 233.9C305.27 236.9 304.45 241.37 304.88 244.08C306.72 254.95 307.3 266 306.63 277.01C306.55 277.61 306.58 278.22 306.74 278.8C306.97 279.3 307.27 279.77 307.63 280.18C309.84 283.1 310.41 287 309.96 290.64C309.37 294.27 308.31 297.8 306.8 301.15C306.73 298.22 306.88 293.83 307.11 290.91C307.11 290.32 307.46 290.7 307.47 290.11C307.57 286.59 306.98 283.33 304.47 280.82C303.93 280.36 303.46 279.83 303.07 279.25C302.8 278.66 302.64 278.02 302.6 277.37C301.08 265.08 300.04 252.75 299.49 240.37C299.38 239.68 299.52 238.97 299.89 238.37C300.29 237.99 300.75 237.67 301.25 237.43C302.25 236.81 302.79 235.71 303.81 235.22" fill="black"/>
</g>
<path d="M274.93 236.94C274.93 236.94 254.99 241.64 259.82 271.52C262.08 286.09 266.07 300.34 271.72 313.96C274.99 321.65 282.39 326.96 290.72 325.86C294.34 325.39 297.92 325.96 300.35 324.5C304.03 322.28 305.63 314.8 306.35 306.74C306.82 301.24 306.63 295.52 307.35 290.83C308.54 283.17 305.03 279.56 300.53 278.66L282.84 275.15L281.84 284.47L274.93 236.94Z" fill="#70B884"/>
<path d="M288.97 296.42C288.97 296.42 289.31 296.78 289.97 297.29C290.94 298 292.07 298.45 293.26 298.6C295.03 298.78 296.83 298.53 298.48 297.86C300.55 297.15 302.47 296.05 304.12 294.61C305.68 293.1 306.71 291.12 307.04 288.97C307.32 287.21 307.1 285.41 306.42 283.77C305.74 282.26 304.78 280.89 303.61 279.72C304.03 279.91 304.4 280.19 304.71 280.53C305.62 281.38 306.35 282.4 306.87 283.53C307.66 285.25 307.94 287.16 307.68 289.03C307.36 291.33 306.28 293.47 304.6 295.08C302.88 296.59 300.88 297.73 298.7 298.43C296.95 299.1 295.05 299.32 293.19 299.05C291.93 298.85 290.76 298.3 289.8 297.46C289.44 297.19 289.16 296.83 288.97 296.42Z" fill="#263238"/>
<path d="M270.65 311.34C270.72 311.34 271.03 312.28 271.85 313.9C273.01 316.17 274.55 318.24 276.39 320C279.11 322.63 282.48 324.49 286.15 325.4C290.64 326.52 295.36 326.18 299.65 324.45C301.91 323.54 302.73 321.03 303.59 318.93C304.35 316.83 304.91 314.67 305.27 312.47C305.84 308.72 306.21 304.94 306.4 301.15C306.63 297.98 306.82 295.38 306.96 293.46C307.04 292.62 307.1 291.93 307.15 291.37C307.15 291.13 307.2 290.88 307.26 290.65C307.3 290.89 307.3 291.14 307.26 291.38V293.48C307.17 295.4 307.06 298 306.91 301.18C306.79 305 306.46 308.82 305.91 312.6C305.56 314.85 305.01 317.06 304.24 319.2C303.83 320.34 303.33 321.45 302.75 322.51C302.13 323.67 301.15 324.58 299.95 325.12C295.51 326.93 290.59 327.26 285.95 326.05C279.6 324.4 274.32 320 271.56 314.05C271.26 313.4 271 312.73 270.79 312.05C270.72 311.82 270.67 311.58 270.65 311.34Z" fill="#263238"/>
<path d="M277.3 298.38C277.18 297.19 277.18 295.98 277.3 294.79C277.42 292.58 277.63 289.53 277.9 286.16C278.05 284.47 278.16 282.88 278.34 281.41C278.44 280.06 278.91 278.76 279.7 277.66C280.26 276.92 281.06 276.4 281.96 276.18C282.28 276.06 282.64 276.06 282.96 276.18C282.96 276.25 282.6 276.18 282.04 276.42C281.25 276.71 280.57 277.24 280.1 277.93C278.8 279.65 278.95 282.85 278.61 286.19C278.27 289.53 278.05 292.6 277.81 294.8C277.75 296.01 277.58 297.21 277.3 298.38Z" fill="#263238"/>
<path d="M283.51 266.63C283.33 265.69 283.05 264.32 282.69 262.63C281.97 259.26 280.93 254.63 279.74 249.49C279.23 247.06 278.59 244.66 277.84 242.3C277.21 240.34 276.22 238.52 274.92 236.93L274.53 237.24C275.73 238.82 276.65 240.61 277.23 242.51C277.94 244.64 278.44 247.09 279.05 249.65C280.24 254.77 281.36 259.4 282.21 262.74C282.63 264.41 282.98 265.74 283.21 266.69C283.31 267.18 283.47 267.66 283.69 268.11C283.69 267.61 283.62 267.12 283.51 266.63Z" fill="#263238"/>
<g opacity="0.3">
<path d="M283.7 273.06C282.08 273.09 280.52 273.62 279.22 274.58C276.31 276.59 274.2 279.56 273.28 282.98C272.39 286.39 272.55 290 273.74 293.32C274.11 294.32 274.81 295.52 275.9 295.47C277.19 295.42 277.7 293.82 277.9 292.55C278.39 289.03 278.89 285.51 279.38 281.98C279.48 280.77 279.79 279.59 280.31 278.5C280.86 277.4 281.98 276.69 283.22 276.66L283.55 272.89" fill="black"/>
</g>
<path d="M402.39 289.15C404.89 284.95 406.3 280.19 406.51 275.31C406.69 270.18 406.01 265.06 404.51 260.15L383.33 253.58L383.2 260.66L402.39 289.15Z" fill="#70B884"/>
<path d="M383.24 260.61L347.1 234.47V236.28L351 276.97C351 276.97 380.88 290.35 388.79 292.32C393.57 293.44 398.6 292.26 402.39 289.14L383.24 260.61Z" fill="#70B884"/>
<path d="M393.95 280.37C393.66 280.27 393.38 280.12 393.13 279.93C392.42 279.47 391.75 278.95 391.13 278.38C389.12 276.45 387.48 274.17 386.31 271.64C385.14 269.13 384.22 266.52 383.55 263.83C383.28 262.83 383.09 261.97 382.96 261.39C382.87 261.09 382.83 260.79 382.82 260.48C383.27 261.53 383.63 262.62 383.91 263.73C384.67 266.36 385.63 268.93 386.78 271.42C387.93 273.89 389.49 276.16 391.39 278.12C392.88 279.6 394 280.29 393.95 280.37Z" fill="#263238"/>
<path d="M404.45 265.22C404.14 265.27 403.82 265.27 403.51 265.22C402.66 265.18 401.82 265.09 400.98 264.95C395.4 264.03 390.18 261.61 385.88 257.95C385.23 257.4 384.61 256.81 384.03 256.19C383.62 255.75 383.41 255.49 383.44 255.47C383.47 255.45 384.44 256.34 386.11 257.67C388.29 259.39 390.66 260.85 393.17 262.02C395.68 263.18 398.33 264.05 401.04 264.6C403.13 265.02 404.45 265.15 404.45 265.22Z" fill="#263238"/>
<path d="M384.83 276.97C384.33 276.29 383.95 275.54 383.7 274.73C383.03 272.82 382.62 270.82 382.5 268.8C382.38 266.8 382.4 264.8 382.55 262.8C382.55 261.97 382.66 261.14 382.86 260.33C382.96 261.16 382.98 261.99 382.92 262.82C382.92 264.36 382.86 266.48 383.02 268.82C383.13 270.8 383.47 272.76 384.02 274.67C384.51 276.07 384.91 276.93 384.83 276.97Z" fill="#263238"/>
<path d="M346.56 250.15C346.72 250.5 346.85 250.87 346.93 251.25C347.14 251.97 347.42 253.02 347.76 254.32C348.42 256.92 349.27 260.53 350.11 264.53C350.95 268.53 351.62 272.19 352.05 274.84C352.27 276.16 352.43 277.23 352.52 277.98C352.6 278.36 352.64 278.75 352.62 279.14C352.48 278.78 352.38 278.4 352.32 278.01L351.69 274.9C351.13 272.16 350.4 268.59 349.6 264.64C348.8 260.69 347.99 257.14 347.4 254.41C347.14 253.18 346.91 252.14 346.73 251.3C346.63 250.92 346.57 250.54 346.56 250.15Z" fill="#263238"/>
<path d="M282.62 278.83L287.04 229.83L301.72 235.62L303.61 285.46C303.61 285.46 298.91 292.56 290.98 289.65C286.35 287.94 283.1 283.74 282.62 278.83Z" fill="#A36957"/>
<path d="M285.47 186.93L312.91 211.06L307.94 229.08L305.95 229.67L281.96 205.12L283.48 187.52L285.47 186.93Z" fill="#263238"/>
<path d="M283.48 187.52L310.92 211.65L305.95 229.67L279.97 205.71L283.48 187.52Z" fill="#455A64"/>
<path d="M302.34 237.2C304.02 235.35 304.99 232.96 305.09 230.46C305.03 226.77 304.01 217.88 304.01 217.88C304.01 217.88 308.78 207.88 308.66 206.51C308.54 205.14 308.32 205.2 306.66 205.74C305 206.28 299.66 215.42 299.66 215.42L297.92 208.64C297.92 208.64 302.34 201.52 302.69 200.52C303.04 199.52 303.62 198.71 302.52 198.62C301.42 198.53 293.11 206.57 293.11 206.57L293.78 214C293.78 214 293.61 214.59 292.42 213.55C291.23 212.51 291.53 203.64 291.53 203.64C291.53 203.64 294.36 198.39 294.29 197.64C294.22 196.89 294.8 196.06 294.29 194.76C293.78 193.46 292.1 194.96 292.1 194.96L286.51 202.15L284.51 195.01C284.51 195.01 284.59 193.48 282.61 193.47L283.38 216.64L288.38 234.47L302.34 237.2Z" fill="#A36957"/>
<path d="M303.61 285.47C303.61 285.47 303.61 285.17 303.53 284.6C303.45 284.03 303.45 283.13 303.39 282.04C303.29 279.77 303.15 276.49 302.96 272.32C302.63 263.87 302.15 251.83 301.57 237.26V237.15L301.69 237.04C302.87 236.03 303.78 234.74 304.35 233.29C304.89 231.75 305.08 230.1 304.9 228.47C304.73 225.08 304.31 221.55 303.83 217.94V217.75C304.73 215.85 305.63 213.88 306.5 211.86C306.93 210.86 307.37 209.86 307.76 208.8C307.96 208.28 308.15 207.75 308.3 207.23L308.4 206.84V206.52C308.4 206.28 308.35 206.04 308.26 205.82C308.32 205.66 307.56 205.82 307.08 205.99C306.84 206.05 306.62 206.16 306.43 206.32C306.22 206.49 306.03 206.69 305.85 206.89C305.09 207.76 304.39 208.67 303.75 209.62C302.43 211.54 301.19 213.56 299.98 215.62L299.54 216.36L299.33 215.53C298.78 213.39 298.19 211.08 297.6 208.75V208.61L297.68 208.48L299.92 204.81C300.77 203.37 301.71 201.89 302.4 200.47C302.54 200.07 302.74 199.66 302.83 199.32C302.89 199.14 302.83 199.06 302.83 199.08C302.73 199.02 302.61 199 302.5 199.01C302.36 199.07 302.23 199.13 302.1 199.21C301.94 199.3 301.77 199.44 301.61 199.54C301.28 199.78 300.95 200.03 300.61 200.29C298.07 202.38 295.69 204.63 293.37 206.85L293.47 206.57C293.7 209.08 293.93 211.55 294.14 214V214.12C294.04 214.4 293.77 214.57 293.48 214.54C293.31 214.52 293.15 214.47 293 214.38C292.75 214.25 292.52 214.1 292.32 213.91C291.93 213.5 291.68 212.97 291.61 212.4C291.42 211.41 291.31 210.41 291.27 209.4C291.17 207.4 291.17 205.53 291.27 203.63V203.48C292.27 201.7 293.16 199.85 293.93 197.96C293.96 197.87 293.98 197.77 293.99 197.68V197.27C293.99 196.99 294.09 196.74 294.13 196.5C294.23 196.06 294.21 195.6 294.08 195.17C293.93 194.68 293.78 194.48 293.41 194.55C292.99 194.66 292.61 194.88 292.29 195.18L286.76 202.38L286.41 202.85L286.25 202.28C285.58 199.81 284.94 197.42 284.31 195.13V195.05C284.31 194.65 284.13 194.28 283.81 194.05C283.47 193.85 283.08 193.75 282.68 193.76L282.95 193.49C283.22 202.91 283.45 210.73 283.62 216.66C284.72 220.91 285.57 224.21 286.16 226.48L286.79 229.02C286.93 229.59 286.97 229.89 286.97 229.89C286.97 229.89 286.87 229.61 286.7 229.04C286.53 228.47 286.29 227.61 285.99 226.52C285.36 224.27 284.46 220.98 283.29 216.74L282.51 193.49V193.21H282.78C283.28 193.19 283.78 193.32 284.21 193.59C284.68 193.91 284.96 194.46 284.95 195.03V194.94C285.62 197.23 286.28 199.61 286.95 202.08L286.44 201.98L291.94 194.75C292.34 194.37 292.83 194.1 293.37 193.96C293.73 193.88 294.1 193.98 294.37 194.22C294.58 194.44 294.72 194.71 294.79 195.01C294.95 195.54 294.98 196.1 294.86 196.64C294.86 196.9 294.76 197.14 294.74 197.36C294.73 197.48 294.73 197.59 294.74 197.71C294.73 197.87 294.7 198.02 294.65 198.17C293.87 200.11 292.97 202 291.95 203.82V203.68C291.9 205.56 291.95 207.47 292.01 209.4C292.05 210.36 292.16 211.32 292.34 212.26C292.39 212.68 292.56 213.07 292.83 213.39C292.99 213.54 293.18 213.67 293.37 213.78C293.44 213.82 293.52 213.85 293.6 213.86V213.93C293.76 214 293.39 213.85 293.43 213.87V214.01C293.21 211.57 292.98 209.09 292.75 206.58V206.42L292.87 206.3C295.2 204.07 297.57 201.82 300.15 199.69C300.48 199.43 300.81 199.17 301.15 198.92C301.33 198.8 301.49 198.67 301.69 198.56C301.91 198.41 302.17 198.31 302.43 198.26C302.73 198.23 303.04 198.32 303.27 198.52C303.5 198.77 303.56 199.13 303.44 199.45C303.31 199.92 303.13 200.27 302.99 200.66C302.21 202.27 301.32 203.66 300.45 205.13L298.21 208.8V208.53L299.94 215.31L299.3 215.22C300.52 213.15 301.77 211.13 303.11 209.22C303.77 208.24 304.49 207.31 305.27 206.42C305.47 206.19 305.69 205.98 305.93 205.78C306.19 205.57 306.48 205.42 306.8 205.34C307.09 205.25 307.38 205.17 307.67 205.11C307.85 205.08 308.04 205.08 308.22 205.11C308.46 205.15 308.68 205.3 308.8 205.52C308.93 205.84 309 206.18 309.01 206.52C309.01 206.69 309.01 206.87 309.01 207.04L308.9 207.47C308.73 208.04 308.54 208.57 308.34 209.1C307.93 210.1 307.49 211.18 307.06 212.19C306.18 214.19 305.27 216.19 304.37 218.1V217.91C304.84 221.54 305.25 225.07 305.42 228.5C305.59 230.22 305.38 231.95 304.8 233.57C304.19 235.12 303.21 236.49 301.94 237.57L302.06 237.32C302.53 251.9 302.92 263.95 303.2 272.39C303.32 276.57 303.41 279.85 303.47 282.13C303.47 283.22 303.47 284.07 303.52 284.68C303.57 285.29 303.61 285.47 303.61 285.47Z" fill="#7C3B29"/>
<path d="M287.63 214.74C287.44 214.74 287.06 211.93 286.78 208.41C286.5 204.89 286.44 202.02 286.63 202.02C286.82 202.02 287.21 204.84 287.48 208.35C287.75 211.86 287.83 214.72 287.63 214.74Z" fill="#7C3B29"/>
<path d="M250.51 222.96L234.84 191.28C261.79 132.92 236.33 63.77 177.97 36.81C119.61 9.85005 50.46 35.32 23.5 93.68C-3.45 152.04 22.01 221.19 80.37 248.15C124.35 268.46 176.32 259.41 210.84 225.41V225.47L250.51 222.96Z" fill="#FAFAFA"/>
<path d="M250.51 222.96L210.85 225.58H210.64L210.75 225.39V225.33L210.93 225.47C208.03 228.32 204.98 231.03 201.81 233.58C200.15 234.98 198.31 236.26 196.48 237.64C194.65 239.02 192.65 240.3 190.58 241.55C181.54 247.21 171.75 251.59 161.5 254.55C149.52 257.99 137.06 259.51 124.6 259.04C110.53 258.5 96.68 255.39 83.72 249.87C69.46 243.8 56.54 234.97 45.72 223.87C21.37 198.81 9.56 164.14 13.56 129.43C13.75 127.17 14.19 124.93 14.56 122.67C14.93 120.41 15.46 118.2 15.93 115.95C18.11 106.94 21.32 98.2201 25.5 89.9501C29.87 81.5001 35.21 73.5901 41.42 66.3801L43.83 63.7301L45.03 62.4001L46.3 61.1401L48.82 58.6201L51.44 56.1501C58.41 49.8501 66.14 44.4401 74.44 40.0301C76.44 38.8901 78.56 37.9501 80.64 36.9401C82.72 35.9301 84.87 35.1301 86.97 34.2301C89.13 33.4801 91.25 32.6301 93.42 31.9601C95.59 31.2901 97.75 30.5701 99.96 30.0701C108.6 27.8401 117.45 26.5901 126.37 26.3401C174.75 25.1301 218.83 53.9701 237.1 98.7901C239.53 104.82 241.47 111.02 242.9 117.36C243.21 118.9 243.51 120.42 243.81 121.93C244.11 123.44 244.27 124.93 244.51 126.45L244.84 128.69C244.92 129.43 244.99 130.17 245.07 130.91C245.24 132.38 245.35 133.84 245.43 135.3C246.12 145.94 245.33 156.62 243.1 167.05C242.12 171.48 240.89 175.86 239.42 180.15C238.02 184.15 236.49 187.9 234.95 191.29V191.2C245.03 211.75 250.18 222.2 250.52 222.92C250.17 222.23 244.97 211.78 234.75 191.29C236.28 187.9 237.75 184.2 239.18 180.16C244.05 165.76 246.05 150.53 245.06 135.36C244.97 133.91 244.86 132.45 244.69 130.98L244.45 128.77L244.12 126.54C243.88 125.06 243.73 123.54 243.41 122.04C243.09 120.54 242.81 119.04 242.5 117.48C241.07 111.17 239.13 104.98 236.7 98.9801C218.47 54.3501 174.54 25.6401 126.34 26.8801C117.46 27.1301 108.64 28.3801 100.04 30.6001C97.85 31.1001 95.71 31.8401 93.54 32.4801C91.37 33.1201 89.27 34.0001 87.12 34.7501C85.02 35.6501 82.88 36.4601 80.81 37.4501C78.74 38.4401 76.65 39.3801 74.64 40.5301C66.39 44.9001 58.72 50.2801 51.79 56.5301L49.18 58.9201L46.67 61.4301L45.41 62.6901L44.21 64.0101L41.81 66.6501C35.62 73.8301 30.31 81.7201 25.97 90.1501C21.81 98.4001 18.6 107.09 16.43 116.07C15.97 118.3 15.43 120.52 15.07 122.76C14.71 125 14.3 127.23 14.07 129.49C12.06 147.07 14.07 164.88 19.98 181.56C25.53 197.28 34.43 211.61 46.06 223.56C56.83 234.64 69.69 243.48 83.89 249.56C96.8 255.07 110.6 258.18 124.62 258.74C137.04 259.22 149.45 257.72 161.4 254.3C171.62 251.37 181.38 247.04 190.4 241.42C192.48 240.18 194.4 238.82 196.3 237.53C198.2 236.24 199.96 234.89 201.62 233.53C204.8 230.99 207.84 228.3 210.75 225.46L211.35 224.89L210.93 225.6V225.66L210.83 225.48L250.51 222.96Z" fill="#263238"/>
<path d="M69.51 242.69L189.27 242.5C189.27 242.5 160.64 261.5 126.27 259.23C96.38 257.29 69.51 242.69 69.51 242.69Z" fill="#455A64"/>
<path d="M121.96 162.35L128.79 187.35L153.74 153.66L147.86 242H112.24L101.86 242.5C101.86 242.5 103.4 228.58 104.03 220.71C104.41 214.43 105.47 208.21 107.19 202.15C112.51 184.85 121.96 162.35 121.96 162.35Z" fill="#FAFAFA"/>
<path d="M130 201.45C130.09 201.56 126.06 204.8 121 208.69C115.94 212.58 111.79 215.63 111.7 215.52C111.61 215.41 115.63 212.16 120.7 208.28C125.77 204.4 129.91 201.33 130 201.45Z" fill="#263238"/>
<path d="M192.01 150.17L172.61 140.84L165 131.8L154.24 142.98L125.7 241.75H174.64L180.91 224.8L192.01 159.36V150.17Z" fill="#70B884"/>
<path d="M104.71 243.15L103.4 222.15L162.51 212.15C162.51 212.15 172.61 163.37 178.83 155.38C184.58 148 192.06 150.56 192.06 150.56C192.06 150.56 198.81 155.18 197.2 172.87C196.35 182.14 192.96 214.26 191.74 225.87C191.44 228.65 190.52 231.33 189.04 233.7C185.66 239.13 179.71 242.44 173.31 242.44L104.71 243.15Z" fill="#70B884"/>
<path d="M172.17 224.38C172.08 224.38 172 223.45 171.57 222.02C170.45 218.24 167.81 215.11 164.28 213.37C162.94 212.7 162.02 212.47 162.05 212.37C162.88 212.43 163.69 212.66 164.43 213.03C168.19 214.64 170.97 217.93 171.92 221.91C172.16 222.71 172.24 223.55 172.17 224.38Z" fill="#263238"/>
<g opacity="0.2">
<path d="M171.09 142.26C170.53 148.43 169.35 154.53 167.56 160.47L163.12 159.17C164.82 161.91 165.3 165.25 164.44 168.36C163.57 171.43 162.28 174.37 160.6 177.08C153.27 190.29 145.91 203.5 138.54 216.72L160.78 166.22L160.2 156.88L164.48 155.97L171.09 142.26Z" fill="black"/>
</g>
<g opacity="0.2">
<path d="M162.32 211.62C167.92 211.3 172.97 214.95 174.41 220.37C174.62 220.99 174.62 221.65 174.41 222.27C174.18 222.9 173.5 223.24 172.86 223.06C172.44 222.8 172.13 222.39 172 221.91C170.01 217.46 166.3 214.01 161.72 212.34" fill="black"/>
</g>
<path d="M138.7 216.24C138.78 215.96 138.88 215.69 139 215.43L140 213.14L143.59 204.79L155.65 177.3C157.37 173.4 159.03 169.64 160.59 166.12V166.23C160.4 162.91 160.21 159.79 160.04 156.9V156.7H160.22L164.51 155.81L164.37 155.92L169.7 145.13L171.19 142.18L171.6 141.42C171.64 141.33 171.69 141.24 171.75 141.16C171.73 141.26 171.7 141.35 171.65 141.44L171.3 142.23C170.96 142.96 170.5 143.97 169.91 145.23L164.74 156.1V156.19H164.64L160.36 157.12L160.54 156.89C160.72 159.78 160.92 162.89 161.14 166.22V166.34C159.58 169.87 157.93 173.63 156.21 177.53L144.02 204.96C142.45 208.42 141.18 211.24 140.27 213.25L139.27 215.49C139.1 215.75 138.91 216 138.7 216.24Z" fill="#263238"/>
<path d="M104.66 242.49C104.64 242.37 104.62 242.26 104.61 242.14C104.61 241.88 104.61 241.54 104.53 241.14C104.46 240.2 104.36 238.88 104.24 237.14C104.01 233.69 103.68 228.74 103.24 222.65V222.48H103.4L146.17 214.62L161.94 211.76L161.74 211.95C165.21 198.78 168.21 187.35 170.37 179.17C171.45 175.17 172.37 171.9 172.92 169.64C173.23 168.55 173.46 167.7 173.63 167.09L173.82 166.43L173.9 166.22C173.91 166.3 173.91 166.37 173.9 166.45L173.75 167.11C173.6 167.73 173.39 168.59 173.12 169.68L170.71 179.25C168.6 187.44 165.65 198.89 162.26 212.07V212.23H162.1L146.29 215.15L103.51 222.85L103.67 222.65C104 228.75 104.27 233.7 104.46 237.16C104.54 238.85 104.6 240.16 104.64 241.11V242.11C104.66 242.24 104.67 242.36 104.66 242.49Z" fill="#263238"/>
<path d="M189.03 148.54C189.03 148.63 188.03 148.78 186.53 149.34C182.56 150.83 179.35 153.84 177.6 157.7C176.94 159.17 176.73 160.17 176.6 160.14C176.47 160.11 176.6 159.89 176.67 159.43C176.79 158.79 176.98 158.16 177.22 157.56C178.84 153.48 182.2 150.34 186.37 148.99C186.99 148.79 187.63 148.65 188.27 148.56C188.77 148.51 189.02 148.5 189.03 148.54Z" fill="#263238"/>
<path d="M77.27 126.31C79.02 123.08 78.27 110.04 80.94 110.5C84.39 111.09 81.2 124.8 80.94 126.05C80.68 127.3 82.53 127.6 82.66 126.47C82.86 124.84 84.86 108.89 88.25 109.79C90.13 110.28 89.25 113.71 89.25 113.71C89.25 113.71 86.33 129.17 87.95 129.54C89.57 129.91 90.8 121 91.52 117.76C92.24 114.52 94.24 113.31 95.01 114.95C96.13 117.35 94.01 125.14 93.33 128.26C92.65 131.38 91.07 140.43 95.46 136.89C99.85 133.35 104.46 132.25 105.97 132.82C107.48 133.39 107.1 135.62 105.42 136.06C103.64 136.73 101.96 137.63 100.42 138.74C99.2 139.65 98.08 140.7 97.1 141.86C95.79 143.3 94.73 144.95 93.96 146.74C92.7 149.6 90.28 151.78 87.3 152.74L84.74 164.92L68.16 161.37L71.85 148.48C73.2 140.01 72.46 128.63 72.47 123.48C72.47 115.22 73.56 115.16 74.47 115.38C76.68 115.81 75.56 129.46 77.27 126.31Z" fill="#FFD1BD"/>
<path d="M76.8 137.39C77.56 137.68 78.29 138.01 79.01 138.39C80.69 139.43 82 140.98 82.75 142.81C82.97 143.37 83.13 143.96 83.25 144.55L83.3 144.83L83.54 144.7C84.87 143.92 86.32 143.37 87.83 143.07C88.96 142.85 89.66 142.83 89.66 142.77C89.04 142.66 88.41 142.66 87.79 142.77C86.22 143 84.71 143.51 83.34 144.3L83.63 144.45C83.53 143.82 83.35 143.2 83.12 142.61C82.69 141.56 82.07 140.6 81.3 139.77C80.67 139.1 79.94 138.54 79.14 138.09C78.61 137.8 78.05 137.57 77.46 137.42C77.24 137.37 77.02 137.36 76.8 137.39Z" fill="#CC8F75"/>
<path d="M74.6 148.99C76.99 150.62 79.82 151.5 82.71 151.52C82.71 151.4 80.82 151.18 78.58 150.47C76.34 149.76 74.65 148.88 74.6 148.99Z" fill="#CC8F75"/>
<path d="M134.62 136.99L121.96 162.35L128.79 187.34L146.98 168.12L164.91 134.81L134.62 136.99Z" fill="#FFD1BD"/>
<path d="M122.7 139.37C122.7 139.37 104.7 145.77 104.7 146.96C101.52 149.45 90.93 175.06 87.56 179.9L77.92 194.15L86 162.61L68.23 157.39C68.23 157.39 53.05 194.01 51.21 202.15C50.1 206.98 50.2 212.02 51.51 216.8L51.61 216.72C52.75 220.37 55.1 223.53 58.27 225.67C65.8 230.5 72.84 231.41 80.04 226.09C84.12 223.09 88.78 219.44 93.04 216.04L94.16 242.52H103.97C103.97 241.03 103.67 222.89 103.67 222.89C104.96 218.6 105.96 214.22 106.67 209.8C107.56 203.56 122.18 162.58 122.18 162.58L133.51 140.72L133.78 132.63L122.7 139.37Z" fill="#70B884"/>
<path d="M93.95 242.29C93.9 242.02 93.88 241.74 93.87 241.47C93.83 240.88 93.78 240.09 93.72 239.1C93.61 236.98 93.46 234 93.27 230.32C92.93 222.83 92.47 212.52 91.95 200.96V200.9C92.16 199.81 92.39 198.64 92.62 197.46C94.99 185.32 97.15 174.32 98.72 166.31L100.63 156.89C100.85 155.81 101.04 154.96 101.17 154.33L101.32 153.67C101.34 153.59 101.36 153.52 101.39 153.45C101.41 153.53 101.41 153.6 101.39 153.68L101.28 154.35L100.83 156.93L99.09 166.39C97.56 174.39 95.46 185.39 93.09 197.57C92.87 198.74 92.64 199.91 92.43 201V200.94C92.89 212.5 93.3 222.82 93.59 230.3C93.71 233.99 93.81 236.97 93.88 239.09C93.88 240.09 93.88 240.88 93.94 241.47C93.97 241.74 93.97 242.02 93.94 242.29H93.95Z" fill="#263238"/>
<path d="M104.02 218.79C104.02 218.51 104.05 218.23 104.11 217.96C104.2 217.38 104.31 216.59 104.46 215.6C104.81 213.5 105.29 210.6 105.88 206.92C107.13 199.56 108.88 189.48 110.74 178.33C112.01 171.04 113.2 164.2 114.22 158.33V158.27C116.72 152.61 118.81 147.88 120.29 144.51C121.02 142.89 121.61 141.6 122.03 140.66L122.5 139.66C122.55 139.54 122.61 139.43 122.69 139.32C122.66 139.44 122.62 139.57 122.57 139.68C122.46 139.96 122.33 140.3 122.16 140.68C121.76 141.62 121.22 142.93 120.54 144.57C119.09 147.96 117.06 152.72 114.64 158.41C113.64 164.24 112.48 171.09 111.23 178.41C109.23 189.55 107.51 199.62 106.23 206.98C105.57 210.59 105.04 213.53 104.65 215.62L104.2 217.97C104.16 218.25 104.1 218.52 104.02 218.79Z" fill="#263238"/>
<path d="M69.51 215.85C69.44 215.8 70.21 214.7 71.29 212.85C72.7 210.38 73.91 207.81 74.91 205.15C75.91 202.54 76.74 199.87 77.39 197.15C77.89 195.04 78.12 193.72 78.2 193.73C78.25 194.04 78.25 194.37 78.2 194.68C78.14 195.29 78.01 196.16 77.8 197.23C77.25 200.02 76.47 202.76 75.45 205.42C74.44 208.08 73.17 210.64 71.67 213.06C71.08 213.99 70.58 214.71 70.2 215.19C69.82 215.67 69.51 215.88 69.51 215.85Z" fill="#263238"/>
<g opacity="0.2">
<path d="M70.88 214.39C70.29 214.52 69.91 215.1 70.04 215.7C70.06 215.78 70.09 215.87 70.12 215.94C70.47 216.54 71.16 216.85 71.84 216.72C72.5 216.58 73.11 216.25 73.59 215.77C75.04 214.28 76.07 212.44 76.59 210.43C78.12 205.61 78.19 200.43 78.25 195.43C76.85 202.03 74.38 208.36 70.92 214.15" fill="black"/>
</g>
<g opacity="0.2">
<path d="M92.74 216.74C89.83 211.87 88.56 206.19 89.11 200.54C89.65 192.84 93.39 185.8 96.18 178.61C94.58 186.17 93.66 193.68 92.18 200.95C92.18 200.95 92.95 211.76 92.97 216.55" fill="black"/>
</g>
<g opacity="0.2">
<path d="M105.16 211.92C105.94 200.4 106.73 188.86 108.76 177.5C110.82 165.87 114.73 154.65 120.36 144.27C118.91 148.83 114.44 158.41 114.44 158.41C114.44 158.41 107.99 192.41 105.19 209.57" fill="black"/>
</g>
<path d="M103.71 225.15L105.32 243.01H96.89L89.43 242.89C86.59 243.2 83.72 243.27 80.87 243.11C80.73 243.11 80.6 243.09 80.47 243.03C80.03 242.97 79.59 242.86 79.17 242.71C78.41 242.43 77.63 241.94 77.75 241.1C78.12 238.54 79.64 238.33 79.64 238.33H80.4L80.46 238.11C79.31 238.11 78.33 238.11 77.82 238.02C77.58 238.02 77.44 237.97 77.42 237.93C77.4 237.89 74.42 237.58 74.66 236C74.99 233.36 76.51 233.15 76.51 233.15L78.97 232.99C77.78 232.99 76.76 232.99 76.24 232.9C76 232.9 75.86 232.85 75.84 232.81C75.82 232.77 72.84 232.46 73.08 230.88C73.45 228.32 74.97 228.11 74.97 228.11L76.97 227.97C75.97 227.97 75.2 227.97 74.75 227.89C74.51 227.89 74.37 227.84 74.35 227.8C74.33 227.76 71.35 227.45 71.59 225.87C72 223.3 73.51 223.15 73.51 223.15C73.51 223.15 78.21 222.81 81.44 222.68C81.44 222.68 85.11 219.38 86.55 219.53C88.71 219.76 101.25 224.39 101.25 224.39L103.71 225.15Z" fill="#FFD1BD"/>
<path d="M87.89 237.78C86.52 238.09 85.11 238.22 83.71 238.18C82.33 238.31 80.94 238.26 79.57 238.05C80.94 237.74 82.35 237.6 83.75 237.64C85.13 237.51 86.52 237.55 87.89 237.78Z" fill="#CC8F75"/>
<path d="M87.91 232.71C85.95 233.05 83.96 233.22 81.97 233.2C79.97 233.36 77.96 233.34 75.97 233.14C77.93 232.8 79.92 232.64 81.91 232.66C83.91 232.49 85.92 232.51 87.91 232.71Z" fill="#CC8F75"/>
<g opacity="0.78">
<path d="M87.51 227.57C85.53 227.91 83.52 228.07 81.51 228.05C79.51 228.21 77.5 228.19 75.51 227.99C77.47 227.65 79.46 227.49 81.45 227.51C83.47 227.34 85.5 227.36 87.51 227.57Z" fill="#CC8F75"/>
</g>
<path d="M80.11 222.73C80.73 222.85 81.37 222.9 82 222.88L86.57 223.03L91.14 223.2C91.77 223.26 92.41 223.26 93.04 223.2C92.43 223.02 91.8 222.92 91.16 222.9C89.99 222.79 88.37 222.67 86.58 222.61C84.79 222.55 83.18 222.55 82 222.61C81.37 222.58 80.73 222.61 80.11 222.73Z" fill="#CC8F75"/>
<path d="M173.19 77.2601C175.31 72.1101 182.01 69.7601 187.25 71.6801C192.49 73.6001 195.97 78.9601 196.6 84.5001C197.03 87.2301 196.47 90.0301 195 92.3801C193.23 94.7001 190.58 96.1901 187.68 96.5001C179.69 97.6101 172.32 92.0401 171.2 84.0601C170.83 81.4201 171.2 78.7201 172.25 76.2701" fill="#263238"/>
<path d="M194.51 77.94C194.51 77.94 194.41 78.2099 194.13 78.6299C193.73 79.2099 193.28 79.7599 192.79 80.2699C189.47 83.7099 184.69 85.36 179.95 84.68C179.25 84.58 178.56 84.42 177.88 84.2099C177.62 84.15 177.38 84.05 177.16 83.9C177.16 83.81 178.24 84.1499 179.99 84.3099C184.6 84.7599 189.17 83.19 192.53 80.01C193.78 78.8 194.41 77.89 194.51 77.94Z" fill="#455A64"/>
<path d="M196.7 83.82C196.7 83.82 196.52 84.04 196.13 84.36C195.58 84.81 194.99 85.24 194.39 85.62C192.4 86.91 190.19 87.84 187.87 88.36C186.58 88.62 185.27 88.72 183.96 88.66C182.89 88.61 181.84 88.43 180.81 88.14C180.12 87.96 179.45 87.71 178.81 87.39C178.36 87.17 178.11 87.03 178.13 87C178.15 86.97 179.19 87.38 180.92 87.79C181.93 88.02 182.96 88.16 184 88.19C185.27 88.21 186.54 88.1 187.79 87.85C190.05 87.34 192.22 86.48 194.22 85.3C195.75 84.41 196.65 83.75 196.7 83.82Z" fill="#455A64"/>
<path d="M119.11 92.6501C106.73 65.4201 136.18 51.7501 152.24 56.2801C167.34 60.5501 173.78 68.0601 176.24 78.1601C178.7 88.2601 178.61 99.1601 174.65 108.83C172.65 113.57 169.18 118.4 164.08 118.99" fill="#263238"/>
<path d="M133.9 159.94C133.68 146.94 133.53 129.06 133.53 129.14C133.53 129.22 122.35 127.28 120.03 112.69C118.88 105.44 119.24 93.5399 119.85 83.8199C120.41 75.0599 126.2 64.3299 134.93 65.2499L162.16 72.1499C164.81 72.4299 166.81 74.6899 166.75 77.3599L164.97 133.68" fill="#FFD1BD"/>
<path d="M126.51 94.15C126.49 95.16 127.27 96 128.28 96.05C129.26 96.14 130.13 95.42 130.22 94.44C130.22 94.43 130.22 94.41 130.22 94.4C130.24 93.39 129.46 92.55 128.45 92.5C127.47 92.41 126.6 93.13 126.51 94.11C126.51 94.12 126.51 94.14 126.51 94.15Z" fill="#263238"/>
<path d="M146.71 94.15C146.69 95.16 147.47 96 148.48 96.05C149.46 96.14 150.33 95.42 150.42 94.44C150.42 94.43 150.42 94.41 150.42 94.4C150.44 93.39 149.66 92.55 148.65 92.5C147.67 92.41 146.8 93.13 146.71 94.11C146.71 94.12 146.71 94.14 146.71 94.15Z" fill="#263238"/>
<path d="M134.64 104.51C133.58 104.18 132.48 103.99 131.37 103.92C130.85 103.87 130.37 103.77 130.28 103.42C130.23 102.89 130.35 102.35 130.62 101.89L132.14 97.9801C134.25 92.4001 135.78 87.8201 135.56 87.7401C135.34 87.6601 133.44 92.1101 131.33 97.6801C130.82 99.0501 130.33 100.36 129.87 101.62C129.55 102.23 129.45 102.94 129.6 103.62C129.75 103.99 130.06 104.27 130.45 104.38C130.73 104.45 131.03 104.49 131.32 104.5C132.42 104.65 133.54 104.65 134.64 104.51Z" fill="#263238"/>
<path d="M133.51 129.2C140.38 129.3 147.15 127.5 153.05 123.98C153.05 123.98 148.1 134.15 133.51 132.77V129.2Z" fill="#CC8F75"/>
<path d="M163.96 95.7401C164.18 95.6401 171.77 92.2801 171.86 101.01C171.95 109.74 163.16 108.01 163.14 107.79C163.12 107.57 163.96 95.7401 163.96 95.7401Z" fill="#FFD1BD"/>
<path d="M165.78 104.45C165.78 104.45 165.93 104.55 166.19 104.67C166.56 104.82 166.96 104.82 167.33 104.67C168.25 104.32 169.01 102.85 169.04 101.28C169.05 100.53 168.9 99.7801 168.59 99.1001C168.42 98.5501 167.98 98.1201 167.43 97.9501C167.07 97.8601 166.7 98.0301 166.54 98.3701C166.42 98.6201 166.48 98.7901 166.43 98.8101C166.38 98.8301 166.24 98.6601 166.31 98.3001C166.36 98.0801 166.48 97.8901 166.65 97.7501C166.89 97.5701 167.19 97.4801 167.49 97.5201C168.22 97.6601 168.83 98.1701 169.09 98.8601C169.48 99.6101 169.66 100.45 169.64 101.29C169.64 103.05 168.72 104.7 167.46 105.08C166.99 105.23 166.47 105.15 166.07 104.86C165.8 104.66 165.75 104.47 165.78 104.45Z" fill="#CC8F75"/>
<path d="M135.23 110.15C135.48 110.91 135.85 111.63 136.32 112.28C136.79 112.94 137.52 113.36 138.32 113.45C139.21 113.45 140.04 113 140.51 112.25C140.96 111.52 141.17 110.67 141.11 109.81C141.11 109.04 140.72 108.12 139.96 108.03C139.64 108.02 139.32 108.09 139.03 108.24L135.03 109.86" fill="#CC8F75"/>
<path d="M136.83 113.44C137.56 113.5 138.29 113.41 138.98 113.18C139.68 112.9 140.26 112.38 140.6 111.71C140.97 110.87 140.97 109.92 140.6 109.08C140.51 108.87 140.39 108.67 140.25 108.48C140.09 108.31 140.12 108.32 139.95 108.35C139.78 108.38 139.52 108.52 139.3 108.6L138.64 108.87C137.78 109.22 137 109.52 136.35 109.77C135.66 110.11 134.92 110.33 134.16 110.42C134.76 109.94 135.44 109.57 136.16 109.3C136.79 108.99 137.55 108.64 138.39 108.3L139.04 108.01C139.28 107.9 139.53 107.8 139.78 107.71C139.97 107.65 140.18 107.65 140.37 107.71C140.55 107.79 140.7 107.91 140.82 108.06C141 108.3 141.15 108.56 141.27 108.83C141.71 109.87 141.66 111.04 141.14 112.04C140.72 112.83 140 113.42 139.14 113.69C138.58 113.87 137.98 113.89 137.4 113.76C137.01 113.62 136.82 113.48 136.83 113.44Z" fill="#263238"/>
<path d="M173.76 89.76C172.86 89.7 165.65 90.63 166.22 104.04C166.75 116.57 175.53 113.81 178.34 109.1C180.99 104.63 182.51 90.38 173.76 89.76Z" fill="#455A64"/>
<path d="M178.22 91.3501C178.21 91.2301 178.21 91.1201 178.22 91.0001V90.0001C178.22 89.0801 178.16 87.7901 178.11 86.1801C178.05 82.8901 177.96 78.3201 177.85 73.0301L178.01 73.1901H174.21L174.38 73.0201C174.38 74.0201 174.44 75.0701 174.46 76.1401C174.59 81.1401 174.71 85.8501 174.8 89.7801V89.8901H174.68C173.16 90.2401 171.81 91.1101 170.85 92.3501C170.13 93.3201 169.61 94.4201 169.32 95.5901C169.13 96.3401 169 97.1101 168.93 97.8801V98.7001C168.92 98.6301 168.92 98.5601 168.93 98.4901V97.8701C168.97 97.0901 169.07 96.3101 169.25 95.5501C169.52 94.3501 170.03 93.2101 170.76 92.2201C171.75 90.9101 173.16 89.9801 174.76 89.6101L174.65 89.7501C174.54 85.8301 174.4 81.1501 174.26 76.1201C174.26 75.0501 174.2 73.9901 174.18 72.9901V72.8201H178.23V72.9801C178.29 78.2601 178.34 82.8401 178.38 86.1301V90.9501C178.34 91.0901 178.28 91.2201 178.22 91.3501Z" fill="#455A64"/>
<path d="M173.76 73C171.05 67.33 166.57 62.7 160.99 59.81C157.55 58.09 153.94 56.75 150.22 55.81C150.22 55.81 155.47 54.57 163.96 58.34C167.81 60.06 171.7 62.34 174.27 65.64C175.9 67.77 177.94 71.92 177.93 72.99H173.76V73Z" fill="#455A64"/>
<path d="M172.8 112.84C172.71 112.84 172.62 112.81 172.54 112.77C172.31 112.67 172.08 112.56 171.87 112.42C171.09 111.91 170.44 111.23 169.98 110.42C169.32 109.21 168.93 107.87 168.82 106.49C168.67 104.83 168.67 103.15 168.82 101.49C168.96 99.82 169.24 98.17 169.65 96.55C169.94 95.21 170.42 93.91 171.09 92.71C171.56 91.9 172.21 91.22 172.99 90.71C173.2 90.57 173.43 90.46 173.66 90.37C173.74 90.33 173.83 90.31 173.92 90.3C173.92 90.3 173.59 90.45 173.06 90.82C172.33 91.35 171.73 92.03 171.29 92.82C170.67 94.02 170.22 95.29 169.95 96.61C169.56 98.22 169.29 99.86 169.15 101.51C169.02 103.16 169.02 104.81 169.15 106.46C169.24 107.8 169.6 109.11 170.21 110.31C170.64 111.1 171.24 111.78 171.97 112.31C172.51 112.69 172.81 112.81 172.8 112.84Z" fill="#263238"/>
<path d="M143.879 110.82L136.97 112.175C136.049 112.356 135.449 113.25 135.629 114.171L135.731 114.691C135.912 115.612 136.806 116.213 137.727 116.032L144.635 114.677C145.557 114.496 146.157 113.602 145.976 112.681L145.874 112.161C145.693 111.24 144.8 110.639 143.879 110.82Z" fill="#455A64"/>
<path d="M145.01 111.83L175.66 102.21C176.43 101.96 177.25 102.37 177.51 103.14C177.51 103.14 177.51 103.14 177.51 103.15C177.75 103.91 177.33 104.73 176.57 104.97C176.55 104.97 176.53 104.98 176.51 104.99L145.16 113.46L145.01 111.83Z" fill="#455A64"/>
<path d="M167.66 107.6C167.99 107.46 168.32 107.35 168.66 107.25L171.46 106.39C172.64 106.03 174.08 105.65 175.61 105.15C175.98 105.01 176.32 104.8 176.61 104.53C176.89 104.24 177.04 103.86 177.04 103.46C177.04 103.06 176.79 102.71 176.41 102.58C175.99 102.47 175.55 102.47 175.13 102.58L165.94 105.58L163.14 106.45C162.81 106.56 162.48 106.65 162.14 106.72C162.46 106.56 162.8 106.43 163.14 106.32L165.91 105.32C168.25 104.53 171.47 103.42 175.09 102.32C175.57 102.17 176.08 102.17 176.56 102.32C177.07 102.49 177.41 102.97 177.41 103.5C177.41 103.99 177.23 104.46 176.88 104.8C176.56 105.11 176.18 105.34 175.76 105.49C174.18 105.99 172.76 106.33 171.57 106.67L168.74 107.42C168.39 107.51 168.02 107.58 167.66 107.6Z" fill="#263238"/>
<path d="M151.58 89.9C151.34 90.27 149.24 89.13 146.64 89.59C144.04 90.05 142.43 91.81 142.09 91.54C141.92 91.43 142.09 90.78 142.79 89.99C143.74 88.97 145 88.29 146.37 88.06C147.74 87.81 149.14 88.03 150.37 88.68C151.32 89.15 151.7 89.74 151.58 89.9Z" fill="#CC8F75"/>
<path d="M151.28 90.23C150.8 90.14 150.32 90.02 149.85 89.87C148.71 89.62 147.53 89.62 146.39 89.87C145.26 90.14 144.2 90.64 143.28 91.36C142.57 91.92 142.2 92.36 142.14 92.3C142.08 92.24 142.36 91.74 143.04 91.08C144.88 89.34 147.53 88.75 149.94 89.53C150.84 89.81 151.31 90.15 151.28 90.23Z" fill="#263238"/>
<path d="M152.63 84.36C152.41 85.06 150.18 85.01 147.53 85.14C144.88 85.27 142.64 85.42 142.39 84.74C142.27 84.4 142.73 83.89 143.64 83.43C146.06 82.34 148.8 82.24 151.29 83.15C152.23 83.54 152.72 84.02 152.63 84.36Z" fill="#263238"/>
<path d="M130.64 91.44C130.44 91.55 130.05 91.18 129.41 90.74C128.62 90.19 127.71 89.82 126.76 89.67C124.5 89.3 122.68 90.34 122.42 89.97C122.3 89.82 122.61 89.3 123.42 88.8C124.5 88.17 125.77 87.93 127.01 88.12C128.27 88.3 129.42 88.96 130.2 89.96C130.76 90.74 130.81 91.35 130.64 91.44Z" fill="#CC8F75"/>
<path d="M130.89 92.5201C130.82 92.5201 130.48 92.0702 129.77 91.4402C127.92 89.7702 125.32 89.2001 122.95 89.9601C122.05 90.2401 121.53 90.5502 121.49 90.4802C121.45 90.4102 121.9 90.0002 122.83 89.6102C124.05 89.1202 125.39 89.0102 126.67 89.2902C127.95 89.5702 129.13 90.2302 130.03 91.1802C130.43 91.5402 130.73 92.0001 130.89 92.5201Z" fill="#263238"/>
<path d="M131.79 85.2401C131.66 85.9501 129.53 86.1601 127.01 86.1901C124.49 86.2201 122.35 86.0301 122.21 85.3101C122.07 84.5901 124.21 83.6001 126.99 83.5801C129.77 83.5601 131.93 84.5401 131.79 85.2401Z" fill="#263238"/>
<path d="M155.34 64.5502C153.64 66.8502 152.29 69.3902 151.34 72.0802C150.39 74.8102 150.7 77.8302 152.19 80.3102C153.73 82.5602 156.36 83.7502 158.76 85.0602C161.16 86.3702 163.61 88.1702 164.21 90.8302C164.39 91.6602 164.04 94.5802 164.66 95.1602C165.52 95.9502 167.03 95.4602 167.66 94.4902C168.29 93.5202 168.74 90.3102 168.76 89.1402L168.91 78.2402C168.91 75.1602 168.91 71.9702 167.58 69.2402C165.71 65.3602 161.85 64.1202 156.21 64.4002" fill="#263238"/>
<path d="M119.51 86.4301C119.94 82.7201 121.37 79.2001 123.65 76.2401C125.95 73.2901 129.28 71.3001 132.97 70.6601C136.65 70.1001 140.37 71.1201 144.09 71.3301C147.81 71.5401 152.03 70.6301 153.97 67.4601C154.58 66.4601 154.86 65.0801 154.09 64.2201C153.78 63.9101 153.41 63.6701 153 63.5001C148.07 61.1001 142.54 60.2101 137.1 60.9301C131.64 61.6801 126.67 64.4701 123.17 68.7201C119.69 73.0501 118.39 78.7401 119.65 84.1501" fill="#263238"/>
<path d="M117.3 80.9501C117.22 80.8001 117.17 80.6401 117.13 80.4801C116.99 80.0101 116.89 79.5401 116.83 79.0601C116.61 77.2801 116.78 75.4701 117.33 73.7601C118.14 71.2001 119.66 68.9301 121.72 67.2101C124.24 65.1101 127.28 63.7201 130.52 63.2101C133.74 62.7201 137.02 62.8601 140.18 63.6401C141.54 63.9601 142.87 64.3701 144.18 64.8601C145.43 65.3201 146.54 65.8601 147.61 66.1101C149.3 66.5701 151.05 66.7201 152.79 66.5701C153.42 66.4401 154 66.1501 154.49 65.7401C154.4 65.8801 154.28 66.0101 154.15 66.1201C153.77 66.4401 153.32 66.6601 152.84 66.7701C151.06 67.0201 149.25 66.9101 147.51 66.4601C146.41 66.1901 145.27 65.7001 144.04 65.2701C142.73 64.8001 141.4 64.4201 140.04 64.1101C136.94 63.3701 133.72 63.2401 130.57 63.7201C127.43 64.2101 124.47 65.5301 122 67.5301C119.99 69.1801 118.49 71.3601 117.65 73.8201C117.08 75.4801 116.86 77.2301 117.01 78.9801C117.15 80.2701 117.35 80.9401 117.3 80.9501Z" fill="#455A64"/>
<path d="M133.44 58.0099C133.74 57.8999 134.05 57.84 134.36 57.83C135.21 57.74 136.06 57.74 136.91 57.83C139.74 58.1 142.43 59.1799 144.67 60.9299C145.96 61.9299 147.04 63.0799 148.19 63.8499C149.21 64.5199 150.36 64.9899 151.56 65.2099C152.36 65.3999 153.2 65.4599 154.02 65.3799C154.6 65.3099 154.89 65.15 154.92 65.19C154.68 65.4 154.38 65.54 154.06 65.58C153.21 65.74 152.34 65.74 151.49 65.58C150.22 65.4 149 64.95 147.92 64.26C146.71 63.47 145.6 62.3499 144.35 61.3499C142.18 59.6599 139.6 58.57 136.87 58.2C134.77 57.91 133.45 58.1499 133.44 58.0099Z" fill="#455A64"/>
<path d="M177.6 84.7901C177.6 84.7901 177.4 84.4501 176.98 83.8901C176.36 83.1201 175.56 82.5001 174.66 82.1001C173.32 81.5101 171.87 81.2201 170.4 81.2501C168.59 81.3501 166.78 81.6001 165.01 81.9901C163.2 82.3901 161.33 82.5301 159.48 82.4101C157.97 82.2801 156.49 81.9201 155.08 81.3501C154.13 80.9701 153.23 80.4801 152.39 79.9101C152.06 79.7101 151.76 79.4501 151.51 79.1501C152.69 79.8401 153.92 80.4501 155.19 80.9701C156.58 81.4701 158.03 81.7801 159.5 81.8901C161.31 81.9801 163.12 81.8301 164.89 81.4401C166.69 81.0401 168.53 80.8001 170.37 80.7301C171.9 80.7201 173.42 81.0601 174.8 81.7301C175.74 82.1901 176.54 82.8701 177.13 83.7301C177.28 83.9701 177.41 84.2101 177.51 84.4701C177.59 84.6901 177.62 84.7901 177.6 84.7901Z" fill="#455A64"/>
<path d="M176.02 77.7901C176.02 77.7901 175.83 77.4501 175.4 76.9101C174.77 76.1801 173.97 75.6201 173.07 75.2701C171.72 74.7701 170.27 74.6201 168.85 74.8201C167.24 74.9801 165.49 75.4701 163.6 75.8201C161.81 76.2301 159.95 76.2001 158.17 75.7401C156.73 75.3001 155.43 74.4901 154.39 73.3901C153.69 72.6701 153.12 71.8301 152.72 70.9101C152.63 70.6601 152.56 70.4101 152.51 70.1501C152.49 70.0601 152.49 69.9601 152.51 69.8701C153.06 71.0801 153.82 72.1901 154.75 73.1401C155.77 74.1401 157.03 74.8801 158.4 75.2901C160.11 75.7001 161.9 75.7001 163.61 75.2901C165.46 74.9401 167.23 74.4601 168.91 74.2901C170.4 74.1101 171.92 74.3101 173.31 74.8801C174.25 75.2701 175.06 75.9201 175.66 76.7401C175.87 77.0501 175.99 77.4101 176.02 77.7901Z" fill="#455A64"/>
<path d="M138.51 177.8L138.7 177.64L139.25 177.2C139.95 176.62 140.62 176.01 141.25 175.36C142.28 174.31 143.24 173.19 144.12 172.02C145.12 170.66 146.29 169.02 147.52 167.2C149.98 163.56 152.86 159.12 155.92 154.01C157.45 151.45 159.03 148.72 160.62 145.84C161.02 145.12 161.41 144.39 161.82 143.66C162.2 142.89 162.66 142.16 163.19 141.48C163.74 140.78 164.47 140.24 165.31 139.94C165.74 139.77 166.2 139.72 166.66 139.79C166.9 139.85 167.12 139.97 167.3 140.14C167.46 140.33 167.58 140.56 167.65 140.8V140.85C167.55 141.16 167.39 141.44 167.18 141.68C166.95 141.93 166.64 142.08 166.3 142.1C165.67 142.1 165.06 141.89 164.57 141.5C163.51 140.74 163.08 139.38 163.51 138.15C163.73 137.52 164.18 137 164.78 136.7C165.36 136.4 166.03 136.3 166.67 136.43C167.36 136.54 167.94 136.99 168.21 137.63C168.35 138 168.26 138.41 167.99 138.69C167.74 138.93 167.43 139.1 167.09 139.18C165.92 139.45 164.72 138.9 164.16 137.84C163.89 137.31 163.82 136.7 163.98 136.12C164.13 135.56 164.45 135.06 164.88 134.67C165.31 134.29 165.86 134.07 166.43 134.07C167.02 134.07 167.57 134.36 167.91 134.84C168.08 135.1 168.15 135.42 168.09 135.73C168.04 136.04 167.86 136.31 167.6 136.48C167.12 136.81 166.52 136.88 165.98 136.68C165.46 136.45 165.06 136.02 164.88 135.48C164.71 134.97 164.63 134.43 164.64 133.89C164.61 132.83 164.88 131.79 165.43 130.89C165.72 130.44 166.16 130.1 166.68 129.95C167.2 129.84 167.74 129.93 168.19 130.22C168.68 130.49 168.97 131.01 168.95 131.57C168.88 132.12 168.49 132.58 167.95 132.73C167.45 132.9 166.9 132.81 166.48 132.5C166.08 132.17 165.82 131.72 165.74 131.21C165.66 130.72 165.71 130.22 165.87 129.76C165.98 129.3 166.15 128.86 166.36 128.44C166.58 128.02 166.91 127.68 167.31 127.44C167.7 127.2 168.14 127.05 168.6 127C168.84 126.97 169.08 127 169.3 127.09C169.51 127.21 169.69 127.37 169.83 127.56C169.97 127.75 170.07 127.97 170.12 128.2C170.19 128.44 170.16 128.71 170.04 128.93C169.77 129.33 169.27 129.53 168.8 129.41C168.37 129.34 167.97 129.13 167.66 128.82C167.06 128.22 166.7 127.42 166.66 126.57C166.6 125.76 166.82 124.95 167.27 124.27C167.49 123.95 167.78 123.67 168.12 123.47C168.45 123.28 168.83 123.18 169.21 123.17C169.59 123.15 169.97 123.26 170.28 123.49C170.58 123.73 170.75 124.1 170.73 124.49C170.62 125.23 170.03 125.8 169.29 125.89C168.61 125.93 167.97 125.56 167.65 124.96C167.33 124.43 167.19 123.81 167.24 123.19C167.45 122.14 167.82 121.13 168.33 120.19L169.42 117.71C170.07 116.23 170.59 115.08 170.94 114.29L171.34 113.4C171.38 113.3 171.43 113.2 171.49 113.1C171.46 113.21 171.42 113.31 171.37 113.41L171 114.31L169.54 117.76L168.51 120.15C168.03 121.1 167.7 122.11 167.51 123.15C167.46 123.73 167.6 124.3 167.9 124.8C168.18 125.33 168.75 125.65 169.35 125.62C169.98 125.54 170.48 125.05 170.58 124.43C170.59 124.11 170.46 123.81 170.21 123.61C169.94 123.43 169.62 123.33 169.3 123.35C168.95 123.36 168.61 123.46 168.3 123.63C168 123.82 167.74 124.07 167.53 124.36C167.11 124.99 166.92 125.74 166.98 126.49C167.01 127.27 167.34 128.01 167.89 128.56C168.16 128.83 168.51 129.01 168.89 129.07C169.26 129.18 169.66 129.04 169.89 128.73C170 128.39 169.93 128.01 169.7 127.73C169.59 127.57 169.44 127.44 169.27 127.35C169.09 127.28 168.9 127.25 168.71 127.28C167.86 127.35 167.1 127.86 166.71 128.62C166.51 129.02 166.35 129.44 166.24 129.87C166.1 130.29 166.06 130.74 166.13 131.18C166.2 131.61 166.42 132 166.76 132.27C167.1 132.53 167.55 132.6 167.95 132.46C168.37 132.35 168.68 132 168.73 131.57C168.73 131.13 168.5 130.73 168.11 130.52C167.73 130.28 167.28 130.2 166.84 130.29C166.4 130.43 166.03 130.72 165.78 131.11C165.28 131.96 165.03 132.94 165.05 133.93C165.04 134.43 165.12 134.92 165.28 135.39C165.43 135.83 165.76 136.19 166.18 136.39C166.62 136.55 167.11 136.48 167.5 136.22C167.88 135.96 167.98 135.44 167.72 135.05C167.44 134.66 166.99 134.43 166.51 134.43C166.02 134.43 165.54 134.62 165.18 134.95C164.2 135.69 164.02 137.09 164.76 138.06C165.31 138.78 166.23 139.09 167.1 138.86C167.38 138.8 167.63 138.67 167.84 138.47C168.02 138.28 168.07 138.01 167.98 137.77C167.75 137.24 167.26 136.86 166.69 136.77C165.52 136.52 164.34 137.15 163.91 138.27C163.52 139.38 163.93 140.62 164.91 141.27C165.34 141.61 165.88 141.8 166.43 141.81C166.96 141.73 167.38 141.33 167.49 140.81V140.9C167.41 140.53 167.12 140.23 166.75 140.14C166.35 140.08 165.94 140.14 165.57 140.28C164.78 140.56 164.09 141.05 163.57 141.71C163.06 142.38 162.61 143.09 162.23 143.83C161.83 144.57 161.43 145.3 161.03 146.02C159.43 148.9 157.84 151.62 156.3 154.18C153.23 159.29 150.3 163.71 147.84 167.35C146.59 169.16 145.46 170.79 144.39 172.15C143.49 173.31 142.51 174.42 141.47 175.46C140.57 176.34 139.58 177.13 138.51 177.8Z" fill="#263238"/>
</g>
<defs>
<clipPath id="clip0_35_2488">
<rect width="451.02" height="419.49" fill="white"/>
</clipPath>
</defs>
</svg>
