<svg width="330" height="226" viewBox="0 0 330 226" fill="none" xmlns="http://www.w3.org/2000/svg">
<path d="M239.303 38.4565C239.303 38.4565 216.432 36.2853 213.283 47.3233C210.134 58.3613 221.163 67.6346 224.528 69.4079C226.111 75.3768 225.618 81.7003 223.144 87.349C219.001 97.0116 214.035 111.216 192.409 130.93C170.783 150.645 155.93 158.724 152.383 180.809C148.837 202.893 159.477 211.57 188.655 211.769C217.833 211.968 265.333 177.461 277.184 136.449C289.035 95.4372 285.661 78.491 285.073 63.69C284.485 48.889 275.981 35.0915 260.99 33.5258C245.999 31.96 239.303 38.4565 239.303 38.4565Z" fill="#263238" stroke="#263238" stroke-linecap="round" stroke-linejoin="round"/>
<path d="M244.606 55.6018C244.606 55.6018 220.67 48.2402 219.191 54.4945C217.712 60.7488 234.295 63.3353 234.295 60.0222C234.295 56.709 225.454 56.7177 225.454 56.7177" stroke="white" stroke-miterlimit="10"/>
<path d="M267.435 37.5568C267.435 37.5568 247.919 36.8215 246.812 43.8198C245.705 50.818 273.698 72.5394 284.744 75.4892" stroke="white" stroke-miterlimit="10"/>
<path d="M260.809 37.5569C260.809 37.5569 254.182 41.6053 256.76 46.3977C259.338 51.19 273.326 57.4443 280.324 57.4443" stroke="white" stroke-miterlimit="10"/>
<path d="M230.878 101.146C238.819 100.679 246.769 100.679 254.71 101.146C267.4 101.925 271.803 106.847 271.803 106.847C271.803 106.847 252.634 184.814 250.817 199.321C249.001 213.828 248.75 224.969 248.75 224.969H201.06C201.06 224.969 212.712 175.229 217.374 151.146C222.037 127.063 230.878 101.146 230.878 101.146Z" fill="#92E3A9" stroke="#263238" stroke-linecap="round" stroke-linejoin="round"/>
<path d="M236.942 103.327C236.942 103.327 233.387 118.309 233.387 127.176C233.387 136.043 239.502 147.487 249.554 143.742C259.606 139.996 261.189 129.382 261.189 122.461C261.189 115.541 260.8 106.103 260.8 106.103C260.8 106.103 255.869 110.048 248.179 107.479C240.489 104.91 236.942 103.327 236.942 103.327Z" fill="white"/>
<mask id="mask0_24_278" style="mask-type:luminance" maskUnits="userSpaceOnUse" x="233" y="103" width="29" height="42">
<path d="M236.942 103.327C236.942 103.327 233.387 118.309 233.387 127.176C233.387 136.043 239.502 147.487 249.554 143.742C259.606 139.996 261.189 129.382 261.189 122.461C261.189 115.541 260.8 106.103 260.8 106.103C260.8 106.103 255.869 110.048 248.179 107.479C240.489 104.91 236.942 103.327 236.942 103.327Z" fill="white"/>
</mask>
<g mask="url(#mask0_24_278)">
<path d="M261.155 118.309C261.051 112.254 260.8 106.086 260.8 106.086C260.8 106.086 255.869 110.031 248.179 107.461C240.489 104.892 236.933 103.327 236.933 103.327C236.933 103.327 235.298 110.247 234.243 117.427C236.475 121.051 240.514 124.14 247.893 123.724C253.828 123.387 258.066 121.285 261.155 118.309Z" fill="#92E3A9"/>
<path opacity="0.5" d="M261.155 118.309C261.051 112.254 260.8 106.086 260.8 106.086C260.8 106.086 255.869 110.031 248.179 107.461C240.489 104.892 236.933 103.327 236.933 103.327C236.933 103.327 235.298 110.247 234.243 117.427C236.475 121.051 240.514 124.14 247.893 123.724C253.828 123.387 258.066 121.285 261.155 118.309Z" fill="white"/>
</g>
<path d="M236.942 103.327C236.942 103.327 233.387 118.309 233.387 127.176C233.387 136.043 239.502 147.487 249.554 143.742C259.606 139.996 261.189 129.382 261.189 122.461C261.189 115.541 260.8 106.103 260.8 106.103C260.8 106.103 255.869 110.048 248.179 107.479C240.489 104.91 236.942 103.327 236.942 103.327Z" stroke="#263238" stroke-linecap="round" stroke-linejoin="round"/>
<path d="M259.814 109.235C259.814 109.235 255.082 115.55 253.698 121.856C252.314 128.162 254.485 131.916 254.485 131.916" stroke="#263238" stroke-linecap="round" stroke-linejoin="round"/>
<path d="M240.852 223.594C240.653 220.636 240.454 211.172 246.57 195.601C252.686 180.03 257.409 156.752 258.594 137.643C259.779 118.534 260.765 106.095 260.765 106.095C260.765 102.539 262.141 100.377 272.59 101.951C283.04 103.525 306.699 106.882 306.509 110.039C306.319 113.197 292.668 157.357 291.128 168.992C289.589 180.627 289.943 185.35 295.86 182.392C301.777 179.433 310.056 174.503 310.056 174.503V183.369C310.056 183.369 289.156 210.186 283.04 214.329C276.924 218.473 277.123 217.677 275.549 212.945C273.975 208.214 273.975 191.855 273.975 191.855C267.322 210.091 267.677 220.523 268.412 224.97H240.982C240.956 224.537 240.921 224.122 240.852 223.594ZM282.833 157.47L290.618 128.491L282.833 157.47ZM171.899 224.97H207.79C208.966 219.978 214.381 197.176 218.404 184.753C222.937 170.757 228.854 153.404 230.039 142.954C231.224 132.505 236.155 104.702 236.155 104.702C236.942 99.3819 236.155 99.9701 236.155 99.9701C236.155 99.9701 198.291 100.558 195.497 100.757C192.703 100.956 193.923 119.884 193.923 146.899C193.958 171.717 174.987 217.66 171.899 224.97ZM200.861 149.658L207.167 141.38L200.861 149.658Z" fill="white"/>
<mask id="mask1_24_278" style="mask-type:luminance" maskUnits="userSpaceOnUse" x="171" y="99" width="140" height="126">
<path d="M240.852 223.594C240.653 220.636 240.454 211.172 246.57 195.601C252.686 180.03 257.409 156.752 258.594 137.643C259.779 118.534 260.765 106.095 260.765 106.095C260.765 102.539 262.141 100.377 272.59 101.951C283.04 103.525 306.699 106.882 306.509 110.039C306.319 113.197 292.668 157.357 291.128 168.992C289.589 180.627 289.943 185.35 295.86 182.392C301.777 179.433 310.056 174.503 310.056 174.503V183.369C310.056 183.369 289.156 210.186 283.04 214.329C276.924 218.473 277.123 217.677 275.549 212.945C273.975 208.214 273.975 191.855 273.975 191.855C267.322 210.091 267.677 220.523 268.412 224.97H240.982C240.956 224.537 240.921 224.122 240.852 223.594ZM282.833 157.47L290.618 128.491L282.833 157.47ZM171.899 224.97H207.79C208.966 219.978 214.381 197.176 218.404 184.753C222.937 170.757 228.854 153.404 230.039 142.954C231.224 132.505 236.155 104.702 236.155 104.702C236.942 99.3819 236.155 99.9701 236.155 99.9701C236.155 99.9701 198.291 100.558 195.497 100.757C192.703 100.956 193.923 119.884 193.923 146.899C193.958 171.717 174.987 217.66 171.899 224.97ZM200.861 149.658L207.167 141.38L200.861 149.658Z" fill="white"/>
</mask>
<g mask="url(#mask1_24_278)">
<path d="M291.163 168.984C291.466 166.735 292.218 163.283 293.23 159.148L286.007 157.79C286.007 157.79 261.293 201.821 248.931 211.094C246.163 213.17 243.473 215.056 241.068 216.821C240.817 219.07 240.757 221.336 240.886 223.594C240.886 224.122 240.956 224.563 240.982 224.97H268.447C267.712 220.523 267.357 210.091 274.009 191.856C274.009 191.856 274.009 208.214 275.584 212.945C277.158 217.677 276.968 218.473 283.075 214.33C289.182 210.186 310.056 183.369 310.056 183.369V174.503C310.056 174.503 301.777 179.434 295.86 182.383C289.943 185.333 289.58 180.61 291.163 168.984Z" fill="#92E3A9"/>
<path d="M196.016 159.719L190.342 171.068C184.676 194.174 174.131 219.684 171.899 224.969H180.446L196.016 159.719Z" fill="#92E3A9"/>
<path opacity="0.5" d="M291.163 168.984C291.466 166.735 292.218 163.283 293.23 159.148L286.007 157.79C286.007 157.79 261.293 201.821 248.931 211.094C246.163 213.17 243.473 215.056 241.068 216.821C240.817 219.07 240.757 221.336 240.886 223.594C240.886 224.122 240.956 224.563 240.982 224.97H268.447C267.712 220.523 267.357 210.091 274.009 191.856C274.009 191.856 274.009 208.214 275.584 212.945C277.158 217.677 276.968 218.473 283.075 214.33C289.182 210.186 310.056 183.369 310.056 183.369V174.503C310.056 174.503 301.777 179.434 295.86 182.383C289.943 185.333 289.58 180.61 291.163 168.984Z" fill="white"/>
<path opacity="0.5" d="M196.016 159.719L190.342 171.068C184.676 194.174 174.131 219.684 171.899 224.969H180.446L196.016 159.719Z" fill="white"/>
</g>
<path d="M282.833 157.47L290.618 128.491M200.861 149.658L207.167 141.38M240.852 223.594C240.653 220.636 240.454 211.172 246.57 195.601C252.686 180.03 257.409 156.752 258.594 137.643C259.779 118.534 260.765 106.095 260.765 106.095C260.765 102.539 262.141 100.377 272.59 101.951C283.04 103.525 306.699 106.882 306.509 110.039C306.319 113.197 292.668 157.357 291.128 168.992C289.589 180.627 289.943 185.35 295.86 182.392C301.777 179.433 310.056 174.503 310.056 174.503V183.369C310.056 183.369 289.156 210.186 283.04 214.329C276.924 218.473 277.123 217.677 275.549 212.945C273.975 208.214 273.975 191.856 273.975 191.856C267.322 210.091 267.677 220.523 268.412 224.97H240.982C240.956 224.537 240.921 224.122 240.852 223.594ZM171.899 224.97H207.79C208.966 219.978 214.381 197.176 218.404 184.753C222.937 170.757 228.854 153.404 230.039 142.954C231.224 132.505 236.155 104.702 236.155 104.702C236.942 99.3819 236.155 99.9701 236.155 99.9701C236.155 99.9701 198.291 100.558 195.497 100.757C192.703 100.956 193.923 119.884 193.923 146.899C193.958 171.717 174.987 217.66 171.899 224.97Z" stroke="#263238" stroke-linecap="round" stroke-linejoin="round"/>
<path d="M234.182 99.7712L218.603 127.773L224.909 136.449L217.617 141.57L213.283 197.963" stroke="#263238" stroke-linecap="round" stroke-linejoin="round"/>
<path d="M266.552 103.534L271.336 132.297L264.77 137.323L272.495 144.269L253.179 190.238" stroke="#263238" stroke-linecap="round" stroke-linejoin="round"/>
<path d="M216.432 181.795C216.432 181.795 226.492 177.651 232.4 172.729C238.309 167.807 248.767 153.205 250.566 153.404C252.366 153.603 262.988 161.293 268.317 163.067C273.646 164.84 277.582 164.84 277.383 166.025C277.184 167.21 275.021 168.387 270.878 168.387C266.734 168.387 255.497 162.47 255.497 162.47C255.497 162.47 261.613 170.359 260.627 171.345C256.76 174.382 252.521 176.899 248.006 178.837C243.274 180.61 240.117 182.193 239.13 181.994C238.144 181.795 238.343 179.823 238.94 179.234L240.713 177.461C240.713 177.461 236.527 180.42 234.373 180.42H232.201L215.246 194.805L216.432 181.795Z" fill="white"/>
<mask id="mask2_24_278" style="mask-type:luminance" maskUnits="userSpaceOnUse" x="215" y="153" width="63" height="42">
<path d="M216.432 181.795C216.432 181.795 226.492 177.651 232.4 172.729C238.309 167.807 248.767 153.205 250.566 153.404C252.366 153.603 262.988 161.293 268.317 163.067C273.646 164.84 277.582 164.84 277.383 166.025C277.184 167.21 275.021 168.387 270.878 168.387C266.734 168.387 255.497 162.47 255.497 162.47C255.497 162.47 261.613 170.359 260.627 171.345C256.76 174.382 252.521 176.899 248.006 178.837C243.274 180.61 240.117 182.193 239.13 181.994C238.144 181.795 238.343 179.823 238.94 179.234L240.713 177.461C240.713 177.461 236.527 180.42 234.373 180.42H232.201L215.246 194.805L216.432 181.795Z" fill="white"/>
</mask>
<g mask="url(#mask2_24_278)">
<path d="M275.627 167.625H275.454C266.154 166.985 253.343 159.295 253.343 159.295L255.471 162.487C255.471 162.487 266.717 168.404 270.852 168.404C272.478 168.456 274.104 168.188 275.627 167.625Z" fill="#92E3A9"/>
<path d="M255.264 169.849C253.663 171.138 251.103 168.248 251.103 168.248C251.103 168.248 251.743 174.658 249.822 174.979C247.902 175.299 245.333 173.378 245.333 173.378C245.333 173.378 245.333 177.539 243.412 177.539C241.492 177.539 238.611 171.484 238.611 171.484C238.611 171.484 239.303 174.529 237.322 176.605C235.342 178.681 231.561 178.205 231.561 178.205L216.501 189.07L215.636 190.074L215.212 194.797L232.201 180.42H234.364C236.535 180.42 240.679 177.461 240.679 177.461L238.905 179.235C238.309 179.823 238.11 181.83 239.096 181.994C240.082 182.158 243.239 180.61 247.971 178.837C252.487 176.899 256.725 174.382 260.592 171.345C261.578 170.359 255.463 162.47 255.463 162.47C255.463 162.47 256.864 168.569 255.264 169.849Z" fill="#92E3A9"/>
<g opacity="0.5">
<path d="M275.627 167.625H275.454C266.154 166.985 253.343 159.295 253.343 159.295L255.471 162.487C255.471 162.487 266.717 168.404 270.852 168.404C272.478 168.456 274.104 168.188 275.627 167.625Z" fill="white"/>
<path d="M255.264 169.849C253.663 171.138 251.103 168.248 251.103 168.248C251.103 168.248 251.743 174.658 249.822 174.979C247.902 175.299 245.333 173.378 245.333 173.378C245.333 173.378 245.333 177.539 243.412 177.539C241.492 177.539 238.611 171.484 238.611 171.484C238.611 171.484 239.303 174.529 237.322 176.605C235.342 178.681 231.561 178.205 231.561 178.205L216.501 189.07L215.636 190.074L215.212 194.797L232.201 180.42H234.364C236.535 180.42 240.679 177.461 240.679 177.461L238.905 179.235C238.309 179.823 238.11 181.83 239.096 181.994C240.082 182.158 243.239 180.61 247.971 178.837C252.487 176.899 256.725 174.382 260.592 171.345C261.578 170.359 255.463 162.47 255.463 162.47C255.463 162.47 256.864 168.569 255.264 169.849Z" fill="white"/>
</g>
<path d="M240.687 177.461L239.303 174.503" stroke="#263238" stroke-linecap="round" stroke-linejoin="round"/>
<path d="M244.433 170.757C244.433 170.757 248.378 178.049 247.98 178.837" stroke="#263238" stroke-linecap="round" stroke-linejoin="round"/>
<path d="M249.753 165.428C249.753 165.428 255.869 174.079 254.883 175.489" stroke="#263238" stroke-linecap="round" stroke-linejoin="round"/>
</g>
<path d="M216.432 181.795C216.432 181.795 226.492 177.651 232.4 172.729C238.309 167.807 248.767 153.205 250.566 153.404C252.366 153.603 262.988 161.293 268.317 163.067C273.646 164.84 277.582 164.84 277.383 166.025C277.184 167.21 275.021 168.387 270.878 168.387C266.734 168.387 255.497 162.47 255.497 162.47C255.497 162.47 261.613 170.359 260.627 171.345C256.76 174.382 252.521 176.899 248.006 178.837C243.274 180.61 240.117 182.193 239.13 181.994C238.144 181.795 238.343 179.823 238.94 179.234L240.713 177.461C240.713 177.461 236.527 180.42 234.373 180.42H232.201L215.246 194.805L216.432 181.795Z" stroke="#263238" stroke-linecap="round" stroke-linejoin="round"/>
<path d="M199.087 100.368C199.087 100.368 192.574 99.7712 190.999 99.7712C189.425 99.7712 187.055 100.956 186.674 106.276C186.293 111.596 160.402 211.172 160.402 213.733C160.402 216.293 164.321 217.193 176.432 214.131C186.648 211.535 216.994 201.319 216.994 201.319L219.675 179.788L188.084 186.138L203.464 140.982" fill="white"/>
<mask id="mask3_24_278" style="mask-type:luminance" maskUnits="userSpaceOnUse" x="160" y="99" width="60" height="118">
<path d="M199.087 100.368C199.087 100.368 192.574 99.7712 190.999 99.7712C189.425 99.7712 187.055 100.956 186.674 106.276C186.293 111.596 160.402 211.172 160.402 213.733C160.402 216.293 164.321 217.193 176.432 214.131C186.648 211.535 216.994 201.319 216.994 201.319L219.675 179.788L188.084 186.138L203.464 140.982" fill="white"/>
</mask>
<g mask="url(#mask3_24_278)">
<path d="M217.919 194.131C215.688 194.728 180.342 204.217 173.612 206.458C166.691 208.776 181.337 197.184 176.319 197.574C171.302 197.963 165.498 204.909 165.498 204.909L178.94 138.941C171.207 170.039 160.402 212.08 160.402 213.733C160.402 216.328 164.321 217.193 176.432 214.131C186.648 211.535 216.994 201.319 216.994 201.319L217.919 194.131Z" fill="#92E3A9"/>
<path opacity="0.5" d="M217.919 194.131C215.688 194.728 180.342 204.217 173.612 206.458C166.691 208.776 181.337 197.184 176.319 197.574C171.302 197.963 165.498 204.909 165.498 204.909L178.94 138.941C171.207 170.039 160.402 212.08 160.402 213.733C160.402 216.328 164.321 217.193 176.432 214.131C186.648 211.535 216.994 201.319 216.994 201.319L217.919 194.131Z" fill="white"/>
</g>
<path d="M199.087 100.368C199.087 100.368 192.574 99.7712 190.999 99.7712C189.425 99.7712 187.055 100.956 186.674 106.276C186.293 111.596 160.402 211.172 160.402 213.733C160.402 216.293 164.321 217.193 176.432 214.131C186.648 211.535 216.994 201.319 216.994 201.319L219.675 179.788L188.084 186.138L203.464 140.982" stroke="#263238" stroke-linecap="round" stroke-linejoin="round"/>
<path d="M200.385 154.918L198.612 177.003L212.85 177.574L214.191 156.103L200.385 154.918Z" fill="#263238" stroke="#263238" stroke-linecap="round" stroke-linejoin="round"/>
<path d="M205.714 149.364L205.523 158.041L209.269 158.24L209.459 149.364H205.714Z" fill="white" stroke="#263238" stroke-linecap="round" stroke-linejoin="round"/>
<path d="M282.85 143.906L257.504 199.355C256.985 200.48 257.478 201.812 258.603 202.323C258.888 202.452 259.2 202.522 259.52 202.53L300.592 202.876C301.457 202.885 302.244 202.4 302.625 201.622L329.087 147.055C329.623 145.939 329.165 144.598 328.049 144.062C327.763 143.923 327.452 143.845 327.132 143.837L284.969 142.6C284.061 142.574 283.231 143.084 282.85 143.906Z" fill="#263238" stroke="#263238" stroke-linecap="round" stroke-linejoin="round"/>
<path d="M266.146 183.153L264.122 187.591" stroke="white" stroke-linecap="round" stroke-linejoin="round"/>
<path d="M292.071 143.638L285.8 143.447C284.9 143.422 284.07 143.941 283.698 144.762L267.668 179.771" stroke="white" stroke-linecap="round" stroke-linejoin="round"/>
<path d="M297.357 143.793L294.035 143.69" stroke="white" stroke-linecap="round" stroke-linejoin="round"/>
<path d="M321.007 176.241C321.007 176.241 316.102 178.361 312.357 179.814C308.611 181.267 310.765 182.599 312.227 182.599C313.689 182.599 319.381 180.869 321.5 179.555C323.62 178.24 323.386 175.843 321.007 176.241Z" fill="#92E3A9"/>
<mask id="mask4_24_278" style="mask-type:luminance" maskUnits="userSpaceOnUse" x="310" y="176" width="13" height="7">
<path d="M321.007 176.241C321.007 176.241 316.102 178.361 312.357 179.814C308.611 181.267 310.765 182.599 312.227 182.599C313.689 182.599 319.381 180.869 321.5 179.555C323.62 178.24 323.386 175.843 321.007 176.241Z" fill="white"/>
</mask>
<g mask="url(#mask4_24_278)">
<path opacity="0.5" d="M321.007 176.241C321.007 176.241 316.102 178.361 312.357 179.814C308.611 181.267 310.765 182.599 312.227 182.599C313.689 182.599 319.381 180.869 321.5 179.555C323.62 178.24 323.386 175.843 321.007 176.241Z" fill="white"/>
</g>
<path d="M321.007 176.241C321.007 176.241 316.102 178.361 312.357 179.814C308.611 181.267 310.765 182.599 312.227 182.599C313.689 182.599 319.381 180.869 321.5 179.555C323.62 178.24 323.386 175.843 321.007 176.241Z" stroke="#263238" stroke-linecap="round" stroke-linejoin="round"/>
<path d="M323.715 171.094C323.715 171.094 317.054 173.975 312.011 175.947C306.967 177.92 309.857 179.728 311.838 179.728C313.819 179.728 321.552 177.392 324.433 175.593C327.313 173.793 326.95 170.549 323.715 171.094Z" fill="#92E3A9"/>
<mask id="mask5_24_278" style="mask-type:luminance" maskUnits="userSpaceOnUse" x="309" y="171" width="18" height="9">
<path d="M323.715 171.094C323.715 171.094 317.054 173.975 312.011 175.947C306.967 177.92 309.857 179.728 311.838 179.728C313.819 179.728 321.552 177.392 324.433 175.593C327.313 173.793 326.95 170.549 323.715 171.094Z" fill="white"/>
</mask>
<g mask="url(#mask5_24_278)">
<path opacity="0.5" d="M323.715 171.094C323.715 171.094 317.054 173.975 312.011 175.947C306.967 177.92 309.857 179.728 311.838 179.728C313.819 179.728 321.552 177.392 324.433 175.593C327.313 173.793 326.95 170.549 323.715 171.094Z" fill="white"/>
</g>
<path d="M323.715 171.094C323.715 171.094 317.054 173.975 312.011 175.947C306.967 177.92 309.857 179.728 311.838 179.728C313.819 179.728 321.552 177.392 324.433 175.593C327.313 173.793 326.95 170.549 323.715 171.094Z" stroke="#263238" stroke-linecap="round" stroke-linejoin="round"/>
<path d="M323.516 166.285C323.516 166.285 316.215 169.433 310.696 171.605C305.177 173.776 308.334 175.748 310.497 175.748C312.659 175.748 321.146 173.153 324.338 171.207C327.53 169.26 327.063 165.714 323.516 166.285Z" fill="#92E3A9"/>
<mask id="mask6_24_278" style="mask-type:luminance" maskUnits="userSpaceOnUse" x="307" y="166" width="20" height="10">
<path d="M323.516 166.285C323.516 166.285 316.215 169.433 310.696 171.605C305.177 173.776 308.334 175.748 310.497 175.748C312.659 175.748 321.146 173.153 324.338 171.207C327.53 169.26 327.063 165.714 323.516 166.285Z" fill="white"/>
</mask>
<g mask="url(#mask6_24_278)">
<path opacity="0.5" d="M323.516 166.285C323.516 166.285 316.215 169.433 310.696 171.605C305.177 173.776 308.334 175.748 310.497 175.748C312.659 175.748 321.146 173.153 324.338 171.207C327.53 169.26 327.063 165.714 323.516 166.285Z" fill="white"/>
</g>
<path d="M323.516 166.285C323.516 166.285 316.215 169.433 310.696 171.605C305.177 173.776 308.334 175.748 310.497 175.748C312.659 175.748 321.146 173.153 324.338 171.207C327.53 169.26 327.063 165.714 323.516 166.285Z" stroke="#263238" stroke-linecap="round" stroke-linejoin="round"/>
<path d="M324.087 161.882C324.087 161.882 316.794 165.039 311.275 167.202C305.756 169.364 308.905 171.345 311.076 171.345C313.248 171.345 321.725 168.75 324.874 166.812C328.023 164.875 327.633 161.293 324.087 161.882Z" fill="#92E3A9"/>
<mask id="mask7_24_278" style="mask-type:luminance" maskUnits="userSpaceOnUse" x="308" y="161" width="20" height="11">
<path d="M324.087 161.882C324.087 161.882 316.794 165.039 311.275 167.202C305.756 169.364 308.905 171.345 311.076 171.345C313.248 171.345 321.725 168.75 324.874 166.812C328.023 164.875 327.633 161.293 324.087 161.882Z" fill="white"/>
</mask>
<g mask="url(#mask7_24_278)">
<path opacity="0.5" d="M324.087 161.882C324.087 161.882 316.794 165.039 311.275 167.202C305.756 169.364 308.905 171.345 311.076 171.345C313.248 171.345 321.725 168.75 324.874 166.812C328.023 164.875 327.633 161.293 324.087 161.882Z" fill="white"/>
</g>
<path d="M324.087 161.882C324.087 161.882 316.794 165.039 311.275 167.202C305.756 169.364 308.905 171.345 311.076 171.345C313.248 171.345 321.725 168.75 324.874 166.812C328.023 164.875 327.633 161.293 324.087 161.882Z" stroke="#263238" stroke-linecap="round" stroke-linejoin="round"/>
<path d="M249.753 53.0413C249.753 53.0413 235.558 62.1156 232.599 65.6623C229.641 69.209 231.025 76.709 231.224 79.0706C231.423 81.4321 231.613 97.2366 232.997 99.7712C234.381 102.306 238.611 112.505 252.383 111.882C262.305 111.423 267.305 103.344 269.277 98.2141C270.54 94.6501 271.336 90.939 271.639 87.1761C271.639 87.1761 277.374 86.1812 277.374 81.4494C277.374 76.7176 276.094 71.1986 273.412 71.7955C272.054 72.0983 270.263 75.1432 270.263 75.1432C265.168 71.6484 260.523 67.5395 256.423 62.9201C250.151 55.6105 249.753 53.0413 249.753 53.0413Z" fill="white"/>
<mask id="mask8_24_278" style="mask-type:luminance" maskUnits="userSpaceOnUse" x="230" y="53" width="48" height="59">
<path d="M249.753 53.0413C249.753 53.0413 235.558 62.1156 232.599 65.6623C229.641 69.209 231.025 76.709 231.224 79.0706C231.423 81.4321 231.613 97.2366 232.997 99.7712C234.381 102.306 238.611 112.505 252.383 111.882C262.305 111.423 267.305 103.344 269.277 98.2141C270.54 94.6501 271.336 90.939 271.639 87.1761C271.639 87.1761 277.374 86.1812 277.374 81.4494C277.374 76.7176 276.094 71.1986 273.412 71.7955C272.054 72.0983 270.263 75.1432 270.263 75.1432C265.168 71.6484 260.523 67.5395 256.423 62.9201C250.151 55.6105 249.753 53.0413 249.753 53.0413Z" fill="white"/>
</mask>
<g mask="url(#mask8_24_278)">
<path d="M248.862 61.2505C248.862 61.2505 261.838 78.4304 270.263 75.0913C265.168 71.5965 260.523 67.4875 256.423 62.8681C250.116 55.5758 249.719 53.0066 249.719 53.0066C249.719 53.0066 235.523 62.0809 232.565 65.6276C231.89 66.4927 231.414 67.4875 231.172 68.5515L248.862 61.2505Z" fill="#92E3A9"/>
<path d="M277.184 78.5343C277.037 80.0827 276.665 81.5966 276.068 83.0325C274.459 86.5619 270.298 85.9218 270.298 85.9218C270.298 85.9218 267.703 99.3733 264.243 103.534C260.783 107.695 251.111 111.224 241.501 106.423C231.89 101.622 233.17 89.7626 233.17 89.7626C233.17 89.7626 238.94 89.7626 241.181 84.3128C243.421 78.863 240.54 76.3025 234.771 76.6312C233.421 76.6831 232.132 77.2021 231.129 78.1104C231.172 78.4824 231.207 78.8111 231.233 79.0706C231.431 81.4409 231.622 97.2366 233.006 99.7712C234.39 102.306 238.62 112.505 252.392 111.882C262.314 111.423 267.314 103.344 269.286 98.2141C270.549 94.6501 271.345 90.9391 271.648 87.1761C271.648 87.1761 277.383 86.1813 277.383 81.4495C277.366 80.472 277.305 79.5032 277.184 78.5343Z" fill="#92E3A9"/>
<path opacity="0.5" d="M277.184 78.5343C277.037 80.0827 276.665 81.5966 276.068 83.0325C274.459 86.5619 270.298 85.9218 270.298 85.9218C270.298 85.9218 267.703 99.3733 264.243 103.534C260.783 107.695 251.111 111.224 241.501 106.423C231.89 101.622 233.17 89.7626 233.17 89.7626C233.17 89.7626 238.94 89.7626 241.181 84.3128C243.421 78.863 240.54 76.3025 234.771 76.6312C233.421 76.6831 232.132 77.2021 231.129 78.1104C231.172 78.4824 231.207 78.8111 231.233 79.0706C231.431 81.4409 231.622 97.2366 233.006 99.7712C234.39 102.306 238.62 112.505 252.392 111.882C262.314 111.423 267.314 103.344 269.286 98.2141C270.549 94.6501 271.345 90.9391 271.648 87.1761C271.648 87.1761 277.383 86.1813 277.383 81.4495C277.366 80.472 277.305 79.5032 277.184 78.5343Z" fill="white"/>
<path d="M260.97 87.7126C265 86.0324 266.906 81.403 265.226 77.3726C263.545 73.3421 258.916 71.4368 254.885 73.117C250.855 74.7972 248.95 79.4266 250.63 83.4571C252.31 87.4876 256.94 89.3928 260.97 87.7126Z" fill="#92E3A9"/>
<path opacity="0.5" d="M260.97 87.7126C265 86.0324 266.906 81.403 265.226 77.3726C263.545 73.3421 258.916 71.4368 254.885 73.117C250.855 74.7972 248.95 79.4266 250.63 83.4571C252.31 87.4876 256.94 89.3928 260.97 87.7126Z" fill="white"/>
<path opacity="0.5" d="M248.862 61.2505C248.862 61.2505 261.838 78.4304 270.263 75.0913C265.168 71.5965 260.523 67.4875 256.423 62.8681C250.116 55.5758 249.719 53.0066 249.719 53.0066C249.719 53.0066 235.523 62.0809 232.565 65.6276C231.89 66.4927 231.414 67.4875 231.172 68.5515L248.862 61.2505Z" fill="white"/>
</g>
<path d="M249.753 53.0413C249.753 53.0413 235.558 62.1156 232.599 65.6623C229.641 69.209 231.025 76.709 231.224 79.0706C231.423 81.4321 231.613 97.2366 232.997 99.7712C234.381 102.306 238.611 112.505 252.383 111.882C262.305 111.423 267.305 103.344 269.277 98.2141C270.54 94.6501 271.336 90.939 271.639 87.1761C271.639 87.1761 277.374 86.1812 277.374 81.4494C277.374 76.7176 276.094 71.1986 273.412 71.7955C272.054 72.0983 270.263 75.1432 270.263 75.1432C265.168 71.6484 260.523 67.5395 256.423 62.9201C250.151 55.6105 249.753 53.0413 249.753 53.0413Z" stroke="#263238" stroke-linecap="round" stroke-linejoin="round"/>
<path d="M235.956 85.965C240.418 85.965 244.035 82.3477 244.035 77.8855C244.035 73.4232 240.418 69.8059 235.956 69.8059C231.493 69.8059 227.876 73.4232 227.876 77.8855C227.876 82.3477 231.493 85.965 235.956 85.965Z" fill="white"/>
<mask id="mask9_24_278" style="mask-type:luminance" maskUnits="userSpaceOnUse" x="227" y="69" width="18" height="17">
<path d="M235.956 85.965C240.418 85.965 244.035 82.3477 244.035 77.8855C244.035 73.4232 240.418 69.8059 235.956 69.8059C231.493 69.8059 227.876 73.4232 227.876 77.8855C227.876 82.3477 231.493 85.965 235.956 85.965Z" fill="white"/>
</mask>
<g mask="url(#mask9_24_278)">
<path d="M229.269 82.4356C231.795 86.1208 236.829 87.0637 240.514 84.5377C243.447 82.5308 244.727 78.8457 243.663 75.4547C242.989 76.9339 242.184 78.0499 241.31 78.1191C238.577 78.3526 238.066 77.7644 235.956 77.8855C234.589 77.972 231.38 80.5844 229.269 82.4356Z" fill="#92E3A9"/>
</g>
<path d="M235.956 85.965C240.418 85.965 244.035 82.3477 244.035 77.8855C244.035 73.4232 240.418 69.8059 235.956 69.8059C231.493 69.8059 227.876 73.4232 227.876 77.8855C227.876 82.3477 231.493 85.965 235.956 85.965Z" stroke="#263238" stroke-linecap="round" stroke-linejoin="round"/>
<path d="M258.04 85.965C262.503 85.965 266.12 82.3477 266.12 77.8855C266.12 73.4232 262.503 69.8059 258.04 69.8059C253.578 69.8059 249.961 73.4232 249.961 77.8855C249.961 82.3477 253.578 85.965 258.04 85.965Z" fill="white"/>
<mask id="mask10_24_278" style="mask-type:luminance" maskUnits="userSpaceOnUse" x="249" y="69" width="18" height="17">
<path d="M258.04 85.965C262.503 85.965 266.12 82.3477 266.12 77.8855C266.12 73.4232 262.503 69.8059 258.04 69.8059C253.578 69.8059 249.961 73.4232 249.961 77.8855C249.961 82.3477 253.578 85.965 258.04 85.965Z" fill="white"/>
</mask>
<g mask="url(#mask10_24_278)">
<path d="M258.04 85.9737C262.504 85.9737 266.12 82.3492 266.12 77.8855C266.12 77.0205 265.982 76.1641 265.705 75.351C262.902 80.3596 259.485 77.7471 256.059 77.4011C254.001 77.1935 252.063 79.4599 250.783 81.4409C252.141 84.2177 254.952 85.9737 258.04 85.9737Z" fill="#92E3A9"/>
</g>
<path d="M258.04 85.965C262.503 85.965 266.12 82.3477 266.12 77.8855C266.12 73.4232 262.503 69.8059 258.04 69.8059C253.578 69.8059 249.961 73.4232 249.961 77.8855C249.961 82.3477 253.578 85.965 258.04 85.965Z" stroke="#263238" stroke-linecap="round" stroke-linejoin="round"/>
<path d="M244.035 74.7367C244.035 74.7367 247.392 71.7783 250.35 74.7367" stroke="#263238" stroke-linecap="round" stroke-linejoin="round"/>
<path d="M232.997 67.6346C232.997 67.6346 235.956 63.491 240.687 64.4772" stroke="#263238" stroke-linecap="round" stroke-linejoin="round"/>
<path d="M251.137 64.0879C251.137 64.0879 255.869 62.1156 260.402 67.4356" stroke="#263238" stroke-linecap="round" stroke-linejoin="round"/>
<path d="M245.22 77.6952C245.22 77.6952 245.809 82.427 244.632 84.6156C243.456 86.8041 240.886 87.972 241.873 89.5464C242.859 91.1207 246.198 91.9166 246.198 91.9166" stroke="#263238" stroke-linecap="round" stroke-linejoin="round"/>
<path d="M245.419 96.4235C245.419 96.4235 250.35 97.6086 253.698 94.0532" stroke="#263238" stroke-linecap="round" stroke-linejoin="round"/>
<path d="M66.8734 224.969H1" stroke="#263238" stroke-linecap="round" stroke-linejoin="round"/>
<path d="M300.8 224.969H74.5897" stroke="#263238" stroke-linecap="round" stroke-linejoin="round"/>
<path d="M315.255 224.969H307.227" stroke="#263238" stroke-linecap="round" stroke-linejoin="round"/>
<path opacity="0.71" d="M197.669 48.8113H40.5154V146.691H197.669V48.8113Z" fill="white"/>
<path d="M37.9549 42.9635V152.53H200.195V42.9635H37.9549ZM197.66 146.683H40.5154V48.8112H197.66V146.683Z" fill="#92E3A9" stroke="#263238" stroke-linecap="round" stroke-linejoin="round"/>
<path d="M46.7956 51.9081H151.812C153.421 51.9081 154.728 53.2143 154.728 54.8233V57.6607C154.728 59.2783 153.421 60.5845 151.804 60.5845H46.7956C45.1867 60.5845 43.8804 59.2783 43.8804 57.6693V54.8319C43.8804 53.223 45.178 51.9167 46.787 51.9081C46.787 51.9081 46.787 51.9081 46.7956 51.9081Z" fill="#92E3A9" stroke="#263238" stroke-linecap="round" stroke-linejoin="round"/>
<path d="M45.6797 70.4027H68.4911" stroke="#263238" stroke-linecap="round" stroke-linejoin="round"/>
<path d="M45.6797 75.5411H68.4911" stroke="#263238" stroke-linecap="round" stroke-linejoin="round"/>
<path d="M45.6797 80.6796H68.4911" stroke="#263238" stroke-linecap="round" stroke-linejoin="round"/>
<path d="M45.6797 86.1467H68.4911" stroke="#263238" stroke-linecap="round" stroke-linejoin="round"/>
<path d="M72.9288 70.4027H95.7401" stroke="#263238" stroke-linecap="round" stroke-linejoin="round"/>
<path d="M72.9288 75.5411H95.7401" stroke="#263238" stroke-linecap="round" stroke-linejoin="round"/>
<path d="M72.9288 80.6796H95.7401" stroke="#263238" stroke-linecap="round" stroke-linejoin="round"/>
<path d="M72.9288 86.1467H95.7401" stroke="#263238" stroke-linecap="round" stroke-linejoin="round"/>
<path d="M100.178 70.4027H122.989" stroke="#263238" stroke-linecap="round" stroke-linejoin="round"/>
<path d="M100.178 75.5411H122.989" stroke="#263238" stroke-linecap="round" stroke-linejoin="round"/>
<path d="M100.178 80.6796H122.989" stroke="#263238" stroke-linecap="round" stroke-linejoin="round"/>
<path d="M100.178 86.1467H122.989" stroke="#263238" stroke-linecap="round" stroke-linejoin="round"/>
<path d="M127.427 70.4027H150.238" stroke="#263238" stroke-linecap="round" stroke-linejoin="round"/>
<path d="M127.427 75.5411H150.238" stroke="#263238" stroke-linecap="round" stroke-linejoin="round"/>
<path d="M127.427 80.6796H150.238" stroke="#263238" stroke-linecap="round" stroke-linejoin="round"/>
<path d="M127.427 86.1467H150.238" stroke="#263238" stroke-linecap="round" stroke-linejoin="round"/>
<path d="M59.4167 122.678L78.7851 103.309L93.0411 116.103L105.1 105.134L123.015 118.655L142.383 98.1881" stroke="#263238" stroke-linecap="round" stroke-linejoin="round"/>
<path d="M78.7852 105.87C80.1993 105.87 81.3457 104.723 81.3457 103.309C81.3457 101.895 80.1993 100.749 78.7852 100.749C77.371 100.749 76.2246 101.895 76.2246 103.309C76.2246 104.723 77.371 105.87 78.7852 105.87Z" fill="#92E3A9" stroke="#263238" stroke-linecap="round" stroke-linejoin="round"/>
<path d="M105.1 107.695C106.514 107.695 107.66 106.549 107.66 105.135C107.66 103.72 106.514 102.574 105.1 102.574C103.686 102.574 102.539 103.72 102.539 105.135C102.539 106.549 103.686 107.695 105.1 107.695Z" fill="#92E3A9" stroke="#263238" stroke-linecap="round" stroke-linejoin="round"/>
<path d="M123.015 121.216C124.429 121.216 125.576 120.069 125.576 118.655C125.576 117.241 124.429 116.095 123.015 116.095C121.601 116.095 120.454 117.241 120.454 118.655C120.454 120.069 121.601 121.216 123.015 121.216Z" fill="#92E3A9" stroke="#263238" stroke-linecap="round" stroke-linejoin="round"/>
<path d="M142.02 100.749C143.434 100.749 144.581 99.6024 144.581 98.1882C144.581 96.7741 143.434 95.6277 142.02 95.6277C140.606 95.6277 139.46 96.7741 139.46 98.1882C139.46 99.6024 140.606 100.749 142.02 100.749Z" fill="#92E3A9" stroke="#263238" stroke-linecap="round" stroke-linejoin="round"/>
<path d="M61.9751 122.871C62.0755 121.46 61.0133 120.235 59.6027 120.135C58.1922 120.034 56.9673 121.096 56.8669 122.507C56.7665 123.918 57.8287 125.143 59.2393 125.243C60.6499 125.343 61.8747 124.281 61.9751 122.871Z" fill="#92E3A9" stroke="#263238" stroke-linecap="round" stroke-linejoin="round"/>
<path d="M93.0411 117.928C94.4553 117.928 95.6017 116.782 95.6017 115.368C95.6017 113.954 94.4553 112.807 93.0411 112.807C91.627 112.807 90.4806 113.954 90.4806 115.368C90.4806 116.782 91.627 117.928 93.0411 117.928Z" fill="#92E3A9" stroke="#263238" stroke-linecap="round" stroke-linejoin="round"/>
<path d="M161.778 144.503C160.965 144.503 160.307 143.845 160.307 143.032V53.2574C160.307 52.4443 160.965 51.7869 161.778 51.7869C162.591 51.7869 163.248 52.4443 163.257 53.2574V143.032C163.257 143.845 162.591 144.503 161.778 144.503Z" fill="#92E3A9" stroke="#263238" stroke-linecap="round" stroke-linejoin="round"/>
<path d="M178.015 69.8059H194.468" stroke="#263238" stroke-linecap="round" stroke-linejoin="round"/>
<path d="M166.267 69.8059H172.011" stroke="#263238" stroke-linecap="round" stroke-linejoin="round"/>
<path d="M191.596 74.1483H194.468" stroke="#263238" stroke-linecap="round" stroke-linejoin="round"/>
<path d="M183.499 74.1483H189.243" stroke="#263238" stroke-linecap="round" stroke-linejoin="round"/>
<path d="M166.267 74.1483H179.581" stroke="#263238" stroke-linecap="round" stroke-linejoin="round"/>
<path d="M179.84 78.491H194.468" stroke="#263238" stroke-linecap="round" stroke-linejoin="round"/>
<path d="M166.267 78.491H176.709" stroke="#263238" stroke-linecap="round" stroke-linejoin="round"/>
<path d="M188.196 82.8248H194.468" stroke="#263238" stroke-linecap="round" stroke-linejoin="round"/>
<path d="M172.53 82.8248H185.584" stroke="#263238" stroke-linecap="round" stroke-linejoin="round"/>
<path d="M166.267 82.8248H169.658" stroke="#263238" stroke-linecap="round" stroke-linejoin="round"/>
<path d="M178.015 86.6224H194.468" stroke="#263238" stroke-linecap="round" stroke-linejoin="round"/>
<path d="M166.267 86.6224H172.011" stroke="#263238" stroke-linecap="round" stroke-linejoin="round"/>
<path d="M191.596 90.965H194.468" stroke="#263238" stroke-linecap="round" stroke-linejoin="round"/>
<path d="M183.499 90.965H189.243" stroke="#263238" stroke-linecap="round" stroke-linejoin="round"/>
<path d="M166.267 90.965H179.581" stroke="#263238" stroke-linecap="round" stroke-linejoin="round"/>
<path d="M179.84 95.299H194.468" stroke="#263238" stroke-linecap="round" stroke-linejoin="round"/>
<path d="M166.267 95.299H176.709" stroke="#263238" stroke-linecap="round" stroke-linejoin="round"/>
<path d="M188.196 99.6414H194.468" stroke="#263238" stroke-linecap="round" stroke-linejoin="round"/>
<path d="M172.53 99.6414H185.584" stroke="#263238" stroke-linecap="round" stroke-linejoin="round"/>
<path d="M166.267 99.6414H169.658" stroke="#263238" stroke-linecap="round" stroke-linejoin="round"/>
<path d="M178.015 103.439H194.468" stroke="#263238" stroke-linecap="round" stroke-linejoin="round"/>
<path d="M166.267 103.439H172.011" stroke="#263238" stroke-linecap="round" stroke-linejoin="round"/>
<path d="M191.596 107.773H194.468" stroke="#263238" stroke-linecap="round" stroke-linejoin="round"/>
<path d="M183.499 107.773H189.243" stroke="#263238" stroke-linecap="round" stroke-linejoin="round"/>
<path d="M166.267 107.773H179.581" stroke="#263238" stroke-linecap="round" stroke-linejoin="round"/>
<path d="M179.84 112.115H194.468" stroke="#263238" stroke-linecap="round" stroke-linejoin="round"/>
<path d="M166.267 112.115H176.709" stroke="#263238" stroke-linecap="round" stroke-linejoin="round"/>
<path d="M188.196 116.458H194.468" stroke="#263238" stroke-linecap="round" stroke-linejoin="round"/>
<path d="M172.53 116.458H185.584" stroke="#263238" stroke-linecap="round" stroke-linejoin="round"/>
<path d="M166.267 116.458H169.658" stroke="#263238" stroke-linecap="round" stroke-linejoin="round"/>
<path d="M178.015 120.247H194.468" stroke="#263238" stroke-linecap="round" stroke-linejoin="round"/>
<path d="M166.267 120.247H172.011" stroke="#263238" stroke-linecap="round" stroke-linejoin="round"/>
<path d="M191.596 124.589H194.468" stroke="#263238" stroke-linecap="round" stroke-linejoin="round"/>
<path d="M183.499 124.589H189.243" stroke="#263238" stroke-linecap="round" stroke-linejoin="round"/>
<path d="M166.267 124.589H179.581" stroke="#263238" stroke-linecap="round" stroke-linejoin="round"/>
<path d="M179.84 128.932H194.468" stroke="#263238" stroke-linecap="round" stroke-linejoin="round"/>
<path d="M166.267 128.932H176.709" stroke="#263238" stroke-linecap="round" stroke-linejoin="round"/>
<path d="M188.196 133.266H194.468" stroke="#263238" stroke-linecap="round" stroke-linejoin="round"/>
<path d="M172.53 133.266H185.584" stroke="#263238" stroke-linecap="round" stroke-linejoin="round"/>
<path d="M166.267 133.266H169.658" stroke="#263238" stroke-linecap="round" stroke-linejoin="round"/>
<path d="M51.4669 135.411H47.5742V144.062H51.4669V135.411Z" fill="#92E3A9"/>
<path d="M59.2523 139.269H55.3596V144.062H59.2523V139.269Z" fill="#263238"/>
<path d="M67.0378 141.501H63.1451V144.062H67.0378V141.501Z" fill="#92E3A9"/>
<path d="M74.8232 137.937H70.9305V144.062H74.8232V137.937Z" fill="#263238"/>
<path d="M82.6087 140.16H78.7159V144.062H82.6087V140.16Z" fill="#92E3A9"/>
<path d="M90.3941 137.634H86.5014V144.062H90.3941V137.634Z" fill="#263238"/>
<path d="M98.1795 142.98H94.2868V144.062H98.1795V142.98Z" fill="#92E3A9"/>
<path d="M105.965 135.411H102.072V144.062H105.965V135.411Z" fill="#263238"/>
<path d="M113.75 140.904H109.858V144.062H113.75V140.904Z" fill="#92E3A9"/>
<path d="M121.536 142.833H117.643V144.062H121.536V142.833Z" fill="#263238"/>
<path d="M129.321 141.198H125.428V144.062H129.321V141.198Z" fill="#92E3A9"/>
<path d="M137.107 135.411H133.214V144.062H137.107V135.411Z" fill="#263238"/>
<path d="M144.892 137.193H140.999V144.062H144.892V137.193Z" fill="#92E3A9"/>
<path d="M152.678 138.378H148.785V144.062H152.678V138.378Z" fill="#263238"/>
<path d="M169.053 63.8458V18.5432H177.729" stroke="#263238" stroke-linecap="round" stroke-linejoin="round"/>
<path d="M184.477 18.2231H200.541" stroke="#263238" stroke-linecap="round" stroke-linejoin="round"/>
<path d="M184.477 23.3615H200.541" stroke="#263238" stroke-linecap="round" stroke-linejoin="round"/>
<path d="M184.477 28.4999H200.541" stroke="#263238" stroke-linecap="round" stroke-linejoin="round"/>
<path d="M48.5171 203.897H65.5413" stroke="#263238" stroke-linecap="round" stroke-linejoin="round"/>
<path d="M48.5171 208.715H65.5413" stroke="#263238" stroke-linecap="round" stroke-linejoin="round"/>
<path d="M48.5171 213.534H65.5413" stroke="#263238" stroke-linecap="round" stroke-linejoin="round"/>
<path d="M48.5171 218.352H65.5413" stroke="#263238" stroke-linecap="round" stroke-linejoin="round"/>
<path d="M106.437 211.569C120.761 208.141 129.594 193.749 126.166 179.425C122.737 165.1 108.346 156.267 94.021 159.695C79.6965 163.124 70.8634 177.516 74.2919 191.84C77.7203 206.165 92.112 214.998 106.437 211.569Z" fill="#92E3A9" stroke="#263238" stroke-linecap="round" stroke-linejoin="round"/>
<path d="M100.256 205.532C111.258 205.532 120.178 196.612 120.178 185.61C120.178 174.607 111.258 165.688 100.256 165.688C89.253 165.688 80.3336 174.607 80.3336 185.61C80.3336 196.612 89.253 205.532 100.256 205.532Z" fill="white" stroke="#263238" stroke-linecap="round" stroke-linejoin="round"/>
<path d="M111.883 190.396C114.519 183.965 111.442 176.613 105.011 173.976C98.5787 171.34 91.2273 174.417 88.5907 180.848C85.9541 187.28 89.0308 194.632 95.4626 197.268C101.895 199.905 109.246 196.828 111.883 190.396Z" fill="#92E3A9" stroke="#263238" stroke-linecap="round" stroke-linejoin="round"/>
<path d="M66.4937 194.948C71.6387 189.803 71.6387 181.461 66.4936 176.316C61.3486 171.171 53.0069 171.171 47.8618 176.316C42.7168 181.461 42.7168 189.803 47.8618 194.948C53.0069 200.093 61.3486 200.093 66.4937 194.948Z" fill="white" stroke="#263238" stroke-linecap="round" stroke-linejoin="round"/>
<path d="M62.3893 190.844C65.2675 187.965 65.2675 183.299 62.3893 180.421C59.511 177.542 54.8445 177.542 51.9662 180.421C49.088 183.299 49.088 187.965 51.9662 190.844C54.8445 193.722 59.511 193.722 62.3893 190.844Z" fill="#92E3A9" stroke="#263238" stroke-linecap="round" stroke-linejoin="round"/>
<path d="M33.0933 193.326C37.3501 193.326 40.8009 189.875 40.8009 185.618C40.8009 181.362 37.3501 177.911 33.0933 177.911C28.8365 177.911 25.3857 181.362 25.3857 185.618C25.3857 189.875 28.8365 193.326 33.0933 193.326Z" fill="white" stroke="#263238" stroke-linecap="round" stroke-linejoin="round"/>
<path d="M37.4012 185.61C37.4012 183.222 35.4635 181.285 33.076 181.285C30.6885 181.285 28.7508 183.222 28.7508 185.61C28.7508 187.997 30.6885 189.935 33.076 189.935C35.4635 189.935 37.4012 187.997 37.4012 185.61Z" fill="#92E3A9" stroke="#263238" stroke-linecap="round" stroke-linejoin="round"/>
<path d="M100.238 185.627H16.692" stroke="#263238" stroke-linecap="round" stroke-linejoin="round"/>
<path opacity="0.71" d="M154.624 1H101.605V47.5915H154.624V1Z" fill="white"/>
<path d="M154.624 1H101.605V47.5915H154.624V1Z" stroke="#263238" stroke-linecap="round" stroke-linejoin="round"/>
<path d="M154.624 1H101.605V8.92384H154.624V1Z" fill="#92E3A9" stroke="#263238" stroke-linecap="round" stroke-linejoin="round"/>
<path d="M128.275 36.9947C134.309 36.9947 139.2 32.1031 139.2 26.0691C139.2 20.0351 134.309 15.1436 128.275 15.1436C122.241 15.1436 117.349 20.0351 117.349 26.0691C117.349 32.1031 122.241 36.9947 128.275 36.9947Z" fill="#263238" stroke="#263238" stroke-linecap="round" stroke-linejoin="round"/>
<path d="M123.153 18.8633L135.956 26.2508L123.153 33.647V18.8633Z" fill="white" stroke="#263238" stroke-linecap="round" stroke-linejoin="round"/>
</svg>
