<svg width="402" height="371" viewBox="0 0 402 371" fill="none" xmlns="http://www.w3.org/2000/svg">
<path d="M13.2802 111.551C14.4734 110.833 15.753 110.28 17.0931 109.899L17.8713 106.121L24.252 106.009L25.1685 109.753C26.5173 110.09 27.8142 110.6 29.0332 111.274L32.2582 109.165L36.8406 113.591L34.8434 116.885C35.561 118.079 36.123 119.358 36.5034 120.698L40.273 121.485L40.3854 127.857L36.6417 128.774C36.3132 130.122 35.8117 131.419 35.146 132.638L37.2556 135.863L32.8288 140.446L29.5347 138.449C28.3416 139.175 27.062 139.728 25.7218 140.109L24.9437 143.878L18.5629 143.991L17.6205 140.29C16.2717 139.962 14.9662 139.452 13.7558 138.768L10.5308 140.887L5.94842 136.451L7.94565 133.157C7.22803 131.964 6.66604 130.684 6.28562 129.353L2.51596 128.566L2.40356 122.134L6.14728 121.269C6.48448 119.92 6.99459 118.615 7.66898 117.396L5.55935 114.179L9.98611 109.588L13.2802 111.585V111.551ZM16.6781 120.041C14.0497 122.756 14.1275 127.088 16.8424 129.707C19.5572 132.327 23.8889 132.258 26.5086 129.543C29.137 126.828 29.0592 122.497 26.3443 119.877C23.6295 117.257 19.3065 117.326 16.6781 120.041Z" fill="#F5F5F5"/>
<path d="M234.125 4.72072C235.137 4.10685 236.226 3.63132 237.367 3.31142L238.042 0.095106L243.463 0L244.241 3.19037C245.391 3.46705 246.497 3.90799 247.535 4.47863L250.276 2.68026L254.184 6.44991L252.455 9.25986C253.077 10.2714 253.561 11.3608 253.89 12.5021L257.106 13.1679L257.201 18.5975L254.011 19.3757C253.734 20.5256 253.293 21.6323 252.714 22.6698L254.512 25.4106L250.743 29.3099L247.941 27.5807C246.93 28.1946 245.84 28.6615 244.699 28.99L244.033 32.215L238.604 32.3101L237.826 29.1284C236.676 28.8431 235.569 28.4021 234.531 27.8315L231.791 29.6212L227.891 25.8515L229.621 23.0502C229.007 22.0387 228.531 20.9406 228.211 19.7993L225.004 19.1336L224.908 13.7126L228.09 12.9258C228.375 11.7759 228.808 10.6692 229.387 9.64029L227.589 6.89086L231.358 2.99152L234.16 4.72072H234.125ZM237.022 11.9401C234.791 14.2486 234.851 17.9318 237.16 20.1711C239.468 22.4018 243.152 22.3413 245.391 20.0328C247.621 17.7243 247.561 14.0411 245.252 11.8104C242.944 9.57977 239.261 9.64029 237.022 11.9488V11.9401Z" fill="#F5F5F5"/>
<path d="M50.7087 8.4037C52.3601 7.40941 54.1325 6.63992 55.9828 6.11251L57.0635 0.924915L65.8738 0.769287L67.1448 5.95689C69.0123 6.39783 70.8107 7.08951 72.488 8.00599L76.9407 5.08364L83.2782 11.205L80.5201 15.7874C81.5058 17.4388 82.2753 19.2026 82.8113 21.0528L87.9989 22.1422L88.1545 30.9525L82.9669 32.2234C82.5087 34.091 81.8084 35.8893 80.866 37.5667L83.7883 42.0193L77.6669 48.3655L73.1883 45.5901C71.5456 46.5844 69.7645 47.3626 67.9143 47.8813L66.8335 53.0689L58.0232 53.2159L56.7523 48.0283C54.8847 47.5701 53.0864 46.8611 51.409 45.9273L46.9045 48.8929L40.567 42.7716L43.325 38.267C42.3307 36.6156 41.5699 34.8432 41.0425 32.9929L35.8549 31.9122L35.6647 23.05L40.8523 21.7877C41.3019 19.9202 42.0022 18.1218 42.9273 16.4358L40.0309 11.9831L46.1523 5.64563L50.7087 8.4037ZM55.4035 20.1104C51.7808 23.8628 51.8846 29.8458 55.6369 33.4685C59.3893 37.0911 65.3723 36.9874 68.995 33.235C72.6177 29.4827 72.5139 23.4996 68.7616 19.8769C65.0178 16.2543 59.0348 16.3494 55.4121 20.0931C55.4121 20.0931 55.4035 20.1017 55.3948 20.1104H55.4035Z" fill="#F5F5F5"/>
<path d="M192.832 159.311C194.025 158.594 195.304 158.04 196.644 157.66L197.431 153.882L203.803 153.769L204.72 157.513C206.069 157.842 207.374 158.36 208.585 159.035L211.81 156.925L216.392 161.352L214.403 164.646C215.121 165.839 215.674 167.119 216.055 168.459L219.824 169.246L219.937 175.618L216.193 176.534C215.865 177.883 215.354 179.18 214.68 180.399L216.79 183.624L212.389 188.189L209.095 186.192C207.902 186.909 206.622 187.471 205.282 187.852L204.495 191.621L198.123 191.734L197.206 187.99C195.858 187.662 194.552 187.151 193.342 186.468L190.117 188.587L185.526 184.151L187.523 180.866C186.805 179.673 186.252 178.393 185.872 177.053L182.102 176.266L181.99 169.894L185.725 168.978C186.062 167.629 186.572 166.323 187.246 165.104L185.111 161.905L189.537 157.314L192.832 159.311ZM196.229 167.802C193.61 170.517 193.679 174.848 196.402 177.468C199.126 180.088 203.449 180.019 206.069 177.295C208.688 174.58 208.619 170.257 205.904 167.629C203.189 165 198.858 165.07 196.229 167.776V167.793V167.802Z" fill="#F5F5F5"/>
<path d="M210.789 273.369C211.982 272.652 213.262 272.09 214.602 271.709L215.38 267.94L221.761 267.827L222.678 271.571C224.026 271.899 225.332 272.41 226.542 273.093L229.767 270.983L234.35 275.41L232.352 278.704C233.07 279.897 233.632 281.177 234.012 282.508L237.782 283.295L237.895 289.667L234.151 290.592C233.814 291.941 233.303 293.238 232.629 294.457L234.739 297.673L230.312 302.264L227.018 300.241C225.825 300.959 224.545 301.512 223.205 301.892L222.427 305.671L216.046 305.783L215.13 302.039C213.781 301.702 212.484 301.192 211.265 300.518L208.066 302.653L203.475 298.226L205.472 294.932C204.754 293.739 204.192 292.46 203.812 291.119L200.042 290.333L199.93 283.961L203.674 283.044C204.011 281.695 204.521 280.398 205.195 279.179L203.086 275.954L207.512 271.372L210.807 273.369H210.789ZM214.187 281.86C211.567 284.574 211.637 288.906 214.36 291.526C217.084 294.146 221.407 294.076 224.026 291.353C226.646 288.638 226.577 284.306 223.853 281.687C221.139 279.067 216.816 279.136 214.196 281.851L214.187 281.86Z" fill="#F5F5F5"/>
<path d="M57.7639 201.988C58.5767 201.504 59.4499 201.123 60.3577 200.873L60.8851 198.322L65.2081 198.253L65.822 200.769C66.7298 201.002 67.6031 201.348 68.4158 201.798L70.5946 200.371L73.6899 203.363L72.3238 205.585C72.808 206.397 73.1884 207.271 73.4391 208.179L75.9811 208.706L76.0589 213.029L73.5342 213.651C73.3094 214.559 72.9636 215.433 72.5054 216.245L73.932 218.424L70.9491 221.511L68.7271 220.162C67.9143 220.646 67.0411 221.026 66.1333 221.286L65.5972 223.828L61.2742 223.906L60.6603 221.381C59.7525 221.148 58.8793 220.802 58.0665 220.352L55.8964 221.735L52.8011 218.744L54.1672 216.531C53.6744 215.718 53.3026 214.845 53.0519 213.937L50.5099 213.409L50.4321 209.086L52.9568 208.464C53.1816 207.556 53.5274 206.683 53.977 205.87L52.559 203.7L55.5419 200.605L57.7639 201.953V201.988ZM60.0551 207.729C58.2913 209.562 58.3432 212.476 60.1675 214.248C62.0005 216.012 64.9142 215.96 66.6866 214.136C68.4504 212.303 68.3985 209.389 66.5742 207.625C64.7413 205.853 61.8276 205.905 60.0551 207.738V207.729Z" fill="#F5F5F5"/>
<path d="M64.1446 235.102C65.6231 234.22 67.2053 233.537 68.8653 233.07L69.8337 228.427L77.667 228.289L78.791 232.889C80.451 233.295 82.0505 233.926 83.5462 234.765L87.5061 232.171L93.1433 237.609L90.6878 241.656C91.5697 243.117 92.2528 244.699 92.7197 246.342L97.3626 247.31L97.5009 255.144L92.9012 256.268C92.4949 257.928 91.8637 259.527 91.025 261.023L93.6188 264.983L88.1805 270.62L84.1342 268.164C82.673 269.046 81.0908 269.738 79.448 270.205L78.4797 274.839L70.6464 274.977L69.5224 270.378C67.8624 269.971 66.2629 269.34 64.7671 268.502L60.8073 271.095L55.1355 265.657L57.6255 261.611C56.7437 260.15 56.052 258.567 55.5851 256.925L50.9508 255.956L50.8125 248.123L55.4122 246.999C55.8185 245.339 56.4497 243.739 57.2884 242.244L54.6946 238.284L60.1415 232.647L64.1879 235.102H64.1446ZM68.3206 245.538C65.0957 248.875 65.1908 254.201 68.5368 257.417C71.8742 260.642 77.2001 260.547 80.4164 257.201C83.6414 253.864 83.5462 248.547 80.2089 245.322C76.8715 242.097 71.5456 242.192 68.3206 245.529V245.538Z" fill="#F5F5F5"/>
<path d="M400.604 12.3984H281.687V212.769H400.604V12.3984Z" fill="#E0E0E0"/>
<path d="M396.998 16.168H284.894V209.475H396.998V16.168Z" fill="#F5F5F5"/>
<path d="M385.646 26.4912H340.946V95.8494H385.646V26.4912Z" fill="white"/>
<path d="M365.674 32.6213C365.674 33.5464 364.93 34.29 364.005 34.29C363.08 34.29 362.336 33.5464 362.336 32.6213C362.336 31.6962 363.08 30.9526 364.005 30.9526C364.93 30.9526 365.674 31.6962 365.674 32.6213Z" fill="#E0E0E0"/>
<path d="M340.592 115.156H295.892V184.514H340.592V115.156Z" fill="white"/>
<path d="M320.62 121.269C320.62 122.194 319.876 122.937 318.951 122.937C318.026 122.937 317.282 122.194 317.282 121.269C317.282 120.344 318.026 119.6 318.951 119.6C319.876 119.6 320.62 120.344 320.62 121.269Z" fill="#E0E0E0"/>
<path d="M333.459 26.4912H295.287V80.6584H333.459V26.4912Z" fill="white"/>
<path d="M315.76 31.4109C315.76 32.1718 315.138 32.7943 314.377 32.7943C313.616 32.7943 312.994 32.1718 312.994 31.4109C312.994 30.6501 313.616 30.0276 314.377 30.0276C315.138 30.0276 315.76 30.6501 315.76 31.4109Z" fill="#E0E0E0"/>
<path d="M387.119 116.085L346.293 120.693L348.846 143.314L389.673 138.706L387.119 116.085Z" fill="white"/>
<path d="M367.178 124.122C367.961 124.122 368.596 123.487 368.596 122.704C368.596 121.921 367.961 121.286 367.178 121.286C366.395 121.286 365.76 121.921 365.76 122.704C365.76 123.487 366.395 124.122 367.178 124.122Z" fill="#E0E0E0"/>
<path d="M334.626 130.978C334.626 131.169 327.614 131.316 318.951 131.316C310.288 131.316 303.276 131.169 303.276 130.978C303.276 130.788 310.296 130.65 318.951 130.65C327.605 130.65 334.626 130.78 334.626 130.978Z" fill="#E0E0E0"/>
<path d="M334.626 135.967C334.626 136.149 327.614 136.304 318.951 136.304C310.288 136.304 303.276 136.149 303.276 135.967C303.276 135.785 310.296 135.638 318.951 135.638C327.605 135.638 334.626 135.759 334.626 135.967Z" fill="#E0E0E0"/>
<path d="M334.626 140.904C334.626 141.086 327.614 141.241 318.951 141.241C310.288 141.241 303.276 141.086 303.276 140.904C303.276 140.722 310.296 140.575 318.951 140.575C327.605 140.575 334.626 140.722 334.626 140.904Z" fill="#E0E0E0"/>
<path d="M334.626 145.867C334.626 146.048 327.614 146.204 318.951 146.204C310.288 146.204 303.276 146.048 303.276 145.867C303.276 145.685 310.296 145.538 318.951 145.538C327.605 145.538 334.626 145.685 334.626 145.867Z" fill="#E0E0E0"/>
<path d="M334.626 150.83C334.626 151.011 327.614 151.167 318.951 151.167C310.288 151.167 303.276 151.011 303.276 150.83C303.276 150.648 310.296 150.501 318.951 150.501C327.605 150.501 334.626 150.665 334.626 150.83Z" fill="#E0E0E0"/>
<path d="M334.626 155.792C334.626 155.974 327.614 156.13 318.951 156.13C310.288 156.13 303.276 155.974 303.276 155.792C303.276 155.611 310.296 155.464 318.951 155.464C327.605 155.464 334.626 155.611 334.626 155.792Z" fill="#E0E0E0"/>
<path d="M334.626 160.755C334.626 160.937 327.614 161.092 318.951 161.092C310.288 161.092 303.276 160.937 303.276 160.755C303.276 160.573 310.296 160.427 318.951 160.427C327.605 160.427 334.626 160.573 334.626 160.755Z" fill="#E0E0E0"/>
<path d="M383.286 125.661C383.286 125.843 376.369 126.975 367.81 128.186C359.25 129.396 352.247 130.226 352.247 130.044C352.247 129.863 359.164 128.739 367.723 127.528C376.283 126.318 383.26 125.479 383.286 125.661Z" fill="#E0E0E0"/>
<path d="M383.908 128.765C383.908 128.947 376.991 130.079 368.432 131.29C359.872 132.5 352.869 133.33 352.869 133.148C352.869 132.967 359.786 131.843 368.345 130.632C376.905 129.422 383.882 128.583 383.908 128.765Z" fill="#E0E0E0"/>
<path d="M384.444 131.644C384.444 131.825 377.528 132.958 368.968 134.16C360.409 135.362 353.405 136.209 353.405 136.027C353.405 135.846 360.322 134.713 368.882 133.503C377.441 132.292 384.444 131.454 384.444 131.644Z" fill="#E0E0E0"/>
<path d="M381.712 40.9994C381.712 41.1897 373.784 41.3366 364.005 41.3366C354.227 41.3366 346.29 41.1897 346.29 40.9994C346.29 40.8092 354.218 40.6709 364.005 40.6709C373.792 40.6709 381.712 40.8611 381.712 40.9994Z" fill="#E0E0E0"/>
<path d="M381.712 43.9563C381.712 44.1379 373.784 44.2849 364.005 44.2849C354.227 44.2849 346.29 44.1379 346.29 43.9563C346.29 43.7748 354.218 43.6191 364.005 43.6191C373.792 43.6191 381.712 43.7661 381.712 43.9563Z" fill="#E0E0E0"/>
<path d="M381.712 46.9134C381.712 47.0949 373.784 47.2506 364.005 47.2506C354.227 47.2506 346.29 47.0949 346.29 46.9134C346.29 46.7318 354.218 46.5762 364.005 46.5762C373.792 46.5762 381.712 46.7232 381.712 46.9134Z" fill="#E0E0E0"/>
<path d="M381.712 49.8529C381.712 50.0431 373.784 50.1901 364.005 50.1901C354.227 50.1901 346.29 50.0431 346.29 49.8529C346.29 49.6627 354.183 49.5071 364.005 49.5071C373.827 49.5071 381.712 49.6714 381.712 49.8529Z" fill="#E0E0E0"/>
<path d="M381.712 52.8096C381.712 52.9912 373.784 53.1382 364.005 53.1382C354.227 53.1382 346.29 52.9912 346.29 52.8096C346.29 52.628 354.218 52.4724 364.005 52.4724C373.792 52.4724 381.712 52.6194 381.712 52.8096Z" fill="#E0E0E0"/>
<path d="M381.712 55.7581C381.712 55.9397 373.784 56.0866 364.005 56.0866C354.227 56.0866 346.29 55.9397 346.29 55.7581C346.29 55.5765 354.218 55.4209 364.005 55.4209C373.792 55.4209 381.712 55.5592 381.712 55.7581Z" fill="#E0E0E0"/>
<path d="M381.712 58.7062C381.712 58.8878 373.784 59.0434 364.005 59.0434C354.227 59.0434 346.29 58.8878 346.29 58.7062C346.29 58.5247 354.218 58.3777 364.005 58.3777C373.792 58.3777 381.712 58.5247 381.712 58.7062Z" fill="#E0E0E0"/>
<path d="M381.712 67.4646C381.712 67.6462 373.784 67.7932 364.005 67.7932C354.227 67.7932 346.29 67.6462 346.29 67.4646C346.29 67.2831 354.218 67.1274 364.005 67.1274C373.792 67.1274 381.712 67.2831 381.712 67.4646Z" fill="#E0E0E0"/>
<path d="M381.963 70.5773C381.963 70.7675 374.035 70.9145 364.256 70.9145C354.477 70.9145 346.54 70.7675 346.54 70.5773C346.54 70.3871 354.469 70.2488 364.256 70.2488C374.043 70.2488 381.963 70.3958 381.963 70.5773Z" fill="#E0E0E0"/>
<path d="M382.214 73.7159C382.214 73.8974 374.277 74.0444 364.498 74.0444C354.719 74.0444 346.791 73.8974 346.791 73.7159C346.791 73.5343 354.719 73.3787 364.498 73.3787C374.277 73.3787 382.214 73.517 382.214 73.7159Z" fill="#E0E0E0"/>
<path d="M382.456 76.811C382.456 77.0012 374.527 77.1482 364.749 77.1482C354.97 77.1482 347.042 77.0012 347.042 76.811C347.042 76.6208 354.97 76.4824 364.749 76.4824C374.527 76.4824 382.456 76.6294 382.456 76.811Z" fill="#E0E0E0"/>
<path d="M382.715 79.9324C382.715 80.114 374.787 80.261 365.008 80.261C355.229 80.261 347.266 80.114 347.266 79.9324C347.266 79.7508 355.186 79.5952 364.973 79.5952C374.761 79.5952 382.715 79.7681 382.715 79.9324Z" fill="#E0E0E0"/>
<path d="M382.957 83.0449C382.957 83.2351 375.029 83.3821 365.25 83.3821C355.471 83.3821 347.534 83.2351 347.534 83.0449C347.534 82.8546 355.463 82.7163 365.25 82.7163C375.037 82.7163 382.957 82.8633 382.957 83.0449Z" fill="#E0E0E0"/>
<path d="M134.514 51.8934H108.896C107.124 51.8934 105.697 50.4668 105.689 48.6944V13.1939C105.689 11.4215 107.124 9.99487 108.896 9.99487H125.142L137.722 22.9639V48.6944C137.722 50.4668 136.287 51.8934 134.514 51.8934Z" fill="#F5F5F5"/>
<path d="M105.689 39.1924H137.722V47.9767C137.722 50.1382 135.967 51.8934 133.805 51.8934H109.597C107.435 51.8934 105.68 50.1382 105.68 47.9767V39.1924H105.689Z" fill="#E0E0E0"/>
<path d="M117.041 47.3888L117.845 46.4205C118.096 46.8268 118.537 47.0862 119.012 47.1122C119.591 47.1122 119.877 46.7577 119.877 46.066V43.0831H117.681V41.9246H121.321V45.9882C121.485 47.0949 120.724 48.1237 119.617 48.288C119.436 48.314 119.246 48.314 119.064 48.288C118.286 48.314 117.542 47.9768 117.041 47.3802V47.3888Z" fill="#FAFAFA"/>
<path d="M122.203 47.7779L122.67 46.775C123.18 47.0776 123.759 47.2419 124.347 47.2419C124.995 47.2419 125.211 47.069 125.211 46.8009C125.211 46.0141 122.298 46.8009 122.298 44.8988C122.298 43.9823 123.119 43.3339 124.528 43.3339C125.168 43.3252 125.808 43.4636 126.379 43.7575L125.929 44.7172C125.505 44.4752 125.021 44.3541 124.537 44.3628C123.906 44.3628 123.672 44.553 123.672 44.8037C123.672 45.6683 126.586 44.8037 126.586 46.7318C126.586 47.5964 125.722 48.2621 124.312 48.2621C123.577 48.288 122.851 48.1238 122.203 47.7779Z" fill="#FAFAFA"/>
<path d="M112.476 32.5174L113.479 31.3502C114.023 32.2321 114.975 32.7682 116.003 32.7855C117.378 32.7855 118.087 31.9209 118.087 30.33V23.517H113.704V22.0039H119.756V30.2349C119.756 32.9325 118.442 34.2726 115.96 34.2726C114.585 34.2899 113.28 33.6328 112.476 32.5174Z" fill="#FAFAFA"/>
<path d="M121.935 33.1574L122.626 31.8432C123.586 32.4657 124.701 32.7943 125.843 32.7943C127.39 32.7943 128.03 32.3274 128.03 31.5493C128.03 29.4915 122.229 31.2726 122.229 27.6153C122.229 25.9726 123.698 24.8659 126.059 24.8659C127.226 24.8573 128.376 25.1512 129.396 25.7305L128.687 27.0274C127.892 26.5346 126.975 26.2839 126.041 26.3011C124.58 26.3011 123.871 26.8372 123.871 27.5635C123.871 29.7336 129.69 27.9612 129.69 31.532C129.69 33.192 128.168 34.2555 125.722 34.2555C124.373 34.2814 123.059 33.901 121.935 33.1574Z" fill="#FAFAFA"/>
<path d="M125.142 10.0208V19.9982C125.142 21.6496 126.474 22.9811 128.125 22.9811H137.722L125.142 10.0208Z" fill="#EBEBEB"/>
<path d="M125.272 20.8713C125.28 22.419 126.361 23.7505 127.866 24.0877C127.961 24.0877 128.073 24.1395 128.177 24.1655C129.43 24.3903 137.687 25.8947 137.687 25.6612V22.981H128.09C128.09 22.981 125.73 22.9031 125.272 20.8713Z" fill="#E0E0E0"/>
<path d="M0.458252 357.702L46.0918 326.888L267.213 325.833L277.329 358.169L0.458252 357.702Z" fill="#455A64"/>
<path d="M276.758 370.325L0 370.126V357.097L276.879 357.962L276.758 370.325Z" fill="#455A64"/>
<path d="M269.971 357.892C269.971 358.013 210.201 358.091 136.503 358.057C62.8044 358.022 3.026 357.892 3.026 357.763C3.026 357.633 62.7785 357.564 136.503 357.598C210.227 357.633 269.971 357.763 269.971 357.892Z" fill="#263238"/>
<path d="M201.149 72.0472H157.677C154.677 72.0472 152.239 69.609 152.239 66.6089V6.46729C152.239 3.46712 154.668 1.0376 157.668 1.0376H185.223L206.553 23.0157V66.6089C206.553 69.6004 204.132 72.0299 201.141 72.0472H201.149Z" fill="#72C78A"/>
<g opacity="0.2">
<path d="M153.311 50.5015H205.472C206.06 50.5015 206.544 50.9856 206.544 51.5736V66.4447C206.544 69.54 204.037 72.0473 200.942 72.0473H157.841C154.746 72.0473 152.239 69.54 152.239 66.4447V51.5736C152.239 50.9856 152.723 50.5015 153.311 50.5015Z" fill="black"/>
</g>
<g opacity="0.2">
<path d="M185.232 1.0376V17.9578C185.232 20.7505 187.48 23.0071 190.273 23.0157C190.273 23.0157 190.273 23.0157 190.281 23.0157H206.562L185.232 1.0376Z" fill="white"/>
</g>
<g opacity="0.2">
<path d="M185.448 19.4451C185.448 19.4451 185.241 23.5692 189.909 24.9007C190.082 24.9526 190.264 24.9872 190.446 25.0217C192.572 25.4022 206.562 27.8836 206.562 27.5637V23.0159H190.281C190.281 23.0159 186.218 22.8775 185.448 19.4451Z" fill="black"/>
</g>
<path d="M167.784 59.8824C167.931 57.3146 170.136 55.3606 172.695 55.5075C173.897 55.5767 175.03 56.1128 175.851 57.0033L174.597 58.1532C174.07 57.5221 173.292 57.1589 172.47 57.1676C170.975 57.0811 169.704 58.2224 169.617 59.7181C169.531 61.2139 170.672 62.4849 172.168 62.5713C172.271 62.5713 172.375 62.5713 172.47 62.5713C173.292 62.5713 174.078 62.2082 174.597 61.5684L175.851 62.7269C174.122 64.6204 171.191 64.7588 169.289 63.0296C168.389 62.2168 167.853 61.0842 167.784 59.8738V59.8824Z" fill="#FAFAFA"/>
<path d="M176.422 63.2802L177.087 61.8104C177.909 62.3724 178.886 62.675 179.88 62.675C181.039 62.675 181.505 62.2946 181.505 61.8104C181.505 60.2282 176.595 61.3176 176.595 58.1791C176.595 56.7352 177.753 55.5853 180.157 55.5853C181.186 55.568 182.197 55.8274 183.088 56.3375L182.482 57.8246C181.773 57.4009 180.961 57.1761 180.139 57.1589C178.981 57.1589 178.54 57.5912 178.54 58.1186C178.54 59.6748 183.451 58.6027 183.451 61.7067C183.451 63.116 182.275 64.3005 179.863 64.3005C178.635 64.3177 177.442 63.9633 176.422 63.2802Z" fill="#FAFAFA"/>
<path d="M184.125 63.2802L184.782 61.8104C185.603 62.3724 186.58 62.675 187.575 62.675C188.733 62.675 189.2 62.2946 189.2 61.8104C189.2 60.2282 184.289 61.3176 184.289 58.1791C184.289 56.7352 185.448 55.5853 187.851 55.5853C188.88 55.568 189.892 55.8274 190.782 56.3375L190.177 57.8246C189.468 57.4009 188.664 57.1761 187.834 57.1589C186.676 57.1589 186.235 57.5912 186.235 58.1186C186.235 59.6748 191.146 58.6027 191.146 61.7067C191.146 63.116 189.978 64.3005 187.557 64.3005C186.338 64.3177 185.137 63.9633 184.125 63.2802Z" fill="#FAFAFA"/>
<path d="M170.542 32.5437C171.407 32.8203 171.848 33.4083 171.848 34.7225V37.8264C171.761 38.5267 172.254 39.1665 172.955 39.2616C173.058 39.2789 173.162 39.2789 173.266 39.2616H173.612V41.6306H172.488C170.058 41.6306 168.822 40.3856 168.822 38.1722V34.6447C168.891 34.2124 168.597 33.806 168.165 33.7368C168.096 33.7282 168.026 33.7282 167.957 33.7368H167.317V31.3592H167.957C168.389 31.411 168.779 31.0998 168.83 30.6675C168.83 30.5983 168.83 30.5205 168.83 30.4513V26.9411C168.83 24.7104 170.067 23.4827 172.496 23.4827H173.62V25.843H173.274C172.574 25.7566 171.934 26.258 171.857 26.967C171.848 27.0708 171.848 27.1832 171.857 27.2869V30.3908C171.857 31.7223 171.45 32.2843 170.551 32.5523L170.542 32.5437Z" fill="#FAFAFA"/>
<path d="M191.474 31.3505V33.7195H190.826C190.307 33.7195 189.961 34.0135 189.961 34.636V38.1462C189.961 40.3769 188.716 41.6046 186.287 41.6046H185.163V39.2616H185.517C186.218 39.348 186.857 38.8379 186.935 38.1376C186.944 38.0338 186.944 37.9301 186.935 37.8263V34.7224C186.935 33.3823 187.342 32.8203 188.232 32.5436C187.368 32.2756 186.935 31.679 186.935 30.3735V27.2696C187.03 26.5692 186.538 25.9208 185.837 25.8257C185.733 25.8084 185.621 25.8084 185.517 25.8257H185.163V23.4653H186.287C188.716 23.4653 189.961 24.7017 189.961 26.9237V30.4859C189.961 31.1084 190.29 31.3937 190.826 31.3937L191.474 31.3505Z" fill="#FAFAFA"/>
<path d="M261.965 115.709H217.871C214.827 115.709 212.354 113.237 212.354 110.193V49.1353C212.354 46.0919 214.827 43.6191 217.871 43.6191H245.84L267.455 65.9345V110.185C267.455 113.228 265.009 115.692 261.965 115.709Z" fill="#72C78A"/>
<g opacity="0.2">
<path d="M212.346 93.8352H267.49V109.744C267.49 113.038 264.818 115.71 261.524 115.71H218.294C215 115.71 212.328 113.038 212.328 109.744V93.8352H212.346Z" fill="black"/>
</g>
<g opacity="0.2">
<path d="M245.832 43.6191V60.7987C245.832 63.6346 248.132 65.9345 250.968 65.9345H267.481L245.832 43.6191Z" fill="white"/>
</g>
<g opacity="0.2">
<path d="M246.056 62.312C246.056 62.312 245.84 66.4794 250.587 67.8455C250.768 67.8973 250.95 67.9406 251.132 67.9665C253.284 68.3556 267.481 70.8802 267.481 70.5603V65.9347H250.967C250.967 65.9347 246.843 65.7963 246.056 62.312Z" fill="black"/>
</g>
<path d="M234.99 75.7738L228.367 78.1947L234.99 80.5983V83.0883L225.522 79.4916V76.8978L234.99 73.301V75.7738Z" fill="#FAFAFA"/>
<path d="M242.105 68.416H244.863L238.327 87.1433H235.569L242.105 68.416Z" fill="#FAFAFA"/>
<path d="M254.685 76.9061V79.4999L245.244 83.088V80.6326L251.867 78.229L245.244 75.8081V73.344L254.685 76.9061Z" fill="#FAFAFA"/>
<path d="M232.733 101.971V109.381H231.004V106.346H227.641V109.381H225.911V101.971H227.641V104.894H231.004V101.971H232.733Z" fill="#FAFAFA"/>
<path d="M236.027 103.372H233.658V101.971H240.117V103.372H237.739V109.381H236.01L236.027 103.372Z" fill="#FAFAFA"/>
<path d="M247.777 109.381V104.937L245.598 108.602H244.82L242.65 105.032V109.355H241.042V101.945H242.46L245.244 106.571L247.976 101.962H249.385V109.372H247.777V109.381Z" fill="#FAFAFA"/>
<path d="M251.14 101.971H252.869V108.023H256.587V109.415H251.149V101.971H251.14Z" fill="#FAFAFA"/>
<path d="M106.657 66.2539H26.5777C25.1165 66.2539 23.932 67.4384 23.932 68.8996V201.209C23.932 202.67 25.1165 203.855 26.5777 203.855H106.657C108.118 203.855 109.303 202.67 109.303 201.209V68.8996C109.303 67.4384 108.118 66.2539 106.657 66.2539Z" fill="white"/>
<path d="M27.0532 66.2539H106.302C107.962 66.2539 109.303 67.594 109.303 69.2541V81.6265H23.906V69.3924C23.8974 67.6719 25.2894 66.2626 27.01 66.2539C27.0273 66.2539 27.0359 66.2539 27.0532 66.2539Z" fill="#E0E0E0"/>
<path d="M106.441 203.855C106.821 203.838 107.184 203.751 107.539 203.613C108.576 203.164 109.251 202.143 109.268 201.019C109.268 198.071 109.268 193.739 109.225 188.163C109.225 177.001 109.225 160.859 109.156 140.912C109.086 120.966 109.156 97.1982 109.104 70.8192V69.5829C109.13 69.1851 109.095 68.7874 109 68.407C108.663 67.2571 107.608 66.4616 106.406 66.4703H26.863C25.4969 66.4703 24.3643 67.5251 24.2692 68.8912V200.751C24.1654 202.1 25.0733 203.319 26.3961 203.613C27.0532 203.682 27.719 203.7 28.3847 203.674H41.8552L89.1142 203.743L101.962 203.786L89.1142 203.829L41.8552 203.898H28.2291C27.5374 203.924 26.8457 203.898 26.1627 203.829C25.4451 203.674 24.8139 203.276 24.373 202.688C23.932 202.1 23.7159 201.365 23.7591 200.63V68.7355C23.8023 68.2254 23.9666 67.7326 24.2519 67.3003C24.8225 66.4271 25.7995 65.8997 26.8457 65.8997H106.432C106.882 65.8997 107.331 65.9861 107.738 66.1677C108.576 66.5395 109.208 67.2571 109.467 68.139C109.562 68.5626 109.597 68.9949 109.579 69.4272V70.6636C109.579 97.0426 109.579 120.81 109.527 140.757C109.476 160.703 109.476 176.845 109.458 188.007C109.458 193.584 109.458 197.915 109.415 200.864C109.415 201.521 109.173 202.161 108.758 202.671C108.455 203.042 108.066 203.345 107.625 203.535C107.349 203.639 107.055 203.708 106.761 203.734L106.441 203.855Z" fill="#263238"/>
<path d="M36.5206 75.1421C36.5206 76.5341 35.3879 77.6667 33.9959 77.6667C32.6039 77.6667 31.4713 76.5341 31.4713 75.1421C31.4713 73.7501 32.6039 72.6174 33.9959 72.6174C35.3879 72.6174 36.5119 73.7328 36.5206 75.1248C36.5206 75.1248 36.5206 75.1334 36.5206 75.1421Z" fill="white"/>
<path d="M41.7513 77.6582C43.1409 77.6582 44.2673 76.5318 44.2673 75.1422C44.2673 73.7527 43.1409 72.6262 41.7513 72.6262C40.3618 72.6262 39.2354 73.7527 39.2354 75.1422C39.2354 76.5318 40.3618 77.6582 41.7513 77.6582Z" fill="white"/>
<path d="M49.4983 77.6582C50.8878 77.6582 52.0143 76.5318 52.0143 75.1422C52.0143 73.7527 50.8878 72.6262 49.4983 72.6262C48.1087 72.6262 46.9823 73.7527 46.9823 75.1422C46.9823 76.5318 48.1087 77.6582 49.4983 77.6582Z" fill="white"/>
<path d="M61.084 102.472H45.3569C44.4058 102.472 43.6277 101.694 43.6277 100.743C43.6277 99.7918 44.4058 99.0137 45.3569 99.0137H61.084C62.035 99.0137 62.8132 99.7918 62.8132 100.743C62.8132 101.694 62.035 102.472 61.084 102.472Z" fill="#263238"/>
<path d="M61.084 111.403H45.3569C44.4058 111.403 43.6277 110.625 43.6277 109.674C43.6277 108.723 44.4058 107.945 45.3569 107.945H61.084C62.035 107.945 62.8132 108.723 62.8132 109.674C62.8132 110.625 62.035 111.403 61.084 111.403Z" fill="#E0E0E0"/>
<path d="M61.5334 135.863H45.8063C44.8553 135.863 44.0771 135.085 44.0771 134.134C44.0771 133.183 44.8553 132.405 45.8063 132.405H61.5334C62.4845 132.405 63.2626 133.183 63.2626 134.134C63.2626 135.085 62.4845 135.863 61.5334 135.863Z" fill="#E0E0E0"/>
<path d="M61.084 120.629H45.3569C44.4058 120.629 43.6277 119.851 43.6277 118.9C43.6277 117.949 44.4058 117.17 45.3569 117.17H61.084C62.035 117.17 62.8132 117.949 62.8132 118.9C62.8132 119.851 62.035 120.629 61.084 120.629Z" fill="#72C78A"/>
<path d="M61.084 172.09H45.3569C44.4058 172.09 43.6277 171.312 43.6277 170.361C43.6277 169.409 44.4058 168.631 45.3569 168.631H61.084C62.035 168.631 62.8132 169.409 62.8132 170.361C62.8132 171.312 62.035 172.09 61.084 172.09Z" fill="#72C78A"/>
<path d="M86.2696 102.472H70.5426C69.5915 102.472 68.8134 101.694 68.8134 100.743C68.8134 99.7918 69.5915 99.0137 70.5426 99.0137H86.2696C87.2207 99.0137 87.9988 99.7918 87.9988 100.743C87.9988 101.694 87.2207 102.472 86.2696 102.472Z" fill="#455A64"/>
<path d="M103.294 111.403H70.4388C69.5396 111.36 68.8393 110.599 68.8825 109.7C68.8825 109.7 68.8825 109.683 68.8825 109.674C68.8307 108.775 69.5137 107.997 70.4129 107.945C70.4129 107.945 70.4302 107.945 70.4388 107.945H103.337C104.236 107.988 104.936 108.749 104.893 109.648C104.893 109.648 104.893 109.666 104.893 109.674C104.945 110.573 104.262 111.352 103.354 111.403C103.337 111.403 103.311 111.403 103.294 111.403Z" fill="#263238"/>
<path d="M102.403 120.629H69.2889C68.3811 120.603 67.6548 119.851 67.6807 118.934C67.6807 118.926 67.6807 118.908 67.6807 118.9C67.6375 117.992 68.3378 117.214 69.2543 117.17C69.2629 117.17 69.2802 117.17 69.2889 117.17H102.403C103.311 117.196 104.037 117.949 104.011 118.865C104.011 118.874 104.011 118.891 104.011 118.9C104.054 119.807 103.354 120.586 102.438 120.629C102.429 120.629 102.412 120.629 102.403 120.629Z" fill="#E0E0E0"/>
<path d="M78.4796 128.09H45.3654C44.4576 128.064 43.7313 127.312 43.7573 126.396C43.7573 126.387 43.7573 126.37 43.7573 126.361C43.714 125.453 44.4144 124.675 45.3308 124.632C45.3395 124.632 45.3568 124.632 45.3654 124.632H78.4796C79.3874 124.658 80.1137 125.41 80.0878 126.326C80.0878 126.335 80.0878 126.352 80.0878 126.361C80.131 127.269 79.4307 128.047 78.5142 128.09C78.5055 128.09 78.4882 128.09 78.4796 128.09Z" fill="#E0E0E0"/>
<path d="M37.6532 100.769C37.6532 101.72 36.8751 102.498 35.924 102.498C34.973 102.498 34.1948 101.72 34.1948 100.769C34.1948 99.8179 34.973 99.0398 35.924 99.0398C36.8751 99.0398 37.6532 99.8179 37.6532 100.769Z" fill="#455A64"/>
<path d="M37.6532 92.2265C37.6532 93.1776 36.8751 93.9557 35.924 93.9557C34.973 93.9557 34.1948 93.1776 34.1948 92.2265C34.1948 91.2755 34.973 90.4973 35.924 90.4973C36.8751 90.4973 37.6532 91.2755 37.6532 92.2265Z" fill="#455A64"/>
<path d="M37.6532 109.674C37.6532 110.625 36.8751 111.403 35.924 111.403C34.973 111.403 34.1948 110.625 34.1948 109.674C34.1948 108.723 34.973 107.945 35.924 107.945C36.8751 107.945 37.6532 108.723 37.6532 109.674Z" fill="#455A64"/>
<path d="M37.6532 118.925C37.6532 119.877 36.8751 120.655 35.924 120.655C34.973 120.655 34.1948 119.877 34.1948 118.925C34.1948 117.974 34.973 117.196 35.924 117.196C36.8751 117.196 37.6532 117.974 37.6532 118.925Z" fill="#455A64"/>
<path d="M61.5334 160.833H45.8063C44.8553 160.833 44.0771 160.055 44.0771 159.103C44.0771 158.152 44.8553 157.374 45.8063 157.374H61.5334C62.4845 157.374 63.2626 158.152 63.2626 159.103C63.2626 160.055 62.4845 160.833 61.5334 160.833Z" fill="#E0E0E0"/>
<path d="M61.084 145.598H45.3569C44.4058 145.598 43.6277 144.82 43.6277 143.869C43.6277 142.918 44.4058 142.14 45.3569 142.14H61.084C62.035 142.14 62.8132 142.918 62.8132 143.869C62.8132 144.82 62.035 145.598 61.084 145.598Z" fill="#72C78A"/>
<path d="M102.403 145.598H69.2889C68.3811 145.572 67.6548 144.82 67.6807 143.904C67.6807 143.895 67.6807 143.878 67.6807 143.869C67.6375 142.961 68.3378 142.183 69.2543 142.14C69.2629 142.14 69.2802 142.14 69.2889 142.14H102.403C103.311 142.166 104.037 142.918 104.011 143.835C104.011 143.843 104.011 143.86 104.011 143.869C104.054 144.777 103.354 145.555 102.438 145.598C102.429 145.598 102.412 145.598 102.403 145.598Z" fill="#E0E0E0"/>
<path d="M78.4796 153.06H45.3654C44.4576 153.034 43.7313 152.282 43.7573 151.365C43.7573 151.357 43.7573 151.339 43.7573 151.331C43.714 150.423 44.4144 149.645 45.3308 149.602C45.3395 149.602 45.3568 149.602 45.3654 149.602H78.4796C79.3874 149.628 80.1137 150.38 80.0878 151.296C80.0878 151.305 80.0878 151.322 80.0878 151.331C80.131 152.239 79.4307 153.017 78.5142 153.06C78.5055 153.06 78.4882 153.06 78.4796 153.06Z" fill="#E0E0E0"/>
<path d="M37.6532 143.895C37.6532 144.846 36.8751 145.624 35.924 145.624C34.973 145.624 34.1948 144.846 34.1948 143.895C34.1948 142.944 34.973 142.166 35.924 142.166C36.8751 142.166 37.6532 142.944 37.6532 143.895Z" fill="#455A64"/>
<path d="M54.4177 90.999H44.5786C44.1201 90.999 43.7485 91.3706 43.7485 91.829V93.4631C43.7485 93.9215 44.1201 94.2931 44.5786 94.2931H54.4177C54.8761 94.2931 55.2477 93.9215 55.2477 93.4631V91.829C55.2477 91.3706 54.8761 90.999 54.4177 90.999Z" fill="#455A64"/>
<path d="M61.084 181.177H45.3569C44.4058 181.177 43.6277 180.399 43.6277 179.447C43.6277 178.496 44.4058 177.718 45.3569 177.718H61.084C62.035 177.718 62.8132 178.496 62.8132 179.447C62.8132 180.399 62.035 181.177 61.084 181.177Z" fill="#263238"/>
<path d="M86.2696 181.177H70.5426C69.5915 181.177 68.8134 180.399 68.8134 179.447C68.8134 178.496 69.5915 177.718 70.5426 177.718H86.2696C87.2207 177.718 87.9988 178.496 87.9988 179.447C87.9988 180.399 87.2207 181.177 86.2696 181.177Z" fill="#455A64"/>
<path d="M37.6532 179.474C37.6532 180.425 36.8751 181.203 35.924 181.203C34.973 181.203 34.1948 180.425 34.1948 179.474C34.1948 178.523 34.973 177.744 35.924 177.744C36.8751 177.744 37.6532 178.523 37.6532 179.474Z" fill="#455A64"/>
<path d="M37.6532 187.687C37.6532 188.638 36.8751 189.416 35.924 189.416C34.973 189.416 34.1948 188.638 34.1948 187.687C34.1948 186.736 34.973 185.958 35.924 185.958C36.8751 185.958 37.6532 186.736 37.6532 187.687Z" fill="#455A64"/>
<path d="M54.4177 186.459H44.5786C44.1201 186.459 43.7485 186.831 43.7485 187.289V188.923C43.7485 189.382 44.1201 189.753 44.5786 189.753H54.4177C54.8761 189.753 55.2477 189.382 55.2477 188.923V187.289C55.2477 186.831 54.8761 186.459 54.4177 186.459Z" fill="#455A64"/>
<path d="M270.931 182.612H115V281.799H270.931V182.612Z" fill="white"/>
<path d="M143.082 182.612H115V281.799H143.082V182.612Z" fill="#EBEBEB"/>
<path d="M127.347 193.316C127.494 193.229 127.649 193.16 127.814 193.117L127.909 192.65H128.687L128.808 193.108C128.972 193.151 129.128 193.212 129.275 193.298L129.673 193.039L130.235 193.575L129.993 193.981C130.079 194.128 130.148 194.284 130.191 194.448L130.658 194.543V195.33L130.2 195.443C130.165 195.607 130.105 195.771 130.018 195.918L130.278 196.307L129.733 196.869L129.327 196.627C129.18 196.714 129.024 196.783 128.86 196.835L128.765 197.293H127.978L127.866 196.835C127.701 196.791 127.546 196.731 127.399 196.644L127.001 196.904L126.439 196.359L126.681 195.953C126.595 195.806 126.525 195.65 126.482 195.486L126.015 195.391V194.613L126.474 194.5C126.508 194.336 126.577 194.172 126.655 194.025L126.396 193.627L126.941 193.065L127.347 193.307V193.316ZM127.762 194.37C127.451 194.699 127.451 195.226 127.762 195.555C128.099 195.875 128.618 195.875 128.955 195.555C129.197 195.14 129.059 194.613 128.652 194.37C128.376 194.206 128.021 194.215 127.745 194.388L127.762 194.37Z" fill="#E0E0E0"/>
<path d="M133.831 215.233H121.606C120.914 215.233 120.352 214.671 120.352 213.98C120.352 213.98 120.352 213.98 120.352 213.971C120.352 213.279 120.914 212.717 121.606 212.717H133.849C134.54 212.717 135.102 213.271 135.111 213.962C135.111 213.962 135.111 213.962 135.111 213.971C135.111 214.671 134.549 215.233 133.849 215.233C133.849 215.233 133.84 215.233 133.831 215.233Z" fill="#E0E0E0"/>
<path d="M133.831 208.827H121.606C120.914 208.827 120.352 208.256 120.352 207.564C120.352 206.873 120.914 206.311 121.606 206.311H133.849C134.54 206.311 135.102 206.864 135.111 207.556C135.111 207.556 135.111 207.556 135.111 207.564C135.111 208.265 134.549 208.827 133.849 208.827C133.849 208.827 133.84 208.827 133.831 208.827Z" fill="#E0E0E0"/>
<path d="M133.831 202.956H121.606C120.914 202.956 120.352 202.394 120.352 201.702C120.352 201.011 120.914 200.449 121.606 200.44H133.849C134.532 200.449 135.076 200.993 135.094 201.676C135.111 202.368 134.558 202.939 133.866 202.956C133.857 202.956 133.84 202.956 133.831 202.956Z" fill="#E0E0E0"/>
<path d="M166.729 197.267H155.126C154.435 197.267 153.873 196.705 153.873 196.013C153.873 195.322 154.426 194.76 155.118 194.751C155.118 194.751 155.118 194.751 155.126 194.751H166.729C167.421 194.751 167.983 195.313 167.983 196.005C167.983 196.005 167.983 196.005 167.983 196.013C167.983 196.705 167.421 197.267 166.729 197.267Z" fill="#263238"/>
<path d="M166.729 203.855H155.126C154.435 203.855 153.873 203.293 153.873 202.601C153.873 202.601 153.873 202.601 153.873 202.593C153.873 201.901 154.435 201.339 155.126 201.339H166.729C167.421 201.339 167.983 201.901 167.983 202.593C167.983 203.284 167.43 203.846 166.738 203.855C166.738 203.855 166.738 203.855 166.729 203.855Z" fill="#E0E0E0"/>
<path d="M166.729 210.66H155.126C154.435 210.66 153.873 210.098 153.873 209.406C153.873 208.714 154.426 208.152 155.118 208.144C155.118 208.144 155.118 208.144 155.126 208.144H166.729C167.421 208.144 167.983 208.706 167.983 209.397C167.983 209.397 167.983 209.397 167.983 209.406C167.983 210.098 167.421 210.66 166.729 210.66Z" fill="#72C78A"/>
<path d="M161.784 223.819H155.126C154.435 223.819 153.873 223.257 153.873 222.565C153.873 222.565 153.873 222.565 153.873 222.556C153.873 221.865 154.435 221.303 155.126 221.303H161.784C162.476 221.303 163.038 221.865 163.038 222.556C163.038 223.248 162.484 223.81 161.793 223.819C161.793 223.819 161.793 223.819 161.784 223.819Z" fill="#263238"/>
<path d="M161.784 230.64H155.126C154.435 230.64 153.873 230.078 153.873 229.387C153.873 229.387 153.873 229.387 153.873 229.378C153.873 228.686 154.435 228.124 155.126 228.124H161.784C162.476 228.124 163.038 228.686 163.038 229.378C163.038 230.07 162.484 230.632 161.793 230.64C161.793 230.64 161.793 230.64 161.784 230.64Z" fill="#263238"/>
<path d="M181.54 230.64H169.349C168.649 230.64 168.087 230.078 168.087 229.378C168.087 228.686 168.657 228.124 169.349 228.124H181.54C182.232 228.124 182.794 228.678 182.802 229.369C182.802 229.369 182.802 229.369 182.802 229.378C182.802 230.078 182.24 230.64 181.54 230.64Z" fill="#E0E0E0"/>
<path d="M174.649 236.701H162.449C161.758 236.701 161.196 236.139 161.196 235.448C161.196 234.756 161.758 234.194 162.449 234.185H174.649C175.341 234.185 175.903 234.756 175.903 235.448C175.903 236.139 175.341 236.701 174.649 236.701Z" fill="#72C78A"/>
<path d="M177.347 241.111H168.969C168.496 241.111 168.113 241.494 168.113 241.967V242.771C168.113 243.243 168.496 243.627 168.969 243.627H177.347C177.819 243.627 178.203 243.243 178.203 242.771V241.967C178.203 241.494 177.819 241.111 177.347 241.111Z" fill="#72C78A"/>
<path d="M176.94 257.184H169.366C168.666 257.184 168.104 256.622 168.104 255.921C168.104 255.23 168.666 254.668 169.358 254.668C169.358 254.668 169.358 254.668 169.366 254.668H176.94C177.632 254.668 178.194 255.23 178.194 255.921C178.194 256.613 177.641 257.175 176.949 257.184C176.949 257.184 176.949 257.184 176.94 257.184Z" fill="#72C78A"/>
<path d="M176.94 271.501H169.366C168.675 271.501 168.113 270.948 168.104 270.256C168.104 270.256 168.104 270.256 168.104 270.248C168.104 269.547 168.666 268.985 169.366 268.985H176.94C177.632 268.985 178.194 269.547 178.194 270.239C178.194 270.239 178.194 270.239 178.194 270.248C178.194 270.939 177.632 271.501 176.94 271.501Z" fill="#72C78A"/>
<path d="M195.572 271.501H182.292C181.6 271.501 181.038 270.948 181.03 270.256C181.03 270.256 181.03 270.256 181.03 270.248C181.03 269.547 181.592 268.985 182.292 268.985H195.572C196.264 268.985 196.826 269.547 196.826 270.239C196.826 270.239 196.826 270.239 196.826 270.248C196.826 270.939 196.264 271.501 195.572 271.501Z" fill="#455A64"/>
<path d="M204.867 271.501H202.956C202.264 271.501 201.702 270.948 201.694 270.256C201.694 270.256 201.694 270.256 201.694 270.248C201.694 269.547 202.256 268.985 202.956 268.985H204.867C205.567 268.985 206.129 269.547 206.129 270.248C206.129 270.939 205.558 271.501 204.867 271.501Z" fill="#E0E0E0"/>
<path d="M194.777 257.184H183.537C182.837 257.184 182.275 256.622 182.275 255.921C182.275 255.23 182.837 254.668 183.528 254.668C183.528 254.668 183.528 254.668 183.537 254.668H194.777C195.468 254.668 196.03 255.23 196.03 255.921C196.03 256.613 195.477 257.175 194.785 257.184C194.785 257.184 194.785 257.184 194.777 257.184Z" fill="#E0E0E0"/>
<path d="M219.392 263.469H183.554C182.854 263.469 182.292 262.907 182.292 262.207C182.292 261.515 182.854 260.953 183.546 260.953C183.546 260.953 183.546 260.953 183.554 260.953H219.392C220.084 260.953 220.646 261.515 220.646 262.207C220.646 262.899 220.092 263.461 219.401 263.469C219.401 263.469 219.401 263.469 219.392 263.469Z" fill="#E0E0E0"/>
<path d="M223.525 257.184H200.648C199.947 257.184 199.385 256.622 199.385 255.921C199.385 255.23 199.956 254.668 200.648 254.668H223.525C224.217 254.668 224.779 255.221 224.787 255.913C224.787 255.913 224.787 255.913 224.787 255.921C224.787 256.622 224.225 257.184 223.525 257.184Z" fill="#455A64"/>
<path d="M192.633 241.111H182.353C181.88 241.111 181.497 241.494 181.497 241.967V242.771C181.497 243.243 181.88 243.627 182.353 243.627H192.633C193.105 243.627 193.489 243.243 193.489 242.771V241.967C193.489 241.494 193.105 241.111 192.633 241.111Z" fill="#455A64"/>
<path d="M200.838 241.111H197.682C197.209 241.111 196.826 241.494 196.826 241.967V242.771C196.826 243.243 197.209 243.627 197.682 243.627H200.838C201.31 243.627 201.694 243.243 201.694 242.771V241.967C201.694 241.494 201.31 241.111 200.838 241.111Z" fill="#E0E0E0"/>
<path d="M218.917 241.111H206.259C205.786 241.111 205.403 241.494 205.403 241.967V242.771C205.403 243.243 205.786 243.627 206.259 243.627H218.917C219.389 243.627 219.772 243.243 219.772 242.771V241.967C219.772 241.494 219.389 241.111 218.917 241.111Z" fill="#E0E0E0"/>
<path d="M182.906 236.701H180.191C179.5 236.701 178.938 236.148 178.929 235.456C178.929 235.456 178.929 235.456 178.929 235.448C178.929 234.747 179.491 234.185 180.191 234.185H182.906C183.598 234.185 184.16 234.756 184.16 235.448C184.16 236.139 183.598 236.701 182.906 236.701Z" fill="#263238"/>
<path d="M205.922 236.701H188.63C187.938 236.701 187.376 236.139 187.376 235.448C187.376 234.756 187.938 234.194 188.63 234.185H205.922C206.613 234.185 207.175 234.756 207.184 235.448C207.184 236.139 206.613 236.701 205.922 236.701Z" fill="#E0E0E0"/>
<path d="M185.301 197.267H173.707C173.015 197.267 172.453 196.705 172.453 196.013C172.453 195.322 173.006 194.76 173.698 194.751C173.698 194.751 173.698 194.751 173.707 194.751H185.301C186.001 194.751 186.563 195.313 186.563 196.013C186.563 196.705 186.001 197.267 185.31 197.267C185.31 197.267 185.31 197.267 185.301 197.267Z" fill="#455A64"/>
<path d="M200.285 203.855H173.707C173.015 203.855 172.453 203.293 172.453 202.601C172.453 202.601 172.453 202.601 172.453 202.593C172.453 201.901 173.015 201.339 173.707 201.339H200.285C200.976 201.339 201.538 201.892 201.547 202.584C201.547 202.584 201.547 202.584 201.547 202.593C201.547 203.293 200.985 203.855 200.285 203.855Z" fill="#263238"/>
<path d="M228.816 210.66H173.707C173.015 210.66 172.453 210.098 172.453 209.406C172.453 208.714 173.006 208.152 173.698 208.144C173.698 208.144 173.698 208.144 173.707 208.144H228.816C229.508 208.144 230.07 208.706 230.07 209.397C230.07 209.397 230.07 209.397 230.07 209.406C230.07 210.098 229.508 210.66 228.816 210.66Z" fill="#E0E0E0"/>
<path d="M199.688 215.458H173.707C173.015 215.458 172.453 214.887 172.453 214.196C172.453 213.504 173.015 212.942 173.707 212.942H199.688C200.38 212.942 200.942 213.495 200.95 214.187C200.95 214.187 200.95 214.187 200.95 214.196C200.95 214.896 200.388 215.458 199.688 215.458Z" fill="#E0E0E0"/>
<path d="M194.379 223.819H168.389C167.697 223.819 167.135 223.257 167.135 222.565C167.135 222.565 167.135 222.565 167.135 222.556C167.135 221.865 167.697 221.303 168.389 221.303H194.379C195.071 221.303 195.633 221.865 195.633 222.556C195.633 223.248 195.079 223.81 194.388 223.819C194.388 223.819 194.388 223.819 194.379 223.819Z" fill="#455A64"/>
<path d="M208.93 223.819H200.215C199.515 223.819 198.953 223.257 198.953 222.556C198.953 221.865 199.515 221.303 200.207 221.303C200.207 221.303 200.207 221.303 200.215 221.303H208.93C209.622 221.303 210.184 221.865 210.193 222.556C210.193 223.257 209.631 223.819 208.93 223.819Z" fill="#72C78A"/>
<path d="M231.194 223.776H214.766C214.075 223.776 213.513 223.222 213.504 222.53C213.504 222.53 213.504 222.53 213.504 222.522C213.504 221.822 214.066 221.26 214.766 221.26H231.194C231.886 221.26 232.448 221.821 232.448 222.513C232.448 222.513 232.448 222.513 232.448 222.522C232.448 223.214 231.886 223.776 231.194 223.776Z" fill="#263238"/>
<path d="M253.578 223.776H237.151C236.459 223.776 235.897 223.214 235.897 222.522C235.897 221.83 236.451 221.268 237.142 221.26C237.142 221.26 237.142 221.26 237.151 221.26H253.578C254.279 221.26 254.841 221.822 254.841 222.522C254.841 223.214 254.279 223.776 253.587 223.776C253.587 223.776 253.587 223.776 253.578 223.776Z" fill="#E0E0E0"/>
<path d="M128.523 222.02H121.606C120.914 222.02 120.352 221.45 120.352 220.758C120.352 220.066 120.914 219.504 121.606 219.504H128.523C129.214 219.504 129.776 220.066 129.776 220.758C129.776 221.45 129.214 222.012 128.523 222.02Z" fill="#E0E0E0"/>
<path d="M126.456 242.373H121.606C120.914 242.373 120.352 241.811 120.352 241.119C120.352 241.119 120.352 241.119 120.352 241.111C120.352 240.419 120.914 239.857 121.606 239.857H126.474C127.165 239.857 127.727 240.419 127.727 241.111C127.727 241.802 127.174 242.364 126.482 242.373C126.474 242.373 126.465 242.373 126.456 242.373Z" fill="#E0E0E0"/>
<path d="M135.094 228.799H121.606C120.914 228.799 120.352 228.237 120.352 227.545C120.352 226.854 120.906 226.292 121.597 226.283C121.597 226.283 121.597 226.283 121.606 226.283H135.094C135.785 226.283 136.347 226.845 136.347 227.537C136.347 227.537 136.347 227.537 136.347 227.545C136.347 228.237 135.785 228.799 135.094 228.799Z" fill="#E0E0E0"/>
<path d="M132.725 235.586H121.606C120.914 235.586 120.352 235.024 120.352 234.332C120.352 233.641 120.906 233.079 121.597 233.07C121.597 233.07 121.597 233.07 121.606 233.07H132.742C133.434 233.07 133.996 233.632 133.996 234.324C133.996 234.324 133.996 234.324 133.996 234.332C133.996 235.024 133.434 235.586 132.742 235.586C132.742 235.586 132.733 235.586 132.725 235.586Z" fill="#E0E0E0"/>
<path d="M149.446 196.013C149.446 196.722 148.875 197.293 148.166 197.293C147.457 197.293 146.887 196.722 146.887 196.013C146.887 195.304 147.457 194.734 148.166 194.734C148.875 194.734 149.446 195.304 149.446 196.013Z" fill="#455A64"/>
<path d="M148.166 190.575C148.873 190.575 149.446 190.002 149.446 189.295C149.446 188.589 148.873 188.016 148.166 188.016C147.46 188.016 146.887 188.589 146.887 189.295C146.887 190.002 147.46 190.575 148.166 190.575Z" fill="#455A64"/>
<path d="M148.166 203.855C148.873 203.855 149.446 203.282 149.446 202.576C149.446 201.869 148.873 201.296 148.166 201.296C147.46 201.296 146.887 201.869 146.887 202.576C146.887 203.282 147.46 203.855 148.166 203.855Z" fill="#455A64"/>
<path d="M148.166 210.685C148.873 210.685 149.446 210.113 149.446 209.406C149.446 208.699 148.873 208.126 148.166 208.126C147.46 208.126 146.887 208.699 146.887 209.406C146.887 210.113 147.46 210.685 148.166 210.685Z" fill="#455A64"/>
<path d="M148.166 217.507C148.873 217.507 149.446 216.934 149.446 216.227C149.446 215.521 148.873 214.948 148.166 214.948C147.46 214.948 146.887 215.521 146.887 216.227C146.887 216.934 147.46 217.507 148.166 217.507Z" fill="#455A64"/>
<path d="M149.446 223.049C149.446 223.758 148.884 224.329 148.175 224.338C147.466 224.338 146.895 223.776 146.887 223.067C146.887 222.358 147.449 221.787 148.158 221.778C148.858 221.778 149.429 222.349 149.437 223.049H149.446Z" fill="#455A64"/>
<path d="M148.166 231.159C148.873 231.159 149.446 230.586 149.446 229.879C149.446 229.173 148.873 228.6 148.166 228.6C147.46 228.6 146.887 229.173 146.887 229.879C146.887 230.586 147.46 231.159 148.166 231.159Z" fill="#455A64"/>
<path d="M148.166 237.981C148.873 237.981 149.446 237.408 149.446 236.701C149.446 235.995 148.873 235.422 148.166 235.422C147.46 235.422 146.887 235.995 146.887 236.701C146.887 237.408 147.46 237.981 148.166 237.981Z" fill="#455A64"/>
<path d="M149.446 243.532C149.446 244.241 148.875 244.811 148.166 244.811C147.457 244.811 146.887 244.241 146.887 243.532C146.887 242.823 147.457 242.252 148.166 242.252C148.875 242.252 149.446 242.823 149.446 243.532Z" fill="#455A64"/>
<path d="M149.446 250.353C149.446 251.062 148.875 251.633 148.166 251.633C147.457 251.633 146.887 251.062 146.887 250.353C146.887 249.644 147.457 249.073 148.166 249.073C148.875 249.073 149.446 249.644 149.446 250.353Z" fill="#455A64"/>
<path d="M148.166 258.463C148.873 258.463 149.446 257.89 149.446 257.184C149.446 256.477 148.873 255.904 148.166 255.904C147.46 255.904 146.887 256.477 146.887 257.184C146.887 257.89 147.46 258.463 148.166 258.463Z" fill="#455A64"/>
<path d="M149.446 264.005C149.446 264.714 148.875 265.285 148.166 265.285C147.457 265.285 146.887 264.714 146.887 264.005C146.887 263.296 147.457 262.726 148.166 262.726C148.875 262.726 149.446 263.296 149.446 264.005Z" fill="#455A64"/>
<path d="M148.166 272.115C148.873 272.115 149.446 271.542 149.446 270.836C149.446 270.129 148.873 269.556 148.166 269.556C147.46 269.556 146.887 270.129 146.887 270.836C146.887 271.542 147.46 272.115 148.166 272.115Z" fill="#455A64"/>
<path d="M119.678 169.09H267.619C269.452 169.09 270.931 170.568 270.931 172.401V182.655H115V173.758C115 171.182 117.093 169.09 119.669 169.09C119.669 169.09 119.669 169.09 119.678 169.09Z" fill="#E0E0E0"/>
<path d="M123.058 178.125C124.085 178.125 124.917 177.292 124.917 176.266C124.917 175.239 124.085 174.407 123.058 174.407C122.032 174.407 121.199 175.239 121.199 176.266C121.199 177.292 122.032 178.125 123.058 178.125Z" fill="white"/>
<path d="M130.632 176.266C130.632 177.294 129.802 178.125 128.773 178.125C127.745 178.125 126.915 177.294 126.915 176.266C126.915 175.237 127.745 174.407 128.773 174.407C129.794 174.407 130.624 175.228 130.632 176.248C130.632 176.248 130.632 176.257 130.632 176.266Z" fill="white"/>
<path d="M136.347 176.266C136.347 177.294 135.517 178.125 134.488 178.125C133.459 178.125 132.629 177.294 132.629 176.266C132.629 175.237 133.459 174.407 134.488 174.407C135.509 174.407 136.339 175.228 136.347 176.248C136.347 176.248 136.347 176.257 136.347 176.266Z" fill="white"/>
<path d="M148.166 280.251L161.351 294.508L173.309 280.251H148.166Z" fill="white"/>
<path d="M266.703 281.807C267.17 281.781 267.628 281.695 268.069 281.548C269.375 281.09 270.369 280.018 270.732 278.686C270.853 278.228 270.905 277.761 270.879 277.285V262.942C270.879 249.238 270.836 229.421 270.81 204.927V172.885C270.62 171.147 269.34 169.729 267.628 169.366C266.746 169.271 265.864 169.245 264.982 169.28H118.908C118.355 169.331 117.828 169.504 117.343 169.772C116.366 170.326 115.666 171.268 115.415 172.366C115.294 173.153 115.26 173.957 115.303 174.753V277.778C115.381 279.127 116.142 280.346 117.317 281.021C117.897 281.349 118.545 281.531 119.211 281.548H149.273L149.334 281.608L161.438 294.318H161.17L171.753 281.695L171.804 281.634H171.882L241.197 281.704L260.123 281.755L241.197 281.807L171.882 281.876L172.012 281.816L161.377 294.621L161.248 294.776L161.109 294.629L149.005 281.937L149.143 281.998H119.142C118.415 281.972 117.698 281.773 117.067 281.418C115.77 280.675 114.931 279.335 114.836 277.839V173.568C114.827 173.144 114.862 172.721 114.957 172.306C115.242 171.095 116.02 170.058 117.101 169.444C117.637 169.141 118.225 168.951 118.83 168.891C119.462 168.847 120.006 168.891 120.56 168.891H264.896C265.804 168.847 266.712 168.882 267.611 168.986C269.47 169.383 270.862 170.931 271.069 172.824C271.121 173.741 271.069 174.554 271.069 175.418V204.867C271.069 229.361 271.009 249.177 270.991 262.881V277.225C271.017 277.709 270.957 278.185 270.827 278.652C270.611 279.43 270.179 280.13 269.573 280.666C269.15 281.055 268.64 281.349 268.095 281.531C267.766 281.643 267.421 281.712 267.066 281.738L266.703 281.807Z" fill="#263238"/>
<path d="M127.252 83.6499H245.045C246.558 83.6499 247.786 84.8776 247.786 86.3907V145.642C247.786 147.449 246.316 148.919 244.509 148.919H127.252C125.739 148.919 124.511 147.691 124.511 146.178V86.3907C124.511 84.8776 125.739 83.6499 127.252 83.6499Z" fill="white"/>
<path d="M127.511 83.6499H244.785C246.445 83.6499 247.786 84.99 247.786 86.6501V97.6651H124.511V86.6846C124.494 85.0246 125.816 83.6672 127.476 83.6499C127.485 83.6499 127.502 83.6499 127.511 83.6499Z" fill="#E0E0E0"/>
<path d="M244.319 148.936C244.638 148.91 244.95 148.849 245.261 148.772C246.169 148.504 246.921 147.881 247.345 147.042C247.656 146.429 247.786 145.737 247.725 145.054V136.295C247.725 126.889 247.725 113.288 247.656 96.4806V86.6933C247.76 85.5953 247.154 84.5578 246.16 84.0995C245.65 83.892 245.097 83.8056 244.543 83.8575H128.047C127.667 83.8402 127.278 83.8575 126.906 83.9353C125.791 84.1947 124.952 85.1025 124.77 86.2351C124.736 86.6242 124.736 87.0046 124.77 87.3937V145.27C124.718 146.645 125.531 147.898 126.802 148.426C127.442 148.642 128.125 148.728 128.799 148.659H189.953L229.767 148.728H240.592L229.767 148.772L189.953 148.841L130.892 148.893H128.799C128.073 148.953 127.338 148.858 126.647 148.625C125.22 148.037 124.303 146.627 124.347 145.08V87.411C124.329 87.0046 124.347 86.5896 124.39 86.1832C124.589 84.869 125.566 83.8142 126.863 83.5203C127.269 83.4338 127.693 83.3992 128.108 83.4252H244.561C245.149 83.3733 245.745 83.4684 246.29 83.7018C247.422 84.2206 248.114 85.3878 248.019 86.6328V96.4201C248.019 113.228 247.967 126.828 247.95 136.235V144.993C247.967 145.356 247.95 145.728 247.881 146.091C247.812 146.42 247.699 146.731 247.544 147.025C247.085 147.872 246.307 148.495 245.382 148.754C245.045 148.884 244.682 148.945 244.319 148.936Z" fill="#263238"/>
<path d="M133.684 94.0508C134.955 94.0508 135.984 93.0212 135.984 91.751C135.984 90.4808 134.955 89.4512 133.684 89.4512C132.414 89.4512 131.385 90.4808 131.385 91.751C131.385 93.0212 132.414 94.0508 133.684 94.0508Z" fill="white"/>
<path d="M143.039 91.751C143.039 93.022 142.01 94.0508 140.739 94.0508C139.468 94.0508 138.439 93.022 138.439 91.751C138.439 90.48 139.468 89.4512 140.739 89.4512C142.002 89.4512 143.03 90.48 143.03 91.7424C143.03 91.7424 143.03 91.7424 143.03 91.751H143.039Z" fill="white"/>
<path d="M147.812 94.0508C149.082 94.0508 150.112 93.0212 150.112 91.751C150.112 90.4808 149.082 89.4512 147.812 89.4512C146.542 89.4512 145.512 90.4808 145.512 91.751C145.512 93.0212 146.542 94.0508 147.812 94.0508Z" fill="white"/>
<path d="M160.029 117.413H145.702C144.846 117.413 144.155 116.729 144.146 115.874C144.146 115.874 144.146 115.874 144.146 115.865C144.146 115.009 144.829 114.317 145.685 114.309C145.685 114.309 145.694 114.309 145.702 114.309H160.029C160.885 114.309 161.585 115.009 161.585 115.865C161.585 116.721 160.885 117.413 160.029 117.413Z" fill="#263238"/>
<path d="M160.029 125.592H145.702C144.846 125.592 144.146 124.891 144.146 124.035C144.146 123.179 144.846 122.479 145.702 122.479H160.029C160.885 122.479 161.576 123.179 161.585 124.035C161.585 124.891 160.885 125.583 160.029 125.592Z" fill="#E0E0E0"/>
<path d="M235.681 117.413H194.111C193.255 117.413 192.564 116.721 192.555 115.865C192.555 115.009 193.255 114.309 194.111 114.309H235.681C236.537 114.309 237.237 115.009 237.237 115.865C237.237 116.721 236.537 117.413 235.681 117.413Z" fill="#E0E0E0"/>
<path d="M160.029 133.969H145.702C144.846 133.969 144.146 133.269 144.146 132.413C144.146 131.557 144.829 130.866 145.685 130.857C145.685 130.857 145.694 130.857 145.702 130.857H160.029C160.885 130.857 161.585 131.557 161.585 132.413C161.585 133.269 160.885 133.961 160.029 133.969Z" fill="#72C78A"/>
<path d="M225.764 125.592H211.429C210.573 125.592 209.882 124.891 209.882 124.035C209.882 123.179 210.573 122.488 211.429 122.479H225.764C226.62 122.479 227.312 123.179 227.321 124.035C227.321 124.891 226.62 125.583 225.764 125.592Z" fill="#72C78A"/>
<path d="M182.992 117.413H168.657C167.801 117.413 167.11 116.721 167.101 115.865C167.101 115.009 167.801 114.309 168.657 114.309H182.992C183.848 114.309 184.54 115 184.54 115.856C184.54 115.856 184.54 115.856 184.54 115.865C184.54 116.721 183.848 117.413 182.992 117.413Z" fill="#455A64"/>
<path d="M201.452 125.592H168.657C167.801 125.592 167.11 124.891 167.101 124.035C167.101 123.179 167.801 122.488 168.657 122.479H201.452C202.308 122.479 203.008 123.179 203.008 124.035C203.008 124.891 202.308 125.592 201.452 125.592Z" fill="#263238"/>
<path d="M233.623 133.969H168.588C167.75 133.952 167.084 133.252 167.101 132.413C167.084 131.575 167.75 130.874 168.588 130.857H233.623C234.462 130.874 235.119 131.566 235.102 132.405C235.102 132.405 235.102 132.405 235.102 132.413C235.119 133.252 234.462 133.944 233.623 133.969Z" fill="#E0E0E0"/>
<path d="M200.769 139.892H168.657C167.801 139.892 167.11 139.192 167.101 138.336C167.101 137.48 167.801 136.788 168.657 136.78H200.769C201.625 136.78 202.325 137.48 202.325 138.336C202.325 139.192 201.625 139.892 200.769 139.892Z" fill="#E0E0E0"/>
<path d="M138.673 115.865C138.673 116.738 137.964 117.447 137.091 117.447C136.218 117.447 135.509 116.738 135.509 115.865C135.509 114.991 136.218 114.282 137.091 114.282C137.964 114.282 138.673 114.991 138.673 115.865Z" fill="#455A64"/>
<path d="M138.673 108.075C138.673 108.948 137.964 109.657 137.091 109.657C136.218 109.657 135.509 108.948 135.509 108.075C135.509 107.201 136.218 106.492 137.091 106.492C137.964 106.492 138.664 107.184 138.673 108.057C138.673 108.057 138.673 108.066 138.673 108.075Z" fill="#455A64"/>
<path d="M137.091 125.557C137.965 125.557 138.673 124.849 138.673 123.975C138.673 123.101 137.965 122.393 137.091 122.393C136.217 122.393 135.509 123.101 135.509 123.975C135.509 124.849 136.217 125.557 137.091 125.557Z" fill="#455A64"/>
<path d="M137.091 133.995C137.965 133.995 138.673 133.287 138.673 132.413C138.673 131.539 137.965 130.831 137.091 130.831C136.217 130.831 135.509 131.539 135.509 132.413C135.509 133.287 136.217 133.995 137.091 133.995Z" fill="#455A64"/>
<path d="M154.115 106.207H145.296C144.837 106.207 144.466 106.579 144.466 107.037V108.377C144.466 108.836 144.837 109.207 145.296 109.207H154.115C154.573 109.207 154.945 108.836 154.945 108.377V107.037C154.945 106.579 154.573 106.207 154.115 106.207Z" fill="#455A64"/>
<path d="M64.1359 352.117C56.9252 355.256 49.9738 355.576 43.3855 352.117L38.5697 311.714H68.5108L64.1359 352.117Z" fill="#6F4439"/>
<path d="M66.5309 309.38L65.6663 306.492L43.057 303.699C42.4432 303.63 41.8639 303.985 41.6564 304.564L40.0223 309.328H37.1345V314.559C48.4694 316.556 59.3202 316.668 69.6002 314.559V309.328L66.5309 309.38Z" fill="#E0E0E0"/>
<path d="M66.5309 309.38C66.6 309.371 66.6692 309.371 66.7384 309.38H69.678V309.467C69.678 310.815 69.678 312.579 69.7299 314.697V314.801H69.6261C65.0438 315.761 60.3749 316.297 55.6888 316.392C49.4982 316.478 43.3164 315.968 37.2209 314.853H36.9097V309.207H40.0222L39.8147 309.354C40.3594 307.763 40.9041 306.207 41.4229 304.685C41.5526 304.244 41.8638 303.881 42.2875 303.691C42.495 303.605 42.7284 303.561 42.9532 303.57C43.178 303.57 43.3509 303.622 43.5498 303.639L45.8323 303.924L54.1671 304.919L65.6663 306.406H65.7181V306.458C65.9775 307.366 66.185 308.083 66.3407 308.602C66.4012 308.827 66.4531 309.017 66.4963 309.164C66.4963 309.233 66.4963 309.302 66.4963 309.371C66.4617 309.32 66.4444 309.259 66.4271 309.198L66.2369 308.662C66.0553 308.135 65.8219 307.426 65.5106 306.51L65.5798 306.57L54.0979 305.256L45.8064 304.279L43.5239 304.002C43.178 303.907 42.8149 303.907 42.469 304.002C42.1491 304.141 41.9157 304.409 41.8292 304.746L40.2297 309.423L40.1779 309.57H37.1345L37.3593 309.345V314.576L37.1777 314.351H37.2987C43.3596 315.441 49.5155 315.951 55.6801 315.882C60.3403 315.804 64.9919 315.32 69.5656 314.421L69.4619 314.559C69.4619 312.441 69.4619 310.677 69.5137 309.328L69.6002 309.415L67.2917 309.363H66.7124L66.5309 309.38Z" fill="#263238"/>
<path d="M66.2714 338.733C58.4382 339.995 49.844 339.814 40.6533 338.733L39.4083 326.482C48.8325 327.545 58.3517 327.545 67.7758 326.482L66.2714 338.733Z" fill="#AE7461"/>
<path d="M51.8413 330.416C50.6655 331.133 50.2072 332.62 50.7865 333.874L51.5992 335.603C52.1872 336.865 53.6224 337.479 54.9366 337.03L51.8413 330.416Z" fill="#6F4439"/>
<path d="M52.386 330.165L55.4813 336.822C56.6571 336.096 57.1067 334.618 56.5361 333.364L55.7233 331.635C55.1527 330.364 53.7088 329.724 52.386 330.165Z" fill="#6F4439"/>
<path d="M66.7816 309.458C66.4531 309.596 66.1072 309.7 65.7614 309.76C65.1043 309.933 64.1359 310.141 62.9255 310.357C56.6139 311.472 50.1554 311.472 43.8438 310.357C42.642 310.132 41.6736 309.925 41.0079 309.743C40.6621 309.674 40.3162 309.57 39.9877 309.432C40.3422 309.432 40.6966 309.484 41.0425 309.57C41.7169 309.7 42.6939 309.864 43.8957 310.037C50.1899 310.962 56.5793 310.962 62.8736 310.037C64.0841 309.864 65.0611 309.7 65.7268 309.579C66.0726 309.501 66.4271 309.458 66.7816 309.458Z" fill="#263238"/>
<path d="M82.1803 249.368C82.1803 249.368 77.2434 250.431 76.3875 253.942C75.5315 257.452 83.3043 341.266 83.5723 343.298C84.0651 346.506 86.7713 350.587 92.8581 350.362C98.1754 350.172 170.551 350.362 188.768 350.362C191.198 350.362 192.65 348.304 192.97 345.849L103.354 340.557L82.1803 249.368Z" fill="#E0E0E0"/>
<path d="M79.9324 252.169L87.7138 342.555C87.8608 344.033 89.0885 345.166 90.5756 345.192L192.987 345.65L173.309 326.127L106.787 325.66L99.6712 254.841C99.5675 253.89 98.8758 253.12 97.942 252.913L83.0363 249.455C81.6357 249.169 80.261 250.077 79.9756 251.478C79.9324 251.702 79.9151 251.936 79.9324 252.169Z" fill="#E0E0E0"/>
<path d="M79.9324 252.169C79.9151 252.022 79.9151 251.875 79.9324 251.728C79.9497 251.296 80.088 250.872 80.3301 250.509C80.7192 249.904 81.3504 249.489 82.0593 249.359C82.5176 249.299 82.9844 249.333 83.4254 249.472L84.9384 249.818L92.8495 251.633L97.8642 252.792C98.8671 252.982 99.628 253.795 99.7577 254.806C99.8528 255.775 99.9565 256.769 100.06 257.789C101.729 274.217 104.107 297.561 106.977 325.643L106.787 325.461L173.318 325.902H173.404L173.473 325.972L193.143 345.486L193.532 345.875H188.448L113.375 345.52L96.5154 345.434H90.4286C89.711 345.391 89.0366 345.097 88.5092 344.612C87.9905 344.128 87.6446 343.48 87.5495 342.779C87.4717 342.114 87.4285 341.474 87.368 340.817C87.2642 339.52 87.1518 338.223 87.0394 336.952C86.1748 326.732 85.3621 317.205 84.6272 308.515C83.166 291.128 81.9815 277.061 81.1688 267.334C80.7711 262.475 80.4598 258.688 80.2523 256.138C80.1486 254.858 80.0794 253.89 80.0275 253.224C79.9756 252.558 79.9583 252.23 79.9583 252.23C79.9583 252.23 80.0102 252.558 80.0707 253.216C80.1313 253.873 80.2264 254.858 80.3388 256.129C80.5722 258.723 80.9094 262.467 81.3417 267.317C82.2063 277.044 83.434 291.111 84.9557 308.481C85.7079 317.179 86.5379 326.698 87.4198 336.917C87.5322 338.197 87.6446 339.485 87.757 340.782C87.8176 341.431 87.8608 342.096 87.93 342.728C88.0337 343.341 88.3363 343.912 88.7946 344.336C89.2701 344.768 89.8839 345.019 90.5238 345.045H96.5932L113.453 345.114L188.518 345.434H193.057L192.892 345.814L173.136 326.283L173.292 326.352L106.77 325.851H106.597V325.678C103.804 297.595 101.487 274.199 99.8614 257.815C99.7577 256.795 99.6539 255.801 99.5588 254.832C99.4464 253.907 98.7461 253.155 97.8296 252.982L92.8149 251.806L84.9211 249.93L83.4081 249.576C82.9844 249.437 82.5262 249.394 82.0853 249.446C81.3849 249.558 80.7538 249.956 80.3561 250.544C80.114 250.898 79.9756 251.313 79.9411 251.737C79.9238 252.022 79.9497 252.169 79.9411 252.169H79.9324Z" fill="#263238"/>
<path d="M154.893 343.298H164.413L152.377 327.692H146.731L154.893 343.298Z" fill="#263238"/>
<path d="M83.4513 256.25L90.7226 334.825L104.314 324.017L98.4348 257.875C98.3916 257.348 97.9852 256.916 97.4578 256.838L84.7568 255.022C84.1257 254.936 83.5464 255.377 83.4599 255.999C83.4513 256.086 83.4426 256.164 83.4599 256.25H83.4513Z" fill="#263238"/>
<path d="M98.0024 343.298H107.824L117.81 327.692H112.156L98.0024 343.298Z" fill="#263238"/>
<path d="M110.064 343.298H119.583L124.796 327.692H119.142L110.064 343.298Z" fill="#263238"/>
<path d="M121.71 343.298H131.229L131.739 327.692H126.093L121.71 343.298Z" fill="#263238"/>
<path d="M132.517 343.298H142.037L138.518 327.692H132.872L132.517 343.298Z" fill="#263238"/>
<path d="M143.774 343.298H153.294L145.538 327.692H139.892L143.774 343.298Z" fill="#263238"/>
<path d="M163.971 340.255C163.971 340.332 149.455 340.393 131.549 340.393C113.643 340.393 99.135 340.332 99.135 340.255C99.135 340.177 113.643 340.125 131.549 340.125C149.455 340.125 163.971 340.186 163.971 340.255Z" fill="#E0E0E0"/>
<path d="M162.242 337.419C162.242 337.497 148.461 337.557 131.454 337.557C114.447 337.557 100.666 337.497 100.666 337.419C100.666 337.341 114.447 337.289 131.454 337.289C148.461 337.289 162.242 337.324 162.242 337.419Z" fill="#E0E0E0"/>
<path d="M162.242 334.825C162.242 334.972 149.273 335.093 133.278 335.093C117.283 335.093 104.314 334.946 104.314 334.825C104.314 334.704 117.283 334.557 133.287 334.557C149.29 334.557 162.242 334.652 162.242 334.825Z" fill="#E0E0E0"/>
<path d="M162.605 332.43C162.605 332.577 149.913 332.698 134.264 332.698C118.615 332.698 105.914 332.577 105.914 332.43C105.914 332.283 118.606 332.153 134.264 332.153C149.922 332.153 162.605 332.274 162.605 332.43Z" fill="#E0E0E0"/>
<path d="M163.972 330.701C163.972 330.848 151.193 330.969 135.44 330.969C119.687 330.969 106.908 330.848 106.908 330.701C106.908 330.554 119.678 330.424 135.44 330.424C151.201 330.424 163.972 330.545 163.972 330.701Z" fill="#E0E0E0"/>
<path d="M165.338 328.885C165.338 329.041 152.325 329.162 136.278 329.162C120.231 329.162 107.21 329.041 107.21 328.885C107.21 328.73 120.179 328.617 136.278 328.617C152.377 328.617 165.338 328.773 165.338 328.885Z" fill="#E0E0E0"/>
<path d="M89.1318 342.555L106.908 325.963L89.1318 342.555Z" fill="#E0E0E0"/>
<path d="M106.908 325.963C106.994 326.049 103.086 329.836 98.1926 334.419C93.299 339.001 89.2527 342.65 89.1662 342.554C89.0797 342.459 92.9791 338.681 97.8814 334.09C102.784 329.499 106.787 325.868 106.908 325.963Z" fill="#263238"/>
<path d="M400.448 264.135C400.448 264.135 399.583 254.953 376.706 249.083C365.665 246.247 339.304 244.889 336.321 262.052C336.226 262.605 323.196 370.36 323.196 370.36H371.934L400.448 264.135Z" fill="#455A64"/>
<path d="M392.727 370.325H370.248L377.752 264.792C378.306 259.657 383.623 255.948 389.632 256.518L391.646 256.708C397.647 257.279 401.46 263.063 401.287 269.677L392.727 370.325Z" fill="#455A64"/>
<path d="M371.933 366.53C371.804 366.53 373.395 345.719 375.478 320.084C377.562 294.448 379.352 273.663 379.473 273.672C379.594 273.681 378.012 294.474 375.928 320.118C373.844 345.762 372.054 366.539 371.933 366.53Z" fill="#263238"/>
<path d="M396.134 259.147C395.096 258.827 394.041 258.576 392.969 258.403C387.643 257.677 382.49 260.634 380.424 265.597C380.035 266.608 379.724 267.646 379.473 268.701C379.447 268.415 379.455 268.121 379.516 267.836C379.628 267.032 379.836 266.245 380.13 265.493C382.11 260.271 387.505 257.175 393.012 258.109C393.816 258.23 394.595 258.446 395.347 258.758C395.624 258.844 395.892 258.982 396.134 259.147Z" fill="#263238"/>
<path d="M325.141 127.157C325.375 120.975 321.181 120.145 317.957 120.854C313.841 117.984 308.29 118.286 304.512 121.589C299.8 119.012 293.886 120.75 291.318 125.462C290.549 126.872 290.142 128.445 290.125 130.053C285.672 129.509 281.617 132.682 281.073 137.134C280.761 139.676 281.669 142.218 283.52 143.991C279.404 145.227 277.061 149.559 278.297 153.674C279.456 157.548 283.39 159.891 287.35 159.061L325.271 133.806C327.545 131.411 325.02 130.46 325.141 127.157Z" fill="#263238"/>
<path d="M286.252 160.176C287.03 142.919 300.924 129.154 318.19 128.54L319.919 128.48C338.448 128.903 348.451 144.907 347.509 163.392L347.024 225.073L346.903 236.788L304.538 246.861L304.106 222.444C304.106 222.444 286.226 220.318 285.378 202.559C284.937 193.982 285.534 176.24 286.252 160.176Z" fill="#AE7461"/>
<path d="M303.933 222.427C312.19 222.133 320.187 219.488 326.983 214.784C326.983 214.784 321.96 227.753 304.166 226.802L303.933 222.427Z" fill="#6F4439"/>
<path d="M291.431 178.125C291.465 179.5 292.589 180.598 293.964 180.598C295.304 180.658 296.437 179.612 296.497 178.272C296.497 178.255 296.497 178.229 296.497 178.212C296.463 176.837 295.339 175.739 293.964 175.739C292.632 175.678 291.491 176.707 291.431 178.047C291.431 178.073 291.431 178.099 291.431 178.125Z" fill="#263238"/>
<path d="M290.203 169.687C290.523 169.998 292.399 168.511 295.131 168.424C297.863 168.338 299.912 169.626 300.198 169.289C300.336 169.133 299.999 168.545 299.1 167.949C297.889 167.171 296.463 166.781 295.027 166.851C293.609 166.894 292.235 167.387 291.119 168.269C290.315 168.917 290.056 169.522 290.203 169.687Z" fill="#263238"/>
<path d="M313.383 177.563C313.417 178.938 314.55 180.036 315.925 180.036C317.265 180.096 318.397 179.05 318.458 177.71C318.458 177.693 318.458 177.667 318.458 177.649C318.423 176.275 317.299 175.177 315.925 175.177C314.585 175.116 313.443 176.154 313.383 177.494C313.383 177.52 313.383 177.546 313.383 177.563Z" fill="#263238"/>
<path d="M316.34 168.355C316.66 168.675 318.536 167.188 321.268 167.093C324 166.998 326.049 168.303 326.335 167.957C326.473 167.802 326.136 167.214 325.237 166.608C324.026 165.83 322.6 165.45 321.164 165.51C319.746 165.562 318.38 166.055 317.256 166.928C316.444 167.603 316.141 168.217 316.34 168.355Z" fill="#263238"/>
<path d="M308.057 188.924C308.057 188.768 306.328 188.535 303.596 188.275C302.895 188.232 302.23 188.12 302.091 187.644C302.005 186.927 302.143 186.2 302.489 185.561C303.068 183.831 303.691 182.033 304.356 180.174C306.95 172.514 308.809 166.22 308.498 166.116C308.187 166.012 305.835 172.168 303.241 179.811L301.443 185.249C301.036 186.105 300.941 187.082 301.175 187.999C301.4 188.492 301.832 188.855 302.359 188.976C302.748 189.062 303.155 189.106 303.552 189.097C306.336 189.123 308.057 189.08 308.057 188.924Z" fill="#263238"/>
<path d="M316.141 190.523C315.691 190.523 315.795 193.48 313.331 195.711C310.867 197.942 307.702 197.691 307.694 198.106C307.694 198.296 308.411 198.659 309.752 198.642C311.489 198.607 313.158 197.959 314.464 196.809C315.726 195.702 316.504 194.155 316.634 192.486C316.72 191.224 316.366 190.497 316.141 190.523Z" fill="#263238"/>
<path d="M316.02 160.556C316.374 161.248 318.7 160.556 321.562 160.479C324.424 160.401 326.827 160.928 327.095 160.219C327.208 159.873 326.706 159.242 325.686 158.68C324.355 157.98 322.868 157.651 321.363 157.712C319.893 157.738 318.458 158.161 317.204 158.931C316.297 159.562 315.864 160.219 316.02 160.556Z" fill="#263238"/>
<path d="M290.566 162.147C291.024 162.796 292.935 162.234 295.192 162.311C297.448 162.389 299.35 162.925 299.826 162.311C300.033 162.009 299.757 161.369 298.961 160.747C296.731 159.199 293.782 159.147 291.5 160.625C290.661 161.213 290.367 161.836 290.566 162.147Z" fill="#263238"/>
<path d="M287.67 151.98C287.67 151.98 291.993 140.679 297.241 137.895C303.63 134.515 306.682 141.553 312.804 139.625C318.925 137.696 325.029 134.437 331.531 139.002C338.638 143.991 335.525 147.786 336.234 155.654C339.105 187.575 345.269 196.403 346.393 181.281C346.514 179.63 351.054 178.151 351.477 171.156C352.039 162.087 351.996 151.098 349.748 144.752C347.855 139.408 344.638 135.777 338.966 131.852C330.009 125.661 318.017 125.947 309.899 127.062C301.78 128.177 286.433 138.068 287.67 151.98Z" fill="#263238"/>
<path d="M345.252 180.814C345.252 178.151 347.396 175.981 350.059 175.972C350.137 175.972 350.215 175.972 350.293 175.972C353.621 176.171 357.382 177.918 357.4 184.782C357.452 196.947 345.226 194.483 345.2 194.129C345.174 193.774 345.226 185.898 345.252 180.805V180.814Z" fill="#AE7461"/>
<path d="M347.828 189.572C347.889 189.572 348.045 189.719 348.408 189.883C348.918 190.082 349.48 190.082 349.99 189.883C351.27 189.408 352.35 187.359 352.394 185.171C352.428 184.125 352.221 183.088 351.797 182.137C351.555 181.367 350.958 180.762 350.189 180.511C349.687 180.381 349.16 180.624 348.944 181.099C348.78 181.436 348.857 181.678 348.797 181.704C348.736 181.73 348.537 181.497 348.633 180.995C348.693 180.693 348.866 180.425 349.108 180.235C349.437 179.975 349.86 179.863 350.275 179.923C351.296 180.113 352.134 180.831 352.497 181.799C353.016 182.854 353.275 184.013 353.241 185.189C353.18 187.635 351.927 189.935 350.172 190.454C349.514 190.644 348.797 190.532 348.235 190.134C347.854 189.849 347.794 189.572 347.828 189.572Z" fill="#6F4439"/>
<path d="M344.18 157.28C342.641 158.412 341.007 159.579 339.114 159.873C337.22 160.167 335.007 159.113 334.618 157.236C334.445 156.372 334.618 155.412 334.038 154.781C333.347 154.02 332.128 154.305 331.116 154.452C327.467 154.859 324.026 152.663 322.868 149.178C322.003 150.562 319.911 150.57 318.545 149.74C317.179 148.91 316.219 147.51 315.086 146.325C313.954 145.141 312.441 144.094 310.841 144.38C309.976 144.544 309.112 145.106 308.247 145.063C306.639 144.976 305.8 143.135 305.498 141.604C305.195 140.074 304.944 138.146 303.57 137.368C302.195 136.59 300.673 137.134 299.247 137.368C297.82 137.601 295.884 137.368 295.451 135.941C295.296 135.172 295.46 134.368 295.918 133.719C297.838 130.615 301.642 129.249 305.1 130.408C306.57 124.701 312.397 121.26 318.104 122.739C320.845 123.448 323.188 125.212 324.631 127.641C328.929 123.465 335.785 123.56 339.961 127.857C340.843 128.765 341.56 129.82 342.079 130.97C346.246 129.777 350.595 132.198 351.78 136.365C352.316 138.25 352.134 140.264 351.261 142.019C353.492 143.195 355.437 145.296 355.584 147.812C355.731 150.328 353.353 152.913 350.907 152.343C352.178 154.375 351.555 157.055 349.523 158.326C347.491 159.597 344.811 158.974 343.54 156.942" fill="#263238"/>
<path d="M351.788 152.291C351.918 153.138 351.676 154.003 351.114 154.651C350.543 155.447 349.687 156 348.728 156.19C347.491 156.441 346.203 156.13 345.226 155.326L345.736 155.23C345.139 156.389 344.353 157.444 343.419 158.352C342.796 158.965 342.061 159.458 341.257 159.804C339.113 160.617 336.684 159.986 335.205 158.231C334.686 157.478 334.323 156.631 334.133 155.741C334.021 155.429 333.977 155.092 334.003 154.764C334.055 154.764 334.168 155.075 334.392 155.628C334.669 156.449 335.075 157.21 335.594 157.902C336.813 159.631 340.592 160.366 342.909 157.816C343.782 156.96 344.526 155.974 345.114 154.893L345.321 154.53L345.632 154.798C346.445 155.507 347.526 155.827 348.589 155.663C349.436 155.524 350.197 155.083 350.751 154.426C351.235 153.787 351.589 153.06 351.788 152.291Z" fill="#455A64"/>
<path d="M208.066 311.481C208.066 311.481 185.128 310.798 183.753 310.366C181.661 309.899 179.491 309.899 177.399 310.366C175.765 310.884 169.237 313.201 169.237 313.201L155.403 316.893C155.403 316.893 141.492 325.963 141.768 327.787C142.045 329.612 143.575 330.857 146.091 329.914C148.607 328.972 161.153 322.435 161.153 322.435L174.986 320.974C174.986 320.974 193.852 327.753 197.665 327.415C201.478 327.078 211.239 325.427 211.239 325.427C211.239 325.427 212.614 315.648 211.922 314.101C211.23 312.553 208.066 311.481 208.066 311.481Z" fill="#AE7461"/>
<path d="M142.763 335.88C142.763 335.88 154.392 323.421 157.608 321.744C160.824 320.066 178.756 317.118 178.756 317.118C178.756 317.118 184.497 314.74 186.598 315.579C188.699 316.418 210.962 319.781 211.939 319.902C212.916 320.023 207.184 339.511 207.184 339.511C201.633 340.307 195.979 340.073 190.515 338.811C181.557 336.71 178.471 333.909 178.471 333.909L169.531 331.557L164.049 333.641C164.049 333.641 163.072 341.751 159.147 341.327L157.331 340.065L158.732 331.107L152.991 333.485C152.991 333.485 148.504 340.212 145.149 339.226C141.794 338.24 142.763 335.88 142.763 335.88Z" fill="#AE7461"/>
<path d="M142.763 335.88C142.685 336.2 142.65 336.528 142.676 336.857C142.719 337.255 142.866 337.626 143.109 337.946C143.454 338.379 143.913 338.707 144.423 338.906C145.045 339.217 145.754 339.312 146.437 339.2C147.25 338.975 148.011 338.595 148.668 338.067C150.302 336.744 151.729 335.188 152.887 333.433L158.619 331.038L158.853 330.934V331.185C158.438 333.883 157.988 336.909 157.478 340.151L157.409 339.995L159.225 341.249H159.147C159.899 341.31 160.634 341.042 161.17 340.514C161.741 339.961 162.199 339.295 162.51 338.569C163.185 337.021 163.634 335.387 163.85 333.718V333.606L163.954 333.563L169.418 331.47H169.539L178.497 333.805H178.548C180.442 335.162 182.526 336.226 184.739 336.961C187.039 337.782 189.391 338.43 191.785 338.923C194.267 339.416 196.783 339.71 199.308 339.788C201.91 339.883 204.512 339.736 207.089 339.356L206.916 339.511C207.314 338.136 207.781 336.667 208.161 335.188C209.397 330.779 210.634 326.447 211.524 322.159C211.637 321.631 211.723 321.104 211.775 320.568C211.784 320.447 211.784 320.326 211.775 320.205C211.723 320.118 211.775 320.144 211.775 320.205H211.671L210.867 320.084L207.668 319.599L201.4 318.614C197.293 317.948 193.307 317.291 189.477 316.565C188.526 316.366 187.592 316.202 186.641 315.916C185.768 315.657 184.843 315.622 183.952 315.83C182.18 316.176 180.442 316.694 178.765 317.386H178.721C172.462 318.432 166.729 319.47 161.723 320.663C160.522 320.94 159.328 321.294 158.17 321.709C157.132 322.193 156.181 322.833 155.343 323.62C153.613 325.055 152.178 326.473 150.855 327.753C148.21 330.346 146.204 332.404 144.803 333.805L143.238 335.422C142.875 335.785 142.685 335.958 142.685 335.958C142.685 335.958 142.849 335.759 143.195 335.378L144.717 333.727C146.074 332.3 148.063 330.191 150.682 327.597C151.997 326.309 153.458 324.874 155.152 323.421C155.576 323.058 156.017 322.686 156.484 322.34C156.959 321.986 157.487 321.692 158.04 321.476C159.216 321.043 160.418 320.689 161.637 320.404C166.652 319.176 172.375 318.121 178.644 317.04H178.6C180.295 316.331 182.059 315.804 183.866 315.441C184.825 315.225 185.82 315.259 186.762 315.536C187.627 315.804 188.595 315.968 189.538 316.167C193.35 316.885 197.319 317.524 201.452 318.182L207.72 319.159L210.919 319.651L211.723 319.772H211.991C212.104 319.85 212.181 319.98 212.19 320.118C212.207 320.265 212.207 320.421 212.19 320.568C212.138 321.121 212.052 321.675 211.939 322.219C211.075 326.542 209.804 330.865 208.567 335.283C208.144 336.77 207.703 338.249 207.322 339.606V339.745H207.184C204.582 340.134 201.953 340.281 199.325 340.177C196.774 340.108 194.232 339.814 191.734 339.312C189.321 338.82 186.944 338.154 184.627 337.324C183.494 336.926 182.396 336.459 181.315 335.932C180.243 335.43 179.231 334.808 178.298 334.082L178.384 334.125L169.444 331.764H169.565L164.084 333.848L164.205 333.692C163.98 335.404 163.513 337.073 162.813 338.655C162.476 339.425 161.991 340.125 161.386 340.704C160.772 341.292 159.942 341.595 159.095 341.526H159.052L157.236 340.263L157.15 340.203V340.099C157.66 336.866 158.144 333.839 158.568 331.142L158.766 331.297L153.017 333.658L153.069 333.615C151.876 335.378 150.423 336.952 148.746 338.266C148.063 338.794 147.276 339.183 146.437 339.399C145.72 339.52 144.985 339.399 144.336 339.07C143.809 338.854 143.342 338.508 142.996 338.05C142.754 337.713 142.607 337.324 142.572 336.909C142.538 336.554 142.607 336.2 142.763 335.88Z" fill="#6F4439"/>
<path d="M177.96 325.315C177.675 325.349 177.381 325.349 177.096 325.315C176.534 325.271 175.721 325.194 174.71 325.09L171.182 324.692L170.162 324.58C169.825 324.528 169.487 324.528 169.15 324.58C168.415 324.692 167.689 324.839 166.971 325.029C164.058 325.894 161.135 326.439 160.055 328.168C159.588 328.799 159.233 329.508 159.017 330.26C158.861 330.796 158.818 331.125 158.792 331.125C158.749 330.839 158.766 330.537 158.853 330.26C159.008 329.456 159.337 328.695 159.804 328.029C160.132 327.563 160.53 327.148 160.988 326.81C161.516 326.439 162.104 326.145 162.718 325.946C164.084 325.444 165.484 325.021 166.894 324.658C167.629 324.459 168.372 324.312 169.124 324.199C169.496 324.147 169.876 324.147 170.248 324.199L171.26 324.338L174.787 324.822C175.79 324.969 176.594 325.098 177.156 325.194C177.424 325.194 177.701 325.237 177.96 325.315Z" fill="#6F4439"/>
<path d="M146.749 331.738C147.042 331.393 147.362 331.064 147.708 330.77C148.357 330.173 149.308 329.335 150.51 328.332C151.711 327.329 153.173 326.153 154.833 324.934C155.697 324.329 156.562 323.706 157.547 323.118C158.049 322.816 158.568 322.548 159.095 322.306C159.657 322.089 160.236 321.908 160.824 321.761C164.81 320.793 168.848 320.101 172.929 319.686L176.612 319.228C177.061 319.15 177.511 319.115 177.969 319.115C177.537 319.254 177.087 319.349 176.638 319.401L172.981 319.997C169.894 320.542 165.562 320.922 160.963 322.193C160.401 322.332 159.847 322.504 159.311 322.721C158.792 322.954 158.291 323.213 157.807 323.499C156.847 324.069 155.957 324.675 155.109 325.271C153.38 326.464 151.953 327.606 150.726 328.574L147.838 330.9C147.501 331.211 147.129 331.488 146.749 331.738Z" fill="#6F4439"/>
<path d="M291.595 250.527C287.454 256.389 283.788 262.562 280.64 269.012C276.482 277.658 263.046 307.097 263.046 307.097L208.291 309.968L209.103 331.125C209.103 331.125 261.982 349.964 273.819 346.324C285.655 342.684 298.27 329.032 298.27 329.032L303.933 239.805C303.933 239.805 299.238 238.932 291.595 250.527Z" fill="#72C78A"/>
<path d="M303.042 240.022C303.042 240.022 289.001 271.865 286.952 285.353C282.88 312.155 281.514 328.885 281.514 328.885L276.741 370.326H370.248C370.248 370.326 373.343 293.523 371.354 267.775C369.867 248.478 355.083 236.46 349.039 229.863C348.676 229.465 347.016 224.061 347.016 224.061L303.44 235.223L303.042 240.022Z" fill="#72C78A"/>
<path d="M298.52 244.855C298.503 244.959 298.469 245.062 298.417 245.158C298.322 245.374 298.209 245.668 298.054 246.022L296.662 249.351C295.46 252.239 293.722 256.432 291.975 261.758C289.944 267.983 288.327 274.338 287.142 280.779C285.75 288.05 284.626 296.117 283.684 304.616C281.955 321.631 280.407 337.03 279.274 348.201C278.695 353.76 278.228 358.265 277.9 361.403C277.727 362.942 277.597 364.144 277.502 364.991C277.45 365.389 277.416 365.691 277.39 365.925C277.381 366.029 277.355 366.141 277.329 366.245C277.329 366.141 277.329 366.029 277.329 365.925C277.329 365.691 277.372 365.38 277.398 364.982C277.476 364.118 277.58 362.933 277.71 361.386C278.003 358.239 278.427 353.734 278.946 348.166C280.027 337.013 281.453 321.588 283.269 304.564C284.203 296.065 285.344 287.981 286.727 280.701C287.938 274.234 289.589 267.862 291.664 261.628C293.454 256.311 295.235 252.118 296.489 249.256C297.111 247.812 297.621 246.705 297.967 245.962C298.131 245.599 298.261 245.322 298.365 245.097C298.408 245.011 298.46 244.933 298.52 244.855Z" fill="#263238"/>
<g opacity="0.3">
<path d="M347.102 294.984C346.238 286.502 342.425 277.986 335.448 273.093L278.436 354.503C288.5 359.933 299.679 365.536 310.858 363.149C316.91 361.861 322.219 358.316 326.559 353.95C335.577 344.88 340.471 332.525 343.903 320.231C346.194 312 347.958 303.466 347.102 294.984Z" fill="black"/>
</g>
<path d="M353.561 285.154C346.463 310.288 330.476 340.955 325.565 347.12C318.38 356.302 307.391 361.697 295.736 361.757C289.304 361.757 234.938 351.166 218.787 348.002C216.072 347.466 213.937 345.356 213.366 342.65L213.228 341.984L206.008 340.013L209.873 320.551L210.643 319.47L288.396 321.917L311.014 258.913C311.446 258.196 317.974 237.056 335.69 238.016" fill="#72C78A"/>
<path d="M335.69 238.033H335.102C334.522 238.016 333.952 238.033 333.372 238.076C331.124 238.206 328.911 238.734 326.836 239.624C323.525 241.137 320.602 243.385 318.302 246.204C315.19 250.025 312.769 254.348 311.126 258.991C305.411 274.952 297.656 296.636 288.569 322.012L288.526 322.15H288.379L210.66 319.712L210.85 319.617L210.08 320.698V320.611C208.965 326.24 207.781 332.223 206.622 338.275L206.268 340.073L206.103 339.805L213.357 341.759L213.496 341.803V341.932C213.703 343.532 214.464 345.01 215.631 346.126C216.21 346.662 216.885 347.094 217.62 347.396C218.372 347.673 219.15 347.872 219.946 347.993L229.456 349.852L248.045 353.423C260.227 355.731 271.96 357.927 283.156 359.821C285.958 360.288 288.724 360.685 291.457 361.118C292.823 361.291 294.189 361.481 295.529 361.541C296.878 361.559 298.218 361.489 299.558 361.342C304.728 360.789 309.726 359.181 314.256 356.63C318.458 354.218 322.176 351.045 325.228 347.275C326.603 345.46 327.865 343.558 328.997 341.586C330.13 339.658 331.202 337.748 332.214 335.871C338.569 324 344.137 311.732 348.883 299.135C350.526 294.673 351.702 291.172 352.445 288.759C352.809 287.575 353.094 286.667 353.31 286.044C353.526 285.422 353.604 285.128 353.604 285.128C353.604 285.128 353.526 285.439 353.353 286.053L352.558 288.785C351.84 291.18 350.69 294.69 349.099 299.16C344.405 311.792 338.871 324.096 332.534 335.984C331.531 337.869 330.459 339.779 329.335 341.716C328.193 343.713 326.931 345.633 325.539 347.457C322.452 351.287 318.683 354.503 314.412 356.95C309.847 359.535 304.797 361.161 299.584 361.732C298.226 361.887 296.869 361.956 295.503 361.939C294.12 361.879 292.762 361.688 291.387 361.515C288.647 361.126 285.871 360.651 283.07 360.227C271.83 358.342 260.132 356.155 247.941 353.855L229.352 350.284L219.842 348.434C219.02 348.313 218.216 348.097 217.438 347.811C216.651 347.492 215.934 347.033 215.311 346.454C214.075 345.278 213.271 343.722 213.037 342.027L213.202 342.2L205.948 340.246L205.749 340.186V339.987C205.861 339.416 205.991 338.802 206.112 338.188C207.314 332.136 208.498 326.153 209.57 320.525V320.473L210.34 319.392L210.409 319.297H210.66L288.413 321.77L288.223 321.899L310.91 258.922C312.57 254.27 315.017 249.947 318.155 246.143C320.49 243.307 323.447 241.059 326.801 239.564C328.894 238.682 331.116 238.172 333.381 238.068C333.96 238.033 334.531 238.033 335.11 238.068L335.69 238.033Z" fill="#263238"/>
<path d="M271.268 316.945C270.239 314.974 268.977 313.124 267.516 311.446C265.951 309.873 264.213 308.481 262.328 307.313C262.968 307.486 263.582 307.763 264.135 308.135C265.519 308.948 266.781 309.959 267.879 311.135C268.977 312.311 269.894 313.642 270.611 315.078C270.922 315.666 271.147 316.297 271.268 316.945Z" fill="#263238"/>
<path d="M297.803 337.177C297.725 337.177 297.569 336.183 297.12 334.583C296.523 332.543 295.667 330.589 294.569 328.773C293.454 326.966 292.114 325.306 290.566 323.853C289.381 322.729 288.551 322.124 288.595 322.072C288.819 322.159 289.036 322.28 289.226 322.427C289.77 322.79 290.289 323.188 290.782 323.611C294.068 326.464 296.393 330.277 297.431 334.505C297.595 335.136 297.708 335.785 297.768 336.433C297.82 336.675 297.829 336.926 297.803 337.177Z" fill="#263238"/>
<g opacity="0.3">
<path d="M277.061 321.441L281.583 321.614C282.318 303.847 285.975 286.166 289.105 268.64C281.125 284.946 279.032 303.406 277.061 321.441Z" fill="black"/>
</g>
<path d="M347.526 229.863C347.388 229.932 347.241 229.984 347.094 230.01L345.849 230.355L341.266 231.575C337.401 232.603 332.067 234.073 326.136 235.569C320.205 237.065 314.783 238.223 310.824 238.872C308.844 239.2 307.236 239.434 306.12 239.546L304.832 239.676C304.685 239.693 304.529 239.693 304.382 239.676C304.521 239.624 304.676 239.589 304.823 239.572L306.094 239.356C307.201 239.192 308.8 238.906 310.763 238.543C314.697 237.817 320.101 236.615 326.023 235.085C331.946 233.554 337.263 232.162 341.188 231.211C343.134 230.736 344.716 230.347 345.814 230.131L347.076 229.871C347.223 229.845 347.379 229.845 347.526 229.863Z" fill="#263238"/>
</svg>
