<svg width="249" height="245" viewBox="0 0 249 245" fill="none" xmlns="http://www.w3.org/2000/svg">
<path opacity="0.7" d="M26.8342 76.2971L26.8379 76.2862L26.8381 76.2854L26.8394 76.2816L26.8452 76.2647C26.8504 76.2494 26.8586 76.2259 26.8696 76.1944C26.8917 76.1315 26.9254 76.0367 26.9715 75.9112C27.0637 75.6603 27.205 75.2867 27.4003 74.8007C27.791 73.8287 28.3975 72.407 29.258 70.6166C30.9791 67.0358 33.7161 61.9811 37.7744 56.1007C45.8906 44.3405 59.2918 29.2778 80.424 16.0963C122.655 -10.2462 178.385 -2.31596 201.068 33.0463C212.475 50.8295 216.567 62.4615 217.832 74.8861C218.466 81.113 218.391 87.5515 218.158 95.0895C218.11 96.6389 218.055 98.2345 217.998 99.8837C217.78 106.252 217.535 113.418 217.542 121.807C217.555 139.034 221.569 152.783 225.124 164.958C225.941 167.756 226.734 170.472 227.448 173.127C231.271 187.336 232.867 199.852 224.177 214.477C206.754 243.803 170.057 252.588 134.606 234.613C133.02 233.809 131.418 232.999 129.801 232.182C95.027 214.611 53.6099 193.684 33.0384 155.617C22.2877 135.724 20.7347 115.894 21.8731 101.029C22.4423 93.5964 23.684 87.4093 24.7826 83.0825C25.3319 80.9194 25.8452 79.2218 26.2206 78.0669C26.4082 77.4895 26.5613 77.0477 26.6672 76.7513C26.7201 76.6031 26.7612 76.4913 26.7889 76.4169C26.8027 76.3798 26.8132 76.352 26.8201 76.3338L26.8278 76.3136L26.8296 76.3089L26.83 76.3079C26.83 76.3078 26.8301 76.3078 26.7937 76.2937L26.8301 76.3078L26.8342 76.2971Z" stroke="#262626"/>
<path d="M212.955 28.0897L212.955 28.0897C218.249 30.3032 227.243 35.19 234.717 43.1116C242.184 51.0249 248.12 61.949 247.37 76.2721C245.595 110.178 225.12 138.882 199.396 162.675C175.421 184.85 146.952 202.701 124.98 216.478C123.379 217.482 121.814 218.463 120.287 219.424L120.553 219.847L120.287 219.424C113.449 223.725 102.082 227.145 90.7956 227.771C79.4907 228.398 68.4337 226.215 62.0774 219.503C56.6891 213.802 54.3284 207.321 52.565 200.905C52.1897 199.54 51.8408 198.173 51.4943 196.815C50.2222 191.831 48.9829 186.975 46.589 182.791C44.3125 178.806 41.9884 174.85 39.666 170.897C32.5832 158.841 25.5163 146.812 19.8633 134.062C12.3619 117.144 7.42269 98.6991 9.00733 80.3304C9.99386 68.9472 13.7039 57.6761 20.1396 48.2196C26.4666 38.9315 35.726 32.087 45.5875 26.7495L45.5878 26.7493C71.5615 12.6672 102.575 11.6476 131.571 12.9438C159.335 14.1845 187.403 17.3984 212.955 28.0897Z" stroke="black"/>
<path opacity="0.7" d="M212.955 28.0897L212.955 28.0897C218.249 30.3032 227.243 35.19 234.717 43.1116C242.184 51.0249 248.12 61.949 247.37 76.2721C245.595 110.178 225.12 138.882 199.396 162.675C175.421 184.85 146.952 202.701 124.98 216.478C123.379 217.482 121.814 218.463 120.287 219.424L120.553 219.847L120.287 219.424C113.449 223.725 102.082 227.145 90.7956 227.771C79.4907 228.398 68.4337 226.215 62.0774 219.503C56.6891 213.802 54.3284 207.321 52.565 200.905C52.1897 199.54 51.8408 198.173 51.4943 196.815C50.2222 191.831 48.9829 186.975 46.589 182.791C44.3125 178.806 41.9884 174.85 39.666 170.897C32.5832 158.841 25.5163 146.812 19.8633 134.062C12.3619 117.144 7.42269 98.6991 9.00733 80.3304C9.99386 68.9472 13.7039 57.6761 20.1396 48.2196C26.4666 38.9315 35.726 32.087 45.5875 26.7495L45.5878 26.7493C71.5615 12.6672 102.575 11.6476 131.571 12.9438C159.335 14.1845 187.403 17.3984 212.955 28.0897Z" stroke="#3C3C3C"/>
<path d="M37.9178 54.832L33.2122 70.4078C32.902 71.4346 33.4829 72.5184 34.5097 72.8286L60.9659 80.8213C61.9927 81.1315 63.0765 80.5506 63.3867 79.5238L68.0923 63.948C68.4025 62.9212 67.8216 61.8373 66.7948 61.5271L40.3386 53.5345C39.3118 53.2243 38.228 53.8052 37.9178 54.832Z" stroke="#263238" stroke-miterlimit="10.03"/>
<path d="M36.985 57.2299L67.0608 66.3448" stroke="#263238" stroke-miterlimit="10"/>
<path d="M36.069 60.2479L66.1504 69.3628" stroke="#263238" stroke-miterlimit="10"/>
<path d="M56.9969 75.0072C56.8424 75.5204 56.9031 76.0721 57.1679 76.5411C56.7155 76.7618 56.1968 76.8059 55.7168 76.6625C54.6795 76.348 54.0947 75.2555 54.4092 74.2237C54.7237 73.1865 55.8161 72.6016 56.8479 72.9161C57.3334 73.0596 57.7417 73.3906 57.99 73.832C57.5155 74.0748 57.1569 74.4996 56.9969 75.0127V75.0072Z" stroke="#263238" stroke-miterlimit="10"/>
<path d="M60.7433 76.1438C60.4288 77.1811 59.3363 77.7604 58.299 77.4459C57.2617 77.1314 56.6824 76.039 56.9969 75.0017C57.3114 73.9644 58.4038 73.3851 59.4411 73.6995C60.4729 74.014 61.0578 75.112 60.7433 76.1438Z" stroke="#263238" stroke-miterlimit="10"/>
<path d="M222.329 93.7895L218.495 106.441C218.185 107.465 218.763 108.546 219.787 108.856L241.663 115.486C242.687 115.796 243.768 115.218 244.078 114.194L247.912 101.543C248.222 100.519 247.644 99.4379 246.621 99.1277L224.744 92.4978C223.721 92.1876 222.639 92.7659 222.329 93.7895Z" stroke="#263238" stroke-miterlimit="10"/>
<path d="M221.744 95.731L247.328 103.483" stroke="#263238" stroke-miterlimit="10"/>
<path d="M220.966 98.3021L246.545 106.054" stroke="#263238" stroke-miterlimit="10"/>
<path d="M238.765 110.838C238.633 111.274 238.682 111.743 238.909 112.14C238.087 112.537 237.093 112.195 236.696 111.373C236.299 110.551 236.641 109.558 237.463 109.161C237.833 108.984 238.252 108.945 238.644 109.061C239.052 109.183 239.4 109.458 239.609 109.834C239.201 110.038 238.898 110.402 238.765 110.838Z" stroke="#263238" stroke-miterlimit="10"/>
<path d="M241.949 111.82C241.673 112.692 240.746 113.177 239.874 112.907C239.002 112.631 238.517 111.704 238.787 110.832C239.058 109.966 239.974 109.48 240.845 109.74C241.723 110.005 242.219 110.926 241.954 111.803C241.954 111.809 241.954 111.814 241.949 111.82Z" stroke="#263238" stroke-miterlimit="10"/>
<path d="M211.615 38.6794L179.679 53.301L187.286 69.9164L219.222 55.2948L211.615 38.6794Z" stroke="#263238" stroke-miterlimit="10"/>
<path d="M216.475 52.9041L211.641 42.3492C210.703 42.7795 209.589 42.3657 209.158 41.4277L183.342 53.2462C183.772 54.1842 183.359 55.2987 182.421 55.7291L187.254 66.284C188.192 65.8537 189.301 66.2675 189.731 67.2055C189.731 67.2055 189.731 67.2055 189.731 67.211L215.542 55.387C215.112 54.449 215.526 53.34 216.464 52.9096C216.464 52.9096 216.463 52.9096 216.469 52.9096L216.475 52.9041Z" stroke="#263238" stroke-miterlimit="10"/>
<path d="M202.37 58.1042C204.472 56.4892 204.867 53.4757 203.252 51.3733C201.637 49.2709 198.624 48.8757 196.521 50.4907C194.419 52.1057 194.024 55.1193 195.639 57.2217C197.254 59.3241 200.267 59.7192 202.37 58.1042Z" stroke="#263238" stroke-miterlimit="10"/>
<path d="M200.755 56.6229L201.114 57.4064L200.772 57.5609L200.419 56.7885C199.812 57.0533 199.139 57.0919 198.504 56.9098V56.4298C199.061 56.6009 199.663 56.5678 200.203 56.3471L199.392 54.5594C198.554 54.7194 197.687 54.8408 197.274 53.9359C196.976 53.2849 197.185 52.5014 198.19 51.9441L197.831 51.1551L198.173 51.0006L198.548 51.8006C199.045 51.5855 199.591 51.5137 200.126 51.591V52.071C199.657 52.0048 199.172 52.06 198.73 52.231L199.558 54.0408C200.413 53.8697 201.324 53.7152 201.765 54.6311C202.041 55.2656 201.804 56.0657 200.755 56.6229ZM199.177 54.0794L198.394 52.3524C197.715 52.7331 197.566 53.2407 197.765 53.6711C197.996 54.2118 198.548 54.1897 199.172 54.0794H199.177ZM201.257 54.8573C201.015 54.3056 200.43 54.3608 199.779 54.4877L200.557 56.1926C201.307 55.7953 201.45 55.2932 201.252 54.8573H201.257Z" fill="#263238"/>
<path d="M35.3561 114.365L10.7975 116.574L11.9463 129.345L36.5049 127.136L35.3561 114.365Z" stroke="#263238" stroke-miterlimit="10.04"/>
<path d="M34.5407 124.554L33.8455 116.471C33.1227 116.532 32.4937 115.997 32.4275 115.279L12.6528 116.99C12.708 117.707 12.1783 118.342 11.461 118.408L12.1562 126.491C12.8735 126.425 13.508 126.96 13.5742 127.677L33.3489 125.967C33.2937 125.25 33.8234 124.615 34.5407 124.549V124.554Z" stroke="#263238" stroke-miterlimit="10"/>
<path d="M26.3472 121.194C26.5072 123.043 25.1389 124.67 23.2905 124.83C21.4421 124.99 19.8145 123.622 19.6545 121.774C19.4945 119.925 20.8628 118.298 22.7112 118.138C24.5595 117.978 26.1817 119.34 26.3472 121.183C26.3472 121.183 26.3472 121.189 26.3472 121.194Z" stroke="#263238" stroke-miterlimit="10"/>
<path d="M23.3126 123.324L23.3622 123.925H23.1029L23.0477 123.329C22.5898 123.363 22.1318 123.23 21.7622 122.96L21.8836 122.651C22.2146 122.888 22.6119 123.009 23.0202 122.993L22.9043 121.619C22.3139 121.531 21.7125 121.404 21.6573 120.714C21.6132 120.212 21.9332 119.743 22.7277 119.611L22.6781 119.009H22.9374L22.9871 119.6C23.3678 119.578 23.754 119.655 24.0906 119.837L23.9857 120.151C23.6933 119.997 23.3622 119.925 23.0312 119.931L23.1471 121.316C23.7485 121.404 24.3885 121.52 24.4492 122.22C24.4823 122.734 24.1347 123.203 23.3126 123.324ZM22.8712 121.277L22.7553 119.969C22.2036 120.063 22.0049 120.361 22.0325 120.692C22.0601 121.023 22.4298 121.205 22.8712 121.277ZM24.0575 122.281C24.0188 121.867 23.6271 121.729 23.1691 121.685L23.2795 122.993C23.8533 122.899 24.085 122.612 24.0575 122.281Z" fill="#263238"/>
<path d="M234.042 46.1231C236.693 46.1231 238.842 43.974 238.842 41.3229C238.842 38.6718 236.693 36.5227 234.042 36.5227C231.391 36.5227 229.242 38.6718 229.242 41.3229C229.242 43.974 231.391 46.1231 234.042 46.1231Z" stroke="#263238" stroke-miterlimit="10"/>
<path d="M234.257 43.9879V44.8486H233.86V43.9934C233.204 43.9824 232.569 43.7396 232.067 43.3147L232.282 42.8844C232.724 43.2706 233.275 43.4968 233.86 43.5244V41.5547C233.033 41.3505 232.205 41.0967 232.205 40.1036C232.205 39.3863 232.724 38.7628 233.86 38.6745V37.7972H234.235V38.6525C234.776 38.6635 235.306 38.829 235.758 39.1214L235.571 39.5628C235.168 39.3035 234.71 39.1545 234.235 39.127V41.1133C235.08 41.3174 235.973 41.5547 235.973 42.5644C235.995 43.2871 235.449 43.9217 234.257 43.9879ZM233.882 41.0139V39.1435C233.11 39.2097 232.779 39.607 232.779 40.0815C232.757 40.6498 233.264 40.8595 233.86 41.0139H233.882ZM235.449 42.5919C235.449 42.0016 234.897 41.7974 234.257 41.6374V43.5244C235.08 43.4527 235.449 43.072 235.449 42.5919Z" fill="#263238"/>
<path d="M202.425 105.548C205.005 104.939 206.604 102.355 205.996 99.7743C205.388 97.1939 202.803 95.595 200.223 96.203C197.642 96.8111 196.043 99.3959 196.651 101.976C197.26 104.557 199.844 106.156 202.425 105.548Z" stroke="#263238" stroke-miterlimit="10"/>
<path d="M200.115 103.246L199.668 103.98L199.348 103.781L199.795 103.053C199.238 102.7 198.824 102.164 198.625 101.535L199.034 101.282C199.205 101.839 199.563 102.319 200.043 102.644L201.081 100.962C200.479 100.36 199.9 99.7036 200.419 98.8594C200.794 98.247 201.561 97.9876 202.587 98.5118L203.039 97.7725L203.359 97.9711L202.913 98.6994C203.365 98.9918 203.729 99.4056 203.966 99.8912L203.575 100.173C203.365 99.7422 203.056 99.3781 202.664 99.1022L201.621 100.796C202.239 101.414 202.874 102.082 202.344 102.942C201.964 103.56 201.169 103.809 200.115 103.246ZM201.357 100.487L202.333 98.8925C201.644 98.5449 201.141 98.6994 200.893 99.1022C200.595 99.6153 200.91 100.062 201.357 100.515V100.487ZM201.864 102.65C202.173 102.148 201.815 101.69 201.346 101.215L200.363 102.815C201.097 103.224 201.61 103.113 201.859 102.678V102.65H201.864Z" fill="#263238"/>
<path d="M132.438 8.2125C133.541 10.6236 132.476 13.4707 130.065 14.5742C127.654 15.6777 124.807 14.6128 123.703 12.2016C122.605 9.7905 123.665 6.94347 126.076 5.83998C128.482 4.73648 131.329 5.79584 132.432 8.20146C132.432 8.20146 132.432 8.20698 132.432 8.2125H132.438Z" stroke="#263238" stroke-miterlimit="10"/>
<path d="M129.375 12.5326L129.734 13.3161L129.392 13.4761L129.028 12.6982C128.421 12.963 127.748 13.0016 127.113 12.8195V12.3395C127.67 12.5106 128.266 12.483 128.807 12.2623L127.99 10.4636C127.152 10.6236 126.286 10.7394 125.872 9.84009C125.574 9.18351 125.783 8.40554 126.793 7.84828L126.435 7.05927L126.771 6.90479L127.13 7.68275C127.626 7.46757 128.173 7.39584 128.708 7.47309V7.95311C128.239 7.8869 127.753 7.94207 127.312 8.11312L128.139 9.92285C128.995 9.75181 129.905 9.60284 130.346 10.5132C130.683 11.1753 130.429 11.9754 129.375 12.5326ZM127.797 9.98906L127.019 8.28416C126.341 8.66487 126.192 9.17247 126.39 9.59732C126.628 10.116 127.174 10.0994 127.797 9.98906ZM129.877 10.767C129.629 10.2153 129.05 10.276 128.399 10.3974L129.177 12.1023C129.9 11.705 130.076 11.2084 129.877 10.767Z" fill="#263238"/>
<path d="M116.271 202.61C117.927 206.235 116.332 210.511 112.707 212.167C109.082 213.822 104.806 212.227 103.151 208.602C101.495 204.977 103.09 200.701 106.715 199.046C110.34 197.391 114.616 198.985 116.271 202.61Z" stroke="#263238" stroke-miterlimit="10"/>
<path d="M111.664 209.11L112.216 210.291L111.703 210.522L111.151 209.353C110.246 209.75 109.225 209.816 108.276 209.54L108.31 208.823C109.148 209.071 110.042 209.027 110.853 208.696L109.623 206.004C108.37 206.241 107.063 206.417 106.445 205.066C105.992 204.083 106.312 202.908 107.824 202.07L107.272 200.894L107.78 200.657L108.332 201.827C109.077 201.507 109.899 201.396 110.704 201.512V202.23C109.998 202.13 109.275 202.213 108.613 202.472L109.849 205.187C111.135 204.933 112.503 204.707 113.132 206.075C113.606 207.074 113.253 208.277 111.664 209.11ZM109.303 205.286L108.128 202.726C107.118 203.278 106.892 204.056 107.19 204.707C107.543 205.485 108.359 205.457 109.303 205.286ZM112.426 206.462C112.056 205.65 111.179 205.717 110.219 205.91L111.388 208.47C112.475 207.868 112.724 207.118 112.426 206.462Z" fill="#263238"/>
<path d="M12.9728 90.55C9.98232 93.1764 5.42487 92.8839 2.79303 89.8935C0.166701 86.903 0.459128 82.3455 3.44961 79.7137C6.44009 77.0874 10.9975 77.3798 13.6239 80.3703C16.2557 83.3607 15.9633 87.9182 12.9673 90.55H12.9728Z" stroke="#263238" stroke-miterlimit="10"/>
<path d="M5.43591 88.012L4.46483 88.8673L4.08964 88.4424L5.0552 87.5982C4.41517 86.8423 4.05654 85.8878 4.0455 84.8947L4.74622 84.7181C4.74622 85.5899 5.03865 86.4285 5.57937 87.1127L7.78636 85.1595C7.19599 84.0284 6.64976 82.8256 7.78636 81.849C8.60295 81.1372 9.8168 81.1041 11.0527 82.307L12.0569 81.4573L12.4266 81.8766L11.461 82.7263C11.9741 83.3498 12.3052 84.1057 12.4211 84.9057L11.7369 85.1319C11.6265 84.4257 11.3396 83.7581 10.9037 83.1953L8.65813 85.165C9.27057 86.3182 9.88301 87.5651 8.75192 88.5638C7.92982 89.2811 6.67735 89.3197 5.43591 88.012ZM8.41536 84.6464L10.5286 82.787C9.6899 81.9814 8.87331 81.9869 8.3657 82.4559C7.7036 83.0187 7.96844 83.8022 8.3988 84.6464H8.41536ZM8.18914 87.9569C8.86227 87.372 8.54778 86.5499 8.08431 85.6671L5.97111 87.5265C6.83735 88.4148 7.64291 88.4479 8.19466 87.9734V87.9569H8.18914Z" fill="#263238"/>
<path d="M42.5024 155.408C44.4283 155.408 45.9895 153.847 45.9895 151.921C45.9895 149.995 44.4283 148.434 42.5024 148.434C40.5766 148.434 39.0154 149.995 39.0154 151.921C39.0154 153.847 40.5766 155.408 42.5024 155.408Z" stroke="#263238" stroke-miterlimit="10.01"/>
<path d="M43.5066 152.594L43.9039 153.074L43.6997 153.245L43.3025 152.771C42.9273 153.069 42.4638 153.229 41.9838 153.223L41.9065 152.881C42.3259 152.892 42.7397 152.76 43.0762 152.506L42.1603 151.402C41.6086 151.673 41.0237 151.921 40.5603 151.369C40.2292 150.972 40.2292 150.382 40.8251 149.797L40.4223 149.317L40.632 149.146L41.0293 149.62C41.3382 149.377 41.7024 149.223 42.0941 149.173L42.1934 149.504C41.8514 149.554 41.5258 149.681 41.25 149.885L42.1714 150.989C42.7231 150.707 43.3466 150.437 43.8266 150.989C44.1632 151.397 44.1522 152.004 43.5066 152.594ZM41.9286 151.116L41.0568 150.073C40.6596 150.47 40.6541 150.851 40.8692 151.116C41.0844 151.38 41.5148 151.309 41.9286 151.116ZM43.5342 151.264C43.2583 150.939 42.8611 151.077 42.4307 151.292L43.3025 152.335C43.7273 151.916 43.7549 151.529 43.5342 151.259V151.264Z" fill="#263238"/>
<path d="M153.079 220.73C154.309 222.209 154.11 224.404 152.632 225.635C151.153 226.865 148.957 226.667 147.727 225.188C146.496 223.709 146.695 221.519 148.173 220.288C149.652 219.058 151.848 219.262 153.079 220.735V220.73Z" stroke="#263238" stroke-miterlimit="10"/>
<path d="M151.754 224.344L152.157 224.824L151.947 224.995L151.55 224.52C151.181 224.818 150.712 224.978 150.237 224.973L150.16 224.631C150.579 224.642 150.993 224.509 151.329 224.255L150.414 223.152C149.862 223.422 149.271 223.671 148.814 223.119C148.477 222.722 148.477 222.131 149.073 221.546L148.676 221.066L148.885 220.895L149.283 221.37C149.586 221.121 149.956 220.967 150.347 220.923L150.447 221.254C150.105 221.304 149.779 221.43 149.498 221.635L150.425 222.738C150.976 222.457 151.6 222.186 152.08 222.738C152.4 223.146 152.389 223.753 151.754 224.344ZM150.171 222.843L149.299 221.8C148.896 222.197 148.891 222.578 149.111 222.843C149.332 223.108 149.751 223.058 150.171 222.843ZM151.771 222.997C151.495 222.666 151.098 222.804 150.667 222.997L151.539 224.04C151.97 223.665 151.997 223.279 151.771 223.014V222.997Z" fill="#263238"/>
<path d="M54.3209 25.5484C56.2437 25.5484 57.8024 23.9897 57.8024 22.0669C57.8024 20.1441 56.2437 18.5853 54.3209 18.5853C52.3981 18.5853 50.8394 20.1441 50.8394 22.0669C50.8394 23.9897 52.3981 25.5484 54.3209 25.5484Z" stroke="#263238" stroke-miterlimit="10"/>
<path d="M55.6837 23.4517L56.081 23.9318L55.8713 24.1028L55.4741 23.6283C55.1044 23.9318 54.6409 24.0918 54.1609 24.0807L54.0837 23.7386C54.503 23.7497 54.9168 23.6173 55.2534 23.3634L54.3375 22.26C53.7857 22.5303 53.1953 22.7786 52.7374 22.2268C52.4063 21.8296 52.4008 21.2392 53.0022 20.6544L52.5994 20.1743L52.8091 20.0033L53.2064 20.4778C53.5154 20.235 53.8795 20.0805 54.2713 20.0309L54.3706 20.3619C54.0285 20.4116 53.7029 20.5385 53.4271 20.7426L54.3485 21.8461C54.9002 21.5647 55.5237 21.2944 56.0037 21.8461C56.3293 22.2544 56.3127 22.8614 55.6837 23.4517ZM54.0947 21.9675L53.2229 20.9026C52.8257 21.2999 52.8146 21.6806 53.0353 21.9455C53.256 22.2103 53.6754 22.1662 54.0947 21.9675ZM55.7003 22.1165C55.4244 21.791 55.0216 21.9289 54.5968 22.1165L55.4685 23.1593C55.8934 22.7731 55.921 22.3869 55.7003 22.1165Z" fill="#263238"/>
<path opacity="0.2" d="M132.785 164.805C132.785 164.805 128.531 186.395 102.439 191.289C102.439 191.289 95.6249 196.723 93.3572 199.94C91.0895 203.157 79.0117 208.624 66.7077 225.685C54.4037 242.745 36.0856 188.568 36.0856 188.568L76.573 135.987L132.785 164.805Z" fill="black"/>
<path d="M155.975 63.4316C155.975 63.4316 170.045 56.5513 173.14 57.7376C176.235 58.9238 179.209 66.0414 167.374 72.8555C155.539 79.6696 159.071 92.3654 159.071 92.3654H167.512C167.512 92.3654 172.577 94.4289 174.547 97.0828C176.517 99.7367 177.924 108.785 179.049 111.853C180.175 114.921 179.601 117.994 176.517 118.993C176.517 118.993 174.547 127.578 175.11 131.385C175.673 135.192 175.391 137.642 171.733 138.105C168.224 138.47 165.09 135.926 164.72 132.417C164.687 132.075 164.676 131.727 164.698 131.385L161.884 141.581L163.854 145.499C166.635 146.575 169.206 148.131 171.452 150.1C175.391 153.477 179.331 154.399 178.205 158.161C177.08 161.924 174.829 165.98 163.01 161.279C151.192 156.578 141.343 138.105 141.343 138.105L134.242 73.6942L155.975 63.4316Z" fill="white"/>
<path opacity="0.4" d="M170.784 100.432C164.406 109.127 171.463 119.142 171.463 119.142C171.463 119.142 167.049 121.603 166.922 127.881C166.872 130.491 167.529 134.138 168.312 137.515C165.967 136.406 164.533 133.973 164.704 131.385L161.884 141.581L163.854 145.493C165.929 146.288 167.882 147.364 169.659 148.688C167.91 152.705 167.374 157.67 167.529 162.791C165.989 162.382 164.483 161.88 163.01 161.279C151.192 156.572 141.343 138.105 141.343 138.105L134.242 73.6886L155.975 63.4316C155.975 63.4316 163.661 59.6741 168.925 58.1899C168.516 63.1115 169.477 68.2042 170.172 71.0402C169.272 71.6968 168.34 72.3037 167.374 72.8554C155.556 79.6695 159.071 92.3653 159.071 92.3653H167.518C167.518 92.3653 172.329 94.3295 174.393 96.8841C172.98 97.8331 171.755 99.036 170.784 100.432Z" fill="#92E3A9"/>
<path d="M133.994 154.426C133.994 154.426 118.688 184.436 91.1005 191.244C91.1005 191.244 90.0467 197.181 85.3789 199.73C82.885 201.088 72.8211 216.167 63.9876 229.933L15.0584 199.918C18.071 196.938 21.5029 193.507 24.9899 189.926C35.1973 179.52 46.0888 167.856 49.4214 162.084C52.4008 156.953 56.1693 148.048 59.4522 139.678C63.6565 128.974 67.0774 119.142 67.0774 119.142L83.3871 101.011L109.027 72.5024L110.13 76.1495L133.994 154.426Z" fill="white"/>
<path opacity="0.4" d="M109.049 72.5024L133.994 154.426C133.994 154.426 118.688 184.436 91.1005 191.244C91.1005 191.244 90.0467 197.181 85.3789 199.73C83.1388 200.95 74.8019 213.226 66.7353 225.663C69.7258 215.4 78.3827 199.041 78.3827 199.041C72.8266 192.458 74.4487 185.523 76.6723 187.498C78.8958 189.473 84.4851 195.024 84.8382 195.372C82.3829 192.48 81.8146 187.951 81.8146 187.951C81.8146 187.951 88.7004 192.53 89.2577 185.192C89.815 177.853 85.1306 159.922 85.1306 159.922L72.8321 112.769L109.049 72.5024Z" fill="#92E3A9"/>
<path d="M134.242 73.6942L155.975 63.4316C155.975 63.4316 170.045 56.5513 173.14 57.7376C176.235 58.9238 179.209 66.0414 167.374 72.8555C155.539 79.6696 159.071 92.3654 159.071 92.3654H167.512C167.512 92.3654 172.577 94.4289 174.547 97.0828C176.517 99.7367 177.924 108.785 179.049 111.853C180.175 114.921 179.601 117.994 176.517 118.993C176.517 118.993 174.547 127.578 175.11 131.385C175.673 135.192 175.391 137.642 171.733 138.105C168.224 138.47 165.09 135.926 164.72 132.417C164.687 132.075 164.676 131.727 164.698 131.385L161.884 141.581L163.854 145.499C166.635 146.575 169.206 148.131 171.452 150.1C175.391 153.477 179.331 154.399 178.205 158.161C177.08 161.924 174.829 165.98 163.01 161.279C151.192 156.578 141.343 138.105 141.343 138.105" stroke="#263238" stroke-linecap="round" stroke-linejoin="round"/>
<path d="M176.517 118.993C172.296 120.135 167.374 119.291 165.543 111.82C163.711 104.349 167.374 96.371 169.763 95.6372" stroke="#263238" stroke-linecap="round" stroke-linejoin="round"/>
<path d="M164.698 131.385C164.698 131.385 164.417 121.779 167.937 119.406" stroke="#263238" stroke-linecap="round" stroke-linejoin="round"/>
<path opacity="0.4" d="M62.0564 179.095C62.0564 179.095 51.7443 177.809 49.4435 173.197C47.5399 169.379 37.2222 183.68 25.012 189.926C35.2194 179.52 46.1109 167.856 49.4435 162.084C52.4229 156.953 56.1914 148.048 59.4743 139.678C59.3087 146.619 55.612 157.246 56.6659 162.78C54.3154 163.403 52.9029 165.798 53.4933 168.154C54.2823 172.551 62.0564 179.095 62.0564 179.095Z" fill="#92E3A9"/>
<path d="M133.994 154.426C133.994 154.426 118.688 184.436 91.095 191.244C91.095 191.244 90.0467 197.181 85.3789 199.73C82.885 201.088 72.8266 216.167 63.982 229.933" stroke="#263238" stroke-linecap="round" stroke-linejoin="round"/>
<path d="M15.0584 199.918C26.8438 188.27 44.9577 169.803 49.4435 162.084C56.23 150.404 67.0994 119.136 67.0994 119.136L109.032 72.5024" stroke="#263238" stroke-linecap="round" stroke-linejoin="round"/>
<path d="M85.103 108.118C85.103 108.118 91.5474 113.889 93.3793 119.153" stroke="#263238" stroke-linecap="round" stroke-linejoin="round"/>
<path d="M161.173 24.0587H91.8344C89.7836 24.0587 88.1211 25.7212 88.1211 27.772V175.382C88.1211 177.432 89.7836 179.095 91.8344 179.095H161.173C163.223 179.095 164.886 177.432 164.886 175.382V27.772C164.886 25.7212 163.223 24.0587 161.173 24.0587Z" fill="#263238"/>
<path d="M141.718 28.2797L140.25 30.9667C139.936 31.5626 139.318 31.9323 138.645 31.9378H114.368C113.695 31.9378 113.077 31.5681 112.757 30.9778L111.295 28.2907C110.975 27.7004 110.357 27.3307 109.683 27.3307H92.7172C91.7019 27.3307 90.8798 28.1583 90.8854 29.1735C90.8854 29.1735 90.8854 29.1735 90.8854 29.1791V174.289C90.8854 175.304 91.7019 176.121 92.7172 176.126H160.284C161.3 176.132 162.127 175.315 162.133 174.3C162.133 174.3 162.133 174.295 162.133 174.289V29.1791C162.133 28.1638 161.311 27.3417 160.295 27.3417H143.335C142.667 27.3362 142.044 27.6948 141.718 28.2797Z" fill="#92E3A9" stroke="#263238" stroke-linecap="round" stroke-linejoin="round"/>
<path d="M121.237 29.5818C121.783 29.5818 122.225 29.1397 122.225 28.5942C122.225 28.0487 121.783 27.6066 121.237 27.6066C120.692 27.6066 120.249 28.0487 120.249 28.5942C120.249 29.1397 120.692 29.5818 121.237 29.5818Z" stroke="white" stroke-miterlimit="10"/>
<path d="M132.752 28.5942C132.752 28.9307 132.471 29.2066 132.134 29.2011C131.798 29.1956 131.522 28.9197 131.527 28.5831C131.527 28.2466 131.803 27.9762 132.14 27.9762C132.476 27.9762 132.752 28.2521 132.752 28.5886C132.752 28.5886 132.752 28.5886 132.752 28.5942Z" stroke="white" stroke-miterlimit="10"/>
<path d="M130.004 28.2079H124.001C123.792 28.2079 123.621 28.3789 123.621 28.5886C123.621 28.5886 123.621 28.5886 123.621 28.5941C123.621 28.8038 123.792 28.9748 124.001 28.9748H130.004C130.214 28.9748 130.385 28.8038 130.385 28.5941C130.385 28.3844 130.22 28.2134 130.01 28.2079C130.01 28.2079 130.01 28.2079 130.004 28.2079Z" fill="white"/>
<path d="M103.449 31.0107H96.9767V33.7585H103.449V31.0107Z" stroke="#263238" stroke-linecap="round" stroke-linejoin="round"/>
<path d="M104.447 31.4744H103.443V33.3007H104.447V31.4744Z" stroke="#263238" stroke-linecap="round" stroke-linejoin="round"/>
<path d="M149.31 32.7654H148.162V33.764H149.31V32.7654Z" stroke="#263238" stroke-linecap="round" stroke-linejoin="round"/>
<path d="M151.55 31.7612H150.403V33.7641H151.55V31.7612Z" stroke="#263238" stroke-linecap="round" stroke-linejoin="round"/>
<path d="M153.79 30.7571H152.643V33.7586H153.79V30.7571Z" stroke="#263238" stroke-linecap="round" stroke-linejoin="round"/>
<path d="M156.025 29.7528H154.877V33.7585H156.025V29.7528Z" stroke="#263238" stroke-linecap="round" stroke-linejoin="round"/>
<path opacity="0.5" d="M161.658 59.3928H91.3433V126.458H161.658V59.3928Z" fill="white"/>
<path d="M110.765 48.6834V49.8476C110.765 51.2876 110.075 52.0546 108.663 52.0546H107.995V55.4258H106.583V46.4598H108.663C110.075 46.4598 110.765 47.2433 110.765 48.6834ZM108.006 47.7454V50.7856H108.674C109.121 50.7856 109.363 50.5814 109.363 49.9414V48.5896C109.363 47.9496 109.121 47.7454 108.674 47.7454H108.006Z" fill="#263238"/>
<path d="M115.824 55.4423H114.401L114.153 53.8147H112.426L112.177 55.4423H110.881L112.321 46.4598H114.384L115.824 55.4423ZM112.602 52.5953H113.965L113.297 48.0544H113.27L112.602 52.5953Z" fill="#263238"/>
<path d="M117.171 52.4684L115.389 46.4598H116.889L117.954 50.5538H117.982L119.047 46.4598H120.393L118.611 52.4684V55.4423H117.198L117.171 52.4684Z" fill="#263238"/>
<path d="M123.908 52.8381H123.935L124.884 46.4598H126.848V55.4423H125.513V49.0034L124.564 55.4423H123.229L122.203 49.0917V55.4423H120.917V46.4598H122.881L123.908 52.8381Z" fill="#263238"/>
<path d="M129.287 50.2448H131.235V51.5304H129.298V54.1623H131.737V55.4423H127.875V46.4598H131.737V47.7454H129.298L129.287 50.2448Z" fill="#263238"/>
<path d="M133.883 48.9372H133.856V55.4423H132.587V46.4598H134.358L135.781 51.8394V46.4598H137.039V55.4423H135.594L133.883 48.9372Z" fill="#263238"/>
<path d="M137.668 46.4598H142.033V47.7454H140.554V55.4423H139.141V47.7454H137.668V46.4598Z" fill="#263238"/>
<path d="M144.549 46.3605C145.917 46.3605 146.623 47.1826 146.623 48.6171V48.8985H145.288V48.5288C145.288 47.8833 145.034 47.6405 144.582 47.6405C144.129 47.6405 143.881 47.8833 143.881 48.5288C143.881 49.1744 144.162 49.671 145.084 50.4765C146.264 51.5193 146.64 52.2587 146.64 53.2849C146.64 54.725 145.917 55.5471 144.532 55.5471C143.147 55.5471 142.43 54.725 142.43 53.2849V52.7332H143.765V53.3787C143.765 54.0188 144.046 54.2505 144.493 54.2505C144.94 54.2505 145.227 54.0188 145.227 53.3787C145.227 52.7387 144.946 52.2366 144.019 51.4255C142.838 50.3882 142.468 49.6434 142.468 48.6171C142.468 47.1826 143.175 46.3605 144.549 46.3605Z" fill="#263238"/>
<path d="M156.025 67.5201H96.9767V76.3426H156.025V67.5201Z" fill="white" stroke="#263238" stroke-linecap="round" stroke-linejoin="round"/>
<path d="M156.025 84.067H96.9767V92.8895H156.025V84.067Z" fill="white" stroke="#263238" stroke-linecap="round" stroke-linejoin="round"/>
<path d="M156.025 99.1133H96.9767V107.936H156.025V99.1133Z" fill="white" stroke="#263238" stroke-linecap="round" stroke-linejoin="round"/>
<path d="M124.934 111.152H96.9767V121.481H124.934V111.152Z" fill="white" stroke="#263238" stroke-linecap="round" stroke-linejoin="round"/>
<path d="M156.03 111.152H128.073V121.481H156.03V111.152Z" fill="white" stroke="#263238" stroke-linecap="round" stroke-linejoin="round"/>
<path d="M100.657 65.9807V66.2179H98.8085V63.6082H100.602V63.8454H99.0899V64.7779H100.436V65.0096H99.0899V65.9807H100.657Z" fill="#263238"/>
<path d="M104.486 65.0814V66.218H104.199V65.1145C104.199 64.7007 103.989 64.4855 103.647 64.4855C103.3 64.4689 103.002 64.7448 102.985 65.0924C102.985 65.1255 102.985 65.1642 102.985 65.1973V66.2235H102.72V65.12C102.72 64.7062 102.511 64.491 102.169 64.491C101.821 64.4745 101.523 64.7503 101.507 65.0979C101.507 65.131 101.507 65.1697 101.507 65.2028V66.229H101.242V64.2703H101.495V64.629C101.65 64.3807 101.926 64.2372 102.218 64.2538C102.516 64.2262 102.792 64.3972 102.913 64.6676C103.079 64.3972 103.377 64.2372 103.691 64.2538C104.1 64.2262 104.453 64.5352 104.48 64.9434C104.48 64.9876 104.48 65.0372 104.48 65.0814H104.486Z" fill="#263238"/>
<path d="M106.687 65.004V66.2179H106.434V65.9144C106.285 66.1351 106.025 66.262 105.755 66.24C105.314 66.24 105.043 66.0082 105.043 65.6882C105.043 65.3682 105.236 65.1365 105.799 65.1365H106.406V65.0151C106.406 64.6785 106.213 64.4964 105.854 64.4964C105.617 64.4964 105.385 64.5737 105.203 64.7282L105.082 64.5295C105.308 64.353 105.595 64.2592 105.882 64.2647C106.263 64.204 106.616 64.4578 106.682 64.8385C106.693 64.8937 106.693 64.9489 106.687 65.004ZM106.423 65.633V65.3075H105.805C105.424 65.3075 105.303 65.4565 105.303 65.6606C105.303 65.8648 105.485 66.0303 105.799 66.0303C106.064 66.0358 106.307 65.8813 106.406 65.633H106.423Z" fill="#263238"/>
<path d="M107.344 63.6413C107.344 63.5365 107.432 63.4537 107.537 63.4537C107.642 63.4537 107.725 63.5365 107.725 63.6413C107.725 63.7462 107.642 63.8289 107.537 63.8289C107.432 63.8289 107.35 63.7462 107.344 63.6413ZM107.405 64.2593H107.67V66.218H107.405V64.2593Z" fill="#263238"/>
<path d="M108.409 63.4537H108.674V66.2125H108.409V63.4537Z" fill="#263238"/>
<path d="M102.483 72.7672V73.0044H100.635V70.3947H102.428V70.6319H100.889V71.5588H102.24V71.7961H100.889V72.7672H102.483Z" fill="#263238"/>
<path d="M106.312 71.8568V72.9934H106.047V71.8899C106.047 71.4761 105.838 71.2609 105.496 71.2609C105.148 71.2444 104.856 71.5092 104.834 71.8568C104.834 71.8954 104.834 71.9285 104.834 71.9672V72.9989H104.569V71.8954C104.569 71.4816 104.359 71.2664 104.017 71.2664C103.669 71.2499 103.377 71.5147 103.355 71.8623C103.355 71.901 103.355 71.9341 103.355 71.9727V73.0045H103.085V71.0402H103.338V71.3989C103.493 71.1561 103.769 71.0126 104.061 71.0292C104.359 71.0071 104.635 71.1726 104.756 71.443C104.922 71.1726 105.22 71.0126 105.534 71.0292C105.943 71.0126 106.29 71.3271 106.307 71.7354C106.307 71.774 106.307 71.8182 106.307 71.8568H106.312Z" fill="#263238"/>
<path d="M108.508 71.7795V72.9934H108.254V72.6899C108.105 72.9106 107.846 73.032 107.581 73.0099C107.14 73.0099 106.864 72.7782 106.864 72.4582C106.864 72.1382 107.063 71.9064 107.625 71.9064H108.249V71.7906C108.249 71.454 108.056 71.2719 107.697 71.2719C107.46 71.2719 107.223 71.3492 107.041 71.5037L106.925 71.305C107.151 71.1229 107.438 71.0291 107.725 71.0402C108.105 70.9905 108.453 71.2609 108.503 71.6416C108.508 71.6857 108.508 71.7354 108.503 71.7795H108.508ZM108.249 72.403V72.083H107.631C107.25 72.083 107.129 72.232 107.129 72.4361C107.129 72.6403 107.311 72.8058 107.625 72.8058C107.901 72.8223 108.15 72.6568 108.249 72.403Z" fill="#263238"/>
<path d="M109.165 70.4112C109.165 70.3064 109.253 70.2236 109.358 70.2236C109.463 70.2236 109.546 70.3009 109.551 70.4057C109.551 70.4057 109.551 70.4057 109.551 70.4112C109.551 70.5161 109.463 70.6043 109.358 70.6043C109.253 70.6043 109.165 70.5161 109.165 70.4112ZM109.225 71.0292H109.49V72.9934H109.225V71.0292Z" fill="#263238"/>
<path d="M110.235 70.2236H110.495V72.9824H110.235V70.2236Z" fill="#263238"/>
<path d="M113.027 71.8568V72.9934H112.762V71.8899C112.806 71.5864 112.597 71.3106 112.293 71.2664C112.255 71.2609 112.216 71.2609 112.177 71.2664C111.824 71.2388 111.515 71.4982 111.488 71.8513C111.488 71.8899 111.488 71.934 111.488 71.9727V73.0044H111.223V71.0402H111.477V71.4044C111.637 71.1561 111.924 71.0126 112.222 71.0292C112.635 70.9961 112.994 71.305 113.027 71.7189C113.027 71.7685 113.027 71.8182 113.027 71.8623V71.8568Z" fill="#263238"/>
<path d="M115.234 71.7796V72.9934H114.98V72.69C114.831 72.9107 114.572 73.0321 114.307 73.01C113.86 73.01 113.59 72.7782 113.59 72.4582C113.59 72.1382 113.783 71.9065 114.346 71.9065H114.969V71.7906C114.969 71.454 114.782 71.272 114.417 71.272C114.18 71.272 113.948 71.3492 113.766 71.5037L113.645 71.3051C113.871 71.1285 114.158 71.0347 114.445 71.0402C114.826 70.9851 115.179 71.2554 115.229 71.6306C115.234 71.6803 115.24 71.7299 115.229 71.7796H115.234ZM114.969 72.4031V72.083H114.357C113.976 72.083 113.849 72.232 113.849 72.4362C113.849 72.6403 114.031 72.8058 114.346 72.8058C114.622 72.8224 114.875 72.6624 114.975 72.4031H114.969Z" fill="#263238"/>
<path d="M119.196 71.8569V72.9935H118.931V71.89C118.931 71.4762 118.721 71.261 118.379 71.261C118.031 71.2445 117.739 71.5093 117.717 71.8569C117.717 71.8955 117.717 71.9286 117.717 71.9672V72.999H117.436V71.8955C117.436 71.4817 117.226 71.2665 116.884 71.2665C116.536 71.25 116.244 71.5148 116.222 71.8624C116.222 71.901 116.222 71.9341 116.222 71.9728V73.0045H115.957V71.0403H116.211V71.3989C116.365 71.1562 116.641 71.0127 116.933 71.0293C117.231 71.0017 117.507 71.1727 117.629 71.4431C117.794 71.1727 118.092 71.0127 118.407 71.0293C118.815 71.0072 119.163 71.3162 119.19 71.7245C119.19 71.7686 119.19 71.8128 119.19 71.8569H119.196Z" fill="#263238"/>
<path d="M121.629 72.0941H119.974C120.001 72.4969 120.349 72.7948 120.752 72.7673C120.978 72.7728 121.198 72.679 121.353 72.5079L121.502 72.679C121.105 73.0928 120.448 73.1093 120.034 72.7121C119.836 72.5245 119.725 72.2707 119.714 72.0003C119.687 71.4817 120.084 71.0348 120.608 71.0072C120.63 71.0072 120.652 71.0072 120.674 71.0072C121.187 70.9961 121.612 71.4044 121.623 71.9231C121.623 71.9507 121.623 71.9783 121.623 72.0003C121.623 72.0003 121.623 72.0665 121.623 72.0941H121.629ZM119.974 71.8955H121.364C121.364 71.5093 121.055 71.2003 120.669 71.2003C120.283 71.2003 119.974 71.5093 119.974 71.8955Z" fill="#263238"/>
<path d="M125.469 72.0058C125.469 72.6403 125.232 73.01 124.846 73.01C124.625 73.021 124.437 72.8555 124.426 72.6348C124.426 72.6237 124.426 72.6182 124.426 72.6072C124.272 72.8665 123.985 73.021 123.681 73.01C123.152 73.01 122.721 72.5796 122.721 72.0499C122.721 71.5202 123.152 71.0899 123.681 71.0899C123.979 71.0788 124.261 71.2278 124.421 71.4816V71.1119H124.663V72.5244C124.663 72.7341 124.768 72.8113 124.895 72.8113C125.121 72.8113 125.27 72.5244 125.27 72.0223C125.292 71.2388 124.674 70.5823 123.891 70.5547C123.841 70.5547 123.792 70.5547 123.742 70.5547C122.914 70.5547 122.241 71.2278 122.241 72.0554C122.241 72.8831 122.914 73.5562 123.742 73.5562C123.99 73.5562 124.233 73.501 124.459 73.3907L124.52 73.5727C124.277 73.6886 124.012 73.7438 123.742 73.7438C122.81 73.7438 122.054 72.9879 122.054 72.0554C122.054 71.123 122.81 70.3671 123.742 70.3671C124.63 70.3009 125.403 70.9685 125.463 71.8568C125.463 71.9065 125.463 71.9506 125.463 72.0003L125.469 72.0058ZM124.421 72.0444C124.454 71.6527 124.167 71.3051 123.775 71.2719C123.383 71.2388 123.036 71.5257 123.003 71.9175C123.003 71.9616 123.003 72.0003 123.003 72.0444C122.97 72.4361 123.256 72.7837 123.648 72.8168C124.04 72.85 124.388 72.563 124.421 72.1713C124.421 72.1272 124.421 72.0885 124.421 72.0444Z" fill="#263238"/>
<path d="M127.731 72.0941H126.076C126.098 72.4968 126.446 72.8003 126.848 72.7782C127.075 72.7838 127.295 72.69 127.45 72.5189L127.599 72.69C127.201 73.1038 126.545 73.1203 126.131 72.7231C125.932 72.5355 125.822 72.2817 125.811 72.0113C125.784 71.4927 126.181 71.0458 126.705 71.0182C126.727 71.0182 126.749 71.0182 126.771 71.0182C127.284 71.0071 127.709 71.4154 127.72 71.9341C127.72 71.9616 127.72 71.9892 127.72 72.0113C127.72 72.0113 127.731 72.0665 127.731 72.0941ZM126.076 71.8954H127.466C127.466 71.5092 127.157 71.2002 126.771 71.2002C126.385 71.2002 126.076 71.5092 126.076 71.8954Z" fill="#263238"/>
<path d="M131.516 71.8568V72.9934H131.235V71.8899C131.235 71.4761 131.025 71.2609 130.683 71.2609C130.335 71.2444 130.043 71.5092 130.021 71.8568C130.021 71.8954 130.021 71.9285 130.021 71.9672V72.9989H129.756V71.8954C129.756 71.4816 129.546 71.2664 129.204 71.2664C128.857 71.2499 128.564 71.5147 128.542 71.8623C128.542 71.901 128.542 71.9341 128.542 71.9727V73.0045H128.277V71.0402H128.531V71.3989C128.686 71.1561 128.962 71.0126 129.248 71.0292C129.546 71.0071 129.828 71.1726 129.949 71.443C130.109 71.1726 130.407 71.0126 130.722 71.0292C131.13 71.0016 131.483 71.3106 131.511 71.7189C131.511 71.763 131.511 71.8127 131.511 71.8568H131.516Z" fill="#263238"/>
<path d="M133.712 71.7796V72.9934H133.442V72.69C133.293 72.9107 133.033 73.0321 132.769 73.01C132.322 73.01 132.051 72.7782 132.051 72.4582C132.051 72.1382 132.244 71.9065 132.807 71.9065H133.442V71.7906C133.442 71.454 133.254 71.272 132.89 71.272C132.653 71.272 132.421 71.3492 132.239 71.5037L132.118 71.3051C132.344 71.1285 132.631 71.0347 132.918 71.0402C133.298 70.9851 133.651 71.2444 133.707 71.6251C133.712 71.6747 133.718 71.7244 133.707 71.7796H133.712ZM133.447 72.4031V72.083H132.835C132.454 72.083 132.327 72.232 132.327 72.4362C132.327 72.6403 132.509 72.8058 132.824 72.8058C133.094 72.8169 133.342 72.6569 133.442 72.4031H133.447Z" fill="#263238"/>
<path d="M134.374 70.4113C134.374 70.3064 134.463 70.2181 134.567 70.2181C134.672 70.2181 134.76 70.3064 134.76 70.4113C134.76 70.5161 134.672 70.6044 134.567 70.6044C134.463 70.6044 134.374 70.5161 134.374 70.4113ZM134.429 71.0292H134.694V72.9934H134.429V71.0292Z" fill="#263238"/>
<path d="M135.434 70.2236H135.698V72.9824H135.434V70.2236Z" fill="#263238"/>
<path d="M136.267 72.8058C136.267 72.701 136.349 72.6127 136.454 72.6072C136.454 72.6072 136.46 72.6072 136.465 72.6072C136.576 72.6072 136.664 72.6955 136.664 72.8058C136.664 72.9162 136.576 73.0044 136.465 73.01C136.355 73.01 136.267 72.9217 136.267 72.8113C136.267 72.8113 136.267 72.8113 136.267 72.8058Z" fill="#263238"/>
<path d="M136.973 72.0113C136.956 71.4761 137.376 71.0347 137.911 71.0181C137.933 71.0181 137.961 71.0181 137.983 71.0181C138.292 70.9961 138.584 71.145 138.755 71.4044L138.556 71.5368C138.43 71.3547 138.225 71.2499 138.005 71.2499C137.585 71.2885 137.271 71.6582 137.304 72.0775C137.337 72.4472 137.63 72.7451 138.005 72.7782C138.225 72.7782 138.43 72.6734 138.556 72.4913L138.755 72.6237C138.584 72.8831 138.292 73.0265 137.983 73.01C137.447 73.032 137.001 72.6237 136.973 72.0885C136.973 72.0609 136.973 72.0334 136.973 72.0113Z" fill="#263238"/>
<path d="M139.042 72.0114C139.042 71.4596 139.489 71.0127 140.041 71.0127C140.592 71.0127 141.039 71.4596 141.039 72.0114C141.039 72.5631 140.592 73.01 140.041 73.01C139.506 73.0266 139.059 72.6128 139.042 72.0776C139.042 72.0555 139.042 72.0334 139.042 72.0114ZM140.769 72.0114C140.758 71.6086 140.416 71.2886 140.013 71.2996C139.61 71.3106 139.29 71.6527 139.301 72.0555C139.312 72.4583 139.654 72.7783 140.057 72.7673C140.455 72.7673 140.769 72.4362 140.763 72.0389C140.763 72.0279 140.763 72.0224 140.763 72.0114H140.769Z" fill="#263238"/>
<path d="M144.813 71.8568V72.9934H144.549V71.8899C144.549 71.4761 144.339 71.2609 143.997 71.2609C143.649 71.2444 143.357 71.5092 143.335 71.8568C143.335 71.8954 143.335 71.9285 143.335 71.9672V72.9989H143.07V71.8954C143.07 71.4816 142.86 71.2664 142.518 71.2664C142.17 71.2499 141.878 71.5147 141.856 71.8623C141.856 71.901 141.856 71.9341 141.856 71.9727V73.0045H141.591V71.0402H141.845V71.3989C141.999 71.1561 142.275 71.0126 142.562 71.0292C142.86 71.0071 143.142 71.1726 143.263 71.443C143.423 71.1726 143.721 71.0126 144.035 71.0292C144.444 71.0126 144.791 71.3271 144.808 71.7354C144.808 71.774 144.808 71.8182 144.808 71.8568H144.813Z" fill="#263238"/>
<path d="M101.104 88.5252L101.567 88.79L101.484 88.9445L101.015 88.6741V89.2259H100.844V88.6741L100.375 88.9445L100.287 88.79L100.756 88.5252L100.287 88.2658L100.375 88.1058L100.844 88.3817V87.83H101.015V88.3817L101.484 88.1058L101.567 88.2658L101.104 88.5252Z" fill="#263238"/>
<path d="M102.621 88.5252L103.085 88.79L102.996 88.9445L102.533 88.6741V89.2259H102.356V88.6741L101.893 88.9445L101.799 88.79L102.268 88.5252L101.799 88.2658L101.893 88.1058L102.356 88.3817V87.83H102.544V88.3817L103.007 88.1058L103.096 88.2658L102.621 88.5252Z" fill="#263238"/>
<path d="M104.133 88.5252L104.596 88.79L104.508 88.9445L104.045 88.6741V89.2259H103.874V88.6741L103.41 88.9445L103.322 88.79L103.785 88.5252L103.322 88.2658L103.41 88.1058L103.874 88.3817V87.83H104.045V88.3817L104.508 88.1058L104.596 88.2658L104.133 88.5252Z" fill="#263238"/>
<path d="M105.645 88.5252L106.108 88.79L106.025 88.9445L105.556 88.6741V89.2259H105.385V88.6741L104.916 88.9445L104.828 88.79L105.297 88.5252L104.828 88.2658L104.916 88.1058L105.385 88.3817V87.83H105.556V88.3817L106.025 88.1058L106.108 88.2658L105.645 88.5252Z" fill="#263238"/>
<path d="M107.162 88.5252L107.625 88.79L107.537 88.9445L107.074 88.6741V89.2259H106.897V88.6741L106.434 88.9445L106.34 88.79L106.809 88.5252L106.34 88.2658L106.434 88.1058L106.897 88.3817V87.83H107.074V88.3817L107.537 88.1058L107.625 88.2658L107.162 88.5252Z" fill="#263238"/>
<path d="M108.674 88.5252L109.137 88.79L109.049 88.9445L108.585 88.6741V89.2259H108.414V88.6741L107.951 88.9445L107.863 88.79L108.326 88.5252L107.863 88.2658L107.951 88.1058L108.414 88.3817V87.83H108.613V88.3817L109.077 88.1058L109.165 88.2658L108.674 88.5252Z" fill="#263238"/>
<path d="M110.186 88.5252L110.649 88.79L110.566 88.9445L110.097 88.6741V89.2259H109.926V88.6741L109.457 88.9445L109.369 88.79L109.838 88.5252L109.369 88.2658L109.457 88.1058L109.926 88.3817V87.83H110.097V88.3817L110.566 88.1058L110.649 88.2658L110.186 88.5252Z" fill="#263238"/>
<path d="M111.703 88.5252L112.166 88.79L112.078 88.9445L111.609 88.6741V89.2259H111.438V88.6741L110.975 88.9445L110.881 88.79L111.35 88.5252L110.881 88.2658L110.975 88.1058L111.438 88.3817V87.83H111.609V88.3817L112.078 88.1058L112.166 88.2658L111.703 88.5252Z" fill="#263238"/>
<path d="M113.215 88.5252L113.678 88.79L113.59 88.9445L113.126 88.6741V89.2259H112.955V88.6741L112.492 88.9445L112.404 88.79L112.867 88.5252L112.404 88.2658L112.492 88.1058L112.955 88.3817V87.83H113.126V88.3817L113.59 88.1058L113.678 88.2658L113.215 88.5252Z" fill="#263238"/>
<path d="M114.726 88.5252L115.19 88.79L115.107 88.9445L114.638 88.6741V89.2259H114.467V88.6741L113.998 88.9445L113.91 88.79L114.373 88.5252L113.91 88.2658L113.998 88.1058L114.467 88.3817V87.83H114.638V88.3817L115.107 88.1058L115.19 88.2658L114.726 88.5252Z" fill="#263238"/>
<path d="M116.244 88.5252L116.702 88.79L116.619 88.9445L116.15 88.6741V89.2259H115.979V88.6741L115.515 88.9445L115.422 88.79L115.891 88.5252L115.422 88.2658L115.515 88.1058L115.979 88.3817V87.83H116.15V88.3817L116.619 88.1058L116.702 88.2658L116.244 88.5252Z" fill="#263238"/>
<path d="M100.855 81.0434C100.855 81.5952 100.453 81.9373 99.7906 81.9373H99.0899V82.7594H98.8085V80.1606H99.7851C100.453 80.1606 100.855 80.4917 100.855 81.0434ZM100.58 81.0434C100.58 80.6241 100.304 80.3869 99.7795 80.3869H99.0899V81.6945H99.7851C100.304 81.7055 100.58 81.4683 100.58 81.0434Z" fill="#263238"/>
<path d="M102.858 81.5566V82.7704H102.605V82.4669C102.45 82.6876 102.191 82.809 101.926 82.787C101.484 82.787 101.214 82.5607 101.214 82.2352C101.214 81.9097 101.407 81.6835 101.97 81.6835H102.593V81.5676C102.593 81.231 102.4 81.0489 102.042 81.0489C101.804 81.0489 101.573 81.1262 101.391 81.2807L101.269 81.0821C101.495 80.9055 101.782 80.8117 102.069 80.8172C102.45 80.762 102.803 81.0324 102.853 81.4076C102.858 81.4572 102.864 81.5069 102.853 81.5566H102.858ZM102.593 82.18V81.86H101.992C101.611 81.86 101.49 82.009 101.49 82.2131C101.49 82.4173 101.672 82.5828 101.987 82.5828C102.251 82.5938 102.5 82.4283 102.593 82.18Z" fill="#263238"/>
<path d="M103.305 82.5497L103.421 82.34C103.625 82.4835 103.874 82.5607 104.122 82.5607C104.491 82.5607 104.646 82.4338 104.646 82.2352C104.646 81.7276 103.377 82.1304 103.377 81.3524C103.377 81.0324 103.653 80.8007 104.149 80.8007C104.392 80.8007 104.635 80.8614 104.845 80.9827L104.729 81.1924C104.558 81.082 104.354 81.0214 104.149 81.0269C103.796 81.0269 103.642 81.1648 103.642 81.3524C103.642 81.9042 104.911 81.4848 104.911 82.2352C104.911 82.5773 104.613 82.787 104.1 82.787C103.818 82.798 103.537 82.7152 103.305 82.5497Z" fill="#263238"/>
<path d="M105.126 82.5497L105.247 82.34C105.452 82.4835 105.694 82.5607 105.943 82.5607C106.318 82.5607 106.494 82.4338 106.494 82.2352C106.494 81.7276 105.225 82.1304 105.225 81.3524C105.225 81.0324 105.501 80.8007 106.003 80.8007C106.246 80.8007 106.483 80.8614 106.693 80.9827L106.577 81.1924C106.412 81.0876 106.224 81.0269 106.025 81.0269C105.667 81.0269 105.512 81.1648 105.512 81.3524C105.512 81.9042 106.781 81.4848 106.781 82.2352C106.781 82.5773 106.483 82.787 105.976 82.787C105.672 82.809 105.374 82.7263 105.126 82.5497Z" fill="#263238"/>
<path d="M110.064 80.8118L109.319 82.7705H109.071L108.453 81.1649L107.835 82.7705H107.581L106.847 80.8118H107.101L107.714 82.467L108.343 80.8118H108.574L109.198 82.467L109.821 80.8118H110.064Z" fill="#263238"/>
<path d="M110.208 81.7883C110.208 81.2366 110.655 80.7897 111.206 80.7897C111.758 80.7897 112.205 81.2366 112.205 81.7883C112.205 82.3401 111.758 82.787 111.206 82.787C110.671 82.8036 110.224 82.3898 110.208 81.8546C110.208 81.8325 110.208 81.8104 110.208 81.7883ZM111.935 81.7883C111.935 81.3856 111.609 81.06 111.206 81.06C110.804 81.06 110.478 81.3856 110.478 81.7883C110.478 82.1911 110.804 82.5167 111.206 82.5167C111.609 82.5167 111.935 82.1911 111.935 81.7883Z" fill="#263238"/>
<path d="M113.733 80.7952V81.0435H113.667C113.319 81.0269 113.022 81.2973 113.005 81.6504C113.005 81.689 113.005 81.7276 113.011 81.7663V82.7649H112.746V80.8062H113.027V81.1869C113.165 80.9276 113.441 80.7731 113.733 80.7952Z" fill="#263238"/>
<path d="M115.979 80.0061V82.7649H115.725V82.3786C115.565 82.638 115.278 82.7925 114.969 82.7814C114.417 82.7428 114.009 82.2628 114.048 81.711C114.086 81.22 114.478 80.8282 114.969 80.7896C115.267 80.7786 115.549 80.9275 115.714 81.1758V80.0006H115.979V80.0061ZM115.72 81.7938C115.698 81.391 115.355 81.082 114.953 81.1041C114.55 81.1262 114.241 81.4683 114.263 81.871C114.285 82.2573 114.605 82.5607 114.991 82.5607C115.389 82.5662 115.714 82.2517 115.72 81.8545C115.72 81.8324 115.72 81.8103 115.72 81.7938Z" fill="#263238"/>
<path d="M119.902 102.562V105.177H119.648V102.804H119.03V102.562H119.902Z" fill="#263238"/>
<path d="M122.307 104.923V105.166H120.476V104.973L121.579 103.908C121.872 103.621 121.932 103.444 121.932 103.268C121.932 102.964 121.717 102.777 121.32 102.777C121.049 102.76 120.79 102.865 120.608 103.069L120.415 102.904C120.652 102.65 120.994 102.512 121.342 102.529C121.894 102.529 122.208 102.799 122.208 103.235C122.192 103.555 122.032 103.853 121.778 104.051L120.889 104.923H122.307Z" fill="#263238"/>
<path d="M124.371 104.416C124.371 104.851 124.051 105.188 123.422 105.188C123.08 105.199 122.743 105.078 122.484 104.851L122.611 104.636C122.832 104.84 123.124 104.945 123.422 104.94C123.858 104.94 124.095 104.741 124.095 104.416C124.095 104.09 123.874 103.897 123.389 103.897H123.201V103.698L123.924 102.793H122.589V102.562H124.244V102.755L123.51 103.665C124.09 103.704 124.371 103.996 124.371 104.416Z" fill="#263238"/>
<path d="M126.964 104.476H126.44V105.166H126.175V104.476H124.702V104.283L126.087 102.551H126.385L125.05 104.217H126.181V103.61H126.44V104.217H126.964V104.476Z" fill="#263238"/>
<path d="M129.96 104.394C129.96 104.84 129.651 105.188 129.011 105.188C128.669 105.199 128.333 105.078 128.073 104.851L128.206 104.636C128.421 104.84 128.708 104.951 129.006 104.94C129.453 104.94 129.684 104.725 129.684 104.388C129.684 104.051 129.475 103.836 128.813 103.836H128.261L128.399 102.523H129.828V102.766H128.631L128.542 103.593H128.879C129.662 103.621 129.96 103.936 129.96 104.394Z" fill="#263238"/>
<path d="M132.261 104.382C132.261 104.835 131.886 105.193 131.439 105.193C131.417 105.193 131.395 105.193 131.367 105.193C130.672 105.193 130.297 104.708 130.297 103.886C130.297 103.064 130.782 102.534 131.489 102.534C131.704 102.529 131.919 102.573 132.112 102.677L132.002 102.893C131.847 102.804 131.671 102.76 131.494 102.771C130.942 102.771 130.567 103.13 130.567 103.842V104.051C130.722 103.759 131.036 103.582 131.367 103.604C131.803 103.549 132.2 103.858 132.256 104.294C132.256 104.327 132.261 104.355 132.261 104.388V104.382ZM131.996 104.382C131.996 104.035 131.742 103.831 131.34 103.831C131.009 103.792 130.711 104.024 130.672 104.355C130.672 104.366 130.672 104.371 130.672 104.382C130.672 104.669 130.909 104.934 131.362 104.934C131.665 104.984 131.947 104.78 131.996 104.476C131.996 104.449 132.002 104.421 132.002 104.393V104.382H131.996Z" fill="#263238"/>
<path d="M134.38 102.562V102.755L133.276 105.177H132.984L134.06 102.804H132.719V103.29H132.454V102.562H134.38Z" fill="#263238"/>
<path d="M136.67 104.438C136.67 104.901 136.278 105.188 135.654 105.188C135.031 105.188 134.65 104.901 134.65 104.438C134.65 104.134 134.854 103.864 135.152 103.792C134.904 103.726 134.733 103.494 134.744 103.24C134.744 102.815 135.103 102.551 135.654 102.551C136.206 102.551 136.576 102.815 136.576 103.24C136.576 103.494 136.399 103.72 136.156 103.792C136.454 103.864 136.67 104.129 136.67 104.438ZM136.394 104.438C136.394 104.118 136.118 103.913 135.654 103.913C135.191 103.913 134.92 104.118 134.92 104.438C134.92 104.758 135.191 104.989 135.654 104.989C136.118 104.989 136.394 104.769 136.394 104.432V104.438ZM135.649 103.704C136.057 103.704 136.3 103.522 136.3 103.235C136.3 102.948 136.041 102.766 135.649 102.766C135.257 102.766 135.003 102.942 135.003 103.235C135.003 103.527 135.246 103.704 135.649 103.704Z" fill="#263238"/>
<path d="M139.903 103.836C139.903 104.725 139.417 105.188 138.705 105.188C138.49 105.194 138.275 105.144 138.088 105.045L138.198 104.829C138.352 104.918 138.529 104.962 138.705 104.951C139.257 104.951 139.627 104.587 139.627 103.88C139.627 103.809 139.627 103.742 139.627 103.671C139.478 103.963 139.163 104.14 138.832 104.118C138.396 104.167 138.005 103.853 137.955 103.417C137.955 103.389 137.955 103.362 137.955 103.334C137.955 102.882 138.33 102.523 138.777 102.523C138.799 102.523 138.821 102.523 138.849 102.523C139.517 102.523 139.908 103.009 139.908 103.831L139.903 103.836ZM139.533 103.318C139.533 103.031 139.296 102.766 138.843 102.766C138.54 102.716 138.259 102.92 138.209 103.224C138.209 103.257 138.203 103.29 138.203 103.318C138.203 103.665 138.457 103.869 138.86 103.869C139.191 103.897 139.483 103.649 139.511 103.318H139.533Z" fill="#263238"/>
<path d="M141.006 102.562V105.177H140.736V102.804H140.118V102.562H141.006Z" fill="#263238"/>
<path d="M141.624 103.858C141.624 103.025 142.066 102.529 142.667 102.529C143.268 102.529 143.71 103.025 143.71 103.858C143.71 104.691 143.274 105.188 142.667 105.188C142.06 105.188 141.624 104.691 141.624 103.858ZM143.434 103.858C143.434 103.163 143.125 102.755 142.667 102.755C142.209 102.755 141.9 103.141 141.9 103.858C141.9 104.576 142.215 104.962 142.667 104.962C143.119 104.962 143.434 104.553 143.434 103.858Z" fill="#263238"/>
<path d="M144.813 102.562V105.177H144.543V102.804H143.925V102.562H144.813Z" fill="#263238"/>
<path d="M147.136 102.562V105.177H146.866V102.804H146.248V102.562H147.136Z" fill="#263238"/>
<path d="M148.477 102.562V105.177H148.212V102.804H147.594V102.562H148.477Z" fill="#263238"/>
<path d="M150.883 104.923V105.166H149.051V104.973L150.154 103.908C150.447 103.621 150.507 103.444 150.507 103.268C150.507 102.964 150.292 102.777 149.895 102.777C149.625 102.76 149.365 102.865 149.183 103.069L148.99 102.904C149.227 102.65 149.569 102.512 149.917 102.529C150.469 102.529 150.783 102.799 150.783 103.235C150.767 103.555 150.607 103.853 150.353 104.051L149.443 104.923H150.883Z" fill="#263238"/>
<path d="M151.942 102.562V105.177H151.65V102.804H151.037V102.562H151.942Z" fill="#263238"/>
<path d="M107.945 101.955V101.558C107.945 101.171 107.636 100.862 107.25 100.862H100.204C99.8182 100.862 99.5092 101.171 99.5092 101.558V101.955H107.945Z" fill="#263238"/>
<path d="M99.5092 102.501V105.425C99.5092 105.811 99.8182 106.12 100.204 106.12H107.25C107.636 106.12 107.945 105.811 107.945 105.425V102.501H99.5092Z" fill="#263238"/>
<path d="M99.614 117.9C99.614 117.067 100.05 116.576 100.657 116.576C101.264 116.576 101.7 117.067 101.7 117.9C101.7 118.734 101.258 119.23 100.657 119.23C100.055 119.23 99.614 118.734 99.614 117.9ZM101.424 117.9C101.424 117.205 101.109 116.797 100.657 116.797C100.204 116.797 99.8899 117.183 99.8899 117.9C99.8899 118.618 100.199 119.004 100.657 119.004C101.115 119.004 101.44 118.601 101.44 117.9H101.424Z" fill="#263238"/>
<path d="M104.089 118.48C104.089 118.943 103.697 119.23 103.073 119.23C102.45 119.23 102.069 118.943 102.069 118.48C102.069 118.176 102.273 117.906 102.571 117.84C102.329 117.762 102.169 117.542 102.163 117.288C102.163 116.863 102.522 116.598 103.073 116.598C103.625 116.598 103.995 116.863 103.995 117.288C103.989 117.542 103.824 117.762 103.581 117.84C103.879 117.906 104.089 118.176 104.089 118.48ZM103.813 118.48C103.813 118.16 103.537 117.961 103.073 117.961C102.61 117.961 102.34 118.16 102.34 118.48C102.34 118.8 102.616 119.031 103.073 119.031C103.531 119.031 103.813 118.8 103.813 118.474V118.48ZM103.096 117.746C103.504 117.746 103.747 117.564 103.747 117.282C103.747 117.001 103.487 116.808 103.096 116.808C102.704 116.808 102.45 116.984 102.45 117.277C102.45 117.569 102.671 117.746 103.096 117.746Z" fill="#263238"/>
<path d="M105.407 116.068H105.65L104.414 119.578H104.199L105.407 116.068Z" fill="#263238"/>
<path d="M107.51 118.965V119.208H105.678V119.015L106.781 117.956C107.074 117.663 107.129 117.487 107.129 117.31C107.129 117.007 106.919 116.819 106.522 116.819C106.252 116.802 105.987 116.907 105.805 117.111L105.617 116.946C105.854 116.692 106.196 116.554 106.544 116.576C107.096 116.576 107.405 116.841 107.405 117.277C107.394 117.597 107.239 117.9 106.98 118.093L106.092 118.965H107.51Z" fill="#263238"/>
<path d="M109.601 118.435C109.601 118.882 109.292 119.23 108.652 119.23C108.31 119.241 107.973 119.12 107.714 118.893L107.846 118.678C108.061 118.882 108.348 118.993 108.646 118.982C109.093 118.982 109.325 118.767 109.325 118.43C109.325 118.093 109.121 117.878 108.453 117.878H107.901L108.034 116.571H109.463V116.808H108.265L108.177 117.641H108.514C109.303 117.669 109.601 117.978 109.601 118.435Z" fill="#263238"/>
<path d="M100.833 114.915V115.064H99.6858V113.442H100.789V113.597H99.8513V114.148H100.69V114.297H99.8513V114.899L100.833 114.915Z" fill="#263238"/>
<path d="M102.229 115.064L101.711 114.347L101.159 115.064H100.96L101.578 114.231L101.027 113.442H101.22L101.711 114.104L102.196 113.442H102.378L101.827 114.226L102.445 115.064H102.229Z" fill="#263238"/>
<path d="M103.951 113.999C103.951 114.341 103.697 114.551 103.289 114.551H102.853V115.064H102.682V113.442H103.289C103.697 113.442 103.951 113.652 103.951 113.999ZM103.78 113.999C103.78 113.74 103.609 113.591 103.283 113.591H102.853V114.402H103.283C103.609 114.402 103.78 114.253 103.78 113.999Z" fill="#263238"/>
<path d="M104.955 113.442H105.612C106.058 113.442 106.423 113.806 106.423 114.253C106.423 114.7 106.058 115.064 105.612 115.064H104.955V113.442ZM105.601 114.915C105.965 114.915 106.263 114.623 106.263 114.253C106.263 113.884 105.97 113.591 105.601 113.591H105.12V114.915H105.595H105.601Z" fill="#263238"/>
<path d="M107.752 114.308V115.064H107.592V114.871C107.499 115.009 107.339 115.092 107.173 115.075C106.903 115.075 106.732 114.932 106.732 114.722C106.732 114.513 106.853 114.375 107.201 114.375H107.587V114.303C107.603 114.137 107.487 113.994 107.322 113.977C107.294 113.977 107.272 113.977 107.245 113.977C107.096 113.977 106.952 114.027 106.836 114.121L106.765 113.999C106.908 113.889 107.079 113.828 107.261 113.834C107.499 113.801 107.714 113.961 107.752 114.198C107.758 114.237 107.758 114.275 107.752 114.308ZM107.587 114.695V114.496H107.206C106.969 114.496 106.892 114.59 106.892 114.717C106.892 114.844 107.007 114.943 107.201 114.943C107.366 114.954 107.526 114.855 107.587 114.7V114.695Z" fill="#263238"/>
<path d="M108.839 114.987C108.768 115.048 108.679 115.081 108.585 115.075C108.409 115.092 108.249 114.965 108.227 114.788C108.227 114.766 108.227 114.744 108.227 114.722V113.983H108.012V113.845H108.227V113.597H108.392V113.862H108.762V113.999H108.392V114.7C108.376 114.805 108.448 114.904 108.552 114.921C108.569 114.921 108.585 114.921 108.602 114.921C108.668 114.921 108.734 114.899 108.784 114.86L108.839 114.987Z" fill="#263238"/>
<path d="M110.158 114.507H109.165C109.181 114.755 109.397 114.943 109.645 114.926C109.788 114.932 109.926 114.871 110.02 114.766L110.114 114.877C109.992 115.009 109.821 115.081 109.639 115.075C109.308 115.092 109.021 114.838 109.005 114.507C109.005 114.49 109.005 114.468 109.005 114.452C108.988 114.132 109.231 113.85 109.557 113.834C109.568 113.834 109.584 113.834 109.595 113.834C109.899 113.812 110.163 114.038 110.186 114.341C110.186 114.38 110.186 114.413 110.186 114.452L110.158 114.507ZM109.137 114.38H110.003C109.976 114.143 109.761 113.966 109.523 113.994C109.319 114.016 109.165 114.176 109.137 114.38Z" fill="#263238"/>
<path d="M130.429 116.598V119.208H130.164V116.835H129.546V116.598H130.429Z" fill="#263238"/>
<path d="M132.835 118.965V119.208H131.003V119.015L132.107 117.956C132.399 117.663 132.46 117.487 132.46 117.31C132.46 117.007 132.244 116.819 131.847 116.819C131.577 116.802 131.318 116.907 131.135 117.111L130.942 116.946C131.18 116.692 131.522 116.554 131.869 116.576C132.421 116.576 132.736 116.841 132.736 117.277C132.719 117.597 132.559 117.895 132.305 118.093L131.417 118.965H132.835Z" fill="#263238"/>
<path d="M134.898 118.458C134.898 118.893 134.578 119.23 133.949 119.23C133.607 119.241 133.271 119.12 133.011 118.893L133.144 118.678C133.359 118.882 133.651 118.993 133.949 118.982C134.385 118.982 134.623 118.783 134.623 118.458C134.623 118.132 134.402 117.939 133.916 117.939H133.729V117.74L134.451 116.835H133.116V116.598H134.771V116.786L134.032 117.713C134.617 117.746 134.898 118.038 134.898 118.458Z" fill="#263238"/>
<path d="M129.635 114.253C129.629 113.801 129.988 113.431 130.44 113.426C130.457 113.426 130.468 113.426 130.484 113.426C130.705 113.42 130.92 113.503 131.075 113.663L130.97 113.773C130.843 113.646 130.672 113.575 130.49 113.58C130.12 113.547 129.795 113.817 129.756 114.187C129.717 114.557 129.993 114.882 130.363 114.921C130.402 114.921 130.446 114.921 130.484 114.921C130.666 114.926 130.838 114.855 130.964 114.728L131.069 114.838C130.915 114.998 130.7 115.086 130.473 115.075C130.026 115.092 129.646 114.744 129.629 114.297C129.629 114.281 129.629 114.27 129.629 114.253H129.635Z" fill="#263238"/>
<path d="M133.651 113.442L133.1 115.064H132.918L132.443 113.679L131.969 115.064H131.787L131.235 113.442H131.411L131.88 114.838L132.366 113.442H132.526L133 114.844L133.475 113.442H133.651Z" fill="#263238"/>
<path d="M115.957 133.228H114.5L114.186 133.929H113.899L115.091 131.319H115.366L116.558 133.929H116.266L115.957 133.228ZM115.852 133.007L115.234 131.606L114.605 133.007H115.852Z" fill="#263238"/>
<path d="M116.718 132.946C116.702 132.411 117.116 131.964 117.651 131.948C117.678 131.948 117.706 131.948 117.728 131.948C118.037 131.931 118.329 132.08 118.495 132.34L118.302 132.472C118.175 132.29 117.971 132.18 117.75 132.18C117.325 132.18 116.983 132.522 116.983 132.946C116.983 133.371 117.325 133.713 117.75 133.713C117.971 133.713 118.175 133.603 118.302 133.426L118.495 133.559C118.324 133.813 118.031 133.962 117.728 133.945C117.193 133.967 116.746 133.559 116.718 133.024C116.718 132.996 116.718 132.969 116.718 132.946Z" fill="#263238"/>
<path d="M120.067 133.807C119.952 133.901 119.803 133.951 119.654 133.945C119.367 133.962 119.118 133.747 119.102 133.46C119.102 133.438 119.102 133.416 119.102 133.393V132.191H118.754V131.964H119.096V131.534H119.361V131.964H119.963V132.191H119.361V133.36C119.334 133.531 119.455 133.691 119.626 133.719C119.654 133.719 119.676 133.719 119.703 133.719C119.808 133.719 119.913 133.686 119.996 133.62L120.067 133.807Z" fill="#263238"/>
<path d="M120.492 131.346C120.492 131.242 120.58 131.153 120.685 131.153C120.79 131.153 120.878 131.242 120.878 131.346C120.878 131.451 120.79 131.54 120.685 131.54C120.58 131.54 120.492 131.451 120.492 131.346ZM120.553 131.964H120.818V133.929H120.553V131.964Z" fill="#263238"/>
<path d="M121.353 132.947C121.353 132.395 121.8 131.948 122.352 131.948C122.903 131.948 123.35 132.395 123.35 132.947C123.35 133.498 122.909 133.94 122.357 133.945C121.822 133.962 121.37 133.542 121.353 133.007C121.353 132.985 121.353 132.969 121.353 132.947ZM123.08 132.947C123.058 132.544 122.716 132.235 122.313 132.257C121.91 132.279 121.601 132.621 121.623 133.024C121.645 133.41 121.965 133.713 122.357 133.713C122.754 133.713 123.08 133.399 123.08 133.002C123.08 132.985 123.08 132.963 123.08 132.947Z" fill="#263238"/>
<path d="M125.717 132.792V133.929H125.452V132.825C125.491 132.522 125.281 132.246 124.978 132.207C124.939 132.207 124.901 132.202 124.862 132.207C124.509 132.18 124.2 132.444 124.178 132.798C124.178 132.836 124.178 132.875 124.178 132.913V133.945H123.913V131.981H124.167V132.362C124.327 132.108 124.614 131.964 124.912 131.981C125.326 131.953 125.69 132.268 125.717 132.682C125.717 132.72 125.717 132.759 125.717 132.798V132.792Z" fill="#263238"/>
<path d="M127.726 131.556V132.582H129.072V132.82H127.726V133.923H127.45V131.313H129.237V131.551H127.726V131.556Z" fill="#263238"/>
<path d="M129.657 131.346C129.657 131.242 129.745 131.153 129.85 131.153C129.955 131.153 130.043 131.242 130.043 131.346C130.043 131.451 129.955 131.54 129.85 131.54C129.745 131.54 129.657 131.451 129.657 131.346ZM129.712 131.964H129.977V133.929H129.712V131.964Z" fill="#263238"/>
<path d="M132.531 131.964V133.691C132.603 134.16 132.283 134.596 131.82 134.668C131.731 134.679 131.643 134.679 131.555 134.668C131.224 134.685 130.898 134.574 130.639 134.37L130.771 134.166C130.986 134.348 131.262 134.442 131.544 134.436C132.04 134.436 132.267 134.205 132.267 133.725V133.46C132.096 133.713 131.809 133.857 131.505 133.84C130.981 133.879 130.523 133.487 130.479 132.963C130.435 132.439 130.832 131.981 131.356 131.937C131.406 131.937 131.455 131.937 131.5 131.937C131.809 131.926 132.101 132.075 132.272 132.329V131.953L132.526 131.964H132.531ZM132.278 132.897C132.289 132.483 131.969 132.141 131.555 132.13C131.141 132.119 130.799 132.439 130.788 132.853C130.777 133.267 131.097 133.609 131.511 133.62C131.516 133.62 131.527 133.62 131.533 133.62C131.919 133.642 132.25 133.349 132.278 132.963C132.278 132.947 132.278 132.924 132.278 132.908V132.897Z" fill="#263238"/>
<path d="M135.042 131.964V133.929H134.788V133.57C134.639 133.813 134.369 133.956 134.082 133.945C133.662 133.984 133.293 133.675 133.254 133.256C133.254 133.206 133.254 133.151 133.254 133.101V131.964H133.519V133.068C133.475 133.371 133.685 133.647 133.988 133.691C134.027 133.697 134.071 133.697 134.109 133.691C134.463 133.708 134.76 133.438 134.783 133.084C134.783 133.051 134.783 133.013 134.783 132.98V131.948L135.047 131.959L135.042 131.964Z" fill="#263238"/>
<path d="M136.752 131.948V132.207H136.686C136.333 132.191 136.035 132.467 136.018 132.82C136.018 132.858 136.018 132.897 136.024 132.936V133.934H135.759V131.97H136.013V132.356C136.151 132.08 136.443 131.92 136.752 131.948Z" fill="#263238"/>
<path d="M138.959 133.029H137.304C137.326 133.432 137.674 133.736 138.076 133.713C138.303 133.719 138.523 133.625 138.678 133.454L138.827 133.625C138.43 134.039 137.773 134.056 137.359 133.658C137.161 133.471 137.05 133.217 137.039 132.947C137.012 132.422 137.414 131.975 137.939 131.948C137.961 131.948 137.977 131.948 137.999 131.948C138.512 131.937 138.943 132.345 138.948 132.864C138.948 132.891 138.948 132.919 138.948 132.947C138.948 132.947 138.959 132.996 138.959 133.029ZM137.304 132.831H138.694C138.694 132.444 138.38 132.135 137.999 132.135C137.619 132.135 137.31 132.444 137.304 132.831Z" fill="#263238"/>
<path d="M117.127 144.395V145.543H116.106V144.439C115.195 144.412 114.307 144.125 113.551 143.617L114.103 142.37C114.693 142.784 115.377 143.032 116.095 143.099V141.388C114.953 141.107 113.684 140.732 113.684 139.264C113.684 138.161 114.473 137.245 116.095 137.057V135.92H117.116V137.024C117.849 137.068 118.561 137.283 119.196 137.653L118.682 138.911C118.202 138.624 117.667 138.436 117.116 138.359V140.103C118.252 140.368 119.505 140.748 119.505 142.194C119.516 143.281 118.738 144.202 117.127 144.395ZM116.106 139.871V138.425C115.554 138.547 115.344 138.845 115.344 139.181C115.344 139.518 115.653 139.727 116.106 139.871ZM117.866 142.337C117.866 141.979 117.568 141.786 117.127 141.631V143.043C117.64 142.933 117.866 142.668 117.866 142.337Z" fill="#263238"/>
<path d="M125.557 142.961V144.318H120.139V143.242L122.898 140.627C123.538 140.02 123.648 139.656 123.648 139.303C123.648 138.751 123.256 138.414 122.501 138.414C121.916 138.392 121.358 138.663 121.016 139.132L119.808 138.354C120.47 137.46 121.541 136.958 122.655 137.018C124.255 137.018 125.32 137.841 125.32 139.143C125.32 139.838 125.121 140.472 124.117 141.405L122.462 142.961H125.557Z" fill="#263238"/>
<path d="M126.225 140.732C126.225 138.365 127.538 137.018 129.298 137.018C131.058 137.018 132.371 138.365 132.371 140.732C132.371 143.099 131.069 144.439 129.298 144.439C127.527 144.439 126.225 143.099 126.225 140.732ZM130.705 140.732C130.705 139.076 130.153 138.425 129.298 138.425C128.443 138.425 127.908 139.099 127.908 140.732C127.908 142.365 128.459 143.033 129.298 143.033C130.137 143.033 130.683 142.359 130.683 140.732H130.705Z" fill="#263238"/>
<path d="M133.182 140.732C133.182 138.365 134.496 137.018 136.256 137.018C138.016 137.018 139.329 138.365 139.329 140.732C139.329 143.099 138.027 144.439 136.256 144.439C134.485 144.439 133.182 143.099 133.182 140.732ZM137.657 140.732C137.657 139.076 137.105 138.425 136.256 138.425C135.406 138.425 134.86 139.099 134.86 140.732C134.86 142.365 135.412 143.033 136.256 143.033C137.1 143.033 137.657 142.359 137.657 140.732Z" fill="#263238"/>
<path d="M137.939 162.581H115.063C112.111 162.581 109.717 160.181 109.711 157.229C109.711 154.272 112.106 151.877 115.063 151.872H137.939C140.896 151.872 143.291 154.266 143.291 157.224C143.291 160.186 140.896 162.581 137.939 162.581Z" fill="#263238"/>
<path d="M119.163 156.633C119.163 157.306 118.677 157.709 117.877 157.709H117.027V158.702H116.696V155.557H117.877C118.677 155.579 119.163 155.982 119.163 156.633ZM118.826 156.633C118.826 156.131 118.495 155.844 117.866 155.844H117.027V157.417H117.866C118.495 157.439 118.826 157.152 118.826 156.633Z" fill="white"/>
<path d="M121.574 157.257V158.724H121.27V158.355C121.088 158.625 120.779 158.774 120.454 158.746C119.902 158.746 119.593 158.47 119.593 158.057C119.593 157.643 119.825 157.389 120.503 157.389H121.254V157.246C121.254 156.843 121.027 156.622 120.586 156.622C120.299 156.622 120.018 156.716 119.797 156.898L119.654 156.661C119.929 156.446 120.272 156.33 120.619 156.341C121.077 156.274 121.502 156.595 121.568 157.052C121.579 157.119 121.579 157.19 121.568 157.257H121.574ZM121.254 158.013V157.626H120.514C120.056 157.626 119.907 157.808 119.907 158.051C119.907 158.294 120.128 158.498 120.503 158.498C120.834 158.52 121.138 158.321 121.254 158.013Z" fill="white"/>
<path d="M124.382 156.357L123.201 159.006C123.003 159.469 122.754 159.618 122.418 159.618C122.208 159.618 122.004 159.535 121.855 159.392L122.004 159.155C122.114 159.27 122.274 159.337 122.434 159.337C122.65 159.337 122.793 159.237 122.925 158.939L123.03 158.708L121.971 156.346H122.307L123.196 158.36L124.062 156.357H124.382Z" fill="white"/>
<path d="M127.08 158.746V159.265H126.854V158.752C126.457 158.752 126.076 158.603 125.778 158.344L125.91 158.084C126.17 158.316 126.506 158.454 126.854 158.465V157.284C126.357 157.163 125.855 157.008 125.855 156.412C125.855 155.982 126.164 155.607 126.854 155.557V155.039H127.08V155.53C127.406 155.53 127.72 155.629 127.991 155.806L127.88 156.07C127.637 155.921 127.362 155.833 127.08 155.811V157.003C127.588 157.124 128.123 157.268 128.123 157.869C128.123 158.327 127.792 158.708 127.08 158.746ZM126.854 156.97V155.866C126.39 155.905 126.181 156.142 126.181 156.418C126.181 156.694 126.484 156.87 126.854 156.97ZM127.792 157.913C127.792 157.555 127.466 157.433 127.08 157.361V158.465C127.571 158.426 127.792 158.2 127.792 157.913Z" fill="white"/>
<path d="M130.716 158.437V158.724H128.509V158.498L129.817 157.212C130.17 156.865 130.236 156.661 130.236 156.434C130.236 156.07 129.982 155.85 129.502 155.85C129.177 155.833 128.862 155.96 128.642 156.197L128.41 155.999C128.697 155.695 129.1 155.535 129.513 155.552C130.148 155.552 130.556 155.877 130.556 156.401C130.54 156.788 130.352 157.152 130.037 157.383L128.967 158.437H130.716Z" fill="white"/>
<path d="M131.102 157.152C131.102 156.148 131.627 155.552 132.355 155.552C133.083 155.552 133.613 156.148 133.613 157.152C133.613 158.156 133.061 158.752 132.355 158.752C131.649 158.752 131.102 158.156 131.102 157.152ZM133.282 157.152C133.282 156.313 132.907 155.85 132.355 155.85C131.803 155.85 131.428 156.313 131.428 157.152C131.428 157.99 131.809 158.454 132.355 158.454C132.901 158.454 133.282 157.99 133.282 157.152Z" fill="white"/>
<path d="M134.076 157.152C134.076 156.148 134.628 155.552 135.334 155.552C136.041 155.552 136.592 156.148 136.592 157.152C136.592 158.156 136.041 158.752 135.334 158.752C134.628 158.752 134.076 158.156 134.076 157.152ZM136.283 157.152C136.283 156.313 135.908 155.85 135.362 155.85C134.816 155.85 134.435 156.313 134.435 157.152C134.435 157.99 134.81 158.454 135.362 158.454C135.914 158.454 136.256 157.99 136.256 157.152H136.283Z" fill="white"/>
<path d="M91.8895 145.731C92.7172 158.448 86.8245 172.612 86.8245 172.612L54.994 163.651L49.4435 162.084C54.9609 154.421 57.5873 139.325 56.1472 127.109C56.0369 126.188 55.9706 125.321 55.921 124.494C55.3692 114.419 59.557 111.472 63.0937 107.02C66.956 102.198 75.5522 83.9898 75.5522 79.6807C75.5522 75.3715 86.3389 64.8221 83.9388 52.8491C83.9388 52.8491 87.1997 50.8242 90.4771 52.4849C91.9668 53.2353 93.451 54.7416 94.6483 57.5334C97.4567 64.0937 93.5117 82.638 90.157 87.1845L83.6961 113.933C83.6961 113.933 85.8755 117.691 88.0163 124.51C90.146 131.407 91.4426 138.53 91.8895 145.731Z" fill="white"/>
<path opacity="0.4" d="M55.921 124.494C57.7252 129.432 59.6398 132.77 59.4743 139.689C59.3088 146.608 55.612 157.257 56.6659 162.791C56.0645 162.967 55.5017 163.26 55.0106 163.651L49.46 162.084C54.9775 154.421 57.6038 139.325 56.1638 127.109C56.0369 126.188 55.9707 125.321 55.921 124.494Z" fill="#92E3A9"/>
<path opacity="0.4" d="M90.157 87.1844L83.6961 113.933C83.6961 113.933 85.8755 117.691 88.0163 124.51C83.6409 117.459 79.9221 115.351 79.9221 115.351C82.8353 111.859 85.0809 86.3126 85.0809 86.3126C85.0809 86.3126 94.2124 75.5811 93.3572 64.353C93.0813 60.259 92.1102 56.2478 90.4771 52.4849C91.9668 53.2352 93.451 54.7415 94.6483 57.5334C97.4567 64.0937 93.5117 82.638 90.157 87.1844Z" fill="#92E3A9"/>
<path d="M49.4435 162.084C54.9609 154.421 57.5873 139.325 56.1527 127.109C54.7182 114.893 59.2646 111.837 63.0992 107.014C66.9339 102.192 75.5522 83.9898 75.5522 79.6751C75.5522 75.3605 86.3334 64.8276 83.9388 52.8491C83.9388 52.8491 90.8191 48.5841 94.6483 57.5334C97.4567 64.0993 93.5117 82.638 90.157 87.19L83.7016 113.933C83.7016 113.933 90.5929 125.823 91.8895 145.731C92.7172 158.448 86.8245 172.617 86.8245 172.617" stroke="#263238" stroke-linecap="round" stroke-linejoin="round"/>
<path d="M70.7189 182.792C70.7189 182.792 77.9634 187.25 82.1898 194.301" stroke="#263238" stroke-linecap="round" stroke-linejoin="round"/>
<path d="M91.0674 191.228C91.0674 191.228 84.8271 192.116 79.1883 185.368C75.5743 181.048 64.6 179.095 62.084 167.795" stroke="#263238" stroke-linecap="round" stroke-linejoin="round"/>
</svg>
