<svg width="51" height="51" viewBox="0 0 51 51" fill="none" xmlns="http://www.w3.org/2000/svg">
<path d="M41.3891 24.3483H43.3231C43.6486 23.2705 44.2793 22.417 45.3394 21.924C46.1025 21.5688 46.8993 21.4986 47.7097 21.6998C49.3951 22.1172 50.5215 23.6379 50.4445 25.3612C50.3702 27.0169 49.0683 28.4715 47.4585 28.7227C45.7878 28.9833 43.9619 28.1392 43.3217 26.0175H41.2851C41.0096 30.1137 39.4713 33.6414 36.5731 36.5302C33.687 39.4055 30.1702 40.9397 26.0713 41.2138V43.2356C28.2024 44.1499 29.137 45.6396 28.7494 47.5087C28.4117 49.1348 26.937 50.3449 25.2704 50.3624C23.5741 50.38 22.0804 49.201 21.7076 47.5506C21.289 45.6895 22.2128 44.1972 24.3939 43.2221V41.2179C20.3058 40.9397 16.7674 39.4163 13.8704 36.5248C10.9735 33.6332 9.43527 30.107 9.16246 26.0148H7.12584C6.79766 27.0912 6.16965 27.9475 5.10813 28.4391C4.34372 28.7929 3.54825 28.8645 2.73792 28.6619C1.04975 28.2405 -0.0698543 26.7293 0.00577608 25.0006C0.0773549 23.3664 1.34957 21.9159 2.94186 21.6485C4.65975 21.3609 6.48433 22.2225 7.13529 24.3726H9.16111C9.43662 20.248 10.9776 16.7217 13.8759 13.8329C16.762 10.9563 20.2801 9.42746 24.3763 9.14925V7.12749C22.2398 6.20507 21.3133 4.72758 21.6968 2.85437C22.0331 1.23237 23.512 0.0195827 25.1785 0.00202564C26.8789 -0.0155314 28.3645 1.15674 28.7413 2.81115C29.1626 4.66545 28.2402 6.15645 26.0564 7.141V9.03581C35.0281 10.3107 40.1223 15.3753 41.3905 24.3469L41.3891 24.3483ZM25.215 10.7537C17.2522 10.7713 10.798 17.212 10.775 25.1653C10.752 33.1025 17.2819 39.6243 25.2353 39.608C33.1954 39.5918 39.6537 33.1457 39.6766 25.1951C39.6996 17.2552 33.1711 10.7361 25.215 10.7537ZM25.2029 5.55951C26.2887 5.56896 27.1706 4.71272 27.1882 3.62823C27.2071 2.52619 26.3184 1.62133 25.2218 1.62403C24.144 1.62538 23.2662 2.50458 23.2621 3.58502C23.2581 4.67085 24.1224 5.55006 25.2042 5.55951H25.2029ZM3.62118 27.1425C4.70702 27.1317 5.57406 26.2552 5.57001 25.1734C5.56596 24.0917 4.69216 23.2233 3.60497 23.2206C2.50158 23.2179 1.60617 24.12 1.62643 25.214C1.64534 26.289 2.53804 27.1533 3.62118 27.1425ZM46.8278 23.2219C45.7392 23.2327 44.8762 24.1052 44.8803 25.191C44.8843 26.2728 45.7581 27.1412 46.844 27.1439C47.9446 27.1466 48.8428 26.2404 48.8239 25.1491C48.8049 24.0741 47.9109 23.2111 46.8278 23.2233V23.2219ZM27.1882 46.7511C27.1787 45.6652 26.3062 44.8009 25.2191 44.8036C24.1332 44.8049 23.2648 45.6733 23.2608 46.7605C23.2567 47.8612 24.1589 48.758 25.2542 48.7404C26.3306 48.7229 27.1976 47.8329 27.1882 46.7511Z" fill="black"/>
<path d="M43.8984 7.6839C42.6357 8.94801 41.3621 10.2229 40.0872 11.4951C39.9562 11.6261 39.8279 11.7666 39.6753 11.8652C39.3174 12.0961 38.9609 12.0583 38.6637 11.7571C38.3666 11.456 38.3369 11.1008 38.5719 10.7456C38.6637 10.6078 38.792 10.4917 38.9109 10.3728C40.1872 9.09927 41.4648 7.82841 42.764 6.53324C42.0671 5.38663 41.8551 4.17654 42.2683 2.90028C42.5736 1.9549 43.153 1.204 43.9957 0.667832C45.7298 -0.436912 47.946 -0.147896 49.3452 1.36336C50.7133 2.84086 50.8213 5.08141 49.6018 6.70341C48.2877 8.45101 46.1647 8.82646 43.8998 7.68255L43.8984 7.6839ZM46.2443 1.62402C44.8371 1.63077 43.6675 2.81385 43.6851 4.21301C43.7026 5.60002 44.856 6.74528 46.243 6.75608C47.6449 6.76553 48.8252 5.59326 48.8252 4.1887C48.8252 2.78413 47.653 1.61861 46.2443 1.62537V1.62402Z" fill="black"/>
<path d="M42.7451 43.8056C41.4418 42.509 40.1196 41.2098 38.8218 39.8863C38.6273 39.6877 38.4341 39.3623 38.4544 39.1124C38.4733 38.8707 38.7299 38.5128 38.9501 38.4533C39.2175 38.3818 39.6348 38.4763 39.8468 38.66C40.5194 39.2448 41.1285 39.9038 41.7605 40.5345C42.475 41.249 43.1894 41.9634 43.8957 42.6697C46.3092 41.542 48.3903 41.9432 49.6815 43.7677C50.8497 45.4154 50.6687 47.6505 49.252 49.0983C47.8245 50.5569 45.5569 50.7784 43.8809 49.6223C42.032 48.3461 41.6228 46.2946 42.7451 43.8056ZM48.8252 46.1785C48.8252 44.7725 47.6503 43.6016 46.2457 43.6097C44.8573 43.6178 43.704 44.7604 43.6851 46.1487C43.6648 47.5466 44.8344 48.7323 46.2416 48.7404C47.6503 48.7485 48.8252 47.5844 48.8252 46.1785Z" fill="black"/>
<path d="M7.69443 6.53865C8.99095 7.82977 10.2699 9.10063 11.5448 10.3755C11.6758 10.5065 11.8149 10.6375 11.9081 10.7929C12.1148 11.1386 12.0675 11.4789 11.7852 11.7626C11.5043 12.0448 11.1626 12.0961 10.8155 11.8909C10.6589 11.799 10.5279 11.6586 10.3969 11.5276C9.12061 10.254 7.84704 8.97908 6.54647 7.67851C5.36745 8.37674 4.129 8.59553 2.81897 8.13634C1.87899 7.80681 1.1416 7.21392 0.618937 6.36578C-0.449343 4.63033 -0.107655 2.41139 1.43466 1.04194C2.93377 -0.288343 5.18782 -0.343715 6.79092 0.902836C8.1077 1.9279 9.11115 4.11713 7.69443 6.53865ZM4.18572 1.62403C2.77575 1.62943 1.61429 2.8017 1.62644 4.20897C1.63725 5.59462 2.78926 6.74258 4.17762 6.75474C5.57678 6.76689 6.76391 5.59192 6.76661 4.19141C6.76931 2.78954 5.59299 1.61862 4.18572 1.62403Z" fill="black"/>
<path d="M7.68635 43.8231C9.09362 46.1906 8.13878 48.4487 6.73692 49.5008C5.0798 50.7446 2.79874 50.6271 1.31179 49.2077C-0.185963 47.7775 -0.427711 45.5045 0.737808 43.8123C2.01812 41.9539 4.15738 41.5272 6.55865 42.6738C7.78899 41.4434 9.02744 40.205 10.2659 38.9665C10.3847 38.8477 10.4995 38.7221 10.6265 38.6114C11.0235 38.2656 11.4746 38.2683 11.8015 38.6086C12.1134 38.9341 12.1229 39.3771 11.7812 39.7431C11.3571 40.1996 10.9047 40.6304 10.4631 41.0707C9.54335 41.985 8.62093 42.8966 7.68905 43.8217L7.68635 43.8231ZM1.62647 46.1649C1.61971 47.5709 2.78793 48.7418 4.19655 48.7404C5.60246 48.7404 6.77744 47.5614 6.76798 46.1622C6.75853 44.7779 5.60922 43.6273 4.21951 43.6097C2.81764 43.5922 1.63322 44.759 1.62782 46.1649H1.62647Z" fill="black"/>
<path d="M15.8328 25.7839C14.7726 24.0727 14.8348 22.5345 15.9854 21.3649C17.132 20.1994 18.6622 20.0967 20.2356 21.0165C21.05 20.2588 21.8427 19.5228 22.6855 18.7394C22.0926 17.9629 21.7955 16.9648 22.102 15.8506C22.306 15.1105 22.7327 14.5149 23.358 14.0666C24.5938 13.1806 26.2887 13.2913 27.4164 14.3286C28.6819 15.4927 28.7764 17.0256 27.7635 18.7421C28.5806 19.4957 29.3761 20.2304 30.2269 21.0151C30.9157 20.4897 31.8286 20.271 32.8145 20.46C33.4939 20.591 34.0719 20.9327 34.5432 21.4473C35.6169 22.6209 35.6507 24.0187 34.631 25.7852C34.7715 25.8703 34.9133 25.954 35.0524 26.0418C36.5299 26.9791 37.4456 28.2932 37.6995 30.034C37.8102 30.7944 37.4969 31.1415 36.723 31.1442C34.6121 31.1496 32.5026 31.1455 30.3917 31.1455C30.208 31.1455 30.023 31.1455 29.8893 31.1455C30.1715 31.9126 30.5092 32.6595 30.7198 33.4401C30.9873 34.4327 30.6658 34.7974 29.6502 34.7974C26.679 34.7974 23.7078 34.7987 20.7366 34.7974C19.8237 34.7974 19.4725 34.4084 19.7102 33.5252C19.925 32.7257 20.2599 31.9572 20.553 31.1455C20.4503 31.1455 20.2734 31.1455 20.0965 31.1455C18.0031 31.1455 15.9098 31.1469 13.8164 31.1455C12.917 31.1455 12.6131 30.8106 12.7644 29.9219C13.0439 28.2702 13.9177 26.9994 15.325 26.0918C15.479 25.9919 15.6397 25.9014 15.8328 25.7852V25.7839ZM28.4887 29.4952H35.8425C35.5035 27.9853 33.7694 26.8157 32.0002 26.8765C30.362 26.9332 28.6886 28.173 28.4887 29.4952ZM21.9643 29.5019C21.7617 28.0582 19.902 26.8035 18.1044 26.8792C16.4703 26.9467 14.7173 28.2743 14.6443 29.5019H21.9656H21.9643ZM28.9304 33.1524C28.4915 31.6169 26.9019 30.5175 25.1745 30.5324C23.5106 30.5459 21.9346 31.6695 21.5267 33.1524H28.9304ZM28.929 22.5777C28.4671 20.9678 26.6628 19.7969 24.949 19.9482C23.3216 20.0913 21.7063 21.3406 21.5699 22.5777H28.929ZM25.2474 18.3113C26.1266 18.3032 26.8546 17.5604 26.8424 16.6853C26.8303 15.8155 26.0713 15.0754 25.2069 15.0889C24.3345 15.1024 23.6011 15.8547 23.6133 16.7258C23.6254 17.6063 24.3601 18.3194 25.2474 18.3113ZM25.2461 25.6826C24.3601 25.6745 23.6241 26.3903 23.6133 27.2681C23.6025 28.1365 24.3372 28.8901 25.2096 28.9036C26.0726 28.9171 26.833 28.173 26.8438 27.3046C26.8546 26.4281 26.128 25.6893 25.2474 25.6826H25.2461ZM16.6958 23.6298C16.6972 24.5198 17.4143 25.2369 18.3016 25.2355C19.1808 25.2328 19.9114 24.4995 19.9087 23.6216C19.906 22.7357 19.1862 22.024 18.2935 22.0253C17.3967 22.0267 16.6945 22.7316 16.6958 23.6298ZM33.7599 23.6041C33.7505 22.7114 33.036 22.0172 32.1352 22.0267C31.2452 22.0361 30.5375 22.76 30.5497 23.6473C30.5618 24.5279 31.3019 25.2491 32.1784 25.2355C33.0657 25.222 33.7694 24.4968 33.7599 23.6041ZM22.0467 26.6185C22.3222 25.5489 22.9556 24.7899 24.0536 24.2469H21.5618C21.2944 24.7858 21.05 25.2774 20.7961 25.7879C21.1864 26.0472 21.601 26.3227 22.0467 26.6185ZM29.6502 25.796C29.4328 25.3274 29.2342 24.8871 29.0209 24.4536C28.9763 24.3631 28.8804 24.2321 28.8061 24.2307C28.0579 24.2145 27.3084 24.2213 26.5588 24.2213C27.5096 24.7872 28.1268 25.561 28.4131 26.6117C28.8507 26.3227 29.2545 26.0567 29.6502 25.796Z" fill="black"/>
</svg>
