<?xml version="1.0" encoding="UTF-8"?><svg id="uuid-ea8ba3b0-0c93-47a7-9eb0-cb5da9a497ff" xmlns="http://www.w3.org/2000/svg" viewBox="0 0 1440 617.6"><defs><style>.uuid-a1fcd1aa-83f6-43a4-bd84-1f495f1d39f5{fill:#88e29f;}.uuid-0d3b094a-3dda-4d66-a58c-a43017cde50d{fill:#231f20;font-family:SatoshiVariable-Bold, 'Satoshi Variable';font-size:363.15px;font-variation-settings:'wght' 900;font-weight:700;}</style></defs><text class="uuid-0d3b094a-3dda-4d66-a58c-a43017cde50d" transform="translate(483.86 423.33)"><tspan x="0" y="0">iggss</tspan></text><path class="uuid-a1fcd1aa-83f6-43a4-bd84-1f495f1d39f5" d="M76.18,251.77c0-39.98-.31-79.97,.22-119.94,.13-9.45,1.34-19.61,5.03-28.16,10.21-23.69,38.62-29.28,57.6-11.82,6.08,5.59,10.95,12.64,15.78,19.44,13.44,18.91,26.41,38.16,39.88,57.06,11.32,15.89,11.52,15.76,27.24,5.82,2.18-1.38,4.26-2.91,6.48-4.23,34.96-20.69,72.79-26.15,111.83-17.41,63.05,14.11,109.51,67.08,116.03,129.59,7.02,67.25-27.06,127.64-87.49,156.23-25.27,11.96-52.25,13.57-79.24,14.1-44.45,.86-88.93,.45-133.4,.38-48.18-.07-74.15-23.56-79.18-71.47-.6-5.75-.51-11.59-.52-17.39-.04-37.4-.02-74.8-.02-112.21h-.25Zm258.78-.71c9.99,8.06,19.11,15.42,29.72,23.98-19.86,23.98-37.69,46.71-56.9,68.22-9.58,10.73-34.63,6.13-44.51-7.38-12.93-17.69-25.03-35.98-37.47-54.01-30.39-44.03-60.74-88.1-91.21-132.08-3.86-5.57-8.35-10.72-13.13-16.8-8.17,6.7-7.59,14-7.55,20.71,.48,71.56,1.13,143.12,1.74,214.68,.02,1.93-.02,3.87,.04,5.8,.85,28.37,12.01,39.36,40.43,39.39,49.62,.04,99.25,.14,148.87-.2,62.36-.43,112.86-48.04,114.13-110.44,.89-43.77-18.64-78.72-57.28-100.71-38.48-21.9-77.55-21.36-115.59,1.79-16.03,9.75-16.74,13.94-6.65,28.94,12.6,18.71,25.47,37.25,38.43,55.71,2.88,4.1,6.62,7.59,12.29,13.97,15.54-17.96,29.31-33.86,44.63-51.56Z"/></svg>