<?xml version="1.0" encoding="UTF-8"?><svg id="uuid-546223ff-7c0f-4a10-9673-49f27b3786dd" xmlns="http://www.w3.org/2000/svg" viewBox="0 0 1440 618.31"><defs><style>.uuid-28622fbb-8985-4f19-812f-7557721a83df{fill:#88e29f;}.uuid-0f28696a-11c9-48c5-9262-77ec9526e058{font-family:SatoshiVariable-Bold, 'Satoshi Variable';font-size:356.42px;font-variation-settings:'wght' 900;font-weight:700;}</style></defs><text class="uuid-0f28696a-11c9-48c5-9262-77ec9526e058" transform="translate(487.07 419.03)"><tspan x="0" y="0">iggss</tspan></text><path class="uuid-28622fbb-8985-4f19-812f-7557721a83df" d="M303.07,326.48c19.06-22.02,35.93-41.51,54.72-63.22,12.25,9.88,23.43,18.9,36.44,29.4-24.35,29.4-46.22,57.27-69.77,83.64-11.75,13.15-42.46,7.52-54.57-9.05-15.85-21.68-30.68-44.11-45.95-66.23-37.26-53.99-74.47-108.02-111.83-161.94-4.73-6.83-10.23-13.14-16.09-20.6-10.02,8.21-9.31,17.17-9.25,25.4,.58,87.74,1.39,175.48,2.13,263.22,.02,2.37-.03,4.75,.04,7.12,1.05,34.78,14.73,48.27,49.57,48.29,60.84,.05,121.69,.18,182.53-.24,76.47-.53,138.38-58.9,139.94-135.41,1.09-53.67-22.86-96.52-70.23-123.48-47.19-26.86-95.08-26.18-141.72,2.19-19.66,11.96-20.53,17.1-8.15,35.48,15.45,22.94,31.23,45.67,47.12,68.31,3.53,5.02,8.12,9.3,15.07,17.13Z"/></svg>