<svg width="685" height="256" viewBox="0 0 685 256" fill="none" xmlns="http://www.w3.org/2000/svg">
<path d="M220.884 235.744H90.2333V159.071H92.2633V233.714H220.884V235.744Z" fill="#89DDA1"/>
<path d="M394.835 121.494H392.805V49.5309H11.3687V47.5009H394.835V121.494Z" fill="#89DDA1"/>
<path d="M646.25 160.044H59.4593C52.6182 159.983 47.1169 154.421 47.0966 147.58V48.5159H49.1266V147.58C49.1266 153.345 53.7956 158.014 59.5608 158.014H646.25V160.044Z" fill="#89DDA1"/>
<path d="M120.176 85.0167H59.621C52.7596 84.9558 47.2177 79.3733 47.2177 72.5119V63.5597L26.2073 49.3497L27.3441 47.6648L49.2477 62.4635V72.5119C49.2477 78.2974 53.937 82.9867 59.7225 82.9867H120.277C126.063 82.9867 130.752 78.2974 130.752 72.5119V61.1643L149.022 47.746L150.22 49.3903L132.762 62.1793V72.5119C132.762 79.4139 127.159 85.0167 120.257 85.0167C120.237 85.0167 120.196 85.0167 120.176 85.0167Z" fill="#89DDA1"/>
<path d="M162.684 159.781L148.474 145.571V95.4712C148.474 89.706 143.785 85.037 138.019 85.0167H109.336V82.9867H138.08C144.962 82.9867 150.544 88.5895 150.565 95.4712V144.8L164.105 158.36L162.684 159.781Z" fill="#89DDA1"/>
<path d="M443.919 160.451L431.739 148.271V132.965C431.739 127.2 427.07 122.531 421.305 122.511H329.387C323.622 122.511 318.953 127.2 318.953 132.965V148.271L307.483 159.741L306.042 158.32L316.923 147.439V132.965C316.923 126.083 322.505 120.501 329.387 120.481H421.346C428.227 120.481 433.81 126.083 433.81 132.965V147.439L445.361 158.99L443.919 160.451Z" fill="#89DDA1"/>
<path d="M243.072 199.407H166.581C159.7 199.407 154.138 193.824 154.117 186.943V173.565L140.334 159.781L141.775 158.36L156.147 172.733V186.943C156.147 192.708 160.816 197.377 166.581 197.377H243.072C248.837 197.377 253.506 192.708 253.526 186.943V173.443L267.898 159.071L269.319 160.492L255.556 174.276V186.983C255.515 193.845 249.933 199.387 243.072 199.407Z" fill="#89DDA1"/>
<path d="M601.853 199.407H525.342C518.461 199.407 512.899 193.824 512.878 186.943V173.565L499.095 159.781L500.536 158.36L514.908 172.733V186.943C514.908 192.708 519.577 197.357 525.342 197.377H601.853C607.618 197.377 612.267 192.708 612.287 186.943V173.443L626.659 159.071L628.101 160.492L614.317 174.276V186.983C614.277 193.845 608.714 199.387 601.853 199.407Z" fill="#89DDA1"/>
<path d="M22.8577 48.558C22.8577 54.8713 17.7625 59.9869 11.4492 60.0072C5.13589 60.0275 0.0203 54.9119 0 48.5986C0 42.2853 5.09529 37.1697 11.4086 37.1494C11.4086 37.1494 11.4086 37.1494 11.4289 37.1494C17.7422 37.1494 22.8375 42.2447 22.8577 48.558Z" fill="#89DDA1"/>
<path d="M191.286 59.9868C197.598 59.9868 202.715 54.87 202.715 48.558C202.715 42.246 197.598 37.1291 191.286 37.1291C184.974 37.1291 179.858 42.246 179.858 48.558C179.858 54.87 184.974 59.9868 191.286 59.9868Z" fill="#89DDA1"/>
<path d="M191.286 171.393C197.598 171.393 202.715 166.276 202.715 159.964C202.715 153.652 197.598 148.535 191.286 148.535C184.974 148.535 179.858 153.652 179.858 159.964C179.858 166.276 184.974 171.393 191.286 171.393Z" fill="white"/>
<path d="M191.347 172.408C184.466 172.408 178.904 166.846 178.904 159.964C178.904 153.082 184.466 147.52 191.347 147.52C198.229 147.52 203.791 153.082 203.791 159.964C203.791 166.826 198.209 172.388 191.347 172.408ZM191.347 149.55C185.602 149.55 180.933 154.219 180.933 159.964C180.933 165.709 185.602 170.378 191.347 170.378C197.092 170.378 201.761 165.709 201.761 159.964C201.761 154.219 197.092 149.55 191.347 149.55Z" fill="#89DDA1"/>
<path d="M300.561 159.964C300.561 166.277 295.445 171.393 289.132 171.393C282.819 171.393 277.703 166.277 277.703 159.964C277.703 153.651 282.819 148.535 289.132 148.535C295.445 148.535 300.561 153.651 300.561 159.964Z" fill="white"/>
<path d="M289.132 172.408C282.251 172.408 276.688 166.846 276.688 159.964C276.688 153.082 282.251 147.52 289.132 147.52C296.014 147.52 301.576 153.082 301.576 159.964C301.576 166.826 295.994 172.388 289.132 172.408ZM289.132 149.55C283.387 149.55 278.718 154.219 278.718 159.964C278.718 165.709 283.387 170.378 289.132 170.378C294.877 170.378 299.546 165.709 299.546 159.964C299.546 154.219 294.877 149.55 289.132 149.55Z" fill="#89DDA1"/>
<path d="M202.715 198.392C202.715 204.705 197.6 209.821 191.286 209.821C184.973 209.821 179.858 204.705 179.858 198.392C179.858 192.079 184.973 186.963 191.286 186.963C197.6 186.963 202.715 192.079 202.715 198.392Z" fill="#89DDA1"/>
<path opacity="0.2" d="M202.715 198.392C202.715 204.705 197.6 209.821 191.286 209.821C184.973 209.821 179.858 204.705 179.858 198.392C179.858 192.079 184.973 186.963 191.286 186.963C197.6 186.963 202.715 192.079 202.715 198.392Z" fill="black"/>
<path d="M230.526 198.392C230.526 204.705 225.411 209.821 219.097 209.821C212.784 209.821 207.669 204.705 207.669 198.392C207.669 192.079 212.784 186.963 219.097 186.963C225.411 186.963 230.526 192.079 230.526 198.392Z" fill="#89DDA1"/>
<path opacity="0.2" d="M230.526 198.392C230.526 204.705 225.411 209.821 219.097 209.821C212.784 209.821 207.669 204.705 207.669 198.392C207.669 192.079 212.784 186.963 219.097 186.963C225.411 186.963 230.526 192.079 230.526 198.392Z" fill="black"/>
<path d="M561.74 198.392C561.74 204.705 556.625 209.821 550.311 209.821C543.998 209.821 538.883 204.705 538.883 198.392C538.883 192.079 543.998 186.963 550.311 186.963C556.625 186.963 561.74 192.079 561.74 198.392Z" fill="#89DDA1"/>
<path d="M589.429 198.392C589.429 204.705 584.314 209.821 578.001 209.821C571.687 209.821 566.572 204.705 566.572 198.392C566.572 192.079 571.687 186.963 578.001 186.963C584.314 186.963 589.429 192.079 589.429 198.392Z" fill="#89DDA1"/>
<path d="M393.941 59.9868C400.253 59.9868 405.37 54.87 405.37 48.558C405.37 42.246 400.253 37.1291 393.941 37.1291C387.629 37.1291 382.512 42.246 382.512 48.558C382.512 54.87 387.629 59.9868 393.941 59.9868Z" fill="#89DDA1"/>
<path d="M91.1272 96.4441C97.4392 96.4441 102.556 91.3272 102.556 85.0153C102.556 78.7033 97.4392 73.5864 91.1272 73.5864C84.8152 73.5864 79.6983 78.7033 79.6983 85.0153C79.6983 91.3272 84.8152 96.4441 91.1272 96.4441Z" fill="#89DDA1"/>
<path d="M91.2483 170.5C97.5603 170.5 102.677 165.383 102.677 159.071C102.677 152.759 97.5603 147.642 91.2483 147.642C84.9363 147.642 79.8194 152.759 79.8194 159.071C79.8194 165.383 84.9363 170.5 91.2483 170.5Z" fill="white"/>
<path d="M91.2483 171.515C84.3666 171.515 78.8044 165.973 78.7841 159.091C78.7841 152.21 84.326 146.647 91.2077 146.627C98.0894 146.627 103.652 152.169 103.672 159.051C103.672 165.912 98.1097 171.474 91.2483 171.494V171.515ZM91.2483 148.657C85.5034 148.657 80.8344 153.306 80.8141 159.051C80.8141 164.796 85.4628 169.464 91.2077 169.485C96.9526 169.505 101.622 164.836 101.642 159.091C101.642 153.346 96.9932 148.698 91.2483 148.677V148.657Z" fill="#89DDA1"/>
<path d="M91.2483 246.158C97.5603 246.158 102.677 241.041 102.677 234.729C102.677 228.417 97.5603 223.3 91.2483 223.3C84.9363 223.3 79.8194 228.417 79.8194 234.729C79.8194 241.041 84.9363 246.158 91.2483 246.158Z" fill="#89DDA1"/>
<path opacity="0.2" d="M91.2483 246.158C97.5603 246.158 102.677 241.041 102.677 234.729C102.677 228.417 97.5603 223.3 91.2483 223.3C84.9363 223.3 79.8194 228.417 79.8194 234.729C79.8194 241.041 84.9363 246.158 91.2483 246.158Z" fill="black"/>
<path d="M140.009 246.158C146.321 246.158 151.438 241.041 151.438 234.729C151.438 228.417 146.321 223.3 140.009 223.3C133.697 223.3 128.58 228.417 128.58 234.729C128.58 241.041 133.697 246.158 140.009 246.158Z" fill="#89DDA1"/>
<path opacity="0.2" d="M140.009 246.158C146.321 246.158 151.438 241.041 151.438 234.729C151.438 228.417 146.321 223.3 140.009 223.3C133.697 223.3 128.58 228.417 128.58 234.729C128.58 241.041 133.697 246.158 140.009 246.158Z" fill="black"/>
<path d="M219.097 246.158C225.409 246.158 230.526 241.041 230.526 234.729C230.526 228.417 225.409 223.3 219.097 223.3C212.785 223.3 207.669 228.417 207.669 234.729C207.669 241.041 212.785 246.158 219.097 246.158Z" fill="#89DDA1"/>
<path opacity="0.2" d="M219.097 246.158C225.409 246.158 230.526 241.041 230.526 234.729C230.526 228.417 225.409 223.3 219.097 223.3C212.785 223.3 207.669 228.417 207.669 234.729C207.669 241.041 212.785 246.158 219.097 246.158Z" fill="black"/>
<path d="M128.58 159.071C128.58 165.384 123.464 170.5 117.151 170.5C110.838 170.5 105.722 165.384 105.722 159.071C105.722 152.758 110.838 147.642 117.151 147.642C123.464 147.642 128.58 152.758 128.58 159.071Z" fill="white"/>
<path d="M117.151 171.515C110.269 171.515 104.707 165.953 104.707 159.071C104.707 152.189 110.269 146.627 117.151 146.627C124.033 146.627 129.595 152.189 129.595 159.071C129.595 165.932 124.012 171.494 117.151 171.515ZM117.151 148.657C111.406 148.657 106.737 153.326 106.737 159.071C106.737 164.816 111.406 169.485 117.151 169.485C122.896 169.485 127.565 164.816 127.565 159.071C127.565 153.326 122.896 148.657 117.151 148.657Z" fill="#89DDA1"/>
<path d="M375.651 121.536C375.651 127.85 370.535 132.965 364.222 132.965C357.908 132.965 352.793 127.85 352.793 121.536C352.793 115.223 357.908 110.107 364.222 110.107C370.535 110.107 375.651 115.223 375.651 121.536Z" fill="#89DDA1"/>
<path opacity="0.4" d="M375.651 121.536C375.651 127.85 370.535 132.965 364.222 132.965C357.908 132.965 352.793 127.85 352.793 121.536C352.793 115.223 357.908 110.107 364.222 110.107C370.535 110.107 375.651 115.223 375.651 121.536Z" fill="black"/>
<path d="M478.815 170.5C485.127 170.5 490.244 165.383 490.244 159.071C490.244 152.759 485.127 147.642 478.815 147.642C472.503 147.642 467.386 152.759 467.386 159.071C467.386 165.383 472.503 170.5 478.815 170.5Z" fill="white"/>
<path d="M478.815 171.515C471.933 171.515 466.371 165.953 466.371 159.071C466.371 152.189 471.933 146.627 478.815 146.627C485.697 146.627 491.259 152.189 491.259 159.071C491.259 165.932 485.676 171.494 478.815 171.515ZM478.815 148.657C473.07 148.657 468.401 153.326 468.401 159.071C468.401 164.816 473.07 169.485 478.815 169.485C484.56 169.485 489.229 164.816 489.229 159.071C489.229 153.326 484.56 148.657 478.815 148.657Z" fill="#89DDA1"/>
<path d="M550.311 170.5C556.623 170.5 561.74 165.383 561.74 159.071C561.74 152.759 556.623 147.642 550.311 147.642C543.999 147.642 538.883 152.759 538.883 159.071C538.883 165.383 543.999 170.5 550.311 170.5Z" fill="white"/>
<path d="M550.311 171.515C543.43 171.515 537.868 165.953 537.868 159.071C537.868 152.189 543.43 146.627 550.311 146.627C557.193 146.627 562.755 152.189 562.755 159.071C562.755 165.932 557.173 171.494 550.311 171.515ZM550.311 148.657C544.567 148.657 539.898 153.326 539.898 159.071C539.898 164.816 544.567 169.485 550.311 169.485C556.056 169.485 560.725 164.816 560.725 159.071C560.725 153.326 556.056 148.657 550.311 148.657Z" fill="#89DDA1"/>
<path d="M578.001 170.5C584.313 170.5 589.429 165.383 589.429 159.071C589.429 152.759 584.313 147.642 578.001 147.642C571.689 147.642 566.572 152.759 566.572 159.071C566.572 165.383 571.689 170.5 578.001 170.5Z" fill="white"/>
<path d="M578.001 171.515C571.119 171.515 565.557 165.953 565.557 159.071C565.557 152.189 571.119 146.627 578.001 146.627C584.882 146.627 590.444 152.189 590.444 159.071C590.444 165.932 584.862 171.494 578.001 171.515ZM578.001 148.657C572.256 148.657 567.587 153.326 567.587 159.071C567.587 164.816 572.256 169.485 578.001 169.485C583.745 169.485 588.414 164.816 588.414 159.071C588.414 153.326 583.745 148.657 578.001 148.657Z" fill="#89DDA1"/>
<path d="M646.371 170.5C652.683 170.5 657.8 165.383 657.8 159.071C657.8 152.759 652.683 147.642 646.371 147.642C640.059 147.642 634.942 152.759 634.942 159.071C634.942 165.383 640.059 170.5 646.371 170.5Z" fill="white"/>
<path d="M646.371 171.515C639.489 171.515 633.927 165.973 633.907 159.091C633.907 152.21 639.448 146.647 646.33 146.627C653.212 146.607 658.774 152.169 658.794 159.051C658.794 165.932 653.232 171.495 646.371 171.515ZM646.371 148.657C640.626 148.657 635.957 153.306 635.937 159.051C635.937 164.796 640.585 169.465 646.33 169.485C652.075 169.485 656.744 164.836 656.764 159.091C656.764 153.326 652.116 148.677 646.371 148.657Z" fill="#89DDA1"/>
<path d="M405.349 121.536C405.349 127.85 400.234 132.965 393.921 132.965C387.607 132.965 382.492 127.85 382.492 121.536C382.492 115.223 387.607 110.107 393.921 110.107C400.234 110.107 405.329 115.223 405.329 121.536H405.349Z" fill="#89DDA1"/>
<path opacity="0.4" d="M405.349 121.536C405.349 127.85 400.234 132.965 393.921 132.965C387.607 132.965 382.492 127.85 382.492 121.536C382.492 115.223 387.607 110.107 393.921 110.107C400.234 110.107 405.329 115.223 405.329 121.536H405.349Z" fill="black"/>
<path d="M14.0476 1.38085V15.7532C14.0476 16.5043 13.4589 17.1133 12.7078 17.1336C11.977 17.1336 11.3883 16.5652 11.368 15.8344C11.368 15.8344 11.368 15.8141 11.368 15.7938V3.81685L10.3936 4.36495C10.1906 4.48675 9.96728 4.56794 9.72368 4.56794C8.97259 4.56794 8.36359 3.95895 8.36359 3.20785C8.36359 2.74095 8.60719 2.29435 9.01318 2.05075L11.9973 0.284651H13.2965C13.2965 0.284651 13.2965 0.365861 13.2965 0.406461V0.528256C13.2965 0.528256 13.2965 0.609451 13.2965 0.650051C13.2762 0.71095 13.2762 0.771858 13.2965 0.832758L14.0476 1.38085Z" fill="#263238"/>
<path d="M196.686 15.7533C196.686 16.4841 196.118 17.0728 195.387 17.0931C195.387 17.0931 195.367 17.0931 195.346 17.0931H186.678C185.927 17.0931 185.318 16.4638 185.339 15.7127C185.339 15.3473 185.481 15.0022 185.745 14.7586L192.951 8.22199C193.621 7.63329 194.007 6.78069 193.986 5.88749C193.966 5.13639 193.682 4.42589 193.174 3.85749C192.586 3.18759 191.733 2.80189 190.84 2.82219C190.089 2.82219 189.358 3.12669 188.81 3.63419L188.038 4.30409C187.551 4.83189 186.719 4.85219 186.211 4.36499C186.211 4.36499 186.171 4.32439 186.151 4.30409C185.623 3.7763 185.623 2.944 186.151 2.4162L186.902 1.72599C189.297 -0.425803 192.971 -0.243095 195.123 2.132C196.118 3.1876 196.646 4.58829 196.646 6.04989C196.646 7.69419 195.935 9.25728 194.717 10.3738L190.109 14.5556H195.387C196.057 14.5759 196.605 15.0834 196.666 15.7533H196.686Z" fill="#263238"/>
<path d="M397.311 6.74009C398.447 7.85659 399.097 9.39938 399.097 11.0031C399.056 14.3729 396.296 17.0525 392.926 17.0119C391.363 16.9916 389.881 16.3826 388.764 15.2864C388.196 14.718 388.196 13.8248 388.764 13.2564C389.333 12.688 390.226 12.688 390.794 13.2564C391.403 13.8654 392.236 14.2105 393.109 14.2105C393.981 14.2105 394.814 13.8654 395.443 13.2564C396.032 12.6677 396.357 11.876 396.377 11.0437C396.377 10.1708 396.032 9.33849 395.402 8.7295C394.793 8.1002 393.961 7.75509 393.088 7.75509C392.703 7.77539 392.337 7.61299 392.094 7.30849C391.525 6.80099 391.505 5.92809 392.012 5.3597C392.033 5.3394 392.073 5.29879 392.094 5.27849L394.59 2.741H390.652C389.901 2.8425 389.211 2.29441 389.109 1.54331C389.008 0.792212 389.556 0.102009 390.307 0.000509583C390.409 0.000509583 390.53 0.000509583 390.632 0.000509583H397.798C398.549 -0.0197904 399.178 0.568911 399.199 1.32001C399.199 1.32001 399.199 1.3403 399.199 1.3606C399.199 1.5839 399.138 1.80722 399.016 2.01022C398.955 2.13202 398.874 2.25381 398.772 2.35531L395.707 5.5221C396.296 5.8266 396.844 6.25289 397.29 6.74009H397.311Z" fill="#263238"/>
<path d="M6.98322 23.8529H15.9964L11.4898 29.2527L6.98322 23.8529Z" fill="#263238"/>
<path d="M186.78 23.8529H195.793L191.286 29.2527L186.78 23.8529Z" fill="#263238"/>
<path d="M389.434 23.8529H398.427L393.941 29.2527L389.434 23.8529Z" fill="#263238"/>
<path d="M308.62 234.729H275.206V254.054H308.62V234.729Z" fill="#89DDA1"/>
<path d="M418.869 234.729H385.455V254.054H418.869V234.729Z" fill="white"/>
<path d="M419.864 255.069H384.44V233.714H419.864V255.069ZM386.47 253.039H417.834V235.744H386.47V253.039Z" fill="#89DDA1"/>
<path d="M529.098 234.729H495.684V254.054H529.098V234.729Z" fill="#89DDA1"/>
<path opacity="0.4" d="M529.098 234.729H495.684V254.054H529.098V234.729Z" fill="black"/>
<path d="M639.347 234.729H605.933V254.054H639.347V234.729Z" fill="#89DDA1"/>
<path opacity="0.2" d="M639.347 234.729H605.933V254.054H639.347V234.729Z" fill="black"/>
<path d="M355.391 235.825H318.77V237.855H355.391V235.825Z" fill="#C7C7C7"/>
<path d="M342.277 242.362H318.77V244.392H342.277V242.362Z" fill="#C7C7C7"/>
<path d="M465.072 235.825H428.451V237.855H465.072V235.825Z" fill="#C7C7C7"/>
<path d="M446.761 242.362H428.451V244.392H446.761V242.362Z" fill="#C7C7C7"/>
<path d="M556.422 235.825H538.111V237.855H556.422V235.825Z" fill="#C7C7C7"/>
<path d="M567.099 242.362H538.111V244.392H567.099V242.362Z" fill="#C7C7C7"/>
<path d="M674.08 235.825H647.771V237.855H674.08V235.825Z" fill="#C7C7C7"/>
<path d="M684.393 242.362H647.771V244.392H684.393V242.362Z" fill="#C7C7C7"/>
</svg>
