<svg width="245" height="259" viewBox="0 0 245 259" fill="none" xmlns="http://www.w3.org/2000/svg">
<path d="M18.1498 97.6056H14.6756C6.91334 97.6056 0.618896 103.9 0.618896 111.662V188.798C0.618896 196.56 6.91334 202.855 14.6756 202.855H62.3391C70.1014 202.855 76.3958 196.56 76.3958 188.798" stroke="#263238" stroke-width="1.1" stroke-linecap="round" stroke-linejoin="round"/>
<path d="M72.5115 24.8221V9.58593C72.5115 4.83625 76.351 0.990359 81.1006 0.977539H143.084C147.84 0.977539 151.692 4.82984 151.692 9.58593" stroke="#263238" stroke-width="1.1" stroke-linecap="round" stroke-linejoin="round"/>
<path d="M244 45.263V160.678C244 168.537 237.635 174.902 229.777 174.908H26.7775C18.919 174.908 12.5541 168.537 12.5541 160.678V45.263C12.5541 44.9233 12.5541 44.622 12.5989 44.2631C13.1181 36.8149 19.31 31.0332 26.7775 31.0332H229.777C237.25 31.0332 243.449 36.8277 243.955 44.2887C243.987 44.5964 244 44.9297 244 45.263Z" fill="white" stroke="#263238" stroke-width="1.1" stroke-linecap="round" stroke-linejoin="round"/>
<path d="M19.4767 49.5961H237.802V156.211C237.802 163.576 231.834 169.543 224.469 169.543H32.8155C25.4506 169.543 19.4831 163.576 19.4831 156.211V49.5961H19.4767Z" fill="#263238"/>
<path opacity="0.2" d="M237.808 49.5961V156.211C237.847 163.531 231.943 169.498 224.623 169.543H32.6617C25.3417 169.498 19.4382 163.531 19.4767 156.211V49.5961H237.808Z" fill="white"/>
<path d="M243.955 44.2886H12.5989C13.1181 36.8404 19.31 31.0587 26.7775 31.0587H229.777C237.244 31.0587 243.436 36.8404 243.955 44.2886Z" fill="#92E3A9" stroke="#263238" stroke-width="1.1" stroke-miterlimit="10"/>
<path d="M41.0265 37.6481C41.0265 39.039 39.8984 40.1671 38.5074 40.1671C37.1165 40.1671 35.9884 39.039 35.9884 37.6481C35.9884 36.2572 37.1165 35.129 38.5074 35.129C39.8984 35.129 41.0265 36.2572 41.0265 37.6481Z" fill="#263238"/>
<path d="M51.6796 37.6481C51.6796 39.039 50.5515 40.1671 49.1605 40.1671C47.7696 40.1671 46.6415 39.039 46.6415 37.6481C46.6415 36.2572 47.7696 35.129 49.1605 35.129C50.5515 35.129 51.6796 36.2572 51.6796 37.6481Z" fill="#263238"/>
<path d="M59.8137 40.1671C61.2049 40.1671 62.3328 39.0393 62.3328 37.6481C62.3328 36.2568 61.2049 35.129 59.8137 35.129C58.4225 35.129 57.2946 36.2568 57.2946 37.6481C57.2946 39.0393 58.4225 40.1671 59.8137 40.1671Z" fill="#263238"/>
<path d="M237.802 49.5961V156.211C237.802 163.576 231.834 169.543 224.469 169.543H32.8155C26.4506 169.543 20.9766 165.043 19.7395 158.8V158.762C19.5792 157.916 19.4959 157.057 19.4959 156.198V49.5961H237.802Z" stroke="#263238" stroke-width="1.1" stroke-miterlimit="10"/>
<path d="M237.597 66.082C236.661 65.5564 235.667 65.1461 234.635 64.8577L233.437 59.5055H228.347L227.161 64.8577C226.123 65.1397 225.123 65.55 224.187 66.082L219.591 63.1399L215.995 66.723L218.886 71.3188C218.354 72.2546 217.944 73.2546 217.662 74.293L212.31 75.4788V80.5682L217.662 81.7668C217.944 82.8116 218.354 83.8115 218.886 84.7538L215.944 89.3817L219.547 92.9776L224.168 90.0355C225.104 90.5675 226.097 90.9777 227.136 91.2662L228.328 96.612H233.398L234.59 91.2662C235.622 90.9777 236.616 90.5611 237.552 90.0355L237.789 90.1893V65.9538L237.597 66.082ZM230.905 84.6705C227.27 84.6705 224.328 81.7283 224.328 78.094C224.328 74.4596 227.27 71.5175 230.905 71.5175C234.539 71.5175 237.481 74.4596 237.481 78.094C237.481 81.7283 234.539 84.6705 230.911 84.6705H230.905Z" fill="#263238"/>
<path d="M145.872 71.242V60.512L134.591 58.0058C133.982 55.8264 133.123 53.724 132.027 51.7434L133.392 49.5961H80.1264L81.4404 51.6857C80.3315 53.6599 79.4726 55.7559 78.8765 57.9417L67.5888 60.4543V71.21L78.8765 73.7291C79.4726 75.9276 80.3315 78.0493 81.4404 80.0363L75.2421 89.7857L82.8378 97.3749L92.5807 91.1702C94.5549 92.2791 96.6574 93.1508 98.8431 93.7662L101.356 105.015H112.06L114.586 93.7405C116.765 93.1252 118.855 92.2534 120.829 91.1445L130.578 97.3492L138.167 89.76L132.008 80.0107C133.097 78.03 133.963 75.934 134.571 73.7611L145.872 71.242ZM106.772 79.7415C99.1123 79.7415 92.9076 73.5368 92.9076 65.877C92.9076 58.2173 99.1123 52.0126 106.772 52.0126C114.432 52.0126 120.637 58.2173 120.637 65.877C120.637 73.5303 114.438 79.7351 106.785 79.7415H106.772Z" fill="#263238"/>
<path d="M74.6781 144.923L75.1332 136.404L66.3068 133.917C65.8966 132.167 65.2877 130.469 64.4993 128.853L69.8322 121.367L64.1147 115.027L56.128 119.514C54.6025 118.553 52.968 117.771 51.263 117.188L49.7374 108.137L41.2252 107.746L38.7638 116.598C37.0075 116.989 35.3089 117.591 33.7001 118.393L26.2198 113.066L19.8677 118.777L24.393 126.77C23.4251 128.289 22.6367 129.924 22.0598 131.629L19.4959 132.052V143.59L21.3676 144.115C21.7586 145.871 22.3547 147.576 23.1559 149.185L19.4767 154.345L19.7202 158.762V158.8L23.5213 163.011L31.5207 158.492C33.0463 159.473 34.6808 160.262 36.3986 160.845L37.8985 169.537L37.969 169.902L46.4813 170.351L46.7056 169.537L48.9426 161.505C50.7053 161.108 52.4103 160.505 54.032 159.71L61.4995 165.03L67.8452 159.326L63.3583 151.326C64.3198 149.807 65.0954 148.179 65.6594 146.474L74.6781 144.923ZM52.0706 131.622C48.0004 127.097 41.0265 126.725 36.5012 130.796C31.9758 134.866 31.6041 141.84 35.6743 146.365C39.7445 150.89 46.7184 151.262 51.2438 147.192H51.2502C55.7563 143.115 56.1216 136.167 52.0706 131.648V131.622Z" fill="#263238"/>
<path d="M142.763 132.225C143.09 130.905 143.27 129.552 143.282 128.193L149.404 124.988L147.712 118.777L140.802 119.098C140.103 117.938 139.27 116.861 138.321 115.893L140.366 109.284L134.789 106.079L130.123 111.169C128.809 110.848 127.457 110.682 126.104 110.656L122.899 104.535L116.694 106.22L117.021 113.137C115.861 113.835 114.784 114.669 113.816 115.617L107.202 113.573L103.997 119.143L109.124 123.803C108.791 125.117 108.624 126.469 108.618 127.822L102.484 131.026L104.176 137.231L111.099 136.904C111.785 138.071 112.611 139.148 113.566 140.109L111.509 146.686L117.092 149.891L121.733 144.84C123.053 145.173 124.405 145.34 125.764 145.346L128.969 151.474L135.174 149.788L134.898 143.878L134.853 142.865C136.033 142.173 137.123 141.34 138.097 140.385L144.705 142.436L147.436 137.667L147.897 136.859L142.763 132.225ZM128.104 135.994C123.668 137.218 119.079 134.616 117.855 130.174C116.63 125.738 119.233 121.149 123.675 119.925C128.11 118.7 132.7 121.303 133.924 125.745C133.924 125.764 133.937 125.783 133.937 125.802C135.123 130.225 132.52 134.776 128.104 135.994Z" fill="#263238"/>
<path d="M213.733 143.147L215.143 134.622L206.515 131.155C206.317 129.341 205.906 127.552 205.278 125.834L211.489 118.918L206.464 111.867L197.901 115.502C196.478 114.361 194.926 113.399 193.273 112.63L192.773 103.342L184.248 101.932L180.754 110.521C178.947 110.733 177.165 111.156 175.453 111.771L168.518 105.56L161.499 110.585L165.14 119.142C164.14 120.392 163.268 121.745 162.544 123.174C162.448 123.373 162.345 123.572 162.255 123.77L152.974 124.283L151.557 132.795L152.955 133.359L160.185 136.276C160.384 138.084 160.8 139.859 161.422 141.57L155.198 148.532L160.23 155.582L168.787 151.929C170.204 153.076 171.755 154.05 173.409 154.826L173.889 164.069L182.408 165.479L185.895 156.954C187.709 156.755 189.491 156.339 191.202 155.711L198.125 161.922L205.176 156.89L201.535 148.326C202.695 146.903 203.676 145.339 204.451 143.679L213.733 143.147ZM189.824 142.763C184.818 146.359 177.844 145.211 174.255 140.199C170.659 135.193 171.806 128.219 176.819 124.629C181.825 121.033 188.799 122.181 192.388 127.193C195.978 132.206 194.824 139.173 189.811 142.763H189.824Z" fill="#263238"/>
<path d="M98.2019 80.0361H31.168C26.527 80.0361 22.7647 83.7984 22.7647 88.4394V181.247C22.7647 185.888 26.527 189.651 31.168 189.651H98.2019C102.843 189.651 106.605 185.888 106.605 181.247V88.4394C106.605 83.7984 102.843 80.0361 98.2019 80.0361Z" fill="#92E3A9" stroke="#263238" stroke-width="1.1" stroke-miterlimit="10"/>
<path opacity="0.2" d="M98.2019 80.0361H31.168C26.527 80.0361 22.7647 83.7984 22.7647 88.4394V181.247C22.7647 185.888 26.527 189.651 31.168 189.651H98.2019C102.843 189.651 106.605 185.888 106.605 181.247V88.4394C106.605 83.7984 102.843 80.0361 98.2019 80.0361Z" fill="black"/>
<path d="M114.406 96.7209V189.529C114.406 194.169 110.65 197.932 106.009 197.938H38.9687C34.328 197.938 30.5655 194.169 30.5719 189.529V96.7209C30.5719 92.0802 34.328 88.324 38.9687 88.3176H106.003C110.643 88.3176 114.406 92.0802 114.406 96.7209Z" fill="white" stroke="#263238" stroke-width="1.1" stroke-linecap="round" stroke-linejoin="round"/>
<path d="M114.406 96.7209V101.689H30.5719V96.7209C30.5719 92.0802 34.328 88.324 38.9687 88.3176H106.003C110.643 88.3176 114.406 92.0802 114.406 96.7209Z" fill="#92E3A9" stroke="#263238" stroke-width="1.1" stroke-miterlimit="10"/>
<path d="M59.0828 107.445H38.4559V110.906H59.0828V107.445Z" fill="#92E3A9"/>
<path d="M59.0828 138.462H38.4559V141.923H59.0828V138.462Z" fill="#92E3A9"/>
<path d="M59.0828 166.588H38.4559V170.049H59.0828V166.588Z" fill="#92E3A9"/>
<path d="M97.0353 116.015H38.4559V118.553H97.0353V116.015Z" fill="#263238"/>
<path d="M86.4719 120.867H38.4559V123.341H86.4719V120.867Z" fill="#263238"/>
<path d="M92.76 125.642H38.4559V128.116H92.76V125.642Z" fill="#263238"/>
<path d="M92.76 130.411H38.4559V132.885H92.76V130.411Z" fill="#263238"/>
<path d="M97.0353 144.141H38.4559V146.679H97.0353V144.141Z" fill="#263238"/>
<path d="M86.4719 148.993H38.4559V151.467H86.4719V148.993Z" fill="#263238"/>
<path d="M92.76 153.768H38.4559V156.243H92.76V153.768Z" fill="#263238"/>
<path d="M97.0353 175.023H38.4559V177.562H97.0353V175.023Z" fill="#263238"/>
<path d="M86.4719 179.882H38.4559V182.356H86.4719V179.882Z" fill="#263238"/>
<path d="M92.76 184.657H38.4559V187.132H92.76V184.657Z" fill="#263238"/>
<path d="M208.893 23.9631V61.4734C208.893 67.005 204.406 71.4919 198.875 71.4919H112.477C106.945 71.4919 102.458 67.0114 102.452 61.4798V23.9631C102.452 18.425 106.939 13.9445 112.477 13.9381H198.868C204.406 13.9381 208.893 18.425 208.893 23.9631Z" fill="white" stroke="#222221" stroke-width="1.1" stroke-miterlimit="10"/>
<path d="M208.893 23.9631V24.822H102.452V23.9631C102.452 18.425 106.939 13.9445 112.477 13.9381H198.868C204.406 13.9381 208.893 18.425 208.893 23.9631Z" fill="#92E3A9" stroke="#263238" stroke-width="1.1" stroke-miterlimit="10"/>
<path d="M118.092 21.1747C117.489 21.7772 116.515 21.7772 115.919 21.1747C115.316 20.5721 115.316 19.5979 115.919 19.0017C116.521 18.4056 117.495 18.3992 118.092 19.0017C118.688 19.6043 118.688 20.5721 118.092 21.1747Z" fill="#263238"/>
<path d="M125.219 21.1747C124.617 21.7772 123.642 21.7772 123.046 21.1747C122.444 20.5721 122.444 19.5979 123.046 19.0017C123.649 18.4056 124.623 18.3992 125.219 19.0017C125.815 19.6043 125.815 20.5721 125.219 21.1747Z" fill="#263238"/>
<path d="M132.347 21.1747C131.744 21.7772 130.77 21.7772 130.174 21.1747C129.572 20.5721 129.572 19.5979 130.174 19.0017C130.777 18.4056 131.751 18.3992 132.347 19.0017C132.943 19.6043 132.943 20.5721 132.347 21.1747Z" fill="#263238"/>
<path d="M144.032 31.7189H109.24V61.7938H144.032V31.7189Z" stroke="#263238" stroke-width="1.1" stroke-linecap="round" stroke-linejoin="round"/>
<path d="M189.446 31.7189H149.404V33.8341H189.446V31.7189Z" fill="#263238"/>
<path d="M180.119 36.0968H149.404V38.2056H180.119V36.0968Z" fill="#263238"/>
<path d="M195.138 40.4556H149.404V42.59H195.138V40.4556Z" fill="#263238"/>
<path d="M188.35 44.7052H149.404V46.8397H188.35V44.7052Z" fill="#263238"/>
<path d="M211.803 117.059H192.221C189.91 117.059 188.036 118.933 188.036 121.245V132.738C188.036 135.049 189.91 136.923 192.221 136.923H211.803C214.115 136.923 215.989 135.049 215.989 132.738V121.245C215.989 118.933 214.115 117.059 211.803 117.059Z" fill="white" stroke="#263238" stroke-width="1.1" stroke-linecap="round" stroke-linejoin="round"/>
<path d="M197.054 123.033L191.676 126.405L196.67 130.828" stroke="#263238" stroke-width="1.1" stroke-linecap="round" stroke-linejoin="round"/>
<path d="M206.848 131.148L211.681 127.033L206.105 123.38" stroke="#263238" stroke-width="1.1" stroke-linecap="round" stroke-linejoin="round"/>
<path d="M199.669 133.686L203.637 121.239" stroke="#263238" stroke-width="1.1" stroke-linecap="round" stroke-linejoin="round"/>
<path d="M158.313 242.013C158.313 242.013 139.725 247.339 137.129 248.262C134.77 249.095 128.373 251.339 123.572 250.64C123.111 250.576 122.649 250.474 122.2 250.345C117.335 248.897 115.15 247.544 114.509 244.487C113.868 241.429 116.291 239.173 118.624 237.731C120.957 236.289 133.61 234.782 133.61 234.782L136.667 235.68L158.313 242.013Z" fill="#92E3A9"/>
<path d="M123.572 250.64C123.111 250.576 122.649 250.474 122.2 250.345C117.335 248.897 115.15 247.544 114.509 244.487C113.868 241.429 116.291 239.173 118.624 237.731C120.957 236.289 133.61 234.782 133.61 234.782L136.667 235.68C133.898 236.962 123.591 237.66 121.341 238.955C119.092 240.25 118.008 242.686 119.335 246.006C120.047 247.737 121.944 249.435 123.572 250.64Z" fill="white"/>
<path d="M155.519 242.769C155.519 242.769 141.558 246.384 136.02 248.698C130.482 251.012 119.925 252.025 116.149 247.256C112.374 242.487 115.714 238.372 119.476 237.455C123.239 236.539 130.847 235.096 135.001 235.68" stroke="#263238" stroke-width="1.1" stroke-linecap="round" stroke-linejoin="round"/>
<path d="M123.848 250.39C123.848 250.39 116.746 246.493 119.104 241.032C120.848 237.007 130.322 237.878 135.014 235.68" stroke="#263238" stroke-width="1.1" stroke-linecap="round" stroke-linejoin="round"/>
<path d="M214.931 251.506C214.739 253.429 214.066 255.23 212.143 256.364C210.861 257.121 209.041 257.569 206.432 257.544C199.913 257.46 187.657 252.801 187.657 252.801L176.184 246.455L182.151 237.013L183.786 234.449L188.004 235.398C188.004 235.398 191.497 237.379 195.01 238.955C198.522 240.532 207.054 240.878 210.06 243.295C213.066 245.711 215.258 248.339 214.931 251.506Z" fill="#92E3A9"/>
<path d="M214.931 251.506C214.739 253.429 214.066 255.23 212.143 256.364C212.694 254.474 212.585 252.448 211.822 250.634C210.541 247.756 206.368 245.218 200.881 244.795C195.394 244.372 191.196 241.808 188.997 240.66C187.279 239.769 183.658 237.821 182.151 237.013L183.786 234.449L188.004 235.398C188.004 235.398 191.497 237.379 195.01 238.955C198.522 240.532 207.054 240.878 210.06 243.295C213.066 245.711 215.258 248.339 214.931 251.506Z" fill="white"/>
<path d="M178.729 248.237C186.984 253.037 196.118 256.153 205.586 257.409C207.675 257.659 210.105 257.697 211.502 256.127C212.252 255.21 212.598 254.031 212.463 252.852C212.214 249.903 209.733 247.57 207.015 246.397C204.297 245.224 201.304 244.955 198.413 244.307C195.535 243.66 192.76 242.641 190.145 241.282C188.068 240.199 186.061 238.885 183.773 238.397C181.485 237.91 178.761 238.5 177.536 240.5" stroke="#263238" stroke-width="1.1" stroke-linecap="round" stroke-linejoin="round"/>
<path d="M210.733 256.928C212.912 255.884 214.47 253.877 214.931 251.506C215.348 248.73 213.765 245.936 211.54 244.231C209.316 242.526 206.528 241.718 203.778 241.147C201.028 240.577 198.214 240.192 195.58 239.148C191.561 237.571 187.593 234.468 183.401 235.577" stroke="#263238" stroke-width="1.1" stroke-linecap="round" stroke-linejoin="round"/>
<path d="M191.676 148.936L172.261 141.552L172.018 141.455C172.018 141.455 172.088 140.943 172.146 140.173C172.267 138.622 172.332 136.097 171.601 135.244C170.518 133.962 167.454 135.039 164.46 133.667C161.467 132.296 155.935 134.751 155.935 134.751C155.935 134.751 151.936 134.014 150.166 136.898C149.269 139.225 149.577 142.667 149.577 142.667L149.211 142.795C146.897 143.66 134.309 148.397 131.648 150.301C128.706 152.384 125.45 173.774 124.405 180.055C123.361 186.337 121.502 191.997 122.444 194.157C123.386 196.317 136.911 206.733 144.692 209.419C152.474 212.104 180.068 211.342 180.068 211.342C180.068 211.342 180.517 211.22 181.318 210.964C185.985 209.464 202.541 203.272 211.329 188.734C211.342 188.76 202.83 160.858 191.676 148.936ZM139.218 184.914C137.789 185.927 138.577 189.85 138.577 189.85L136.148 187.709L142.25 172.703L144.853 184.241C144.853 184.241 140.648 183.908 139.218 184.914ZM188.036 194.445C187.363 194.792 189.959 187.58 188.728 185.946C187.497 184.311 183.786 184.465 183.786 184.465L184.1 182.497L186.299 171.216L187.029 170.351C187.029 170.351 194.58 183.292 195.933 187.856C195.933 187.869 187.702 194.445 188.036 194.445Z" fill="#92E3A9"/>
<path d="M155.019 102.138L144.994 112.778C144.994 112.778 143.616 114.002 144.16 117.085C144.705 120.168 145.987 122.854 146.955 123.034C147.724 123.168 148.5 123.239 149.275 123.239C149.275 123.239 151.423 127.892 152.948 129.719C152.948 129.719 153.474 136.904 153.192 138.898C153.192 138.898 156.794 142.045 160.185 142.443C163.576 142.84 168.813 137.648 168.813 137.648L170.095 131.289C170.095 131.289 173.171 126.623 173.376 125.38C173.581 124.136 174.992 124.457 175.684 123.841C176.376 123.226 177.972 120.489 178.248 117.899C178.523 115.31 178.53 112.336 175.524 113.207C172.915 112.509 174.549 106.996 174.549 106.996L169.966 102.958L155.019 102.138Z" fill="white"/>
<path opacity="0.5" d="M172.261 141.551C172.107 141.949 171.934 142.333 171.742 142.712C170.088 145.827 162.884 151.769 162.884 151.769L160.704 145.07L159.512 151.769C157.108 150.718 149.775 144.365 149.775 144.365C149.775 144.365 149.525 143.769 149.224 142.84L149.59 142.712C149.59 142.712 149.282 139.244 150.179 136.943C151.936 134.058 155.948 134.796 155.948 134.796C155.948 134.796 161.48 132.341 164.473 133.712C167.467 135.084 170.53 134.02 171.614 135.289C172.697 136.558 172.03 141.481 172.03 141.481L172.261 141.551Z" fill="white"/>
<path opacity="0.2" d="M191.676 148.936L172.261 141.552L172.018 141.455C172.018 141.455 172.088 140.943 172.146 140.173L171.742 142.693L168.87 146.59C171.941 147.718 174.934 149.038 177.844 150.538C180.69 152.064 182.318 155.172 181.946 158.384L178.37 188.991L176.902 206.368L181.331 210.964C185.997 209.464 202.554 203.272 211.342 188.734C211.342 188.76 202.83 160.858 191.676 148.936ZM188.036 194.445C187.363 194.792 189.959 187.581 188.728 185.946C187.497 184.311 183.786 184.465 183.786 184.465L184.1 182.498L186.299 171.216L187.029 170.351C187.029 170.351 194.58 183.292 195.933 187.856C195.933 187.869 187.702 194.445 188.036 194.445Z" fill="black"/>
<path opacity="0.2" d="M146.141 185.946L143.122 175.857C143.122 175.857 137.706 157.39 133.994 152.839L134.969 165.825C134.969 165.825 131.764 181.337 128.835 185.946C125.905 190.555 125.251 191.715 128.835 191.715C132.418 191.715 141.141 198.663 141.141 198.663L140.468 192.894L146.141 185.946ZM138.533 189.849L136.103 187.709L142.205 172.703L144.808 184.241C144.808 184.241 140.629 183.927 139.199 184.933C137.77 185.939 138.533 189.849 138.533 189.849Z" fill="black"/>
<path d="M152.948 129.719C152.948 129.719 153.5 135.161 152.948 137.648" stroke="#263238" stroke-width="1.1" stroke-linecap="round" stroke-linejoin="round"/>
<path d="M169.37 136.917C169.37 135.167 169.575 133.424 169.973 131.719" stroke="#263238" stroke-width="1.1" stroke-linecap="round" stroke-linejoin="round"/>
<path d="M170.825 106.195C170.825 106.195 174.12 110.329 173.947 113.457C173.774 116.585 173.53 120.29 173.614 123.918C173.697 127.546 167.787 135.148 164.749 135.821C161.711 136.494 159.095 136.667 157.153 134.725C155.211 132.783 153.269 130.084 150.743 126.623C148.218 123.162 148.82 115.566 148.82 115.566" stroke="#263238" stroke-width="1.1" stroke-linecap="round" stroke-linejoin="round"/>
<path d="M162.89 118.457C162.691 119.591 162.601 120.745 162.634 121.899C162.569 122.873 162.871 123.835 163.48 124.591C163.845 124.963 164.371 125.264 164.441 125.777C164.441 126.245 164.178 126.681 163.762 126.899C163.351 127.104 162.954 127.341 162.576 127.604" stroke="#263238" stroke-width="1.1" stroke-linecap="round" stroke-linejoin="round"/>
<path d="M157.679 128.001C157.679 128.001 158.057 130.456 161.345 130.969" stroke="#263238" stroke-width="1.1" stroke-linecap="round" stroke-linejoin="round"/>
<path d="M158.018 120.329C158.018 121.04 157.711 121.611 157.333 121.611C156.954 121.611 156.647 121.04 156.647 120.329C156.647 119.617 156.954 119.047 157.333 119.047C157.711 119.047 158.018 119.624 158.018 120.329Z" fill="#263238"/>
<path d="M167.832 120.636C167.832 121.348 167.524 121.918 167.146 121.918C166.768 121.918 166.46 121.341 166.46 120.636C166.46 119.931 166.768 119.354 167.146 119.354C167.524 119.354 167.832 119.925 167.832 120.636Z" fill="#263238"/>
<path d="M165.851 117.527C165.851 117.527 169.056 114.323 171.742 117.899" stroke="#263238" stroke-width="2.21" stroke-linecap="round" stroke-linejoin="round"/>
<path d="M159.102 117.592C159.102 117.592 157.076 115.323 153.884 117.592" stroke="#263238" stroke-width="2.21" stroke-linecap="round" stroke-linejoin="round"/>
<path d="M153.192 132.744C153.192 132.744 155.147 138.129 159.512 139.661C163.877 141.193 169.672 133.251 169.672 133.251L169.37 132.219C169.37 132.219 165.569 137.154 161.345 136.315C157.121 135.475 152.948 129.745 152.948 129.745L153.192 132.744Z" fill="#263238"/>
<path d="M149.275 123.034C149.275 123.034 146.673 123.95 145.981 121.925C145.289 119.899 142.917 114.56 144.994 112.778C147.07 110.996 148.737 115.13 148.737 115.13" stroke="#263238" stroke-width="1.1" stroke-linecap="round" stroke-linejoin="round"/>
<path d="M173.607 124.136C173.607 124.136 176.024 124.623 176.716 122.598C177.408 120.572 179.78 115.233 177.703 113.451C175.626 111.669 173.96 115.803 173.96 115.803" stroke="#263238" stroke-width="1.1" stroke-linecap="round" stroke-linejoin="round"/>
<path d="M148.737 120.329C149.641 120.188 150.455 119.707 151.019 118.982C151.365 118.348 151.583 117.656 151.66 116.938C151.897 115.572 152.019 114.194 152.019 112.81C151.993 112.271 152.038 111.727 152.166 111.201C152.359 110.669 152.653 110.188 153.038 109.772C153.942 108.708 155.038 107.81 155.903 106.708C156.839 105.656 157.307 104.266 157.185 102.862C161.198 106.169 166.473 107.535 171.588 106.586C176.171 105.689 180.562 101.67 180.03 96.6186C179.825 94.8815 178.536 93.4714 176.825 93.106C174.562 92.542 172.53 93.747 170.479 94.5226C166.742 95.9328 163.082 93.5099 159.307 93.106C156.102 92.7535 152.109 93.1573 150.429 96.3686C150.429 96.3686 144.66 97.0481 142.096 101.817C139.533 106.586 144.385 113.182 144.385 113.182C144.385 113.182 146.308 110.823 148.827 115.592L148.737 120.329Z" fill="#263238"/>
<path d="M171.223 104.977C171.223 104.977 169.723 112.797 173.639 116.585C173.639 116.585 174.498 114.233 175.363 113.656C176.633 110.836 176.37 107.56 174.678 104.977C171.78 100.426 171.223 104.977 171.223 104.977Z" fill="#263238"/>
<path opacity="0.2" d="M178.363 96.0803C177.665 98.2404 176.011 99.9647 173.876 100.74C168.441 102.958 163.166 100.503 157.717 100.022C153.275 99.625 148.372 103.638 148.058 108.201" stroke="white" stroke-width="1.1" stroke-linecap="round" stroke-linejoin="round"/>
<path opacity="0.2" d="M144.705 106.996C144.84 103.317 147.09 100.054 150.474 98.6121" stroke="white" stroke-width="1.1" stroke-linecap="round" stroke-linejoin="round"/>
<path d="M151.692 136.917C154.083 139.411 156.967 141.372 160.159 142.686C160.159 142.686 166.665 140.795 169.973 136.276" stroke="#263238" stroke-width="1.1" stroke-linecap="round" stroke-linejoin="round"/>
<path d="M155.942 126.072C159.121 126.072 161.698 123.495 161.698 120.316C161.698 117.137 159.121 114.56 155.942 114.56C152.763 114.56 150.186 117.137 150.186 120.316C150.186 123.495 152.763 126.072 155.942 126.072Z" stroke="#263238" stroke-width="1.1" stroke-linecap="round" stroke-linejoin="round"/>
<path d="M168.793 126.097C171.972 126.097 174.549 123.52 174.549 120.341C174.549 117.162 171.972 114.585 168.793 114.585C165.614 114.585 163.037 117.162 163.037 120.341C163.037 123.52 165.614 126.097 168.793 126.097Z" stroke="#263238" stroke-width="1.1" stroke-linecap="round" stroke-linejoin="round"/>
<path d="M152.948 134.77C151.769 135.078 150.769 135.853 150.173 136.917C149.154 138.712 149.769 144.359 149.769 144.359C149.769 144.359 155.031 149.564 159.512 151.762L160.832 144.333L162.884 151.762C162.884 151.762 169.819 146.859 171.742 142.712C171.742 142.712 172.383 137.872 171.742 136.302C171.441 135.411 170.614 134.802 169.672 134.783" stroke="#263238" stroke-width="1.1" stroke-linecap="round" stroke-linejoin="round"/>
<path d="M144.705 184.472C144.705 184.472 142.648 170.691 139.911 165.069" stroke="#263238" stroke-width="1.1" stroke-linecap="round" stroke-linejoin="round"/>
<path d="M133.994 152.839C135.59 155.102 137.013 157.486 138.251 159.96" stroke="#263238" stroke-width="1.1" stroke-linecap="round" stroke-linejoin="round"/>
<path d="M188.036 163.127C188.587 160.826 189.343 158.57 190.298 156.403" stroke="#263238" stroke-width="1.1" stroke-linecap="round" stroke-linejoin="round"/>
<path d="M183.786 184.472C183.786 184.472 185.267 175.024 187.036 167.242" stroke="#263238" stroke-width="1.1" stroke-linecap="round" stroke-linejoin="round"/>
<path d="M186.299 171.203C187.728 169.306 189.741 167.928 192.029 167.281" stroke="#263238" stroke-width="1.1" stroke-linecap="round" stroke-linejoin="round"/>
<path d="M172.024 141.455C172.024 141.455 183.965 146.231 191.676 148.942C191.676 148.942 201.163 157.858 211.335 188.76C211.335 188.76 202.015 204.438 184.286 209.464" stroke="#263238" stroke-width="1.1" stroke-linecap="round" stroke-linejoin="round"/>
<path d="M187.363 195.003L195.933 187.869C195.933 187.869 200.464 184.427 205.176 186.779" stroke="#263238" stroke-width="1.1" stroke-linecap="round" stroke-linejoin="round"/>
<path d="M187.036 170.351C187.036 170.351 194.119 180.818 195.933 187.869" stroke="#263238" stroke-width="1.1" stroke-linecap="round" stroke-linejoin="round"/>
<path d="M138.629 190.247L136.122 187.869C136.122 187.869 132.405 187.228 128.187 190.042" stroke="#263238" stroke-width="1.1" stroke-linecap="round" stroke-linejoin="round"/>
<path d="M136.122 187.869C136.122 187.869 139.238 177.613 142.308 172.364" stroke="#263238" stroke-width="1.1" stroke-linecap="round" stroke-linejoin="round"/>
<path d="M149.59 142.712C149.59 142.712 132.405 149.16 130.719 151.044C129.033 152.929 122.63 188.984 122.457 193.112C122.309 196.804 135.693 205.092 142.327 208.585" stroke="#263238" stroke-width="1.1" stroke-linecap="round" stroke-linejoin="round"/>
<path d="M162.441 154.897C162.441 155.525 161.935 156.031 161.307 156.031C160.679 156.031 160.172 155.525 160.172 154.897C160.172 154.269 160.679 153.762 161.307 153.762C161.928 153.762 162.435 154.262 162.441 154.884C162.441 154.884 162.441 154.89 162.441 154.897Z" fill="#263238"/>
<path d="M182.325 215.29H143.225C142.718 215.29 142.308 214.88 142.308 214.374C142.308 213.867 142.718 213.457 143.225 213.457H182.325C182.831 213.457 183.241 213.867 183.241 214.374C183.241 214.88 182.831 215.29 182.325 215.29Z" fill="#263238"/>
<path d="M183.696 212.226L188.933 187.612C189.234 186.202 188.331 184.811 186.92 184.51C186.741 184.472 186.555 184.452 186.369 184.452H140.667C139.225 184.452 138.052 185.625 138.052 187.068C138.052 187.241 138.071 187.414 138.103 187.58L142.802 211.374C143.039 212.579 144.084 213.457 145.308 213.482L181.068 214.303C182.331 214.329 183.433 213.457 183.696 212.226Z" fill="white" stroke="#263238" stroke-width="1.1" stroke-linecap="round" stroke-linejoin="round"/>
<path d="M167.018 198.657C167.018 200.669 165.377 202.304 163.364 202.297C161.352 202.297 159.717 200.657 159.723 198.644C159.723 196.631 161.358 195.003 163.371 195.003C165.383 195.003 167.018 196.638 167.018 198.65V198.657Z" fill="#263238"/>
<path d="M174.19 186.805H179.62" stroke="#263238" stroke-width="1.1" stroke-linecap="round" stroke-linejoin="round"/>
<path d="M148.263 186.805H168.87" stroke="#263238" stroke-width="1.1" stroke-linecap="round" stroke-linejoin="round"/>
<path d="M183.786 238.359L179.62 249.294C179.62 249.294 168.992 246.615 155.384 243.827C141.148 240.91 126.283 237.135 118.572 223.604C117.637 221.956 117.008 220.008 117.451 218.162C118.56 213.489 124.643 212.22 128.649 211.752C131.168 211.476 133.7 211.335 136.231 211.329C137.513 211.329 141.776 210.63 142.808 211.393C144.359 212.521 146.013 213.508 147.75 214.322C150.025 215.29 183.241 213.457 183.241 213.457C183.818 212.194 184.171 210.848 184.286 209.464C189.51 206.81 201.592 204.567 206.72 205.56C214.752 207.118 219.437 211.803 218.546 216.713C217.655 221.623 199.913 234.789 183.786 238.359Z" fill="#263238"/>
<path d="M183.786 238.359C183.786 238.359 173.678 235.68 165.422 230.103C157.166 224.527 150.718 218.053 139.212 219.392" stroke="white" stroke-width="1.1" stroke-linecap="round" stroke-linejoin="round"/>
<path d="M163.531 228.789C168.749 227.289 172.575 223.911 176.761 220.674C181.177 217.13 185.914 214.015 190.92 211.367" stroke="white" stroke-width="1.1" stroke-linecap="round" stroke-linejoin="round"/>
<path d="M161.691 121.239H163.223" stroke="#263238" stroke-width="1.1" stroke-linecap="round" stroke-linejoin="round"/>
</svg>
