<svg width="71" height="70" viewBox="0 0 71 70" fill="none" xmlns="http://www.w3.org/2000/svg">
<path d="M70.5733 26.0272L60.6386 8.8131L55.3736 11.9263C53.8399 12.8419 51.8942 12.7732 50.4291 11.766C49.6051 11.2166 48.7352 10.7131 47.8424 10.2781C46.263 9.47694 45.2329 7.87455 45.2329 6.08905V0H25.3634V6.08905C25.3634 7.87455 24.3333 9.47694 22.7538 10.2781C21.861 10.7131 20.9912 11.2166 20.1671 11.766C18.702 12.7732 16.7563 12.8419 15.2226 11.9263L9.95764 8.88177L0.0228906 26.0959L5.31074 29.1404C6.84445 30.0561 7.71431 31.75 7.59985 33.5355V36.4656C7.71431 38.2282 6.84445 39.9221 5.31074 40.8378L0 43.8823L9.93475 61.0964L15.1997 58.0519C16.7563 57.1591 18.6792 57.2507 20.1671 58.235C20.9912 58.7615 21.8381 59.2651 22.7309 59.723C24.3104 60.5242 25.3405 62.1265 25.3405 63.912V70.0011H45.21V63.912C45.21 62.1265 46.2401 60.5242 47.8196 59.723C48.7123 59.2651 49.5593 58.7615 50.3834 58.235C51.8713 57.2507 53.7941 57.1591 55.3507 58.0519L60.6157 61.0964L70.5504 43.8823L65.2626 40.8378C63.7289 39.9221 62.859 38.2282 62.9735 36.4656V33.5355C62.859 31.75 63.7289 30.0561 65.2626 29.1404L70.5733 26.0272ZM51.6882 34.9319C51.6882 43.9281 44.3859 51.2074 35.3897 51.1845C26.3935 51.1845 19.1141 43.8823 19.137 34.8861C19.137 25.9128 26.4393 18.6334 35.4126 18.6334C44.3859 18.6334 51.6882 25.9127 51.6882 34.909C51.6882 34.909 51.6882 34.909 51.6882 34.9319Z" fill="#EBEBEB"/>
</svg>
