<svg width="167" height="161" viewBox="0 0 167 161" fill="none" xmlns="http://www.w3.org/2000/svg">
<path d="M88.8176 15.7491L64.7132 0.80119L60.135 8.17213C58.7616 10.301 56.3351 11.5142 53.7941 11.3082C52.3978 11.3082 50.9785 11.148 49.5593 11.1709C47.0184 11.2167 44.6606 9.86607 43.4245 7.64564L39.327 0L14.3299 13.4142L18.4274 21.0598C19.5948 23.3032 19.4117 26.0272 17.9695 28.1103C17.1684 29.2777 16.4129 30.3994 15.6804 31.7042C14.4901 33.9475 12.1095 35.3439 9.56854 35.2752L0.892787 35.0005L0 63.3397L8.72151 63.6144C11.2395 63.7289 13.5058 65.2397 14.5359 67.5517C14.8335 68.1927 15.154 68.8107 15.4973 69.4288C15.8407 70.0468 16.1611 70.642 16.5274 71.2372C17.8322 73.4118 17.8322 76.113 16.5274 78.2876L11.9492 85.7272L36.0535 100.675L40.6317 93.2813C42.0052 91.1296 44.4546 89.9392 46.9955 90.1452C48.3918 90.2826 49.8111 90.3284 51.2074 90.2826C53.7483 90.2368 56.0833 91.5874 57.3194 93.8078L61.4398 101.476L86.4369 88.0622L82.3394 80.3936C81.149 78.1503 81.3093 75.4492 82.7743 73.3661C83.6213 72.2215 84.3767 71.0083 85.0634 69.7721C86.2766 67.5288 88.6573 66.1553 91.1982 66.2011L99.8969 66.4758L100.813 38.045L92.1139 37.7704C89.573 37.6788 87.3068 36.1451 86.2538 33.8331C85.9562 33.215 85.6586 32.5741 85.3153 31.956C84.9719 31.3379 84.6514 30.7428 84.2851 30.1476C82.9575 27.973 82.9575 25.2489 84.2851 23.0743L88.8176 15.7491ZM70.9167 39.739C76.9829 51.0472 72.7251 65.1252 61.4169 71.1914C50.1087 77.2575 36.0306 72.9998 29.9645 61.6916C23.8983 50.3834 28.1561 36.3053 39.4643 30.2392C50.7726 24.173 64.8506 28.4308 70.9167 39.739Z" fill="#EBEBEB"/>
<path d="M166.922 116.813L156.987 99.5992L151.722 102.644C150.166 103.514 148.266 103.468 146.778 102.484C145.954 101.934 145.084 101.431 144.191 100.996C142.612 100.194 141.604 98.5691 141.582 96.7836V90.6946H121.712V96.7607C121.712 98.5462 120.682 100.171 119.102 100.973C118.21 101.408 117.34 101.911 116.516 102.461C115.028 103.445 113.128 103.491 111.571 102.621L106.306 99.5763L96.3715 116.79L101.659 119.835C103.193 120.751 104.063 122.445 103.949 124.23V127.137C104.063 128.9 103.193 130.594 101.659 131.509L96.3486 134.577L106.283 151.791L111.548 148.746C113.105 147.854 115.028 147.945 116.516 148.93C117.34 149.456 118.187 149.96 119.08 150.395C120.659 151.196 121.666 152.821 121.689 154.607V160.696H141.559V154.607C141.559 152.821 142.589 151.196 144.168 150.395C145.061 149.96 145.908 149.456 146.732 148.93C148.22 147.945 150.143 147.854 151.699 148.746L156.964 151.791L166.899 134.577L161.611 131.532C160.078 130.617 159.208 128.923 159.322 127.16V124.23C159.185 122.445 160.078 120.751 161.611 119.835L166.922 116.813ZM147.922 125.718C147.922 134.714 140.62 141.994 131.624 141.971C122.628 141.948 115.348 134.668 115.371 125.672C115.371 116.699 122.673 109.42 131.647 109.42C140.62 109.42 147.899 116.676 147.922 125.649C147.922 125.649 147.922 125.695 147.922 125.718Z" fill="#EBEBEB"/>
</svg>
