<svg width="386" height="222" viewBox="0 0 386 222" fill="none" xmlns="http://www.w3.org/2000/svg">
<path d="M385.258 139.574H0V156.124H385.258V139.574Z" fill="#EBEBEB"/>
<path d="M56.0145 221.226H41.0209L35.0005 156.101H56.0145V221.226Z" fill="#EBEBEB"/>
<path d="M329.243 221.226H344.237L350.257 156.101H329.243V221.226Z" fill="#EBEBEB"/>
<path d="M35.0005 156.101H56.0145V178.535H37.0607L35.0005 156.101Z" fill="#DBDBDB"/>
<path d="M350.257 156.101L348.197 178.535H329.243V156.101H350.257Z" fill="#DBDBDB"/>
<path d="M139.521 40.318C122.422 63.4838 104.59 90.3579 100.24 119.384C100.24 119.819 100.904 119.956 100.996 119.521C102.964 111.601 105.505 103.841 108.573 96.2867C119.812 93.1964 130.846 90.6555 136.729 79.4847C142.612 68.3138 141.994 53.0683 140.849 40.5698C140.758 39.9059 139.865 39.883 139.521 40.318Z" fill="#EBEBEB"/>
<path d="M108.733 96.0578C116.264 78.4088 126.405 61.9958 138.812 47.3684C138.812 47.3684 139.018 47.3684 138.949 47.5058C131.097 57.6007 124.184 68.3825 118.347 79.7593C124.001 74.0137 130.205 68.8632 135.561 62.7741C135.561 62.6597 135.836 62.7741 135.744 62.9573C130.411 69.3439 124.596 76.2799 117.66 81.0184C115.806 84.4291 113.929 87.8857 112.029 91.3194L113.448 90.6784C113.448 90.6784 113.609 90.6784 113.448 90.8158C112.899 91.0904 112.395 91.3651 111.846 91.594L109.122 96.4699C109.076 96.7446 108.573 96.4241 108.733 96.0578Z" fill="#A6A6A6"/>
<path d="M114.456 90.0603C119.057 87.4965 123.429 84.5436 127.572 81.293C127.572 81.293 127.847 81.293 127.732 81.4533C123.726 84.9098 119.331 87.9086 114.639 90.3808C114.433 90.4953 114.227 90.1748 114.456 90.0603Z" fill="#A6A6A6"/>
<path d="M98.3861 119.109C98.4319 119.269 98.615 119.384 98.7753 119.338C98.8897 119.315 98.9584 119.224 99.0042 119.109C99.0042 109.541 99.0042 99.9493 99.1644 90.335C101.614 85.3905 106.856 82.6665 110.61 78.7063C113.265 75.8221 115.554 72.6173 117.477 69.2065C121.872 61.0344 124.574 52.0611 125.398 42.836C126.405 32.6036 122.513 -1.13789 118.21 0.0295609C115.921 0.62473 108.733 17.3581 106.764 22.9207C103.628 32.0313 101.339 41.4167 99.8969 50.9394C96.3717 73.3727 96.6693 96.4698 98.3861 119.109Z" fill="#EBEBEB"/>
<path d="M98.3173 77.8593C99.233 65.7041 101.179 53.6405 104.109 41.8058C106.856 29.1699 110.06 17.2665 116.584 5.98121C116.584 5.77519 116.996 5.98121 116.905 6.18723C112.556 14.9545 109.191 24.1568 106.879 33.6566C107.314 32.9698 107.84 32.3289 108.298 31.6879C108.481 31.4132 108.893 31.6879 108.733 31.9168C108.138 32.947 107.474 33.9084 106.695 34.8011C104.406 43.8431 102.85 53.114 101.476 62.2705L101.774 61.9271C101.774 61.9271 101.98 61.9271 101.911 61.9271L101.385 62.8428C100.675 67.421 100.034 72.1823 99.3932 76.8063C107.932 69.939 114.616 61.0572 118.851 50.9623C115.28 61.744 108.389 71.1065 99.1643 77.722C99.0041 78.981 98.8209 80.2171 98.6378 81.4532C98.6378 81.7279 98.2029 81.6593 98.2029 81.4532V78.134C98.2029 78.134 98.2029 77.9051 98.3173 77.8593Z" fill="#A6A6A6"/>
<path d="M102.232 60.3477C108.733 51.1226 114.41 41.3709 119.217 31.1615C119.217 31.1615 119.469 31.1615 119.423 31.1615C115.6 41.8974 109.9 51.8551 102.552 60.5537C102.415 60.7597 102.117 60.5537 102.232 60.3477Z" fill="#A6A6A6"/>
<path d="M110.701 28.8723C113.334 24.2941 116.127 19.7159 118.599 14.9088C118.599 14.7714 118.851 14.9088 118.805 14.9088C116.79 19.8761 114.227 24.5917 111.159 28.9868C110.93 29.2386 110.541 29.0326 110.701 28.8723Z" fill="#A6A6A6"/>
<path d="M93.6934 94.6157C93.5332 100.957 92.7778 107.274 91.4043 113.455C91.4043 114.142 91.5875 114.806 91.7019 115.515C93.6705 108.671 94.838 101.643 95.1356 94.5241C95.2729 94.3181 95.2729 94.0663 95.1356 93.8603C95.4103 84.3605 94.7007 74.8607 93.0525 65.4982C90.0995 47.9178 83.6213 31.1615 71.3746 17.8847C71.0083 17.5642 70.4589 17.61 70.1385 17.9762C70.0927 18.022 70.0469 18.0907 70.024 18.1594C65.0795 30.7495 66.7964 45.6287 71.0083 58.2875C73.2975 65.0862 76.5709 71.4957 80.7142 77.3329C84.9261 83.1701 90.2827 88.1604 93.6934 94.6157Z" fill="#EBEBEB"/>
<path d="M72.8166 23.6761C84.4224 42.5384 92.503 64.8801 93.4186 87.1303C93.4186 87.5423 92.7548 87.6339 92.709 87.1303C92.4343 85.1159 92.1367 83.1472 91.7933 81.1557C86.7344 76.6919 82.3164 71.5872 78.608 65.956C78.608 65.956 78.608 65.7271 78.7683 65.8187C82.7513 70.7174 87.032 75.3643 91.5644 79.7593C90.7403 74.8378 89.756 69.9848 88.5886 65.2006C88.2681 64.8572 87.9705 64.491 87.6729 64.1247C87.3753 63.7585 87.8103 63.5524 88.0163 63.7813L88.291 64.1018C86.6886 57.5779 84.6971 51.1683 82.3164 44.8962C79.1117 41.6227 76.2731 37.9831 73.8925 34.0687M74.0527 34.0687C75.7924 36.4951 77.4635 38.9445 79.4321 41.1878C80.2104 42.0806 81.0574 42.9275 81.8815 43.7974C79.2032 36.9758 76.0214 30.3603 72.3588 23.9966C72.2672 23.8592 72.2901 23.699 72.4274 23.6074C72.5648 23.5159 72.725 23.5388 72.8166 23.6761L74.0527 34.0687Z" fill="#A6A6A6"/>
<path d="M75.1744 46.9334C78.9285 51.9924 83.1863 56.7995 86.6199 62.0187C86.6199 62.1789 86.6199 62.3163 86.3681 62.2018C81.9273 57.6465 78.0816 52.5646 74.9226 47.0708C74.8081 46.9105 75.0599 46.7732 75.1744 46.9334Z" fill="#A6A6A6"/>
<path d="M87.2152 63.209L87.3755 63.3693C87.3755 63.3693 87.3755 63.6668 87.1923 63.5524L87.0321 63.3922C87.0321 63.3922 87.1008 63.0717 87.2152 63.209Z" fill="#A6A6A6"/>
<path d="M52.8328 55.1513C54.2062 65.6355 58.4411 75.5702 65.0795 83.811C67.8265 87.0616 71.2143 89.694 75.0143 91.5711C79.3178 93.7 83.8274 96.1493 88.2911 97.8891C90.3513 103.291 91.885 108.877 92.8693 114.577C93.0067 114.096 93.144 113.592 93.3043 113.112C90.5573 88.6411 74.6709 67.6499 54.3436 54.1899C53.8858 53.8923 53.2677 54.0297 52.993 54.4875C52.8557 54.6935 52.8099 54.9224 52.8328 55.1513Z" fill="#EBEBEB"/>
<path d="M59.8374 62.4079C59.7 62.2705 59.8374 62.0187 60.0663 62.1332C71.2372 70.4427 80.1418 81.4075 85.9791 94.0434C86.1164 94.3868 85.6586 94.6843 85.4754 94.341C84.514 92.6928 83.5526 91.0676 82.5912 89.4881C77.8756 88.2062 73.5721 85.711 70.1155 82.2316C70.1155 82.2316 70.1155 82.0256 70.2529 82.0942C72.0155 83.7195 73.9841 85.093 76.113 86.2146C78.0358 87.0845 80.0045 87.8399 82.0189 88.5037C80.3021 85.7797 78.5165 83.1701 76.6395 80.6292C71.6263 78.7292 66.9336 76.0968 62.6988 72.8004C62.653 72.7547 62.653 72.6631 62.6988 72.6173C62.7446 72.5715 62.7903 72.5715 62.8361 72.5715C67.0252 75.0896 71.3516 77.3787 75.7925 79.4389C72.954 75.7076 69.8866 72.1595 66.6361 68.7945C65.0566 67.9475 63.4542 67.1234 61.9205 66.2307C61.9205 66.2307 61.9205 65.9331 61.9205 65.9789C63.1795 66.4367 64.3927 67.0319 65.5144 67.7644C63.7518 66.0247 61.8747 64.1934 59.8374 62.4079Z" fill="#A6A6A6"/>
<path d="M60.2724 70.8776C60.5471 71.0378 60.8218 71.2438 61.0736 71.4498C61.0736 71.4498 61.0736 71.6101 60.9591 71.5643C60.6844 71.427 60.4097 71.2896 60.1579 71.1065C59.9977 71.0149 60.1579 70.786 60.2724 70.8776Z" fill="#A6A6A6"/>
<path d="M118.393 139.574H76.548L78.6082 112.127L79.3865 103.2H115.165L115.966 112.127L118.393 139.574Z" fill="#DBDBDB"/>
<path d="M115.966 112.127H78.6082L79.3865 103.2H115.165L115.966 112.127Z" fill="#C7C7C7"/>
<path d="M118.027 95.8518H76.548V105.031H118.027V95.8518Z" fill="#DBDBDB"/>
<path d="M220.075 39.9059H194.987V139.505H220.075V39.9059Z" fill="#C7C7C7"/>
<path d="M220.098 34.5722H195.01V45.5142H220.098V34.5722Z" fill="#DBDBDB"/>
<path d="M220.075 59.5464H194.987V63.5982H220.075V59.5464Z" fill="#DBDBDB"/>
<path d="M220.098 115.492H195.01V126.434H220.098V115.492Z" fill="#DBDBDB"/>
<path d="M237.61 23.3099H220.075V139.482H237.61V23.3099Z" fill="#DBDBDB"/>
<path d="M234.016 34.2518H223.486V78.9352H234.016V34.2518Z" fill="#EBEBEB"/>
<path d="M279.806 45.2552L267.479 57.7252L350.097 139.397L362.424 126.927L279.806 45.2552Z" fill="#C7C7C7"/>
<path d="M308.866 78.7871L301.463 86.2756L333.24 117.689L340.643 110.201L308.866 78.7871Z" fill="#DBDBDB"/>
<path d="M267.368 51.2599H237.61V139.505H267.368V51.2599Z" fill="#A6A6A6"/>
<path d="M267.368 121.948H237.61V130.166H267.368V121.948Z" fill="#C7C7C7"/>
<path d="M267.368 113.341H237.61V116.522H267.368V113.341Z" fill="#C7C7C7"/>
<path d="M176.264 55.2393L143.552 131.45L162.442 139.558L195.153 63.3471L176.264 55.2393Z" fill="#A6A6A6"/>
<path d="M150.086 116.297L147.035 123.407L165.924 131.515L168.976 124.405L150.086 116.297Z" fill="#C7C7C7"/>
<path d="M169.539 70.9948L166.487 78.1048L185.377 86.2126L188.428 79.1027L169.539 70.9948Z" fill="#C7C7C7"/>
<path d="M164.385 82.9137L163.202 85.6693L182.092 93.7772L183.275 91.0215L164.385 82.9137Z" fill="#C7C7C7"/>
</svg>
